<!DOCTYPE svg PUBLIC "-//W3C//DTD SVG 1.1//EN" "http://www.w3.org/Graphics/SVG/1.1/DTD/svg11.dtd" >
<svg xmlns="http://www.w3.org/2000/svg">
<metadata></metadata>
<defs>
<font id="nissan_proregular_italic" horiz-adv-x="542" >
<font-face units-per-em="1000" ascent="750" descent="-250" />
<missing-glyph horiz-adv-x="271" />
<glyph horiz-adv-x="1000" />
<glyph horiz-adv-x="1000" />
<glyph unicode="&#xd;" horiz-adv-x="1000" />
<glyph unicode=" "  horiz-adv-x="271" />
<glyph unicode="&#x09;" horiz-adv-x="271" />
<glyph unicode="&#xa0;" horiz-adv-x="271" />
<glyph unicode="!" horiz-adv-x="271" d="M75 0l25 110h100l-26 -110h-99zM150 226l37 259l51 221h91l-54 -233l-78 -247h-47z" />
<glyph unicode="&#x22;" horiz-adv-x="347" d="M142 449l40 294h88l-96 -294h-32zM312 449l39 294h88l-95 -294h-32z" />
<glyph unicode="#" horiz-adv-x="667" d="M66 229l13 77h149l35 108h-142l14 77h152l68 214h80l-68 -214h110l69 214h78l-67 -214h138l-14 -77h-148l-35 -108h139l-14 -77h-150l-73 -229h-79l73 229h-111l-73 -229h-81l75 229h-138zM307 306h112l34 108h-111z" />
<glyph unicode="$" horiz-adv-x="667" d="M59 235l92 18q-1 -12 -1 -30q0 -60 37.5 -104.5t94.5 -56.5l65 282q-87 34 -133 74t-46 104q0 25 7.5 50.5t26.5 52.5t48 47.5t75 34t104 13.5l18 77h67l-18 -81q84 -15 136 -62.5t58 -124.5l-91 -22q-10 66 -38.5 94t-81.5 44l-52 -242q5 -2 35 -15t44 -20t40.5 -24.5 t40 -34.5t25 -44.5t11.5 -58.5q0 -93 -73.5 -156t-204.5 -63h-12l-22 -94h-68l22 98q-91 13 -148.5 72t-57.5 172zM261 529q0 -35 26.5 -56.5t78.5 -39.5l47 216q-58 0 -105 -32.5t-47 -87.5zM350 57q71 0 126.5 39t55.5 104q0 17 -6.5 32t-12.5 24.5t-23 20.5t-23.5 14.5 t-30 14t-26.5 12.5z" />
<glyph unicode="%" horiz-adv-x="917" d="M91 389q0 65 20 127t69 109.5t117 47.5q45 0 75 -21t42.5 -54t16.5 -56t4 -44q0 -41 -12 -87.5t-35 -91.5t-64.5 -74t-94.5 -29q-22 0 -43.5 7.5t-44 25t-36.5 54t-14 86.5zM151 374q0 -50 22 -81.5t60 -31.5q58 0 100 76t42 169q0 121 -80 121q-64 0 -104 -79t-40 -174z M294 -6l363 697l43 -22l-362 -698zM563 165q0 65 20 127t69 109.5t117 47.5q36 0 63.5 -15t41 -35.5t22 -47.5t10.5 -44.5t2 -32.5q0 -32 -7 -68.5t-23 -75t-39.5 -69t-59 -50t-78.5 -19.5q-22 0 -43.5 7.5t-44 25t-36.5 54t-14 86.5zM623 150q0 -58 26 -85.5t56 -27.5 q58 0 100 76t42 169q0 122 -80 122q-56 0 -100 -74.5t-44 -179.5z" />
<glyph unicode="&#x26;" horiz-adv-x="625" d="M55 156q0 71 50 131.5t113 99.5q-9 81 -9 90q0 53 19 103.5t57 79.5q46 35 103 35q18 0 39 -5.5t44 -18t38.5 -37.5t15.5 -58q0 -62 -59 -120q-9 -9 -19.5 -17.5t-17.5 -13.5t-24 -15.5t-24 -14.5t-33.5 -19.5t-37.5 -21.5q20 -45 34.5 -72t40 -63.5t56.5 -66.5 q51 47 108 126l65 -41q-58 -84 -116 -136q31 -20 89 -39l-18 -74q-68 16 -136 62q-89 -59 -186 -59q-52 0 -88 14q-48 19 -76 59.5t-28 91.5zM144 160q0 -48 29.5 -72.5t73.5 -24.5q69 0 125 44q-78 85 -131 206q-97 -67 -97 -153zM289 480q0 -9 5 -54q9 5 27 14.5t26 14 t23.5 17t33.5 29.5q43 42 43 76q0 21 -13 34t-24 16t-21 3q-45 0 -73 -45q-27 -41 -27 -105z" />
<glyph unicode="'" horiz-adv-x="177" d="M142 449l40 294h88l-96 -294h-32z" />
<glyph unicode="(" horiz-adv-x="315" d="M82 211q0 189 98 342.5t266 246.5l31 -44q-151 -95 -229.5 -236t-78.5 -318q0 -100 25 -176t81 -144l-44 -42q-149 155 -149 371z" />
<glyph unicode=")" horiz-adv-x="315" d="M-79 -117q308 204 308 554q0 192 -106 320l44 42q148 -154 148 -371q0 -189 -97 -341.5t-266 -247.5z" />
<glyph unicode="*" horiz-adv-x="349" d="M122 612l30 52l93 -51l24 101l60 -14l-24 -102l108 9l8 -58l-110 -11l43 -96l-56 -24l-44 97l-77 -69l-41 46l77 69z" />
<glyph unicode="+" horiz-adv-x="724" d="M127 263l18 77h224l52 228h88l-53 -228h225l-18 -77h-225l-52 -230h-88l53 230h-224z" />
<glyph unicode="," horiz-adv-x="229" d="M8 -154q50 88 64 154h-41l26 110h95q-18 -146 -95 -264h-49z" />
<glyph unicode="-" horiz-adv-x="370" d="M70 262l18 76h280l-17 -76h-281z" />
<glyph unicode="." horiz-adv-x="229" d="M34 0l23 110h100l-22 -110h-101z" />
<glyph unicode="/" horiz-adv-x="313" d="M18 0l289 706h78l-287 -706h-80z" />
<glyph unicode="0" horiz-adv-x="583" d="M76 248q0 109 36 206t108 160t165 63q105 0 157 -76t52 -189q0 -72 -20.5 -145t-58 -136t-98 -103t-133.5 -40q-95 0 -151.5 68.5t-56.5 191.5zM162 226q0 -82 36 -128t90 -46q67 0 119.5 63.5t77 147t24.5 163.5q0 57 -12.5 96.5t-33 57.5t-39.5 25.5t-40 7.5 q-93 0 -157.5 -117.5t-64.5 -269.5z" />
<glyph unicode="1" horiz-adv-x="583" d="M178 491l16 68q1 0 6.5 -0.5t14.5 -0.5h16q45 0 78 13t50 36t23 36.5t12 33.5h82l-156 -677h-83l120 518q-50 -30 -128 -30q-25 0 -51 3z" />
<glyph unicode="2" horiz-adv-x="583" d="M30 0l20 86q145 78 269 174q19 14 39.5 33.5t50 53t48.5 75t19 81.5q0 53 -31.5 79.5t-76.5 26.5q-55 0 -97.5 -42.5t-42.5 -120.5q0 -12 3 -42l-91 19v12q0 109 59 175.5t170 66.5q32 0 64 -8.5t63 -26.5t50 -53.5t19 -83.5q0 -108 -87 -208q-105 -123 -334 -227 q334 5 358 5l-17 -75h-455z" />
<glyph unicode="3" horiz-adv-x="583" d="M45 200l90 10q2 -27 10 -52t24.5 -49.5t47.5 -39t74 -14.5q67 0 108.5 38t41.5 95q0 69 -64 101q-26 13 -56 16.5t-101 5.5l17 68q20 -2 44 -2q34 0 66 6t62.5 20t49 41.5t18.5 65.5q0 49 -32.5 74.5t-79.5 25.5q-36 0 -63 -12.5t-42 -33t-22.5 -37t-10.5 -32.5 q-2 -10 -3 -22t-1 -13l-92 17q12 62 35 100q59 100 200 100q55 0 95.5 -16.5t61.5 -43t31 -54t10 -55.5q0 -70 -50.5 -116t-124.5 -49q66 -7 104 -50t38 -106q0 -52 -24 -92.5t-62 -62.5t-79.5 -33t-82.5 -11q-116 0 -177 63.5t-61 148.5z" />
<glyph unicode="4" horiz-adv-x="583" d="M59 182l16 72l397 423h82l-91 -423h91l-17 -72h-91l-42 -182h-79l42 182h-308zM172 254h212l80 326z" />
<glyph unicode="5" horiz-adv-x="583" d="M47 187l82 13q6 -44 24 -75.5t42 -45.5t44.5 -19.5t40.5 -5.5q77 0 132.5 58.5t55.5 144.5q0 64 -33.5 97.5t-82.5 33.5q-45 0 -84.5 -24t-60.5 -56l-89 14l93 343h376l-17 -71h-307l-56 -209q21 21 35.5 32.5t48 25t73.5 13.5q86 0 138 -55t52 -140q0 -57 -23.5 -111.5 t-64.5 -93.5q-72 -68 -183 -68q-101 0 -165 54q-61 52 -71 145z" />
<glyph unicode="6" horiz-adv-x="583" d="M94 257q0 92 34 179t82 140q90 101 211 101q72 0 128 -40q57 -41 73 -120l-86 -17q-3 45 -35 76t-82 31q-43 0 -81 -21t-64 -52.5t-46.5 -72t-31.5 -75t-16 -65.5q15 24 26.5 39t36 39t59 36.5t76.5 12.5q87 0 140.5 -55t53.5 -146q0 -44 -15 -88t-44 -83t-79.5 -63.5 t-114.5 -24.5q-109 0 -167 73t-58 196zM192 195q0 -60 35.5 -100t95.5 -40q74 0 120 58t46 132q0 65 -34 99.5t-88 34.5q-78 0 -126.5 -57t-48.5 -127z" />
<glyph unicode="7" horiz-adv-x="583" d="M117 471l45 194h414q-2 -35 -18 -82q-7 -21 -18 -44t-22 -41t-33 -55.5t-40 -68.5q-123 -219 -163 -374h-100q20 70 65.5 169.5t93.5 180.5q23 38 63 98q64 95 73 148h-255l-29 -125h-76z" />
<glyph unicode="8" horiz-adv-x="583" d="M70 164q0 67 43 121t104 66q-79 41 -79 123q0 79 61 141t174 62q89 0 145 -44t56 -120q0 -63 -36.5 -104.5t-91.5 -57.5q48 -12 77 -54t29 -92q0 -88 -68 -152.5t-194 -64.5q-106 0 -163 50.5t-57 125.5zM154 168q0 -56 41.5 -87.5t99.5 -31.5q70 0 121.5 44t51.5 109 q0 49 -38 83t-96 34q-72 0 -126 -42t-54 -109zM222 481q0 -40 28.5 -70.5t92.5 -30.5q70 0 108.5 40.5t38.5 88.5q0 47 -33.5 74.5t-88.5 27.5q-71 0 -108.5 -42t-37.5 -88z" />
<glyph unicode="9" horiz-adv-x="583" d="M42 151l82 10q11 -53 46 -78.5t81 -25.5q53 0 96 26t70.5 69.5t44 88t25.5 94.5q-74 -121 -197 -121q-87 0 -140 55.5t-53 142.5q0 107 69.5 186t188.5 79q109 0 164.5 -72.5t55.5 -185.5q0 -74 -20.5 -147.5t-59 -138t-103.5 -105t-146 -40.5q-76 0 -136 41t-68 122z M180 413q0 -63 34.5 -96.5t86.5 -33.5q67 0 122.5 49t55.5 139q0 64 -34.5 102t-92.5 38q-44 0 -78.5 -19.5t-54 -50.5t-29.5 -64t-10 -64z" />
<glyph unicode=":" horiz-adv-x="271" d="M74 0l26 111h99l-26 -111h-99zM157 381l25 111h98l-25 -111h-98z" />
<glyph unicode=";" horiz-adv-x="271" d="M53 -155q46 89 63 155h-42l25 109h98q-9 -67 -34 -140t-60 -124h-50zM154 382l26 110h100l-25 -110h-101z" />
<glyph unicode="&#x3c;" horiz-adv-x="724" d="M149 262l21 90l520 232l-23 -94l-427 -189l341 -189l-20 -86z" />
<glyph unicode="=" horiz-adv-x="724" d="M105 164l18 76h526l-18 -76h-526zM148 351l19 77h525l-18 -77h-526z" />
<glyph unicode="&#x3e;" horiz-adv-x="724" d="M98 17l23 95l427 188l-341 190l20 85l412 -236l-21 -90z" />
<glyph unicode="?" d="M142 495q8 94 70 156t166 62q103 0 160 -56t57 -133q0 -73 -47.5 -130t-144.5 -69l-34 -149h-78l50 215h13q64 0 108 35t44 97q0 56 -34.5 87t-89.5 31q-76 0 -114 -48.5t-39 -111.5zM244 0l25 112h92l-25 -112h-92z" />
<glyph unicode="@" horiz-adv-x="862" d="M80 218q0 133 65 247t175.5 180.5t239.5 66.5q130 0 207.5 -75t77.5 -201q0 -137 -77 -251.5t-169 -114.5q-76 0 -78 85q-64 -84 -145 -84q-58 0 -92 41t-34 112q0 113 68 203t153 90q79 0 112 -84l17 62h68q-53 -212 -62 -258q-10 -50 -10 -66q0 -41 29 -41 q16 0 39.5 17t43.5 44q37 50 58 114t21 128q0 104 -64 164.5t-174 60.5q-107 0 -203 -60.5t-153 -162t-57 -215.5q0 -131 87 -210t231 -79q106 0 199 47q73 38 140 99l30 -41q-165 -160 -371 -160q-165 0 -268.5 95t-103.5 247zM329 231q0 -44 20.5 -69.5t56.5 -25.5 q59 0 104 71t45 146q0 46 -20.5 73.5t-58.5 27.5q-56 0 -101.5 -69t-45.5 -154z" />
<glyph unicode="A" horiz-adv-x="667" d="M0 0l409 706h108l90 -706h-91l-25 222h-268l-128 -222h-95zM265 295h218l-35 353z" />
<glyph unicode="B" horiz-adv-x="708" d="M57 0l163 706h274q107 0 159.5 -46t52.5 -118q0 -43 -16.5 -76.5t-43.5 -53t-55 -30t-58 -14.5q57 -1 99 -41.5t42 -107.5q0 -20 -5.5 -44.5t-22.5 -56.5t-44 -57.5t-76.5 -43t-113.5 -17.5h-355zM161 74h244q97 0 137 45t40 105q0 55 -39.5 82t-96.5 27h-225zM238 407 h216q81 0 121 38t40 93q0 37 -24 66.5t-75 29.5h-225z" />
<glyph unicode="C" horiz-adv-x="771" d="M87 312q0 171 104.5 289.5t278.5 118.5q71 0 127 -18.5t91 -50.5t56.5 -68t32.5 -78l-89 -17q-7 29 -21 54t-38 51t-65.5 41t-94.5 15q-64 0 -115.5 -24t-82.5 -60.5t-52 -83.5t-29 -89.5t-8 -81.5q0 -111 54.5 -181t171.5 -70q182 0 262 186l89 -12 q-49 -120 -141.5 -183t-213.5 -63q-58 0 -110.5 16t-100.5 51t-77 101.5t-29 156.5z" />
<glyph unicode="D" horiz-adv-x="729" d="M58 0l163 706h241q124 0 197 -69.5t73 -203.5q0 -55 -11.5 -112t-40 -115.5t-70.5 -103.5t-108.5 -73.5t-147.5 -28.5h-296zM163 72h176q60 0 109 15t94 65q42 46 66.5 109.5t30 101.5t5.5 69q0 83 -32 131q-28 43 -73 57t-106 14h-141z" />
<glyph unicode="E" horiz-adv-x="625" d="M56 0l163 706h459l-17 -75h-370l-54 -233h339l-16 -70h-339l-59 -253h420l-17 -75h-509z" />
<glyph unicode="F" horiz-adv-x="562" d="M57 0l163 706h455l-17 -74h-367l-53 -230h342l-17 -72h-342l-76 -330h-88z" />
<glyph unicode="G" horiz-adv-x="792" d="M94 302q0 97 33.5 177.5t89.5 132t127.5 80t149.5 28.5q109 0 194 -56t109 -160l-94 -12q-52 153 -208 153q-65 0 -118.5 -22.5t-87.5 -58.5t-57.5 -82t-33.5 -91.5t-10 -88.5q0 -44 10.5 -83.5t33.5 -77t68 -60t107 -22.5q105 0 174.5 60.5t87.5 173.5h-265l16 73h345 l-84 -366h-80l20 88q-28 -49 -92.5 -75t-136.5 -26q-144 0 -221 89.5t-77 225.5z" />
<glyph unicode="H" horiz-adv-x="750" d="M58 0l163 706h87l-68 -295h390l68 295h87l-163 -706h-87l78 337h-390l-78 -337h-87z" />
<glyph unicode="I" horiz-adv-x="271" d="M57 0l163 706h86l-163 -706h-86z" />
<glyph unicode="J" horiz-adv-x="437" d="M17 6l19 85q52 -24 101 -24q31 0 54.5 11.5t37 25.5t25.5 43t16 45t12 50l107 464h88l-112 -485q-11 -47 -20 -76t-26 -62.5t-39.5 -52t-58.5 -31t-84 -12.5q-63 0 -120 19z" />
<glyph unicode="K" horiz-adv-x="646" d="M58 0l163 706h85l-77 -332l419 332h118l-335 -267l194 -439h-96l-168 384l-158 -125l-60 -259h-85z" />
<glyph unicode="L" d="M57 0l163 706h88l-146 -630h335l-17 -76h-423z" />
<glyph unicode="M" horiz-adv-x="833" d="M58 0l163 706h105l72 -632l366 632h104l-163 -706h-84l153 600l-343 -600h-95l-67 611l-127 -611h-84z" />
<glyph unicode="N" horiz-adv-x="729" d="M57 0l163 706h95l231 -611l133 611h84l-163 -706h-91l-234 613l-133 -613h-85z" />
<glyph unicode="O" horiz-adv-x="792" d="M96 308q0 177 104.5 294.5t276.5 117.5q152 0 234 -91t82 -231q0 -178 -111.5 -294.5t-274.5 -116.5q-142 0 -226.5 89.5t-84.5 231.5zM191 307q0 -107 60 -178.5t162 -71.5q90 0 157 52t98.5 129t31.5 165q0 123 -65 185t-158 62q-61 0 -111.5 -22.5t-82 -58.5 t-53 -82.5t-30.5 -91t-9 -88.5z" />
<glyph unicode="P" horiz-adv-x="646" d="M56 0l163 706h285q89 0 145 -46.5t56 -133.5q0 -101 -73 -163t-208 -62h-211l-69 -301h-88zM230 375h165q45 0 70.5 2t60 15.5t57.5 40.5q34 39 34 92q0 48 -30 77t-84 29h-213z" />
<glyph unicode="Q" horiz-adv-x="792" d="M85 311q0 74 25 146t70.5 131t118.5 95.5t160 36.5q58 0 111.5 -18.5t98.5 -55.5t72 -100.5t27 -146.5q0 -98 -32.5 -174t-79.5 -124l90 -72l-63 -60l-96 76q-28 -22 -81.5 -40t-116.5 -18q-94 0 -164.5 45.5t-105 118t-34.5 160.5zM180 304q0 -63 18 -111t42.5 -73 t56.5 -40t54 -19t42 -4q117 0 199.5 96.5t82.5 245.5q0 110 -55 181t-160 71q-90 0 -155.5 -53t-95 -130t-29.5 -164z" />
<glyph unicode="R" horiz-adv-x="667" d="M57 0l163 706h285q80 0 125 -29q76 -47 76 -150q0 -82 -52.5 -138.5t-143.5 -69.5l122 -319h-96l-114 307h-207l-71 -307h-87zM232 381h205q92 0 136 43t44 104q0 45 -30 74t-84 29h-213z" />
<glyph unicode="S" horiz-adv-x="667" d="M61 228l94 18q0 -2 -0.5 -8t-0.5 -10q0 -73 45.5 -124t139.5 -51q97 0 145.5 43t48.5 100q0 44 -28 68t-83 46l-86 34q-21 8 -28.5 11t-29.5 13.5t-33 18.5t-28 23t-25.5 30t-15.5 36t-7 45q0 59 27.5 100.5t72 61.5t85.5 28.5t82 8.5q102 0 173.5 -45.5t81.5 -144.5 l-87 -21q-24 143 -172 143q-77 0 -123.5 -34.5t-46.5 -86.5q0 -21 8 -37t28 -29t37.5 -21.5t51.5 -21.5l81 -32q75 -29 115.5 -71t40.5 -110q0 -35 -12.5 -70t-41.5 -71t-88 -58.5t-140 -22.5q-39 0 -74 5t-74.5 20.5t-67.5 40.5t-46.5 70t-18.5 105z" />
<glyph unicode="T" d="M125 630l17 76h518l-17 -76h-216l-145 -630h-89l150 630h-218z" />
<glyph unicode="U" horiz-adv-x="708" d="M107 192q0 59 23 158l82 356h88l-85 -365q-18 -76 -18 -135q0 -42 14 -72t37.5 -44.5t48.5 -21t54 -6.5q54 0 91.5 15.5t63 51.5t40.5 78.5t31 110.5l89 388h88l-98 -424q-12 -54 -25 -91.5t-36.5 -79t-54.5 -66.5t-80.5 -41.5t-113.5 -16.5q-115 0 -177 56t-62 149z" />
<glyph unicode="V" horiz-adv-x="583" d="M142 706h89l46 -604l321 604h94l-389 -706h-93z" />
<glyph unicode="W" horiz-adv-x="1000" d="M128 706h85l57 -594l306 594h85l56 -594l302 594h92l-375 -706h-81l-53 613l-312 -613h-89z" />
<glyph unicode="X" horiz-adv-x="583" d="M-19 0l314 369l-138 337h91l109 -273l224 273h104l-296 -349l149 -357h-93l-120 294l-241 -294h-103z" />
<glyph unicode="Y" horiz-adv-x="583" d="M141 706h89l95 -319l276 319h106l-359 -399l-70 -307h-89l73 317z" />
<glyph unicode="Z" horiz-adv-x="583" d="M-1 0l21 90l502 537h-383l18 79h489l-18 -79l-512 -550h450l-18 -77h-549z" />
<glyph unicode="[" horiz-adv-x="277" d="M12 -144l213 923h185l-14 -59h-104l-186 -805h104l-14 -59h-184z" />
<glyph unicode="\" horiz-adv-x="375" d="M129 706h78l134 -706h-80z" />
<glyph unicode="]" horiz-adv-x="277" d="M-59 -144l14 60h104l185 805h-104l14 58h184l-213 -923h-184z" />
<glyph unicode="^" horiz-adv-x="724" d="M137 287l297 419h91l109 -419h-87l-79 338l-233 -338h-98z" />
<glyph unicode="_" horiz-adv-x="500" d="M-90 -214l18 75h519l-17 -75h-520z" />
<glyph unicode="`" horiz-adv-x="292" d="M72 683h101l47 -152h-53z" />
<glyph unicode="a" horiz-adv-x="500" d="M36 107q0 58 39.5 98.5t108.5 54.5q29 6 95.5 15t99.5 16q10 47 10 62q0 67 -91 67q-99 0 -115 -95l-89 8q8 23 16 39.5t25 38.5t38 35.5t56.5 23.5t79.5 10q60 0 110.5 -28.5t50.5 -84.5q0 -27 -9 -67l-43 -185q-4 -18 -4 -29q0 -24 25 -24q12 0 31 7l-15 -65 q-28 -7 -47 -7q-25 0 -47 13.5t-22 45.5q0 9 1 13q-16 -30 -56.5 -54.5t-107.5 -24.5q-74 0 -107 36t-33 81zM123 114q0 -26 19 -45.5t61 -19.5q23 0 53 10t48 24q9 7 16.5 16.5t12 16.5t8.5 18t5.5 16t3.5 14l2 10l13 56l-17 -2q-28 -3 -42.5 -5t-42.5 -7t-43.5 -10 t-36.5 -13.5t-32.5 -19t-19.5 -26t-8 -33.5z" />
<glyph unicode="b" horiz-adv-x="562" d="M44 0l164 706h76l-70 -305q56 79 155 79q83 0 128 -57t45 -140q0 -30 -6 -64.5t-24 -76.5t-45 -74.5t-74.5 -54.5t-107.5 -22q-123 0 -144 96l-20 -87h-77zM170 175q0 -69 35 -97t78 -28q55 0 97.5 37t62.5 89.5t20 108.5q0 55 -29 92.5t-88 37.5q-39 0 -80.5 -23 t-66.5 -81q-29 -65 -29 -136z" />
<glyph unicode="c" horiz-adv-x="509" d="M62 186q0 126 75 211.5t187 85.5q73 0 126.5 -37.5t58.5 -105.5l-74 -17q-4 18 -9 29.5t-17 29.5t-33.5 27.5t-52.5 9.5q-48 0 -85.5 -25.5t-56.5 -64t-28.5 -74t-9.5 -64.5q0 -59 31 -102t93 -43q45 0 83 27t56 80l82 -11q-65 -154 -227 -154q-26 0 -51.5 5t-53 18.5 t-48 35t-33.5 57.5t-13 82z" />
<glyph unicode="d" horiz-adv-x="562" d="M63 190q0 120 71 205t187 85q56 0 97 -26t45 -74l76 326h77l-163 -706h-77l14 64q-51 -73 -147 -73q-92 0 -136 57t-44 142zM145 193q0 -66 31.5 -103.5t86.5 -37.5q56 0 97 41.5t58.5 96t17.5 109.5q0 49 -27 84t-85 35q-75 0 -127 -65t-52 -160z" />
<glyph unicode="e" horiz-adv-x="521" d="M62 189q0 124 73 209t187 85q84 0 131 -49.5t47 -143.5q0 -31 -6 -63h-353q-2 -14 -2 -33q0 -37 10.5 -64.5t26 -42.5t35 -24t34 -11.5t27.5 -2.5q42 0 80 25.5t54 70.5l75 -13q-7 -20 -22 -42t-41 -46.5t-68.5 -40t-93.5 -15.5q-93 0 -143.5 55.5t-50.5 145.5zM156 285 h266q0 1 0.5 8t0.5 11q0 53 -29.5 85.5t-76.5 32.5q-55 0 -100 -40.5t-61 -96.5z" />
<glyph unicode="f" horiz-adv-x="271" d="M54 0l95 411h-75l14 60h74l30 130q26 114 115 114q37 0 59 -11l-14 -60q-21 4 -37 4q-22 0 -31.5 -13.5t-17.5 -48.5l-27 -115h84l-13 -60h-85l-95 -411h-76z" />
<glyph unicode="g" d="M13 -75q0 8 3 32l80 9q-6 -23 -6 -36q0 -35 28 -62.5t85 -27.5q27 0 48 6.5t37 21.5t27 30.5t21.5 43.5t16.5 48.5t15 57.5q-19 -17 -32 -26.5t-42 -20t-63 -10.5q-86 0 -127.5 59.5t-41.5 135.5q0 29 6.5 63.5t24.5 76t45 75t73 56.5t103 23q31 0 55.5 -8t41 -23.5 t23.5 -24t16 -22.5l15 69h76l-102 -445q-29 -128 -82.5 -187t-156.5 -59q-77 0 -132 37t-55 108zM143 186q0 -72 33.5 -103.5t77.5 -31.5q47 0 82 30t51.5 74t24 81t7.5 63q0 21 -4 39.5t-14 37.5t-31.5 30.5t-51.5 11.5q-47 0 -83 -24.5t-55 -62t-28 -74.5t-9 -71z" />
<glyph unicode="h" d="M45 0l163 706h78l-73 -315q60 92 167 92q64 0 98.5 -31t34.5 -80q0 -22 -11 -77l-68 -295h-79l70 304q7 28 7 47q0 33 -21.5 50.5t-55.5 17.5q-133 0 -176 -180l-56 -239h-78z" />
<glyph unicode="i" horiz-adv-x="229" d="M41 0l109 471h79l-108 -471h-80zM182 616l21 90h82l-21 -90h-82z" />
<glyph unicode="j" horiz-adv-x="229" d="M-97 -224l15 64q18 -2 32 -2q37 0 50 16.5t25 68.5l131 548h76l-127 -547q-21 -91 -48 -121.5t-101 -30.5q-29 0 -53 4zM186 617l20 89h80l-21 -89h-79z" />
<glyph unicode="k" horiz-adv-x="479" d="M41 0l163 706h78l-100 -431l249 196h105l-242 -190l180 -281h-96l-145 231l-74 -57l-40 -174h-78z" />
<glyph unicode="l" horiz-adv-x="229" d="M41 0l163 706h78l-163 -706h-78z" />
<glyph unicode="m" horiz-adv-x="792" d="M43 0l109 471h77l-18 -76q30 42 65.5 65t89.5 23q45 0 76 -23t36 -65q62 88 165 88q46 0 82.5 -26.5t36.5 -86.5q0 -29 -14 -90l-64 -280h-77l63 276q14 62 14 80q0 32 -20.5 48.5t-52.5 16.5q-50 0 -89.5 -34.5t-57.5 -112.5l-63 -274h-77l55 240q22 94 22 113 q0 68 -71 68q-46 0 -88.5 -38.5t-64.5 -133.5l-57 -249h-77z" />
<glyph unicode="n" d="M41 0l109 471h79l-16 -68q76 80 162 80q18 0 38.5 -5.5t43.5 -17.5t38 -37.5t15 -59.5q0 -28 -11 -79l-66 -284h-78l67 291q7 28 7 54q0 36 -22 55.5t-59 19.5q-76 0 -114 -47.5t-60 -140.5l-54 -232h-79z" />
<glyph unicode="o" d="M62 195q0 69 27.5 133t89.5 109.5t147 45.5q91 0 143.5 -60t52.5 -150q0 -111 -71.5 -198t-190.5 -87q-92 0 -145 58.5t-53 148.5zM142 189q0 -73 35 -107t83 -34q79 0 130.5 71.5t51.5 163.5q0 43 -13 73t-33 43t-36.5 18t-32.5 5q-86 0 -135.5 -72t-49.5 -161z" />
<glyph unicode="p" d="M-6 -215l158 686h78l-14 -59q55 68 140 68q13 0 28.5 -2t42.5 -13t47.5 -29t36 -55.5t15.5 -87.5q0 -37 -8 -76.5t-27.5 -80.5t-47 -72.5t-70.5 -52t-95 -20.5q-105 0 -138 90l-69 -296h-77zM167 167q0 -57 31.5 -84.5t76.5 -27.5q66 0 119.5 64.5t53.5 174.5 q0 65 -34 94t-77 29q-36 0 -74.5 -22t-63.5 -77q-32 -71 -32 -151z" />
<glyph unicode="q" d="M63 187q0 128 73.5 210.5t174.5 82.5q56 0 91.5 -23.5t42.5 -67.5l19 82h77l-158 -686h-77l64 280q-16 -22 -30 -35t-43 -26t-66 -13q-68 0 -118 49t-50 147zM145 186q0 -69 31.5 -100t73.5 -31q35 0 70.5 20.5t59.5 66.5q16 31 28.5 83t12.5 90q0 46 -28.5 74.5 t-75.5 28.5q-73 0 -122.5 -67t-49.5 -165z" />
<glyph unicode="r" horiz-adv-x="313" d="M42 0l108 471h77l-19 -83q53 92 140 92l18 -1l-17 -75q-12 1 -21 1q-61 0 -101 -48q-39 -45 -58 -136l-51 -221h-76z" />
<glyph unicode="s" horiz-adv-x="479" d="M46 131q0 15 3 31l80 13q-6 -36 -6 -40q0 -88 111 -88q54 0 87 22.5t33 60.5q0 23 -16 38t-55 30l-83 32q-97 38 -97 113q0 53 46.5 96.5t142.5 43.5q92 0 129 -37.5t37 -86.5q0 -11 -1 -18l-76 -13q3 9 3 27q0 30 -25.5 50t-65.5 20q-51 0 -79 -22.5t-28 -49.5 q0 -23 16 -35t56 -28l77 -30q50 -19 76.5 -45t26.5 -71q0 -16 -4 -33t-17 -40t-33.5 -40.5t-58.5 -30t-87 -12.5q-98 0 -145 38t-47 105z" />
<glyph unicode="t" horiz-adv-x="271" d="M74 410l14 61h75l35 149h75l-35 -149h83l-13 -61h-84l-59 -258q-11 -51 -11 -60q0 -30 35 -30q8 0 54 8l-14 -59q-30 -14 -76 -14q-78 0 -78 67q0 24 11 73l64 273h-76z" />
<glyph unicode="u" d="M74 102q0 17 15 89l64 280h79l-65 -280q-10 -42 -10 -69q0 -31 21.5 -48.5t62.5 -17.5q70 0 114 47q18 19 31 46.5t18 46t13 53.5l51 222h75l-109 -471h-75l17 74q-30 -39 -76 -61t-96 -22q-63 0 -96.5 32t-33.5 79z" />
<glyph unicode="v" horiz-adv-x="458" d="M96 471h74l32 -389l228 389h86l-291 -471h-83z" />
<glyph unicode="w" horiz-adv-x="750" d="M97 471h75l31 -385l201 385h77l34 -385l208 385h83l-273 -471h-77l-32 384l-204 -384h-77z" />
<glyph unicode="x" horiz-adv-x="437" d="M-23 0l227 245l-67 226h76l46 -171l153 171h91l-218 -237l69 -234h-77l-46 180l-160 -180h-94z" />
<glyph unicode="y" horiz-adv-x="458" d="M-54 -228l16 68q24 -2 37 -2q26 0 44.5 11t27 22.5t23.5 37.5l58 99l-53 463h78l37 -376l208 376h87l-356 -602q-38 -64 -69 -82t-88 -18q-23 0 -50 3z" />
<glyph unicode="z" horiz-adv-x="458" d="M-1 0l15 63l356 340h-266l15 68h360l-17 -74l-345 -329h299l-16 -68h-401z" />
<glyph unicode="{" horiz-adv-x="281" d="M48 288l13 60q54 2 74.5 20.5t35.5 85.5l37 161q24 104 55 135.5t117 31.5h33l-14 -57h-17q-43 0 -60 -19t-30 -76l-42 -181q-15 -66 -39 -95.5t-73 -39.5q57 -20 57 -80q0 -23 -8 -58l-36 -158q-12 -53 -12 -64q0 -44 56 -44h16l-13 -58h-38q-48 0 -74.5 25.5 t-26.5 69.5q0 25 12 78l37 156q8 32 8 51q0 26 -15 38.5t-53 17.5z" />
<glyph unicode="|" horiz-adv-x="236" d="M11 -143l212 922h81l-213 -922h-80z" />
<glyph unicode="}" horiz-adv-x="281" d="M-57 -148l14 58h17q24 0 39.5 5t25 19.5t14 27.5t10.5 40l43 183q16 66 40 96t72 40q-57 19 -57 79q0 23 8 58l36 158q12 53 12 64q0 45 -56 45h-16l13 57h38q48 0 74.5 -25t26.5 -70q0 -24 -12 -77l-37 -157q-8 -38 -8 -50q0 -27 15 -39.5t54 -16.5l-14 -60 q-52 -2 -73.5 -21t-36.5 -85l-37 -162q-12 -52 -21.5 -79.5t-27.5 -50t-45.5 -30t-71.5 -7.5h-39z" />
<glyph unicode="~" horiz-adv-x="724" d="M104 290q55 56 93.5 77.5t86.5 21.5q43 0 108 -33l57 -29q49 -25 73 -25q59 0 139 79l40 -66q-102 -99 -185 -99q-47 0 -114 38l-32 18q-52 30 -96 30q-30 0 -51.5 -13t-66.5 -55l-12 -11z" />
<glyph unicode="&#xa1;" horiz-adv-x="271" d="M35 0l56 232l76 248h46l-38 -260l-51 -220h-89zM165 595l26 111h99l-26 -111h-99z" />
<glyph unicode="&#xa2;" horiz-adv-x="500" d="M69 186q0 101 49 173.5t112 100.5q46 20 94 20l18 80h60l-18 -80q54 -7 91 -47t43 -94l-74 -18q-18 80 -76 91l-78 -361q83 0 124 103l83 -10q-13 -37 -45 -76q-67 -77 -164 -77h-12l-21 -92h-65l21 95q-38 11 -54 20q-88 52 -88 172zM152 185q0 -73 43 -110q7 -6 31 -18 l83 359q-33 -6 -49 -13q-46 -23 -77 -81.5t-31 -136.5z" />
<glyph unicode="&#xa3;" horiz-adv-x="720" d="M2 81q0 42 38.5 69t95.5 27q37 0 109 -26q14 28 21 52.5t21 87.5h-160l15 64h160q5 25 13.5 80.5t15 84.5t25.5 67t50 64q75 62 182 62q56 0 97.5 -17t62.5 -43.5t30.5 -53.5t9.5 -54l-89 -17q2 18 2 24q0 40 -37 67t-87 27q-64 0 -103.5 -36.5t-54.5 -86.5 q-7 -21 -11 -42t-10 -57t-13 -69h175l-15 -64h-175q-14 -79 -61 -169l32 -16t33.5 -16t27 -11t31.5 -9.5t29 -2.5q30 0 57.5 22t36.5 72l85 -10q-14 -66 -59.5 -111.5t-120.5 -45.5q-73 0 -195 69q-62 -69 -150 -69q-43 0 -78.5 20.5t-35.5 66.5zM65 84q0 -17 17 -23.5 t31 -6.5q25 0 53.5 14t38.5 30q-48 17 -83 17q-20 0 -38.5 -7t-18.5 -24z" />
<glyph unicode="&#xa5;" horiz-adv-x="610" d="M67 218l14 64h186l4 21l-4 23h-176l16 65h134l-96 283h89l99 -307l272 307h106l-261 -283h134l-15 -65h-181l-32 -35l-2 -9h205l-15 -64h-205l-50 -218h-87l50 218h-185z" />
<glyph unicode="&#xa8;" horiz-adv-x="292" d="M-8 552l23 101h91l-23 -101h-91zM186 552l23 101h91l-23 -101h-91z" />
<glyph unicode="&#xa9;" horiz-adv-x="840" d="M113 354q0 149 104 252.5t253 103.5q146 0 250.5 -103t104.5 -246q0 -155 -102 -259t-255 -104q-148 0 -251.5 104t-103.5 252zM150 353q0 -134 93 -227.5t226 -93.5q130 0 225 93.5t95 221.5q0 140 -92 234.5t-228 94.5q-133 0 -226 -94.5t-93 -228.5zM264 325 q0 111 68 185.5t170 74.5q153 0 184 -150l-71 -14q-11 54 -39.5 78t-81.5 24q-70 0 -113 -53.5t-43 -139.5q0 -68 34 -106t94 -38q47 0 78 23t51 74l66 -19q-30 -74 -79 -109t-124 -35q-85 0 -139.5 57.5t-54.5 147.5z" />
<glyph unicode="&#xab;" horiz-adv-x="396" d="M70 274l15 66l165 115l-22 -95l-89 -58l60 -68l-19 -79zM241 273l16 67l164 113l-21 -94l-90 -58l61 -66l-19 -83z" />
<glyph unicode="&#xae;" horiz-adv-x="840" d="M113 354q0 149 104 252.5t253 103.5q146 0 250.5 -103t104.5 -246q0 -155 -102 -259t-255 -104q-148 0 -251.5 104t-103.5 252zM150 353q0 -134 93 -227.5t226 -93.5q130 0 225 93.5t95 221.5q0 140 -92 234.5t-228 94.5q-133 0 -226 -94.5t-93 -228.5zM286 135l103 444 h99q57 0 86 -9t47 -32q25 -32 25 -75q0 -115 -125 -135l68 -193h-72l-64 186h-54l-44 -186h-69zM413 381h77q43 0 64.5 22.5t21.5 54.5q0 61 -65 61h-66z" />
<glyph unicode="&#xb4;" horiz-adv-x="292" d="M44 533l87 150h117l-143 -150h-61z" />
<glyph unicode="&#xb8;" horiz-adv-x="292" d="M72 -189l6 26h12q49 0 49 31q0 13 -10 21.5t-18 10.5t-24 5l80 111h36l-43 -59q27 -2 43.5 -16.5t16.5 -42.5q0 -40 -34 -65t-78 -25q-20 0 -36 3z" />
<glyph unicode="&#xbb;" horiz-adv-x="396" d="M45 154l22 94l89 58l-61 66l19 81l111 -119l-16 -67zM217 153l22 94l88 59l-59 68l18 78l110 -118l-15 -67z" />
<glyph unicode="&#xbf;" d="M43 181q0 73 47.5 130t144.5 69l34 149h78l-50 -215h-13q-64 0 -108 -35t-44 -97q0 -56 34.5 -87t89.5 -31q76 0 114 48.5t39 111.5l87 -14q-8 -94 -70 -156t-166 -62q-103 0 -160 56t-57 133zM278 594l25 112h92l-25 -112h-92z" />
<glyph unicode="&#xc0;" horiz-adv-x="667" d="M0 0l409 706h108l90 -706h-91l-25 222h-268l-128 -222h-95zM265 295h218l-35 353zM376 895h104l36 -125h-54z" />
<glyph unicode="&#xc1;" horiz-adv-x="667" d="M0 0l409 706h108l90 -706h-91l-25 222h-268l-128 -222h-95zM265 295h218l-35 353zM418 768l87 127h125l-145 -127h-67z" />
<glyph unicode="&#xc2;" horiz-adv-x="667" d="M0 0l409 706h108l90 -706h-91l-25 222h-268l-128 -222h-95zM265 295h218l-35 353zM337 767l129 128h72l57 -128h-67l-33 79l-78 -79h-80z" />
<glyph unicode="&#xc3;" horiz-adv-x="667" d="M0 0l409 706h108l90 -706h-91l-25 222h-268l-128 -222h-95zM265 295h218l-35 353zM334 798q41 85 96 85q14 0 53 -16.5t60 -16.5q24 0 46 37l40 -21q-21 -45 -41 -64t-50 -19q-18 0 -58.5 17t-56.5 17q-28 0 -46 -37z" />
<glyph unicode="&#xc4;" horiz-adv-x="667" d="M0 0l409 706h108l90 -706h-91l-25 222h-268l-128 -222h-95zM265 295h218l-35 353zM320 777l24 103h91l-23 -103h-92zM514 777l24 103h91l-24 -103h-91z" />
<glyph unicode="&#xc5;" horiz-adv-x="667" d="M0 0l409 706h108l90 -706h-91l-25 222h-268l-128 -222h-95zM265 295h218l-35 353zM385 857q0 38 26 64t64 26q37 0 63.5 -26.5t26.5 -63.5t-26.5 -63.5t-63.5 -26.5t-63.5 26.5t-26.5 63.5zM428 856q0 -20 14 -34t34 -14q19 0 33 14t14 34t-14 33.5t-34 13.5 q-19 0 -33 -13.5t-14 -33.5z" />
<glyph unicode="&#xc6;" horiz-adv-x="1062" d="M-18 0l649 706h438l-17 -74h-346l-46 -233h347l-16 -70h-348l-58 -254h423l-17 -75h-507l51 225h-240l-203 -225h-110zM359 295h193l79 320z" />
<glyph unicode="&#xc7;" horiz-adv-x="771" d="M87 311q0 82 26 156t74 130.5t121 89.5t162 33q51 0 95.5 -10.5t87.5 -33.5t75 -66.5t49 -104.5l-89 -17q-11 46 -37 81q-59 80 -181 80q-73 0 -130 -31t-90.5 -81.5t-50.5 -109t-17 -119.5q0 -113 57 -181t171 -68q78 0 127.5 29.5t87.5 79.5q33 43 45 77l89 -12 q-98 -233 -334 -245l-22 -31l5 -1q5 -1 11.5 -3t11.5 -5q48 -26 48 -77q0 -45 -36 -76.5t-89 -31.5q-14 0 -56 6l7 29q2 0 14 -0.5t18 -0.5q28 0 41 12.5t13 28.5q0 42 -75 55l71 95q-75 7 -113 21q-82 30 -134.5 105t-52.5 197z" />
<glyph unicode="&#xc8;" horiz-adv-x="625" d="M56 0l163 706h459l-17 -75h-370l-54 -233h339l-16 -70h-339l-59 -253h420l-17 -75h-509zM355 895h104l36 -125h-54z" />
<glyph unicode="&#xc9;" horiz-adv-x="625" d="M56 0l163 706h459l-17 -75h-370l-54 -233h339l-16 -70h-339l-59 -253h420l-17 -75h-509zM397 768l87 127h125l-145 -127h-67z" />
<glyph unicode="&#xca;" horiz-adv-x="625" d="M56 0l163 706h459l-17 -75h-370l-54 -233h339l-16 -70h-339l-59 -253h420l-17 -75h-509zM316 767l129 128h72l57 -128h-67l-33 79l-78 -79h-80z" />
<glyph unicode="&#xcb;" horiz-adv-x="625" d="M56 0l163 706h459l-17 -75h-370l-54 -233h339l-16 -70h-339l-59 -253h420l-17 -75h-509zM314 777l24 103h91l-23 -103h-92zM508 777l24 103h91l-24 -103h-91z" />
<glyph unicode="&#xcc;" horiz-adv-x="271" d="M57 0l163 706h86l-163 -706h-86zM178 895h104l36 -125h-54z" />
<glyph unicode="&#xcd;" horiz-adv-x="271" d="M57 0l163 706h86l-163 -706h-86zM220 768l87 127h125l-145 -127h-67z" />
<glyph unicode="&#xce;" horiz-adv-x="271" d="M57 0l163 706h86l-163 -706h-86zM139 767l129 128h72l57 -128h-67l-33 79l-78 -79h-80z" />
<glyph unicode="&#xcf;" horiz-adv-x="271" d="M57 0l163 706h86l-163 -706h-86zM137 777l24 103h91l-23 -103h-92zM331 777l24 103h91l-24 -103h-91z" />
<glyph unicode="&#xd0;" horiz-adv-x="729" d="M58 0l79 345h-79l16 67h79l68 294h194q47 0 77 -2t75.5 -15t76.5 -38q88 -72 88 -214q0 -52 -11 -107t-35.5 -114.5t-72.5 -110.5t-114 -78q-65 -27 -189 -27h-252zM163 72h196q72 0 129.5 36t90 92.5t49 116t16.5 114.5q0 56 -15.5 96.5t-36 60.5t-53 31t-54 13t-51.5 2 h-142l-51 -222h185l-15 -67h-186z" />
<glyph unicode="&#xd1;" horiz-adv-x="729" d="M57 0l163 706h95l231 -611l133 611h84l-163 -706h-91l-234 613l-133 -613h-85zM365 798q41 85 96 85q14 0 53 -16.5t60 -16.5q24 0 46 37l40 -21q-21 -45 -41 -64t-50 -19q-18 0 -58.5 17t-56.5 17q-28 0 -46 -37z" />
<glyph unicode="&#xd2;" horiz-adv-x="792" d="M96 308q0 177 104.5 294.5t276.5 117.5q152 0 234 -91t82 -231q0 -178 -111.5 -294.5t-274.5 -116.5q-142 0 -226.5 89.5t-84.5 231.5zM191 307q0 -107 60 -178.5t162 -71.5q90 0 157 52t98.5 129t31.5 165q0 123 -65 185t-158 62q-61 0 -111.5 -22.5t-82 -58.5 t-53 -82.5t-30.5 -91t-9 -88.5zM438 895h104l36 -125h-54z" />
<glyph unicode="&#xd3;" horiz-adv-x="792" d="M96 308q0 177 104.5 294.5t276.5 117.5q152 0 234 -91t82 -231q0 -178 -111.5 -294.5t-274.5 -116.5q-142 0 -226.5 89.5t-84.5 231.5zM191 307q0 -107 60 -178.5t162 -71.5q90 0 157 52t98.5 129t31.5 165q0 123 -65 185t-158 62q-61 0 -111.5 -22.5t-82 -58.5 t-53 -82.5t-30.5 -91t-9 -88.5zM480 768l87 127h125l-145 -127h-67z" />
<glyph unicode="&#xd4;" horiz-adv-x="792" d="M96 308q0 177 104.5 294.5t276.5 117.5q152 0 234 -91t82 -231q0 -178 -111.5 -294.5t-274.5 -116.5q-142 0 -226.5 89.5t-84.5 231.5zM191 307q0 -107 60 -178.5t162 -71.5q90 0 157 52t98.5 129t31.5 165q0 123 -65 185t-158 62q-61 0 -111.5 -22.5t-82 -58.5 t-53 -82.5t-30.5 -91t-9 -88.5zM400 767l129 128h72l57 -128h-67l-33 79l-78 -79h-80z" />
<glyph unicode="&#xd5;" horiz-adv-x="792" d="M96 308q0 177 104.5 294.5t276.5 117.5q152 0 234 -91t82 -231q0 -178 -111.5 -294.5t-274.5 -116.5q-142 0 -226.5 89.5t-84.5 231.5zM191 307q0 -107 60 -178.5t162 -71.5q90 0 157 52t98.5 129t31.5 165q0 123 -65 185t-158 62q-61 0 -111.5 -22.5t-82 -58.5 t-53 -82.5t-30.5 -91t-9 -88.5zM396 798q41 85 96 85q14 0 53 -16.5t60 -16.5q24 0 46 37l40 -21q-21 -45 -41 -64t-50 -19q-18 0 -58.5 17t-56.5 17q-28 0 -46 -37z" />
<glyph unicode="&#xd6;" horiz-adv-x="792" d="M96 308q0 177 104.5 294.5t276.5 117.5q152 0 234 -91t82 -231q0 -178 -111.5 -294.5t-274.5 -116.5q-142 0 -226.5 89.5t-84.5 231.5zM191 307q0 -107 60 -178.5t162 -71.5q90 0 157 52t98.5 129t31.5 165q0 123 -65 185t-158 62q-61 0 -111.5 -22.5t-82 -58.5 t-53 -82.5t-30.5 -91t-9 -88.5zM349 777l24 103h91l-23 -103h-92zM543 777l24 103h91l-24 -103h-91z" />
<glyph unicode="&#xd8;" horiz-adv-x="792" d="M94 306q0 176 106 295t282 119q107 0 190 -60l53 61l48 -44l-54 -61q72 -86 72 -216q0 -177 -106.5 -295t-271.5 -118q-112 0 -203 61l-57 -63l-49 41l60 67q-70 70 -70 213zM184 300q0 -74 36 -144l397 444q-61 52 -141 52q-131 0 -211.5 -105t-80.5 -247zM261 105 q64 -48 146 -48q131 0 212 97t81 237q0 92 -40 160z" />
<glyph unicode="&#xd9;" horiz-adv-x="708" d="M107 192q0 59 23 158l82 356h88l-85 -365q-18 -76 -18 -135q0 -42 14 -72t37.5 -44.5t48.5 -21t54 -6.5q54 0 91.5 15.5t63 51.5t40.5 78.5t31 110.5l89 388h88l-98 -424q-12 -54 -25 -91.5t-36.5 -79t-54.5 -66.5t-80.5 -41.5t-113.5 -16.5q-115 0 -177 56t-62 149z M397 895h104l36 -125h-54z" />
<glyph unicode="&#xda;" horiz-adv-x="708" d="M107 192q0 59 23 158l82 356h88l-85 -365q-18 -76 -18 -135q0 -42 14 -72t37.5 -44.5t48.5 -21t54 -6.5q54 0 91.5 15.5t63 51.5t40.5 78.5t31 110.5l89 388h88l-98 -424q-12 -54 -25 -91.5t-36.5 -79t-54.5 -66.5t-80.5 -41.5t-113.5 -16.5q-115 0 -177 56t-62 149z M439 768l87 127h125l-145 -127h-67z" />
<glyph unicode="&#xdb;" horiz-adv-x="708" d="M107 192q0 59 23 158l82 356h88l-85 -365q-18 -76 -18 -135q0 -42 14 -72t37.5 -44.5t48.5 -21t54 -6.5q54 0 91.5 15.5t63 51.5t40.5 78.5t31 110.5l89 388h88l-98 -424q-12 -54 -25 -91.5t-36.5 -79t-54.5 -66.5t-80.5 -41.5t-113.5 -16.5q-115 0 -177 56t-62 149z M358 767l129 128h72l57 -128h-67l-33 79l-78 -79h-80z" />
<glyph unicode="&#xdc;" horiz-adv-x="708" d="M107 192q0 59 23 158l82 356h88l-85 -365q-18 -76 -18 -135q0 -42 14 -72t37.5 -44.5t48.5 -21t54 -6.5q54 0 91.5 15.5t63 51.5t40.5 78.5t31 110.5l89 388h88l-98 -424q-12 -54 -25 -91.5t-36.5 -79t-54.5 -66.5t-80.5 -41.5t-113.5 -16.5q-115 0 -177 56t-62 149z M357 777l24 103h91l-23 -103h-92zM551 777l24 103h91l-24 -103h-91z" />
<glyph unicode="&#xdd;" horiz-adv-x="583" d="M141 706h89l95 -319l276 319h106l-359 -399l-70 -307h-89l73 317zM376 768l87 127h125l-145 -127h-67z" />
<glyph unicode="&#xdf;" d="M45 0l115 503q28 119 82.5 165.5t139.5 46.5q73 0 122.5 -36.5t49.5 -107.5q0 -76 -47 -119t-122 -43q62 -12 95.5 -45.5t33.5 -111.5q0 -19 -3.5 -43t-14.5 -64.5t-40 -76.5t-72 -55q-51 -22 -130 -22q-43 0 -84 9l17 71q64 -11 73 -11q63 0 100 22.5t57 79.5 q17 51 17 93q0 39 -18 68q-16 25 -44.5 35.5t-83.5 12.5l17 74h17q69 0 109.5 31t40.5 90q0 42 -27 63t-64 21q-32 0 -57 -13t-39.5 -29t-27 -47t-18 -50.5t-13.5 -54.5l-106 -456h-75z" />
<glyph unicode="&#xe0;" horiz-adv-x="500" d="M36 107q0 58 39.5 98.5t108.5 54.5q29 6 95.5 15t99.5 16q10 47 10 62q0 67 -91 67q-99 0 -115 -95l-89 8q8 23 16 39.5t25 38.5t38 35.5t56.5 23.5t79.5 10q60 0 110.5 -28.5t50.5 -84.5q0 -27 -9 -67l-43 -185q-4 -18 -4 -29q0 -24 25 -24q12 0 31 7l-15 -65 q-28 -7 -47 -7q-25 0 -47 13.5t-22 45.5q0 9 1 13q-16 -30 -56.5 -54.5t-107.5 -24.5q-74 0 -107 36t-33 81zM123 114q0 -26 19 -45.5t61 -19.5q23 0 53 10t48 24q9 7 16.5 16.5t12 16.5t8.5 18t5.5 16t3.5 14l2 10l13 56l-17 -2q-28 -3 -42.5 -5t-42.5 -7t-43.5 -10 t-36.5 -13.5t-32.5 -19t-19.5 -26t-8 -33.5zM244 683h101l47 -152h-53z" />
<glyph unicode="&#xe1;" horiz-adv-x="500" d="M36 107q0 58 39.5 98.5t108.5 54.5q29 6 95.5 15t99.5 16q10 47 10 62q0 67 -91 67q-99 0 -115 -95l-89 8q8 23 16 39.5t25 38.5t38 35.5t56.5 23.5t79.5 10q60 0 110.5 -28.5t50.5 -84.5q0 -27 -9 -67l-43 -185q-4 -18 -4 -29q0 -24 25 -24q12 0 31 7l-15 -65 q-28 -7 -47 -7q-25 0 -47 13.5t-22 45.5q0 9 1 13q-16 -30 -56.5 -54.5t-107.5 -24.5q-74 0 -107 36t-33 81zM123 114q0 -26 19 -45.5t61 -19.5q23 0 53 10t48 24q9 7 16.5 16.5t12 16.5t8.5 18t5.5 16t3.5 14l2 10l13 56l-17 -2q-28 -3 -42.5 -5t-42.5 -7t-43.5 -10 t-36.5 -13.5t-32.5 -19t-19.5 -26t-8 -33.5zM277 533l87 150h117l-143 -150h-61z" />
<glyph unicode="&#xe2;" horiz-adv-x="500" d="M36 107q0 58 39.5 98.5t108.5 54.5q29 6 95.5 15t99.5 16q10 47 10 62q0 67 -91 67q-99 0 -115 -95l-89 8q8 23 16 39.5t25 38.5t38 35.5t56.5 23.5t79.5 10q60 0 110.5 -28.5t50.5 -84.5q0 -27 -9 -67l-43 -185q-4 -18 -4 -29q0 -24 25 -24q12 0 31 7l-15 -65 q-28 -7 -47 -7q-25 0 -47 13.5t-22 45.5q0 9 1 13q-16 -30 -56.5 -54.5t-107.5 -24.5q-74 0 -107 36t-33 81zM123 114q0 -26 19 -45.5t61 -19.5q23 0 53 10t48 24q9 7 16.5 16.5t12 16.5t8.5 18t5.5 16t3.5 14l2 10l13 56l-17 -2q-28 -3 -42.5 -5t-42.5 -7t-43.5 -10 t-36.5 -13.5t-32.5 -19t-19.5 -26t-8 -33.5zM182 529l155 154h73l68 -154h-68l-45 106l-100 -106h-83z" />
<glyph unicode="&#xe3;" horiz-adv-x="500" d="M36 107q0 58 39.5 98.5t108.5 54.5q29 6 95.5 15t99.5 16q10 47 10 62q0 67 -91 67q-99 0 -115 -95l-89 8q8 23 16 39.5t25 38.5t38 35.5t56.5 23.5t79.5 10q60 0 110.5 -28.5t50.5 -84.5q0 -27 -9 -67l-43 -185q-4 -18 -4 -29q0 -24 25 -24q12 0 31 7l-15 -65 q-28 -7 -47 -7q-25 0 -47 13.5t-22 45.5q0 9 1 13q-16 -30 -56.5 -54.5t-107.5 -24.5q-74 0 -107 36t-33 81zM123 114q0 -26 19 -45.5t61 -19.5q23 0 53 10t48 24q9 7 16.5 16.5t12 16.5t8.5 18t5.5 16t3.5 14l2 10l13 56l-17 -2q-28 -3 -42.5 -5t-42.5 -7t-43.5 -10 t-36.5 -13.5t-32.5 -19t-19.5 -26t-8 -33.5zM204 574q43 87 93 87q14 0 52.5 -16t59.5 -16q23 0 44 35l39 -19q-21 -45 -40 -65t-48 -20q-18 0 -58 16t-56 16q-28 0 -44 -35z" />
<glyph unicode="&#xe4;" horiz-adv-x="500" d="M36 107q0 58 39.5 98.5t108.5 54.5q29 6 95.5 15t99.5 16q10 47 10 62q0 67 -91 67q-99 0 -115 -95l-89 8q8 23 16 39.5t25 38.5t38 35.5t56.5 23.5t79.5 10q60 0 110.5 -28.5t50.5 -84.5q0 -27 -9 -67l-43 -185q-4 -18 -4 -29q0 -24 25 -24q12 0 31 7l-15 -65 q-28 -7 -47 -7q-25 0 -47 13.5t-22 45.5q0 9 1 13q-16 -30 -56.5 -54.5t-107.5 -24.5q-74 0 -107 36t-33 81zM123 114q0 -26 19 -45.5t61 -19.5q23 0 53 10t48 24q9 7 16.5 16.5t12 16.5t8.5 18t5.5 16t3.5 14l2 10l13 56l-17 -2q-28 -3 -42.5 -5t-42.5 -7t-43.5 -10 t-36.5 -13.5t-32.5 -19t-19.5 -26t-8 -33.5zM184 552l23 101h91l-23 -101h-91zM378 552l23 101h91l-23 -101h-91z" />
<glyph unicode="&#xe5;" horiz-adv-x="500" d="M36 107q0 58 39.5 98.5t108.5 54.5q29 6 95.5 15t99.5 16q10 47 10 62q0 67 -91 67q-99 0 -115 -95l-89 8q8 23 16 39.5t25 38.5t38 35.5t56.5 23.5t79.5 10q60 0 110.5 -28.5t50.5 -84.5q0 -27 -9 -67l-43 -185q-4 -18 -4 -29q0 -24 25 -24q12 0 31 7l-15 -65 q-28 -7 -47 -7q-25 0 -47 13.5t-22 45.5q0 9 1 13q-16 -30 -56.5 -54.5t-107.5 -24.5q-74 0 -107 36t-33 81zM123 114q0 -26 19 -45.5t61 -19.5q23 0 53 10t48 24q9 7 16.5 16.5t12 16.5t8.5 18t5.5 16t3.5 14l2 10l13 56l-17 -2q-28 -3 -42.5 -5t-42.5 -7t-43.5 -10 t-36.5 -13.5t-32.5 -19t-19.5 -26t-8 -33.5zM247 610q0 38 26.5 64t63.5 26t63.5 -26.5t26.5 -63.5t-27 -63.5t-64 -26.5t-63 26.5t-26 63.5zM290 608q0 -20 14 -33.5t34 -13.5q19 0 33 14t14 34t-14 33.5t-34 13.5t-33.5 -14t-13.5 -34z" />
<glyph unicode="&#xe6;" horiz-adv-x="833" d="M34 109q0 36 21.5 73.5t75.5 60.5q21 9 57 17t58.5 12t70 10t52.5 7q8 48 8 61q0 37 -22.5 55.5t-60.5 18.5q-47 0 -76.5 -27t-35.5 -64l-87 13q9 23 22.5 43.5t36.5 43.5t59 36.5t81 13.5q63 0 100 -25.5t51 -57.5q24 33 70 58t107 25q95 0 141.5 -56.5t46.5 -142.5 q0 -20 -4 -58h-363q-2 -24 -2 -33q0 -34 12 -65t45 -55.5t83 -24.5q48 0 84.5 25t52.5 71l77 -10q-8 -24 -23 -47t-40.5 -46.5t-65.5 -38t-90 -14.5q-141 0 -198 102q-74 -102 -199 -102q-61 0 -103 32.5t-42 88.5zM119 120q0 -34 23.5 -54.5t64.5 -20.5q32 0 62 17.5 t48 45.5q28 43 43 125l-40 -6q-106 -16 -153.5 -40.5t-47.5 -66.5zM454 283h279q1 14 1 21q0 63 -36 90.5t-80 27.5q-58 0 -104 -40t-60 -99z" />
<glyph unicode="&#xe7;" horiz-adv-x="509" d="M62 182q0 139 77.5 220t185.5 81q86 0 133.5 -43t50.5 -100l-74 -17q-5 22 -14 41t-35 37t-64 18q-76 0 -127.5 -68.5t-51.5 -156.5q0 -58 29.5 -103t92.5 -45q100 0 141 107l82 -10q-8 -23 -23.5 -46.5t-40.5 -49t-63.5 -42t-83.5 -16.5l-23 -31q59 -10 59 -61 q0 -29 -20 -52q-32 -37 -100 -37q-13 0 -27 2l6 27h13q48 0 48 31q0 30 -52 37l61 85l-14 1q-81 6 -123.5 60t-42.5 131z" />
<glyph unicode="&#xe8;" horiz-adv-x="521" d="M62 189q0 124 73 209t187 85q84 0 131 -49.5t47 -143.5q0 -31 -6 -63h-353q-2 -14 -2 -33q0 -37 10.5 -64.5t26 -42.5t35 -24t34 -11.5t27.5 -2.5q42 0 80 25.5t54 70.5l75 -13q-7 -20 -22 -42t-41 -46.5t-68.5 -40t-93.5 -15.5q-93 0 -143.5 55.5t-50.5 145.5zM156 285 h266q0 1 0.5 8t0.5 11q0 53 -29.5 85.5t-76.5 32.5q-55 0 -100 -40.5t-61 -96.5zM255 683h101l47 -152h-53z" />
<glyph unicode="&#xe9;" horiz-adv-x="521" d="M62 189q0 124 73 209t187 85q84 0 131 -49.5t47 -143.5q0 -31 -6 -63h-353q-2 -14 -2 -33q0 -37 10.5 -64.5t26 -42.5t35 -24t34 -11.5t27.5 -2.5q42 0 80 25.5t54 70.5l75 -13q-7 -20 -22 -42t-41 -46.5t-68.5 -40t-93.5 -15.5q-93 0 -143.5 55.5t-50.5 145.5zM156 285 h266q0 1 0.5 8t0.5 11q0 53 -29.5 85.5t-76.5 32.5q-55 0 -100 -40.5t-61 -96.5zM288 533l87 150h117l-143 -150h-61z" />
<glyph unicode="&#xea;" horiz-adv-x="521" d="M62 189q0 124 73 209t187 85q84 0 131 -49.5t47 -143.5q0 -31 -6 -63h-353q-2 -14 -2 -33q0 -37 10.5 -64.5t26 -42.5t35 -24t34 -11.5t27.5 -2.5q42 0 80 25.5t54 70.5l75 -13q-7 -20 -22 -42t-41 -46.5t-68.5 -40t-93.5 -15.5q-93 0 -143.5 55.5t-50.5 145.5zM156 285 h266q0 1 0.5 8t0.5 11q0 53 -29.5 85.5t-76.5 32.5q-55 0 -100 -40.5t-61 -96.5zM192 529l155 154h73l68 -154h-68l-45 106l-100 -106h-83z" />
<glyph unicode="&#xeb;" horiz-adv-x="521" d="M62 189q0 124 73 209t187 85q84 0 131 -49.5t47 -143.5q0 -31 -6 -63h-353q-2 -14 -2 -33q0 -37 10.5 -64.5t26 -42.5t35 -24t34 -11.5t27.5 -2.5q42 0 80 25.5t54 70.5l75 -13q-7 -20 -22 -42t-41 -46.5t-68.5 -40t-93.5 -15.5q-93 0 -143.5 55.5t-50.5 145.5zM156 285 h266q0 1 0.5 8t0.5 11q0 53 -29.5 85.5t-76.5 32.5q-55 0 -100 -40.5t-61 -96.5zM214 552l23 101h91l-23 -101h-91zM408 552l23 101h91l-23 -101h-91z" />
<glyph unicode="&#xec;" horiz-adv-x="229" d="M42 0l108 471h78l-109 -471h-77zM104 683h101l47 -152h-53z" />
<glyph unicode="&#xed;" horiz-adv-x="229" d="M42 0l108 471h78l-109 -471h-77zM152 533l87 150h117l-143 -150h-61z" />
<glyph unicode="&#xee;" horiz-adv-x="229" d="M42 0l108 471h78l-109 -471h-77zM47 529l155 154h73l68 -154h-68l-45 106l-100 -106h-83z" />
<glyph unicode="&#xef;" horiz-adv-x="229" d="M42 0l108 471h78l-109 -471h-77zM69 552l23 101h91l-23 -101h-91zM263 552l23 101h91l-23 -101h-91z" />
<glyph unicode="&#xf0;" d="M61 199q0 110 74.5 197t187.5 87q48 0 76.5 -17.5t51.5 -49.5q-13 75 -54 152l-165 -45l-15 44l154 43q-45 59 -64 80l55 31q36 -43 70 -94l87 24l17 -45l-79 -21q69 -121 69 -272q0 -157 -79 -241t-187 -84q-94 0 -146.5 59.5t-52.5 151.5zM142 189q0 -73 35 -107 t85 -34q45 0 81.5 24.5t57 62t31 76t10.5 72.5q0 24 -5.5 46.5t-17.5 44.5t-35.5 35t-56.5 13q-87 0 -136 -72.5t-49 -160.5z" />
<glyph unicode="&#xf1;" d="M41 0l109 471h79l-16 -68q76 80 162 80q18 0 38.5 -5.5t43.5 -17.5t38 -37.5t15 -59.5q0 -28 -11 -79l-66 -284h-78l67 291q7 28 7 54q0 36 -22 55.5t-59 19.5q-76 0 -114 -47.5t-60 -140.5l-54 -232h-79zM224 574q43 87 93 87q14 0 52.5 -16t59.5 -16q23 0 44 35l39 -19 q-21 -45 -40 -65t-48 -20q-18 0 -58 16t-56 16q-28 0 -44 -35z" />
<glyph unicode="&#xf2;" d="M62 195q0 69 27.5 133t89.5 109.5t147 45.5q91 0 143.5 -60t52.5 -150q0 -111 -71.5 -198t-190.5 -87q-92 0 -145 58.5t-53 148.5zM142 189q0 -73 35 -107t83 -34q79 0 130.5 71.5t51.5 163.5q0 43 -13 73t-33 43t-36.5 18t-32.5 5q-86 0 -135.5 -72t-49.5 -161zM265 683 h101l47 -152h-53z" />
<glyph unicode="&#xf3;" d="M62 195q0 69 27.5 133t89.5 109.5t147 45.5q91 0 143.5 -60t52.5 -150q0 -111 -71.5 -198t-190.5 -87q-92 0 -145 58.5t-53 148.5zM142 189q0 -73 35 -107t83 -34q79 0 130.5 71.5t51.5 163.5q0 43 -13 73t-33 43t-36.5 18t-32.5 5q-86 0 -135.5 -72t-49.5 -161zM298 533 l87 150h117l-143 -150h-61z" />
<glyph unicode="&#xf4;" d="M62 195q0 69 27.5 133t89.5 109.5t147 45.5q91 0 143.5 -60t52.5 -150q0 -111 -71.5 -198t-190.5 -87q-92 0 -145 58.5t-53 148.5zM142 189q0 -73 35 -107t83 -34q79 0 130.5 71.5t51.5 163.5q0 43 -13 73t-33 43t-36.5 18t-32.5 5q-86 0 -135.5 -72t-49.5 -161zM202 529 l155 154h73l68 -154h-68l-45 106l-100 -106h-83z" />
<glyph unicode="&#xf5;" d="M62 195q0 69 27.5 133t89.5 109.5t147 45.5q91 0 143.5 -60t52.5 -150q0 -111 -71.5 -198t-190.5 -87q-92 0 -145 58.5t-53 148.5zM142 189q0 -73 35 -107t83 -34q79 0 130.5 71.5t51.5 163.5q0 43 -13 73t-33 43t-36.5 18t-32.5 5q-86 0 -135.5 -72t-49.5 -161zM225 574 q43 87 93 87q14 0 52.5 -16t59.5 -16q23 0 44 35l39 -19q-21 -45 -40 -65t-48 -20q-18 0 -58 16t-56 16q-28 0 -44 -35z" />
<glyph unicode="&#xf6;" d="M62 195q0 69 27.5 133t89.5 109.5t147 45.5q91 0 143.5 -60t52.5 -150q0 -111 -71.5 -198t-190.5 -87q-92 0 -145 58.5t-53 148.5zM142 189q0 -73 35 -107t83 -34q79 0 130.5 71.5t51.5 163.5q0 43 -13 73t-33 43t-36.5 18t-32.5 5q-86 0 -135.5 -72t-49.5 -161zM203 552 l23 101h91l-23 -101h-91zM397 552l23 101h91l-23 -101h-91z" />
<glyph unicode="&#xf8;" d="M34 29l55 54q-27 50 -27 112q0 119 75 203.5t189 84.5q63 0 123 -40l44 44l35 -34l-45 -46q39 -52 39 -133q0 -46 -16 -94t-46 -92t-82.5 -72t-116.5 -28q-37 0 -67.5 9.5t-44.5 19.5t-31 26l-50 -48zM138 192q0 -27 6 -53l258 258q-35 25 -77 25q-47 0 -84.5 -24 t-59 -60.5t-32.5 -74.5t-11 -71zM165 91q40 -44 95 -44q83 0 135 75.5t52 164.5q0 37 -16 71z" />
<glyph unicode="&#xf9;" d="M74 102q0 17 15 89l64 280h79l-65 -280q-10 -42 -10 -69q0 -31 21.5 -48.5t62.5 -17.5q70 0 114 47q18 19 31 46.5t18 46t13 53.5l51 222h75l-109 -471h-75l17 74q-30 -39 -76 -61t-96 -22q-63 0 -96.5 32t-33.5 79zM254 683h101l47 -152h-53z" />
<glyph unicode="&#xfa;" d="M74 102q0 17 15 89l64 280h79l-65 -280q-10 -42 -10 -69q0 -31 21.5 -48.5t62.5 -17.5q70 0 114 47q18 19 31 46.5t18 46t13 53.5l51 222h75l-109 -471h-75l17 74q-30 -39 -76 -61t-96 -22q-63 0 -96.5 32t-33.5 79zM298 533l87 150h117l-143 -150h-61z" />
<glyph unicode="&#xfb;" d="M74 102q0 17 15 89l64 280h79l-65 -280q-10 -42 -10 -69q0 -31 21.5 -48.5t62.5 -17.5q70 0 114 47q18 19 31 46.5t18 46t13 53.5l51 222h75l-109 -471h-75l17 74q-30 -39 -76 -61t-96 -22q-63 0 -96.5 32t-33.5 79zM202 529l155 154h73l68 -154h-68l-45 106l-100 -106 h-83z" />
<glyph unicode="&#xfc;" d="M74 102q0 17 15 89l64 280h79l-65 -280q-10 -42 -10 -69q0 -31 21.5 -48.5t62.5 -17.5q70 0 114 47q18 19 31 46.5t18 46t13 53.5l51 222h75l-109 -471h-75l17 74q-30 -39 -76 -61t-96 -22q-63 0 -96.5 32t-33.5 79zM226 552l23 101h91l-23 -101h-91zM420 552l23 101h91 l-23 -101h-91z" />
<glyph unicode="&#xfd;" horiz-adv-x="458" d="M-54 -228l16 68q24 -2 37 -2q26 0 44.5 11t27 22.5t23.5 37.5l58 99l-53 463h78l37 -376l208 376h87l-356 -602q-38 -64 -69 -82t-88 -18q-23 0 -50 3zM257 533l87 150h117l-143 -150h-61z" />
<glyph unicode="&#xff;" horiz-adv-x="458" d="M-54 -228l16 68q24 -2 37 -2q26 0 44.5 11t27 22.5t23.5 37.5l58 99l-53 463h78l37 -376l208 376h87l-356 -602q-38 -64 -69 -82t-88 -18q-23 0 -50 3zM183 552l23 101h91l-23 -101h-91zM377 552l23 101h91l-23 -101h-91z" />
<glyph unicode="&#x100;" horiz-adv-x="667" d="M0 0l409 706h108l90 -706h-91l-25 222h-268l-128 -222h-95zM265 295h218l-35 353zM325 782l14 67h288l-14 -67h-288z" />
<glyph unicode="&#x101;" horiz-adv-x="500" d="M36 107q0 58 39.5 98.5t108.5 54.5q29 6 95.5 15t99.5 16q10 47 10 62q0 67 -91 67q-99 0 -115 -95l-89 8q8 23 16 39.5t25 38.5t38 35.5t56.5 23.5t79.5 10q60 0 110.5 -28.5t50.5 -84.5q0 -27 -9 -67l-43 -185q-4 -18 -4 -29q0 -24 25 -24q12 0 31 7l-15 -65 q-28 -7 -47 -7q-25 0 -47 13.5t-22 45.5q0 9 1 13q-16 -30 -56.5 -54.5t-107.5 -24.5q-74 0 -107 36t-33 81zM123 114q0 -26 19 -45.5t61 -19.5q23 0 53 10t48 24q9 7 16.5 16.5t12 16.5t8.5 18t5.5 16t3.5 14l2 10l13 56l-17 -2q-28 -3 -42.5 -5t-42.5 -7t-43.5 -10 t-36.5 -13.5t-32.5 -19t-19.5 -26t-8 -33.5zM192 542l15 66h287l-15 -66h-287z" />
<glyph unicode="&#x102;" horiz-adv-x="667" d="M0 0l409 706h108l90 -706h-91l-25 222h-268l-128 -222h-95zM265 295h218l-35 353zM360 862v14h69q-1 -7 -1 -17q0 -15 16 -27.5t34 -12.5q62 0 83 57h70q-15 -46 -54.5 -77.5t-102.5 -31.5q-45 0 -79.5 24t-34.5 71z" />
<glyph unicode="&#x103;" horiz-adv-x="500" d="M36 107q0 58 39.5 98.5t108.5 54.5q29 6 95.5 15t99.5 16q10 47 10 62q0 67 -91 67q-99 0 -115 -95l-89 8q8 23 16 39.5t25 38.5t38 35.5t56.5 23.5t79.5 10q60 0 110.5 -28.5t50.5 -84.5q0 -27 -9 -67l-43 -185q-4 -18 -4 -29q0 -24 25 -24q12 0 31 7l-15 -65 q-28 -7 -47 -7q-25 0 -47 13.5t-22 45.5q0 9 1 13q-16 -30 -56.5 -54.5t-107.5 -24.5q-74 0 -107 36t-33 81zM123 114q0 -26 19 -45.5t61 -19.5q23 0 53 10t48 24q9 7 16.5 16.5t12 16.5t8.5 18t5.5 16t3.5 14l2 10l13 56l-17 -2q-28 -3 -42.5 -5t-42.5 -7t-43.5 -10 t-36.5 -13.5t-32.5 -19t-19.5 -26t-8 -33.5zM211 652v16h72q-2 -16 -2 -22q0 -25 17 -38.5t41 -13.5q63 0 94 74h74q-7 -19 -18.5 -38.5t-31 -41.5t-51 -36t-68.5 -14q-55 0 -91 28.5t-36 85.5z" />
<glyph unicode="&#x104;" horiz-adv-x="667" d="M0 0l409 706h108l90 -706h-13q-24 -5 -56.5 -36t-32.5 -51q0 -25 32 -25q9 0 25 1.5t19 1.5l-18 -75q-33 -5 -54 -5q-45 0 -65.5 21.5t-20.5 50.5q0 27 16 54t32.5 41.5t42.5 34.5l-23 209h-268l-128 -222h-95zM265 295h218l-35 353z" />
<glyph unicode="&#x105;" horiz-adv-x="500" d="M36 107q0 58 39.5 98.5t108.5 54.5q29 6 95.5 15t99.5 16q10 47 10 62q0 67 -91 67q-99 0 -115 -95l-89 8q8 23 16 39.5t25 38.5t38 35.5t56.5 23.5t79.5 10q60 0 110.5 -28.5t50.5 -84.5q0 -27 -9 -67l-43 -185q-4 -18 -4 -29q0 -24 25 -24q12 0 31 7l-15 -65 q-19 -6 -48 -7q-24 -7 -53 -36t-29 -48q0 -25 32 -25q9 0 25 1.5t19 1.5l-18 -75q-33 -5 -54 -5q-45 0 -65.5 21.5t-20.5 50.5q0 21 7 39.5t22.5 36t24.5 26t30 23.5l21 16q-9 14 -9 32q0 9 1 13q-16 -30 -56.5 -54.5t-107.5 -24.5q-74 0 -107 36t-33 81zM123 114 q0 -26 19 -45.5t61 -19.5q23 0 53 10t48 24q9 7 16.5 16.5t12 16.5t8.5 18t5.5 16t3.5 14l2 10l13 56l-17 -2q-28 -3 -42.5 -5t-42.5 -7t-43.5 -10t-36.5 -13.5t-32.5 -19t-19.5 -26t-8 -33.5z" />
<glyph unicode="&#x106;" horiz-adv-x="771" d="M87 312q0 171 104.5 289.5t278.5 118.5q71 0 127 -18.5t91 -50.5t56.5 -68t32.5 -78l-89 -17q-7 29 -21 54t-38 51t-65.5 41t-94.5 15q-64 0 -115.5 -24t-82.5 -60.5t-52 -83.5t-29 -89.5t-8 -81.5q0 -111 54.5 -181t171.5 -70q182 0 262 186l89 -12 q-49 -120 -141.5 -183t-213.5 -63q-58 0 -110.5 16t-100.5 51t-77 101.5t-29 156.5zM436 768l87 127h125l-145 -127h-67z" />
<glyph unicode="&#x107;" horiz-adv-x="509" d="M62 186q0 126 75 211.5t187 85.5q73 0 126.5 -37.5t58.5 -105.5l-74 -17q-4 18 -9 29.5t-17 29.5t-33.5 27.5t-52.5 9.5q-48 0 -85.5 -25.5t-56.5 -64t-28.5 -74t-9.5 -64.5q0 -59 31 -102t93 -43q45 0 83 27t56 80l82 -11q-65 -154 -227 -154q-26 0 -51.5 5t-53 18.5 t-48 35t-33.5 57.5t-13 82zM294 533l87 150h117l-143 -150h-61z" />
<glyph unicode="&#x108;" horiz-adv-x="771" d="M87 312q0 171 104.5 289.5t278.5 118.5q71 0 127 -18.5t91 -50.5t56.5 -68t32.5 -78l-89 -17q-7 29 -21 54t-38 51t-65.5 41t-94.5 15q-64 0 -115.5 -24t-82.5 -60.5t-52 -83.5t-29 -89.5t-8 -81.5q0 -111 54.5 -181t171.5 -70q182 0 262 186l89 -12 q-49 -120 -141.5 -183t-213.5 -63q-58 0 -110.5 16t-100.5 51t-77 101.5t-29 156.5zM359 767l129 128h72l57 -128h-67l-33 79l-78 -79h-80z" />
<glyph unicode="&#x109;" horiz-adv-x="509" d="M62 186q0 126 75 211.5t187 85.5q73 0 126.5 -37.5t58.5 -105.5l-74 -17q-4 18 -9 29.5t-17 29.5t-33.5 27.5t-52.5 9.5q-48 0 -85.5 -25.5t-56.5 -64t-28.5 -74t-9.5 -64.5q0 -59 31 -102t93 -43q45 0 83 27t56 80l82 -11q-65 -154 -227 -154q-26 0 -51.5 5t-53 18.5 t-48 35t-33.5 57.5t-13 82zM202 529l155 154h73l68 -154h-68l-45 106l-100 -106h-83z" />
<glyph unicode="&#x10a;" horiz-adv-x="771" d="M87 312q0 171 104.5 289.5t278.5 118.5q71 0 127 -18.5t91 -50.5t56.5 -68t32.5 -78l-89 -17q-7 29 -21 54t-38 51t-65.5 41t-94.5 15q-64 0 -115.5 -24t-82.5 -60.5t-52 -83.5t-29 -89.5t-8 -81.5q0 -111 54.5 -181t171.5 -70q182 0 262 186l89 -12 q-49 -120 -141.5 -183t-213.5 -63q-58 0 -110.5 16t-100.5 51t-77 101.5t-29 156.5zM444 777l23 103h92l-23 -103h-92z" />
<glyph unicode="&#x10b;" horiz-adv-x="509" d="M62 186q0 126 75 211.5t187 85.5q73 0 126.5 -37.5t58.5 -105.5l-74 -17q-4 18 -9 29.5t-17 29.5t-33.5 27.5t-52.5 9.5q-48 0 -85.5 -25.5t-56.5 -64t-28.5 -74t-9.5 -64.5q0 -59 31 -102t93 -43q45 0 83 27t56 80l82 -11q-65 -154 -227 -154q-26 0 -51.5 5t-53 18.5 t-48 35t-33.5 57.5t-13 82zM299 551l24 102h92l-24 -102h-92z" />
<glyph unicode="&#x10c;" horiz-adv-x="771" d="M87 312q0 171 104.5 289.5t278.5 118.5q71 0 127 -18.5t91 -50.5t56.5 -68t32.5 -78l-89 -17q-7 29 -21 54t-38 51t-65.5 41t-94.5 15q-64 0 -115.5 -24t-82.5 -60.5t-52 -83.5t-29 -89.5t-8 -81.5q0 -111 54.5 -181t171.5 -70q182 0 262 186l89 -12 q-49 -120 -141.5 -183t-213.5 -63q-58 0 -110.5 16t-100.5 51t-77 101.5t-29 156.5zM391 895h66l34 -80l77 80h80l-128 -128h-72z" />
<glyph unicode="&#x10d;" horiz-adv-x="509" d="M62 186q0 126 75 211.5t187 85.5q73 0 126.5 -37.5t58.5 -105.5l-74 -17q-4 18 -9 29.5t-17 29.5t-33.5 27.5t-52.5 9.5q-48 0 -85.5 -25.5t-56.5 -64t-28.5 -74t-9.5 -64.5q0 -59 31 -102t93 -43q45 0 83 27t56 80l82 -11q-65 -154 -227 -154q-26 0 -51.5 5t-53 18.5 t-48 35t-33.5 57.5t-13 82zM229 683h68l45 -104l103 104h80l-155 -153h-71z" />
<glyph unicode="&#x10e;" horiz-adv-x="729" d="M58 0l163 706h241q124 0 197 -69.5t73 -203.5q0 -55 -11.5 -112t-40 -115.5t-70.5 -103.5t-108.5 -73.5t-147.5 -28.5h-296zM163 72h176q60 0 109 15t94 65q42 46 66.5 109.5t30 101.5t5.5 69q0 83 -32 131q-28 43 -73 57t-106 14h-141zM342 895h66l34 -80l77 80h80 l-128 -128h-72z" />
<glyph unicode="&#x10f;" horiz-adv-x="562" d="M63 190q0 120 71 205t187 85q56 0 97 -26t45 -74l76 326h77l-163 -706h-77l14 64q-51 -73 -147 -73q-92 0 -136 57t-44 142zM145 193q0 -66 31.5 -103.5t86.5 -37.5q56 0 97 41.5t58.5 96t17.5 109.5q0 49 -27 84t-85 35q-75 0 -127 -65t-52 -160zM611 513q31 50 49 109 h-35l19 84h78q-10 -48 -23.5 -85.5t-23 -55t-30.5 -52.5h-34z" />
<glyph unicode="&#x110;" horiz-adv-x="729" d="M58 0l79 345h-79l16 67h79l68 294h194q47 0 77 -2t75.5 -15t76.5 -38q88 -72 88 -214q0 -52 -11 -107t-35.5 -114.5t-72.5 -110.5t-114 -78q-65 -27 -189 -27h-252zM163 72h196q72 0 129.5 36t90 92.5t49 116t16.5 114.5q0 56 -15.5 96.5t-36 60.5t-53 31t-54 13t-51.5 2 h-142l-51 -222h185l-15 -67h-186z" />
<glyph unicode="&#x111;" horiz-adv-x="562" d="M63 190q0 120 71 205t187 85q56 0 97 -26t45 -74l42 182h-163l13 59h164l20 85h77l-20 -85h63l-13 -59h-64l-129 -562h-77l14 64q-51 -73 -147 -73q-92 0 -136 57t-44 142zM145 193q0 -66 31.5 -103.5t86.5 -37.5q56 0 97 41.5t58.5 96t17.5 109.5q0 49 -27 84t-85 35 q-75 0 -127 -65t-52 -160z" />
<glyph unicode="&#x112;" horiz-adv-x="625" d="M56 0l163 706h459l-17 -75h-370l-54 -233h339l-16 -70h-339l-59 -253h420l-17 -75h-509zM321 782l14 67h288l-14 -67h-288z" />
<glyph unicode="&#x113;" horiz-adv-x="521" d="M62 189q0 124 73 209t187 85q84 0 131 -49.5t47 -143.5q0 -31 -6 -63h-353q-2 -14 -2 -33q0 -37 10.5 -64.5t26 -42.5t35 -24t34 -11.5t27.5 -2.5q42 0 80 25.5t54 70.5l75 -13q-7 -20 -22 -42t-41 -46.5t-68.5 -40t-93.5 -15.5q-93 0 -143.5 55.5t-50.5 145.5zM156 285 h266q0 1 0.5 8t0.5 11q0 53 -29.5 85.5t-76.5 32.5q-55 0 -100 -40.5t-61 -96.5zM196 542l15 66h287l-15 -66h-287z" />
<glyph unicode="&#x116;" horiz-adv-x="625" d="M56 0l163 706h459l-17 -75h-370l-54 -233h339l-16 -70h-339l-59 -253h420l-17 -75h-509zM407 777l23 103h92l-23 -103h-92z" />
<glyph unicode="&#x117;" horiz-adv-x="521" d="M62 189q0 124 73 209t187 85q84 0 131 -49.5t47 -143.5q0 -31 -6 -63h-353q-2 -14 -2 -33q0 -37 10.5 -64.5t26 -42.5t35 -24t34 -11.5t27.5 -2.5q42 0 80 25.5t54 70.5l75 -13q-7 -20 -22 -42t-41 -46.5t-68.5 -40t-93.5 -15.5q-93 0 -143.5 55.5t-50.5 145.5zM156 285 h266q0 1 0.5 8t0.5 11q0 53 -29.5 85.5t-76.5 32.5q-55 0 -100 -40.5t-61 -96.5zM288 551l24 102h92l-24 -102h-92z" />
<glyph unicode="&#x118;" horiz-adv-x="625" d="M56 0l163 706h459l-17 -75h-370l-54 -233h339l-16 -70h-339l-59 -253h420l-17 -75h-24q-22 -3 -55.5 -35t-33.5 -52q0 -25 32 -25q9 0 25 1.5t19 1.5l-18 -75q-33 -5 -54 -5q-45 0 -65.5 21.5t-20.5 50.5q0 58 75 117h-389z" />
<glyph unicode="&#x119;" horiz-adv-x="521" d="M62 189q0 124 73 209t187 85q84 0 131 -49.5t47 -143.5q0 -31 -6 -63h-353q-2 -14 -2 -33q0 -37 10.5 -64.5t26 -42.5t35 -24t34 -11.5t27.5 -2.5q42 0 80 25.5t54 70.5l75 -13q-27 -78 -114 -121q-35 -18 -65.5 -48.5t-30.5 -49.5q0 -25 32 -25q9 0 25 1.5t19 1.5 l-18 -75q-33 -5 -54 -5q-45 0 -65.5 21.5t-20.5 50.5q0 55 59 105q-89 3 -137.5 58t-48.5 143zM156 285h266q0 1 0.5 8t0.5 11q0 53 -29.5 85.5t-76.5 32.5q-55 0 -100 -40.5t-61 -96.5z" />
<glyph unicode="&#x11c;" horiz-adv-x="792" d="M94 302q0 97 33.5 177.5t89.5 132t127.5 80t149.5 28.5q109 0 194 -56t109 -160l-94 -12q-52 153 -208 153q-65 0 -118.5 -22.5t-87.5 -58.5t-57.5 -82t-33.5 -91.5t-10 -88.5q0 -44 10.5 -83.5t33.5 -77t68 -60t107 -22.5q105 0 174.5 60.5t87.5 173.5h-265l16 73h345 l-84 -366h-80l20 88q-28 -49 -92.5 -75t-136.5 -26q-144 0 -221 89.5t-77 225.5zM383 767l129 128h72l57 -128h-67l-33 79l-78 -79h-80z" />
<glyph unicode="&#x11d;" d="M13 -75q0 8 3 32l80 9q-6 -23 -6 -36q0 -35 28 -62.5t85 -27.5q27 0 48 6.5t37 21.5t27 30.5t21.5 43.5t16.5 48.5t15 57.5q-19 -17 -32 -26.5t-42 -20t-63 -10.5q-86 0 -127.5 59.5t-41.5 135.5q0 29 6.5 63.5t24.5 76t45 75t73 56.5t103 23q31 0 55.5 -8t41 -23.5 t23.5 -24t16 -22.5l15 69h76l-102 -445q-29 -128 -82.5 -187t-156.5 -59q-77 0 -132 37t-55 108zM143 186q0 -72 33.5 -103.5t77.5 -31.5q47 0 82 30t51.5 74t24 81t7.5 63q0 21 -4 39.5t-14 37.5t-31.5 30.5t-51.5 11.5q-47 0 -83 -24.5t-55 -62t-28 -74.5t-9 -71zM192 529 l155 154h73l68 -154h-68l-45 106l-100 -106h-83z" />
<glyph unicode="&#x11e;" horiz-adv-x="792" d="M94 302q0 97 33.5 177.5t89.5 132t127.5 80t149.5 28.5q109 0 194 -56t109 -160l-94 -12q-52 153 -208 153q-65 0 -118.5 -22.5t-87.5 -58.5t-57.5 -82t-33.5 -91.5t-10 -88.5q0 -44 10.5 -83.5t33.5 -77t68 -60t107 -22.5q105 0 174.5 60.5t87.5 173.5h-265l16 73h345 l-84 -366h-80l20 88q-28 -49 -92.5 -75t-136.5 -26q-144 0 -221 89.5t-77 225.5zM394 862v14h69q-1 -7 -1 -17q0 -15 16 -27.5t34 -12.5q62 0 83 57h70q-15 -46 -54.5 -77.5t-102.5 -31.5q-45 0 -79.5 24t-34.5 71z" />
<glyph unicode="&#x11f;" d="M13 -75q0 8 3 32l80 9q-6 -23 -6 -36q0 -35 28 -62.5t85 -27.5q27 0 48 6.5t37 21.5t27 30.5t21.5 43.5t16.5 48.5t15 57.5q-19 -17 -32 -26.5t-42 -20t-63 -10.5q-86 0 -127.5 59.5t-41.5 135.5q0 29 6.5 63.5t24.5 76t45 75t73 56.5t103 23q31 0 55.5 -8t41 -23.5 t23.5 -24t16 -22.5l15 69h76l-102 -445q-29 -128 -82.5 -187t-156.5 -59q-77 0 -132 37t-55 108zM143 186q0 -72 33.5 -103.5t77.5 -31.5q47 0 82 30t51.5 74t24 81t7.5 63q0 21 -4 39.5t-14 37.5t-31.5 30.5t-51.5 11.5q-47 0 -83 -24.5t-55 -62t-28 -74.5t-9 -71zM215 652 v16h72q-2 -16 -2 -22q0 -25 17 -38.5t41 -13.5q63 0 94 74h74q-7 -19 -18.5 -38.5t-31 -41.5t-51 -36t-68.5 -14q-55 0 -91 28.5t-36 85.5z" />
<glyph unicode="&#x120;" horiz-adv-x="792" d="M94 302q0 97 33.5 177.5t89.5 132t127.5 80t149.5 28.5q109 0 194 -56t109 -160l-94 -12q-52 153 -208 153q-65 0 -118.5 -22.5t-87.5 -58.5t-57.5 -82t-33.5 -91.5t-10 -88.5q0 -44 10.5 -83.5t33.5 -77t68 -60t107 -22.5q105 0 174.5 60.5t87.5 173.5h-265l16 73h345 l-84 -366h-80l20 88q-28 -49 -92.5 -75t-136.5 -26q-144 0 -221 89.5t-77 225.5zM464 777l23 103h92l-23 -103h-92z" />
<glyph unicode="&#x121;" d="M13 -75q0 8 3 32l80 9q-6 -23 -6 -36q0 -35 28 -62.5t85 -27.5q27 0 48 6.5t37 21.5t27 30.5t21.5 43.5t16.5 48.5t15 57.5q-19 -17 -32 -26.5t-42 -20t-63 -10.5q-86 0 -127.5 59.5t-41.5 135.5q0 29 6.5 63.5t24.5 76t45 75t73 56.5t103 23q31 0 55.5 -8t41 -23.5 t23.5 -24t16 -22.5l15 69h76l-102 -445q-29 -128 -82.5 -187t-156.5 -59q-77 0 -132 37t-55 108zM143 186q0 -72 33.5 -103.5t77.5 -31.5q47 0 82 30t51.5 74t24 81t7.5 63q0 21 -4 39.5t-14 37.5t-31.5 30.5t-51.5 11.5q-47 0 -83 -24.5t-55 -62t-28 -74.5t-9 -71zM294 551 l24 102h92l-24 -102h-92z" />
<glyph unicode="&#x122;" horiz-adv-x="792" d="M94 302q0 97 33.5 177.5t89.5 132t127.5 80t149.5 28.5q109 0 194 -56t109 -160l-94 -12q-52 153 -208 153q-65 0 -118.5 -22.5t-87.5 -58.5t-57.5 -82t-33.5 -91.5t-10 -88.5q0 -44 10.5 -83.5t33.5 -77t68 -60t107 -22.5q105 0 174.5 60.5t87.5 173.5h-265l16 73h345 l-84 -366h-80l20 88q-28 -49 -92.5 -75t-136.5 -26q-144 0 -221 89.5t-77 225.5zM329 -188q28 36 41 80h-32l16 70h80q-14 -60 -27 -88t-39 -62h-39z" />
<glyph unicode="&#x123;" d="M13 -75q0 8 3 32l80 9q-6 -23 -6 -36q0 -35 28 -62.5t85 -27.5q27 0 48 6.5t37 21.5t27 30.5t21.5 43.5t16.5 48.5t15 57.5q-19 -17 -32 -26.5t-42 -20t-63 -10.5q-86 0 -127.5 59.5t-41.5 135.5q0 29 6.5 63.5t24.5 76t45 75t73 56.5t103 23q31 0 55.5 -8t41 -23.5 t23.5 -24t16 -22.5l15 69h76l-102 -445q-29 -128 -82.5 -187t-156.5 -59q-77 0 -132 37t-55 108zM143 186q0 -72 33.5 -103.5t77.5 -31.5q47 0 82 30t51.5 74t24 81t7.5 63q0 21 -4 39.5t-14 37.5t-31.5 30.5t-51.5 11.5q-47 0 -83 -24.5t-55 -62t-28 -74.5t-9 -71zM291 533 q14 60 27 88t39 62h39q-28 -36 -41 -80h32l-16 -70h-80z" />
<glyph unicode="&#x124;" horiz-adv-x="750" d="M58 0l163 706h87l-68 -295h390l68 295h87l-163 -706h-87l78 337h-390l-78 -337h-87zM383 767l129 128h72l57 -128h-67l-33 79l-78 -79h-80z" />
<glyph unicode="&#x125;" d="M45 0l163 706h78l-73 -315q60 92 167 92q64 0 98.5 -31t34.5 -80q0 -22 -11 -77l-68 -295h-79l70 304q7 28 7 47q0 33 -21.5 50.5t-55.5 17.5q-133 0 -176 -180l-56 -239h-78zM123 767l129 128h72l57 -128h-67l-33 79l-78 -79h-80z" />
<glyph unicode="&#x126;" horiz-adv-x="750" d="M58 0l120 522h-68l16 70h68l27 114h87l-27 -114h390l27 114h87l-27 -114h69l-16 -70h-69l-120 -522h-87l78 337h-390l-78 -337h-87zM240 411h390l25 111h-390z" />
<glyph unicode="&#x127;" d="M45 0l130 562h-66l13 59h66l20 85h78l-20 -85h148l-12 -59h-150l-39 -171q60 92 167 92q64 0 98.5 -31t34.5 -80q0 -22 -11 -77l-68 -295h-79l70 304q7 28 7 47q0 33 -21.5 50.5t-55.5 17.5q-133 0 -176 -180l-56 -239h-78z" />
<glyph unicode="&#x12a;" horiz-adv-x="271" d="M57 0l163 706h86l-163 -706h-86zM151 782l14 67h248l-14 -67h-248z" />
<glyph unicode="&#x12b;" horiz-adv-x="229" d="M42 0l108 471h78l-109 -471h-77zM75 542l15 66h253l-15 -66h-253z" />
<glyph unicode="&#x12e;" horiz-adv-x="271" d="M-12 -117q0 26 14.5 51.5t26.5 37t33 28.5h-5l163 706h86l-163 -706q-73 -58 -73 -87q0 -25 32 -25q9 0 25 1.5t19 1.5l-18 -75q-33 -5 -54 -5q-45 0 -65.5 21.5t-20.5 50.5z" />
<glyph unicode="&#x12f;" horiz-adv-x="229" d="M-33 -117q0 59 74 117l109 471h79l-108 -471q-72 -58 -72 -87q0 -25 32 -25q9 0 25 1.5t19 1.5l-18 -75q-33 -5 -54 -5q-45 0 -65.5 21.5t-20.5 50.5zM182 616l21 90h82l-21 -90h-82z" />
<glyph unicode="&#x130;" horiz-adv-x="271" d="M57 0l163 706h86l-163 -706h-86zM232 777l23 103h92l-23 -103h-92z" />
<glyph unicode="&#x131;" horiz-adv-x="229" d="M42 0l108 471h78l-109 -471h-77z" />
<glyph unicode="&#x134;" horiz-adv-x="437" d="M17 6l19 85q52 -24 101 -24q31 0 54.5 11.5t37 25.5t25.5 43t16 45t12 50l107 464h88l-112 -485q-11 -47 -20 -76t-26 -62.5t-39.5 -52t-58.5 -31t-84 -12.5q-63 0 -120 19zM310 767l129 128h72l57 -128h-67l-33 79l-78 -79h-80z" />
<glyph unicode="&#x135;" horiz-adv-x="229" d="M-97 -224l15 64q18 -2 32 -2q37 0 50 16.5t25 68.5l131 548h76l-127 -547q-21 -91 -48 -121.5t-101 -30.5q-29 0 -53 4zM40 529l155 154h73l68 -154h-68l-45 106l-100 -106h-83z" />
<glyph unicode="&#x136;" horiz-adv-x="646" d="M58 0l163 706h85l-77 -332l419 332h118l-335 -267l194 -439h-96l-168 384l-158 -125l-60 -259h-85zM264 -188q28 36 41 80h-32l16 70h80q-14 -60 -27 -88t-39 -62h-39z" />
<glyph unicode="&#x137;" horiz-adv-x="479" d="M41 0l163 706h78l-100 -431l249 196h105l-242 -190l180 -281h-96l-145 231l-74 -57l-40 -174h-78zM177 -188q28 36 41 80h-32l16 70h80q-14 -60 -27 -88t-39 -62h-39z" />
<glyph unicode="&#x139;" d="M57 0l163 706h88l-146 -630h335l-17 -76h-423zM238 768l87 127h125l-145 -127h-67z" />
<glyph unicode="&#x13a;" horiz-adv-x="229" d="M41 0l163 706h78l-163 -706h-78zM215 768l87 127h125l-145 -127h-67z" />
<glyph unicode="&#x13b;" d="M57 0l163 706h88l-146 -630h335l-17 -76h-423zM213 -188q28 36 41 80h-32l16 70h80q-14 -60 -27 -88t-39 -62h-39z" />
<glyph unicode="&#x13c;" horiz-adv-x="229" d="M7 -188q28 36 41 80h-32l16 70h80q-14 -60 -27 -88t-39 -62h-39zM41 0l163 706h78l-163 -706h-78z" />
<glyph unicode="&#x13d;" d="M57 0l163 706h88l-146 -630h335l-17 -76h-423zM306 513q31 50 49 109h-35l19 84h78q-10 -48 -23.5 -85.5t-23 -55t-30.5 -52.5h-34z" />
<glyph unicode="&#x13e;" horiz-adv-x="229" d="M41 0l163 706h78l-163 -706h-78zM279 513q31 50 49 109h-35l19 84h78q-10 -48 -23.5 -85.5t-23 -55t-30.5 -52.5h-34z" />
<glyph unicode="&#x13f;" d="M57 0l163 706h88l-146 -630h335l-17 -76h-423zM386 322l23 102h90l-23 -102h-90z" />
<glyph unicode="&#x140;" horiz-adv-x="265" d="M40 0l163 706h78l-163 -706h-78zM247 318l23 98h82l-23 -98h-82z" />
<glyph unicode="&#x141;" d="M21 130l24 104l83 76l92 396h88l-67 -291l196 180l-24 -104l-196 -182l-55 -233h335l-17 -76h-423l47 208z" />
<glyph unicode="&#x142;" horiz-adv-x="229" d="M27 181l23 100l75 70l82 355h78l-60 -258l74 70l-24 -102l-74 -71l-79 -345h-78l57 250z" />
<glyph unicode="&#x143;" horiz-adv-x="729" d="M57 0l163 706h95l231 -611l133 611h84l-163 -706h-91l-234 613l-133 -613h-85zM445 768l87 127h125l-145 -127h-67z" />
<glyph unicode="&#x144;" d="M41 0l109 471h79l-16 -68q76 80 162 80q18 0 38.5 -5.5t43.5 -17.5t38 -37.5t15 -59.5q0 -28 -11 -79l-66 -284h-78l67 291q7 28 7 54q0 36 -22 55.5t-59 19.5q-76 0 -114 -47.5t-60 -140.5l-54 -232h-79zM300 533l87 150h117l-143 -150h-61z" />
<glyph unicode="&#x145;" horiz-adv-x="729" d="M57 0l163 706h95l231 -611l133 611h84l-163 -706h-91l-234 613l-133 -613h-85zM280 -188q28 36 41 80h-32l16 70h80q-14 -60 -27 -88t-39 -62h-39z" />
<glyph unicode="&#x146;" d="M41 0l109 471h79l-16 -68q76 80 162 80q18 0 38.5 -5.5t43.5 -17.5t38 -37.5t15 -59.5q0 -28 -11 -79l-66 -284h-78l67 291q7 28 7 54q0 36 -22 55.5t-59 19.5q-76 0 -114 -47.5t-60 -140.5l-54 -232h-79zM170 -188q28 36 41 80h-32l16 70h80q-14 -60 -27 -88t-39 -62 h-39z" />
<glyph unicode="&#x147;" horiz-adv-x="729" d="M57 0l163 706h95l231 -611l133 611h84l-163 -706h-91l-234 613l-133 -613h-85zM400 895h66l34 -80l77 80h80l-128 -128h-72z" />
<glyph unicode="&#x148;" d="M41 0l109 471h79l-16 -68q76 80 162 80q18 0 38.5 -5.5t43.5 -17.5t38 -37.5t15 -59.5q0 -28 -11 -79l-66 -284h-78l67 291q7 28 7 54q0 36 -22 55.5t-59 19.5q-76 0 -114 -47.5t-60 -140.5l-54 -232h-79zM248 683h68l45 -104l103 104h80l-155 -153h-71z" />
<glyph unicode="&#x150;" horiz-adv-x="792" d="M96 308q0 177 104.5 294.5t276.5 117.5q152 0 234 -91t82 -231q0 -178 -111.5 -294.5t-274.5 -116.5q-142 0 -226.5 89.5t-84.5 231.5zM191 307q0 -107 60 -178.5t162 -71.5q90 0 157 52t98.5 129t31.5 165q0 123 -65 185t-158 62q-61 0 -111.5 -22.5t-82 -58.5 t-53 -82.5t-30.5 -91t-9 -88.5zM362 761l85 127h118l-144 -127h-59zM534 761l85 127h118l-144 -127h-59z" />
<glyph unicode="&#x151;" d="M62 195q0 69 27.5 133t89.5 109.5t147 45.5q91 0 143.5 -60t52.5 -150q0 -111 -71.5 -198t-190.5 -87q-92 0 -145 58.5t-53 148.5zM142 189q0 -73 35 -107t83 -34q79 0 130.5 71.5t51.5 163.5q0 43 -13 73t-33 43t-36.5 18t-32.5 5q-86 0 -135.5 -72t-49.5 -161zM231 533 l85 150h110l-142 -150h-53zM379 533l85 150h110l-142 -150h-53z" />
<glyph unicode="&#x152;" horiz-adv-x="1104" d="M94 306q0 185 109 297t257 112q166 0 220 -126l23 117h419l-11 -73h-338l-48 -233h327l-17 -69h-326l-52 -257h402l-17 -74h-485l21 89q-37 -53 -96 -75.5t-115 -22.5q-117 0 -195 87.5t-78 227.5zM187 301q0 -107 53.5 -171t141.5 -64q67 0 119 37.5t80 97.5t42 124.5 t14 129.5q0 88 -46 138.5t-135 50.5q-111 0 -190 -94.5t-79 -248.5z" />
<glyph unicode="&#x153;" horiz-adv-x="875" d="M62 193q0 49 15 98.5t44 93t79 71t113 27.5q54 0 102 -25t69 -71q71 96 186 96q74 0 129 -47t55 -145q0 -26 -7 -67h-351q-2 -22 -2 -38q0 -60 41 -100t94 -40q40 0 78 27t56 74l76 -12q0 -1 -4 -9t-7 -14.5t-10 -18t-14.5 -21t-19.5 -21t-25 -21.5q-57 -42 -137 -42 q-64 0 -112 27.5t-72 66.5q-87 -93 -188 -93q-89 0 -138.5 59t-49.5 145zM141 195q0 -73 34.5 -109t78.5 -36q66 0 118 68.5t52 172.5q0 66 -32 99t-80 33q-75 0 -123 -71t-48 -157zM507 283h267q2 8 2 27q0 42 -21 69t-43.5 35t-43.5 8q-59 0 -105.5 -47t-55.5 -92z" />
<glyph unicode="&#x154;" horiz-adv-x="667" d="M57 0l163 706h285q80 0 125 -29q76 -47 76 -150q0 -82 -52.5 -138.5t-143.5 -69.5l122 -319h-96l-114 307h-207l-71 -307h-87zM232 381h205q92 0 136 43t44 104q0 45 -30 74t-84 29h-213zM383 768l87 127h125l-145 -127h-67z" />
<glyph unicode="&#x155;" horiz-adv-x="313" d="M42 0l108 471h77l-19 -83q53 92 140 92l18 -1l-17 -75q-12 1 -21 1q-61 0 -101 -48q-39 -45 -58 -136l-51 -221h-76zM208 533l87 150h117l-143 -150h-61z" />
<glyph unicode="&#x15a;" horiz-adv-x="667" d="M61 228l94 18q0 -2 -0.5 -8t-0.5 -10q0 -73 45.5 -124t139.5 -51q97 0 145.5 43t48.5 100q0 44 -28 68t-83 46l-86 34q-21 8 -28.5 11t-29.5 13.5t-33 18.5t-28 23t-25.5 30t-15.5 36t-7 45q0 59 27.5 100.5t72 61.5t85.5 28.5t82 8.5q102 0 173.5 -45.5t81.5 -144.5 l-87 -21q-24 143 -172 143q-77 0 -123.5 -34.5t-46.5 -86.5q0 -21 8 -37t28 -29t37.5 -21.5t51.5 -21.5l81 -32q75 -29 115.5 -71t40.5 -110q0 -35 -12.5 -70t-41.5 -71t-88 -58.5t-140 -22.5q-39 0 -74 5t-74.5 20.5t-67.5 40.5t-46.5 70t-18.5 105zM403 768l87 127h125 l-145 -127h-67z" />
<glyph unicode="&#x15b;" horiz-adv-x="479" d="M46 131q0 15 3 31l80 13q-6 -36 -6 -40q0 -88 111 -88q54 0 87 22.5t33 60.5q0 23 -16 38t-55 30l-83 32q-97 38 -97 113q0 53 46.5 96.5t142.5 43.5q92 0 129 -37.5t37 -86.5q0 -11 -1 -18l-76 -13q3 9 3 27q0 30 -25.5 50t-65.5 20q-51 0 -79 -22.5t-28 -49.5 q0 -23 16 -35t56 -28l77 -30q50 -19 76.5 -45t26.5 -71q0 -16 -4 -33t-17 -40t-33.5 -40.5t-58.5 -30t-87 -12.5q-98 0 -145 38t-47 105zM256 533l87 150h117l-143 -150h-61z" />
<glyph unicode="&#x15c;" horiz-adv-x="667" d="M61 228l94 18q0 -2 -0.5 -8t-0.5 -10q0 -73 45.5 -124t139.5 -51q97 0 145.5 43t48.5 100q0 44 -28 68t-83 46l-86 34q-21 8 -28.5 11t-29.5 13.5t-33 18.5t-28 23t-25.5 30t-15.5 36t-7 45q0 59 27.5 100.5t72 61.5t85.5 28.5t82 8.5q102 0 173.5 -45.5t81.5 -144.5 l-87 -21q-24 143 -172 143q-77 0 -123.5 -34.5t-46.5 -86.5q0 -21 8 -37t28 -29t37.5 -21.5t51.5 -21.5l81 -32q75 -29 115.5 -71t40.5 -110q0 -35 -12.5 -70t-41.5 -71t-88 -58.5t-140 -22.5q-39 0 -74 5t-74.5 20.5t-67.5 40.5t-46.5 70t-18.5 105zM337 767l129 128h72 l57 -128h-67l-33 79l-78 -79h-80z" />
<glyph unicode="&#x15d;" horiz-adv-x="479" d="M46 131q0 15 3 31l80 13q-6 -36 -6 -40q0 -88 111 -88q54 0 87 22.5t33 60.5q0 23 -16 38t-55 30l-83 32q-97 38 -97 113q0 53 46.5 96.5t142.5 43.5q92 0 129 -37.5t37 -86.5q0 -11 -1 -18l-76 -13q3 9 3 27q0 30 -25.5 50t-65.5 20q-51 0 -79 -22.5t-28 -49.5 q0 -23 16 -35t56 -28l77 -30q50 -19 76.5 -45t26.5 -71q0 -16 -4 -33t-17 -40t-33.5 -40.5t-58.5 -30t-87 -12.5q-98 0 -145 38t-47 105zM166 529l155 154h73l68 -154h-68l-45 106l-100 -106h-83z" />
<glyph unicode="&#x15e;" horiz-adv-x="667" d="M61 228l94 18q0 -2 -0.5 -8t-0.5 -10q0 -73 45.5 -124t139.5 -51q97 0 145.5 43t48.5 100q0 44 -28 68t-83 46l-86 34q-21 8 -28.5 11t-29.5 13.5t-33 18.5t-28 23t-25.5 30t-15.5 36t-7 45q0 59 27.5 100.5t72 61.5t85.5 28.5t82 8.5q102 0 173.5 -45.5t81.5 -144.5 l-87 -21q-24 143 -172 143q-77 0 -123.5 -34.5t-46.5 -86.5q0 -21 8 -37t28 -29t37.5 -21.5t51.5 -21.5l81 -32q75 -29 115.5 -71t40.5 -110q0 -27 -7 -54.5t-26.5 -58.5t-49.5 -54.5t-81 -39t-116 -15.5h-5l-21 -30q32 -6 50.5 -26t22 -34.5t3.5 -25.5q0 -45 -36 -76.5 t-89 -31.5q-14 0 -56 6l7 29q2 0 14 -0.5t18 -0.5q28 0 41 12.5t13 28.5q0 42 -75 55l71 96q-241 18 -241 239z" />
<glyph unicode="&#x15f;" horiz-adv-x="479" d="M46 131q0 15 3 31l80 13q-6 -36 -6 -40q0 -88 111 -88q54 0 87 22.5t33 60.5q0 23 -16 38t-55 30l-83 32q-97 38 -97 113q0 53 46.5 96.5t142.5 43.5q92 0 129 -37.5t37 -86.5q0 -11 -1 -18l-76 -13q3 9 3 27q0 30 -25.5 50t-65.5 20q-51 0 -79 -22.5t-28 -49.5 q0 -24 16 -36t56 -27l77 -30q50 -19 76.5 -45t26.5 -71q0 -21 -7.5 -43.5t-26.5 -49.5t-61.5 -45t-102.5 -18l-22 -31q27 -2 43.5 -16.5t16.5 -42.5q0 -40 -34 -65t-78 -25q-20 0 -36 3l6 26h12q49 0 49 31q0 13 -10 21.5t-18 10.5t-24 5l60 84q-81 7 -120 44t-39 98z" />
<glyph unicode="&#x160;" horiz-adv-x="667" d="M61 228l94 18q0 -2 -0.5 -8t-0.5 -10q0 -73 45.5 -124t139.5 -51q97 0 145.5 43t48.5 100q0 44 -28 68t-83 46l-86 34q-21 8 -28.5 11t-29.5 13.5t-33 18.5t-28 23t-25.5 30t-15.5 36t-7 45q0 59 27.5 100.5t72 61.5t85.5 28.5t82 8.5q102 0 173.5 -45.5t81.5 -144.5 l-87 -21q-24 143 -172 143q-77 0 -123.5 -34.5t-46.5 -86.5q0 -21 8 -37t28 -29t37.5 -21.5t51.5 -21.5l81 -32q75 -29 115.5 -71t40.5 -110q0 -35 -12.5 -70t-41.5 -71t-88 -58.5t-140 -22.5q-39 0 -74 5t-74.5 20.5t-67.5 40.5t-46.5 70t-18.5 105zM381 895h66l34 -80 l77 80h80l-128 -128h-72z" />
<glyph unicode="&#x161;" horiz-adv-x="479" d="M46 131q0 15 3 31l80 13q-6 -36 -6 -40q0 -88 111 -88q54 0 87 22.5t33 60.5q0 23 -16 38t-55 30l-83 32q-97 38 -97 113q0 53 46.5 96.5t142.5 43.5q92 0 129 -37.5t37 -86.5q0 -11 -1 -18l-76 -13q3 9 3 27q0 30 -25.5 50t-65.5 20q-51 0 -79 -22.5t-28 -49.5 q0 -23 16 -35t56 -28l77 -30q50 -19 76.5 -45t26.5 -71q0 -16 -4 -33t-17 -40t-33.5 -40.5t-58.5 -30t-87 -12.5q-98 0 -145 38t-47 105zM225 683h68l45 -104l103 104h80l-155 -153h-71z" />
<glyph unicode="&#x162;" d="M125 630l17 76h518l-17 -76h-216l-145 -630h-89l150 630h-218zM167 -186q28 36 41 80h-32l16 70h80q-14 -60 -27 -88t-39 -62h-39z" />
<glyph unicode="&#x163;" horiz-adv-x="271" d="M51 -188q28 36 41 80h-32l16 70h80q-14 -60 -27 -88t-39 -62h-39zM74 410l14 61h75l35 149h75l-35 -149h83l-13 -61h-84l-59 -258q-11 -51 -11 -60q0 -30 35 -30q8 0 54 8l-14 -59q-30 -14 -76 -14q-78 0 -78 67q0 24 11 73l64 273h-76z" />
<glyph unicode="&#x164;" d="M125 630l17 76h518l-17 -76h-216l-145 -630h-89l150 630h-218zM323 895h66l34 -80l77 80h80l-128 -128h-72z" />
<glyph unicode="&#x165;" horiz-adv-x="271" d="M74 410l14 61h75l35 149h75l-35 -149h83l-13 -61h-84l-59 -258q-11 -51 -11 -60q0 -30 35 -30q8 0 54 8l-14 -59q-30 -14 -76 -14q-78 0 -78 67q0 24 11 73l64 273h-76zM290 513q31 50 49 109h-35l19 84h78q-10 -48 -23.5 -85.5t-23 -55t-30.5 -52.5h-34z" />
<glyph unicode="&#x16a;" horiz-adv-x="708" d="M107 192q0 59 23 158l82 356h88l-85 -365q-18 -76 -18 -135q0 -42 14 -72t37.5 -44.5t48.5 -21t54 -6.5q54 0 91.5 15.5t63 51.5t40.5 78.5t31 110.5l89 388h88l-98 -424q-12 -54 -25 -91.5t-36.5 -79t-54.5 -66.5t-80.5 -41.5t-113.5 -16.5q-115 0 -177 56t-62 149z M353 782l14 67h288l-14 -67h-288z" />
<glyph unicode="&#x16b;" d="M74 102q0 17 15 89l64 280h79l-65 -280q-10 -42 -10 -69q0 -31 21.5 -48.5t62.5 -17.5q70 0 114 47q18 19 31 46.5t18 46t13 53.5l51 222h75l-109 -471h-75l17 74q-30 -39 -76 -61t-96 -22q-63 0 -96.5 32t-33.5 79zM220 542l15 66h287l-15 -66h-287z" />
<glyph unicode="&#x16c;" horiz-adv-x="708" d="M107 192q0 59 23 158l82 356h88l-85 -365q-18 -76 -18 -135q0 -42 14 -72t37.5 -44.5t48.5 -21t54 -6.5q54 0 91.5 15.5t63 51.5t40.5 78.5t31 110.5l89 388h88l-98 -424q-12 -54 -25 -91.5t-36.5 -79t-54.5 -66.5t-80.5 -41.5t-113.5 -16.5q-115 0 -177 56t-62 149z M373 862v14h69q-1 -7 -1 -17q0 -15 16 -27.5t34 -12.5q62 0 83 57h70q-15 -46 -54.5 -77.5t-102.5 -31.5q-45 0 -79.5 24t-34.5 71z" />
<glyph unicode="&#x16d;" d="M74 102q0 17 15 89l64 280h79l-65 -280q-10 -42 -10 -69q0 -31 21.5 -48.5t62.5 -17.5q70 0 114 47q18 19 31 46.5t18 46t13 53.5l51 222h75l-109 -471h-75l17 74q-30 -39 -76 -61t-96 -22q-63 0 -96.5 32t-33.5 79zM235 652v16h72q-2 -16 -2 -22q0 -25 17 -38.5 t41 -13.5q63 0 94 74h74q-7 -19 -18.5 -38.5t-31 -41.5t-51 -36t-68.5 -14q-55 0 -91 28.5t-36 85.5z" />
<glyph unicode="&#x170;" horiz-adv-x="708" d="M107 192q0 59 23 158l82 356h88l-85 -365q-18 -76 -18 -135q0 -42 14 -72t37.5 -44.5t48.5 -21t54 -6.5q54 0 91.5 15.5t63 51.5t40.5 78.5t31 110.5l89 388h88l-98 -424q-12 -54 -25 -91.5t-36.5 -79t-54.5 -66.5t-80.5 -41.5t-113.5 -16.5q-115 0 -177 56t-62 149z M365 761l85 127h118l-144 -127h-59zM537 761l85 127h118l-144 -127h-59z" />
<glyph unicode="&#x171;" d="M74 102q0 17 15 89l64 280h79l-65 -280q-10 -42 -10 -69q0 -31 21.5 -48.5t62.5 -17.5q70 0 114 47q18 19 31 46.5t18 46t13 53.5l51 222h75l-109 -471h-75l17 74q-30 -39 -76 -61t-96 -22q-63 0 -96.5 32t-33.5 79zM250 533l85 150h110l-142 -150h-53zM398 533l85 150 h110l-142 -150h-53z" />
<glyph unicode="&#x172;" horiz-adv-x="708" d="M107 192q0 59 23 158l82 356h88l-85 -365q-18 -76 -18 -135q0 -42 14 -72t37.5 -44.5t48.5 -21t54 -6.5q54 0 91.5 15.5t63 51.5t40.5 78.5t31 110.5l89 388h88l-98 -424q-12 -50 -22.5 -83.5t-29 -71t-42.5 -61.5t-60.5 -43.5t-84.5 -29.5q-34 -7 -61 -34.5t-27 -45.5 q0 -25 32 -25q9 0 25 1.5t19 1.5l-18 -75q-33 -5 -54 -5q-45 0 -65.5 21.5t-20.5 50.5q0 55 60 106q-97 10 -148.5 64t-51.5 139z" />
<glyph unicode="&#x173;" d="M74 102q0 17 15 89l64 280h79l-65 -280q-10 -42 -10 -69q0 -31 21.5 -48.5t62.5 -17.5q70 0 114 47q18 19 31 46.5t18 46t13 53.5l51 222h75l-109 -471q-29 -16 -54.5 -43.5t-25.5 -43.5q0 -25 32 -25q9 0 25 1.5t19 1.5l-18 -75q-33 -5 -54 -5q-45 0 -65.5 21.5 t-20.5 50.5q0 22 8.5 42.5t26 38.5t27 26t28.5 22l14 62q-30 -39 -76 -61t-96 -22q-63 0 -96.5 32t-33.5 79z" />
<glyph unicode="&#x178;" horiz-adv-x="583" d="M141 706h89l95 -319l276 319h106l-359 -399l-70 -307h-89l73 317zM293 777l24 103h91l-23 -103h-92zM487 777l24 103h91l-24 -103h-91z" />
<glyph unicode="&#x179;" horiz-adv-x="583" d="M-1 0l21 90l502 537h-383l18 79h489l-18 -79l-512 -550h450l-18 -77h-549zM351 768l87 127h125l-145 -127h-67z" />
<glyph unicode="&#x17a;" horiz-adv-x="458" d="M-1 0l15 63l356 340h-266l15 68h360l-17 -74l-345 -329h299l-16 -68h-401zM252 533l87 150h117l-143 -150h-61z" />
<glyph unicode="&#x17b;" horiz-adv-x="583" d="M-1 0l21 90l502 537h-383l18 79h489l-18 -79l-512 -550h450l-18 -77h-549zM354 777l23 103h92l-23 -103h-92z" />
<glyph unicode="&#x17c;" horiz-adv-x="458" d="M-1 0l15 63l356 340h-266l15 68h360l-17 -74l-345 -329h299l-16 -68h-401zM254 551l24 102h92l-24 -102h-92z" />
<glyph unicode="&#x17d;" horiz-adv-x="583" d="M-1 0l21 90l502 537h-383l18 79h489l-18 -79l-512 -550h450l-18 -77h-549zM340 895h66l34 -80l77 80h80l-128 -128h-72z" />
<glyph unicode="&#x17e;" horiz-adv-x="458" d="M-1 0l15 63l356 340h-266l15 68h360l-17 -74l-345 -329h299l-16 -68h-401zM214 683h68l45 -104l103 104h80l-155 -153h-71z" />
<glyph unicode="&#x218;" horiz-adv-x="667" d="M61 228l94 18q0 -2 -0.5 -8t-0.5 -10q0 -73 45.5 -124t139.5 -51q97 0 145.5 43t48.5 100q0 44 -28 68t-83 46l-86 34q-21 8 -28.5 11t-29.5 13.5t-33 18.5t-28 23t-25.5 30t-15.5 36t-7 45q0 59 27.5 100.5t72 61.5t85.5 28.5t82 8.5q102 0 173.5 -45.5t81.5 -144.5 l-87 -21q-24 143 -172 143q-77 0 -123.5 -34.5t-46.5 -86.5q0 -21 8 -37t28 -29t37.5 -21.5t51.5 -21.5l81 -32q75 -29 115.5 -71t40.5 -110q0 -35 -12.5 -70t-41.5 -71t-88 -58.5t-140 -22.5q-39 0 -74 5t-74.5 20.5t-67.5 40.5t-46.5 70t-18.5 105zM254 -188q28 36 41 80 h-32l16 70h80q-14 -60 -27 -88t-39 -62h-39z" />
<glyph unicode="&#x219;" horiz-adv-x="479" d="M46 131q0 15 3 31l80 13q-6 -36 -6 -40q0 -88 111 -88q54 0 87 22.5t33 60.5q0 23 -16 38t-55 30l-83 32q-97 38 -97 113q0 53 46.5 96.5t142.5 43.5q92 0 129 -37.5t37 -86.5q0 -11 -1 -18l-76 -13q3 9 3 27q0 30 -25.5 50t-65.5 20q-51 0 -79 -22.5t-28 -49.5 q0 -23 16 -35t56 -28l77 -30q50 -19 76.5 -45t26.5 -71q0 -16 -4 -33t-17 -40t-33.5 -40.5t-58.5 -30t-87 -12.5q-98 0 -145 38t-47 105zM157 -188q28 36 41 80h-32l16 70h80q-14 -60 -27 -88t-39 -62h-39z" />
<glyph unicode="&#x21a;" d="M125 630l17 76h518l-17 -76h-216l-145 -630h-89l150 630h-218zM167 -186q28 36 41 80h-32l16 70h80q-14 -60 -27 -88t-39 -62h-39z" />
<glyph unicode="&#x21b;" horiz-adv-x="271" d="M51 -188q28 36 41 80h-32l16 70h80q-14 -60 -27 -88t-39 -62h-39zM74 410l14 61h75l35 149h75l-35 -149h83l-13 -61h-84l-59 -258q-11 -51 -11 -60q0 -30 35 -30q8 0 54 8l-14 -59q-30 -14 -76 -14q-78 0 -78 67q0 24 11 73l64 273h-76z" />
<glyph unicode="&#x2c6;" horiz-adv-x="292" d="M-2 529l155 154h73l68 -154h-68l-45 106l-100 -106h-83z" />
<glyph unicode="&#x2da;" horiz-adv-x="292" d="M56 610q0 38 26 64t64 26q37 0 63.5 -26.5t26.5 -63.5t-27 -63.5t-64 -26.5t-63 26.5t-26 63.5zM99 608q0 -20 14 -33.5t34 -13.5q19 0 33 14t14 34t-14 33.5t-34 13.5t-33.5 -14t-13.5 -34z" />
<glyph unicode="&#x2dc;" horiz-adv-x="292" d="M2 574q43 87 93 87q14 0 52.5 -16t59.5 -16q23 0 44 35l39 -19q-21 -45 -40 -65t-48 -20q-18 0 -58 16t-56 16q-28 0 -44 -35z" />
<glyph unicode="&#x37e;" horiz-adv-x="271" d="M53 -155q46 89 63 155h-42l25 109h98q-9 -67 -34 -140t-60 -124h-50zM154 382l26 110h100l-25 -110h-101z" />
<glyph unicode="&#x384;" horiz-adv-x="292" d="M44 533l87 150h117l-143 -150h-61z" />
<glyph unicode="&#x385;" horiz-adv-x="380" d="M-8 552l23 101h91l-23 -101h-91zM124 552l50 142h105l-84 -142h-71zM274 552l23 101h91l-23 -101h-91z" />
<glyph unicode="&#x386;" horiz-adv-x="667" d="M0 0l409 706h108l90 -706h-91l-25 222h-268l-128 -222h-95zM84 556l87 150h117l-143 -150h-61zM265 295h218l-35 353z" />
<glyph unicode="&#x387;" horiz-adv-x="200" d="M62 228l28 124h101l-27 -124h-102z" />
<glyph unicode="&#x388;" horiz-adv-x="625" d="M-46 556l87 150h117l-143 -150h-61zM56 0l163 706h459l-17 -75h-370l-54 -233h339l-16 -70h-339l-59 -253h420l-17 -75h-509z" />
<glyph unicode="&#x389;" horiz-adv-x="750" d="M-46 556l87 150h117l-143 -150h-61zM58 0l163 706h87l-68 -295h390l68 295h87l-163 -706h-87l78 337h-390l-78 -337h-87z" />
<glyph unicode="&#x38a;" horiz-adv-x="271" d="M-46 556l87 150h117l-143 -150h-61zM57 0l163 706h86l-163 -706h-86z" />
<glyph unicode="&#x38c;" horiz-adv-x="792" d="M-26 556l87 150h117l-143 -150h-61zM96 308q0 177 104.5 294.5t276.5 117.5q152 0 234 -91t82 -231q0 -178 -111.5 -294.5t-274.5 -116.5q-142 0 -226.5 89.5t-84.5 231.5zM191 307q0 -107 60 -178.5t162 -71.5q90 0 157 52t98.5 129t31.5 165q0 123 -65 185t-158 62 q-61 0 -111.5 -22.5t-82 -58.5t-53 -82.5t-30.5 -91t-9 -88.5z" />
<glyph unicode="&#x38e;" horiz-adv-x="583" d="M-86 556l87 150h117l-143 -150h-61zM141 706h89l95 -319l276 319h106l-359 -399l-70 -307h-89l73 317z" />
<glyph unicode="&#x38f;" horiz-adv-x="784" d="M-26 556l87 150h117l-143 -150h-61zM38 0l17 75h151q-55 37 -88.5 102.5t-33.5 150.5q0 170 114 281t275 111q141 0 224.5 -80t83.5 -213q0 -245 -190 -352h167l-17 -75h-296l16 69q115 61 171 145t56 208q0 105 -57.5 166.5t-155.5 61.5q-130 0 -213 -95.5t-83 -234.5 q0 -85 38 -150t114 -101l-16 -69h-277z" />
<glyph unicode="&#x390;" horiz-adv-x="239" d="M21 552l23 101h91l-23 -101h-91zM51 58q0 15 4 30l89 383h79l-81 -356q-4 -18 -4 -29q0 -24 25 -24q12 0 31 7l-15 -65q-27 -9 -55 -9q-73 0 -73 63zM153 552l50 142h105l-84 -142h-71zM303 552l23 101h91l-23 -101h-91z" />
<glyph unicode="&#x391;" horiz-adv-x="667" d="M0 0l409 706h108l90 -706h-91l-25 222h-268l-128 -222h-95zM265 295h218l-35 353z" />
<glyph unicode="&#x392;" horiz-adv-x="708" d="M57 0l163 706h274q107 0 159.5 -46t52.5 -118q0 -43 -16.5 -76.5t-43.5 -53t-55 -30t-58 -14.5q57 -1 99 -41.5t42 -107.5q0 -20 -5.5 -44.5t-22.5 -56.5t-44 -57.5t-76.5 -43t-113.5 -17.5h-355zM161 74h244q97 0 137 45t40 105q0 55 -39.5 82t-96.5 27h-225zM238 407 h216q81 0 121 38t40 93q0 37 -24 66.5t-75 29.5h-225z" />
<glyph unicode="&#x393;" horiz-adv-x="527" d="M57 0l163 706h425l-17 -76h-337l-146 -630h-88z" />
<glyph unicode="&#x394;" horiz-adv-x="640" d="M-23 0l411 706h98l139 -706h-648zM124 75h395l-97 544z" />
<glyph unicode="&#x395;" horiz-adv-x="625" d="M56 0l163 706h459l-17 -75h-370l-54 -233h339l-16 -70h-339l-59 -253h420l-17 -75h-509z" />
<glyph unicode="&#x396;" horiz-adv-x="583" d="M-1 0l21 90l502 537h-383l18 79h489l-18 -79l-512 -550h450l-18 -77h-549z" />
<glyph unicode="&#x397;" horiz-adv-x="750" d="M58 0l163 706h87l-68 -295h390l68 295h87l-163 -706h-87l78 337h-390l-78 -337h-87z" />
<glyph unicode="&#x398;" horiz-adv-x="792" d="M96 308q0 177 104.5 294.5t276.5 117.5q152 0 234 -91t82 -231q0 -178 -111.5 -294.5t-274.5 -116.5q-142 0 -226.5 89.5t-84.5 231.5zM191 307q0 -107 60 -178.5t162 -71.5q90 0 157 52t98.5 129t31.5 165q0 123 -65 185t-158 62q-61 0 -111.5 -22.5t-82 -58.5 t-53 -82.5t-30.5 -91t-9 -88.5zM282 328l17 70h312l-17 -70h-312z" />
<glyph unicode="&#x399;" horiz-adv-x="271" d="M57 0l163 706h86l-163 -706h-86z" />
<glyph unicode="&#x39a;" horiz-adv-x="646" d="M58 0l163 706h85l-77 -332l419 332h118l-335 -267l194 -439h-96l-168 384l-158 -125l-60 -259h-85z" />
<glyph unicode="&#x39b;" horiz-adv-x="657" d="M5 0l399 706h108l80 -706h-91l-58 648l-343 -648h-95z" />
<glyph unicode="&#x39c;" horiz-adv-x="833" d="M58 0l163 706h105l72 -632l366 632h104l-163 -706h-84l153 600l-343 -600h-95l-67 611l-127 -611h-84z" />
<glyph unicode="&#x39d;" horiz-adv-x="729" d="M57 0l163 706h95l231 -611l133 611h84l-163 -706h-91l-234 613l-133 -613h-85z" />
<glyph unicode="&#x39e;" horiz-adv-x="645" d="M32 0l19 85h536l-19 -85h-536zM149 323l18 80h415l-18 -80h-415zM175 621l19 85h498l-19 -85h-498z" />
<glyph unicode="&#x39f;" horiz-adv-x="792" d="M96 308q0 177 104.5 294.5t276.5 117.5q152 0 234 -91t82 -231q0 -178 -111.5 -294.5t-274.5 -116.5q-142 0 -226.5 89.5t-84.5 231.5zM191 307q0 -107 60 -178.5t162 -71.5q90 0 157 52t98.5 129t31.5 165q0 123 -65 185t-158 62q-61 0 -111.5 -22.5t-82 -58.5 t-53 -82.5t-30.5 -91t-9 -88.5z" />
<glyph unicode="&#x3a0;" horiz-adv-x="736" d="M58 0l163 706h550l-163 -706h-87l146 632h-376l-146 -632h-87z" />
<glyph unicode="&#x3a1;" horiz-adv-x="646" d="M56 0l163 706h285q89 0 145 -46.5t56 -133.5q0 -101 -73 -163t-208 -62h-211l-69 -301h-88zM230 375h165q45 0 70.5 2t60 15.5t57.5 40.5q34 39 34 92q0 48 -30 77t-84 29h-213z" />
<glyph unicode="&#x3a3;" horiz-adv-x="612" d="M-1 0l21 90l297 279l-174 258l17 79h484l-17 -79h-386l177 -264l-303 -286h442l-18 -77h-540z" />
<glyph unicode="&#x3a4;" d="M125 630l17 76h518l-17 -76h-216l-145 -630h-89l150 630h-218z" />
<glyph unicode="&#x3a5;" horiz-adv-x="583" d="M141 706h89l95 -319l276 319h106l-359 -399l-70 -307h-89l73 317z" />
<glyph unicode="&#x3a6;" horiz-adv-x="817" d="M80 314q0 41 11 82.5t39 86t71 79t114 57.5t160 25l14 62h86l-15 -65q126 -16 194.5 -81t68.5 -162q0 -61 -22.5 -117.5t-67.5 -105.5t-124.5 -79t-182.5 -33l-14 -63h-85l15 67q-139 19 -200.5 89t-61.5 158zM175 319q0 -154 184 -180l100 435q-61 -2 -110.5 -18.5 t-81 -42t-53 -59t-30.5 -67t-9 -68.5zM443 135q80 3 139 28.5t89.5 64.5t44.5 79.5t14 83.5q0 30 -8.5 56.5t-28 52.5t-58 45t-92.5 27z" />
<glyph unicode="&#x3a7;" horiz-adv-x="583" d="M-19 0l314 369l-138 337h91l109 -273l224 273h104l-296 -349l149 -357h-93l-120 294l-241 -294h-103z" />
<glyph unicode="&#x3a8;" horiz-adv-x="786" d="M114 365q0 37 9 74l62 267h87l-64 -277q-7 -30 -7 -56q3 -130 167 -137l108 470h86l-108 -469q208 13 248 186l66 283h86l-64 -279q-58 -254 -354 -266l-36 -161h-86l37 161q-106 6 -171.5 55.5t-65.5 148.5z" />
<glyph unicode="&#x3a9;" horiz-adv-x="742" d="M23 0l17 75h172q-112 86 -112 241q0 175 103.5 291t260.5 116q128 0 204 -72t76 -194q0 -116 -61.5 -223t-165.5 -159h165l-17 -75h-272l18 80q103 26 172 135.5t69 235.5q0 97 -50 149.5t-141 52.5q-118 0 -194 -100t-76 -255q0 -166 121 -218l-17 -80h-272z" />
<glyph unicode="&#x3aa;" horiz-adv-x="271" d="M57 0l163 706h86l-163 -706h-86zM137 777l24 103h91l-23 -103h-92zM331 777l24 103h91l-24 -103h-91z" />
<glyph unicode="&#x3ab;" horiz-adv-x="583" d="M141 706h89l95 -319l276 319h106l-359 -399l-70 -307h-89l73 317zM293 777l24 103h91l-23 -103h-92zM487 777l24 103h91l-24 -103h-91z" />
<glyph unicode="&#x3ac;" horiz-adv-x="556" d="M62 187q0 128 73.5 210.5t174.5 82.5q56 0 91.5 -23.5t42.5 -67.5l19 82h77l-82 -356q-4 -18 -4 -29q0 -24 25 -24q12 0 31 7l-15 -65q-28 -7 -47 -7q-41 0 -57.5 19t-17.5 53q-56 -78 -143 -78q-68 0 -118 49t-50 147zM144 186q0 -69 31.5 -100t73.5 -31q35 0 70.5 20.5 t59.5 66.5q16 31 28.5 83t12.5 90q0 46 -28.5 74.5t-75.5 28.5q-73 0 -122.5 -67t-49.5 -165zM319 533l87 150h117l-143 -150h-61z" />
<glyph unicode="&#x3ad;" horiz-adv-x="487" d="M40 111q0 58 41.5 99.5t102.5 47.5q-43 8 -64.5 32t-21.5 53q0 50 29.5 83t72 45t96.5 12q175 0 191 -136l-76 -14q-2 18 -6.5 30.5t-16 27.5t-35.5 23t-59 8q-117 0 -117 -79q0 -58 98 -58h74l-13 -58h-74q-57 0 -99 -25.5t-42 -74.5q0 -77 117 -77q113 0 160 91l73 -22 q-40 -73 -97.5 -102t-139.5 -29q-194 0 -194 123zM286 533l87 150h117l-143 -150h-61z" />
<glyph unicode="&#x3ae;" horiz-adv-x="532" d="M45 0l83 360q4 18 4 29q0 24 -25 24q-12 0 -31 -7l15 65q28 7 50 7q74 0 76 -75q76 80 162 80q18 0 38.5 -5.5t43.5 -17.5t38 -37.5t15 -59.5q0 -24 -12 -79l-115 -499h-77l116 506q6 27 6 51q0 78 -80 78q-76 0 -114 -47.5t-60 -140.5l-54 -232h-79zM329 533l87 150h117 l-143 -150h-61z" />
<glyph unicode="&#x3af;" horiz-adv-x="239" d="M51 58q0 15 4 30l89 383h79l-81 -356q-4 -18 -4 -29q0 -24 25 -24q12 0 31 7l-15 -65q-27 -9 -55 -9q-73 0 -73 63zM163 533l87 150h117l-143 -150h-61z" />
<glyph unicode="&#x3b0;" horiz-adv-x="523" d="M74 139q0 25 8 65l62 267h80l-64 -268q-9 -40 -9 -63q0 -92 95 -92q56 0 94.5 37t52.5 98l67 288h75l-67 -285q-22 -95 -75.5 -146.5t-155.5 -51.5q-72 0 -117.5 38.5t-45.5 112.5zM167 552l23 101h91l-23 -101h-91zM299 552l50 142h105l-84 -142h-71zM449 552l23 101h91 l-23 -101h-91z" />
<glyph unicode="&#x3b1;" horiz-adv-x="556" d="M62 187q0 128 73.5 210.5t174.5 82.5q56 0 91.5 -23.5t42.5 -67.5l19 82h77l-82 -356q-4 -18 -4 -29q0 -24 25 -24q12 0 31 7l-15 -65q-28 -7 -47 -7q-41 0 -57.5 19t-17.5 53q-56 -78 -143 -78q-68 0 -118 49t-50 147zM144 186q0 -69 31.5 -100t73.5 -31q35 0 70.5 20.5 t59.5 66.5q16 31 28.5 83t12.5 90q0 46 -28.5 74.5t-75.5 28.5q-73 0 -122.5 -67t-49.5 -165z" />
<glyph unicode="&#x3b2;" horiz-adv-x="544" d="M-10 -215l162 702q27 116 77.5 172t142.5 56q85 0 128 -40.5t43 -98.5q0 -64 -42 -115.5t-109 -67.5q67 -13 98.5 -54.5t31.5 -101.5t-24.5 -114.5t-80 -93.5t-132.5 -39q-117 0 -149 91l-69 -296h-77zM163 168q0 -113 120 -113q73 0 116.5 54t43.5 130q0 116 -136 116 h-23l13 68h9q58 0 110.5 38.5t52.5 109.5q0 37 -25 60.5t-74 23.5q-34 0 -60 -16t-41.5 -44t-23.5 -51.5t-15 -53.5l-57 -251q-10 -44 -10 -71z" />
<glyph unicode="&#x3b3;" horiz-adv-x="463" d="M67 403l15 68h26q46 0 63.5 -16.5t22.5 -75.5l26 -289l227 381h86l-295 -473l-48 -213h-77l49 217l-38 342q-4 39 -12 49t-31 10h-14z" />
<glyph unicode="&#x3b4;" horiz-adv-x="539" d="M59 184q0 100 65 184t177 90q-54 22 -80.5 56t-26.5 72q0 66 48 97.5t114 31.5q155 0 169 -133l-68 -14q-7 86 -101 86q-41 0 -63.5 -18.5t-22.5 -50.5q0 -33 26.5 -57t76.5 -50q146 -74 146 -205q0 -118 -75 -201.5t-187 -83.5q-85 0 -141.5 53.5t-56.5 142.5zM139 184 q0 -59 33 -97.5t90 -38.5q68 0 122.5 66.5t54.5 162.5q0 57 -28.5 92.5t-89.5 35.5q-81 0 -131.5 -67.5t-50.5 -153.5z" />
<glyph unicode="&#x3b5;" horiz-adv-x="487" d="M40 111q0 58 41.5 99.5t102.5 47.5q-43 8 -64.5 32t-21.5 53q0 50 29.5 83t72 45t96.5 12q175 0 191 -136l-76 -14q-2 18 -6.5 30.5t-16 27.5t-35.5 23t-59 8q-117 0 -117 -79q0 -58 98 -58h74l-13 -58h-74q-57 0 -99 -25.5t-42 -74.5q0 -77 117 -77q113 0 160 91l73 -22 q-40 -73 -97.5 -102t-139.5 -29q-194 0 -194 123z" />
<glyph unicode="&#x3b6;" horiz-adv-x="436" d="M55 150q0 129 114 265.5t266 212.5h-257l16 68h352l-17 -76q-69 -35 -134 -81t-126 -105t-97.5 -130.5t-36.5 -143.5q0 -26 10 -44t31 -28t37.5 -14.5t44.5 -8.5q27 -4 42 -8t34 -13.5t28 -27.5t9 -45q0 -49 -28.5 -87t-83.5 -86l-48 39q84 67 84 113q0 25 -15 35t-51 15 q-174 23 -174 150z" />
<glyph unicode="&#x3b7;" horiz-adv-x="532" d="M45 0l83 360q4 18 4 29q0 24 -25 24q-12 0 -31 -7l15 65q28 7 50 7q74 0 76 -75q76 80 162 80q18 0 38.5 -5.5t43.5 -17.5t38 -37.5t15 -59.5q0 -24 -12 -79l-115 -499h-77l116 506q6 27 6 51q0 78 -80 78q-76 0 -114 -47.5t-60 -140.5l-54 -232h-79z" />
<glyph unicode="&#x3b8;" horiz-adv-x="528" d="M80 200q0 53 6.5 112t26 133.5t50 132.5t85 97.5t124.5 39.5q94 0 134 -61t40 -156q0 -68 -9 -136t-31.5 -136.5t-55 -120.5t-83.5 -84.5t-113 -32.5q-174 0 -174 212zM157 212q0 -164 103 -164q40 0 73 25.5t55.5 70t37 92.5t24.5 105h-280q-13 -74 -13 -129zM180 399 h279q8 58 8 103q0 152 -103 152q-40 0 -73 -24.5t-54.5 -66t-34.5 -80.5t-22 -84z" />
<glyph unicode="&#x3b9;" horiz-adv-x="239" d="M51 58q0 15 4 30l89 383h79l-81 -356q-4 -18 -4 -29q0 -24 25 -24q12 0 31 7l-15 -65q-27 -9 -55 -9q-73 0 -73 63z" />
<glyph unicode="&#x3ba;" horiz-adv-x="502" d="M41 0l109 471h78l-53 -225l240 197q33 28 64 28h43l-16 -68h-22q-4 0 -7.5 -0.5t-6.5 -1.5t-7 -3t-6.5 -3.5t-8.5 -6t-9 -7.5t-11.5 -9.5t-13.5 -10.5l-104 -85l174 -276h-89l-148 230l-91 -74l-37 -156h-78z" />
<glyph unicode="&#x3bb;" horiz-adv-x="487" d="M0 0q51 82 153 241t150 235l-9 94q-4 44 -13 61.5t-34 17.5q-30 0 -63 -16l15 64q33 18 69 18q49 0 67 -31t26 -108l49 -461q3 -21 4.5 -29.5t8 -16t18.5 -7.5t31 7l-15 -65q-24 -9 -50 -9q-27 0 -43 18t-21 64l-29 296l-227 -373h-87z" />
<glyph unicode="&#x3bc;" horiz-adv-x="547" d="M-2 -216l160 687h76l-54 -234q-15 -66 -15 -95q0 -40 24 -62.5t65 -22.5q72 0 120 70q28 39 48 130l49 214h79l-83 -367q-3 -12 -3 -23q0 -25 25 -25q11 0 29 7l-15 -65q-29 -7 -50 -7q-76 0 -76 61v19q-32 -44 -65 -63t-79 -19q-71 0 -95 56l-58 -261h-82z" />
<glyph unicode="&#x3bd;" horiz-adv-x="434" d="M96 471h74l32 -389q161 273 176 300q22 39 22 89h74q0 -48 -9.5 -73t-41.5 -77l-196 -321h-85z" />
<glyph unicode="&#x3be;" horiz-adv-x="486" d="M56 154q0 87 59 146t150 80q-44 9 -67 36t-23 64q0 56 41 97.5t90 51.5h-106l16 67h350l-15 -67h-80q-93 0 -152.5 -36t-59.5 -109t117 -73h66l-15 -68h-72q-85 0 -152 -46t-67 -131q0 -23 9 -40t20 -26.5t33 -17t35.5 -10t41.5 -6.5q25 -4 41 -8.5t33 -14.5t25.5 -28.5 t8.5 -45.5q0 -49 -28.5 -87t-83.5 -86l-48 39q84 67 84 113q0 25 -13 35.5t-48 14.5q-28 3 -49 7t-49.5 14.5t-46.5 26.5t-31.5 43.5t-13.5 64.5z" />
<glyph unicode="&#x3bf;" d="M62 195q0 69 27.5 133t89.5 109.5t147 45.5q91 0 143.5 -60t52.5 -150q0 -111 -71.5 -198t-190.5 -87q-92 0 -145 58.5t-53 148.5zM142 189q0 -73 35 -107t83 -34q79 0 130.5 71.5t51.5 163.5q0 43 -13 73t-33 43t-36.5 18t-32.5 5q-86 0 -135.5 -72t-49.5 -161z" />
<glyph unicode="&#x3c0;" horiz-adv-x="593" d="M73 0l92 397h-54l18 74h469l-17 -74h-55l-62 -267q-6 -26 -6 -37q0 -14 7.5 -22.5t20.5 -8.5h30l-14 -62h-25q-101 0 -101 71q0 19 9 57l62 269h-202l-92 -397h-80z" />
<glyph unicode="&#x3c1;" horiz-adv-x="544" d="M-9 -215l111 482q22 97 82.5 156.5t156.5 59.5q88 0 135.5 -56.5t47.5 -142.5q0 -123 -70 -209.5t-174 -86.5q-110 0 -141 99q-48 -204 -70 -302h-78zM163 181q0 -56 32.5 -94.5t78.5 -38.5q75 0 123 73t48 166q0 60 -29 97.5t-85 37.5q-51 0 -90.5 -37.5t-58.5 -91.5 t-19 -112z" />
<glyph unicode="&#x3c2;" horiz-adv-x="468" d="M62 185q0 122 72.5 210t182.5 88q73 0 129.5 -37.5t61.5 -105.5l-74 -17q-24 96 -118 96q-39 0 -70.5 -17t-50 -43t-31.5 -58t-17.5 -59t-4.5 -49q0 -55 29 -85t101 -47q25 -6 41 -11t35.5 -15.5t29 -27t9.5 -38.5q0 -49 -28.5 -87t-83.5 -86l-48 39q84 67 84 113 q0 16 -9.5 26t-21 14t-39.5 11q-179 42 -179 186z" />
<glyph unicode="&#x3c3;" horiz-adv-x="572" d="M62 190q0 114 73 197.5t191 83.5h256l-15 -68h-116q68 -39 68 -134q0 -111 -75 -196t-186 -85q-88 0 -142 55t-54 147zM140 190q0 -64 33 -103t90 -39q73 0 125 68.5t52 160.5q0 128 -121 128q-80 0 -129.5 -63t-49.5 -152z" />
<glyph unicode="&#x3c4;" horiz-adv-x="389" d="M50 384l17 68q40 19 114 19h268l-16 -68h-149q-20 -86 -56 -246q-13 -61 -13 -65q0 -30 35 -30q8 0 54 8l-14 -59q-30 -14 -76 -14q-78 0 -78 67q0 24 11 73q9 42 33.5 143.5t29.5 122.5h-76q-47 0 -84 -19z" />
<glyph unicode="&#x3c5;" horiz-adv-x="523" d="M74 139q0 25 8 65l62 267h80l-64 -268q-9 -40 -9 -63q0 -92 95 -92q56 0 94.5 37t52.5 98l67 288h75l-67 -285q-22 -95 -75.5 -146.5t-155.5 -51.5q-72 0 -117.5 38.5t-45.5 112.5z" />
<glyph unicode="&#x3c6;" horiz-adv-x="652" d="M62 201q0 101 81 186.5t220 93.5l35 151h77l-36 -154q88 -12 140.5 -65t52.5 -142q0 -116 -90 -197t-215 -85l-47 -204h-77l48 209q-89 12 -139 65.5t-50 141.5zM143 190q0 -51 28.5 -89.5t92.5 -50.5l85 372q-59 -10 -102 -36.5t-64 -62t-30.5 -68.5t-9.5 -65zM340 48 q88 5 150 71t62 165q0 59 -29.5 92t-96.5 46z" />
<glyph unicode="&#x3c7;" horiz-adv-x="497" d="M-70 -215l280 350l-62 229q-7 27 -13.5 38t-22.5 11q-18 0 -37 -7l15 65q28 7 50 7q20 0 33 -4.5t21 -15.5t12 -22t9 -32l47 -202l193 269h92l-265 -344l67 -228q8 -30 17 -41t27 -11q12 0 31 7l-15 -65q-24 -9 -53 -9q-33 0 -49.5 20.5t-25.5 54.5l-52 206l-207 -276 h-92z" />
<glyph unicode="&#x3c8;" horiz-adv-x="667" d="M74 148q0 39 9 78l57 245h80l-58 -245q-11 -51 -11 -75q0 -96 125 -102l134 583h77l-133 -584q72 3 120.5 41t70.5 130l59 252h75l-62 -264q-29 -123 -99 -170.5t-179 -49.5l-47 -202h-77l47 203q-80 3 -134 41.5t-54 118.5z" />
<glyph unicode="&#x3c9;" horiz-adv-x="683" d="M65 128q0 77 24 150t57 118q62 87 176 87l-15 -63q-61 0 -111.5 -85.5t-50.5 -216.5q0 -70 57 -70q24 0 43.5 10t33.5 29t24.5 39.5t18 50t12.5 51t10.5 51.5t8.5 44h77q-3 -14 -15.5 -65t-18.5 -83.5t-6 -58.5q0 -31 14.5 -51t44.5 -20q39 0 70 35.5t46 86t22.5 93 t7.5 68.5q0 50 -20.5 69.5t-57.5 22.5l15 63q141 -9 141 -159q0 -32 -6 -71.5t-22 -87.5t-40 -86.5t-64.5 -64.5t-91.5 -26q-45 0 -78 24.5t-34 70.5q-21 -47 -60.5 -71t-84.5 -24q-127 0 -127 140z" />
<glyph unicode="&#x3ca;" horiz-adv-x="239" d="M51 58q0 15 4 30l89 383h79l-81 -356q-4 -18 -4 -29q0 -24 25 -24q12 0 31 7l-15 -65q-27 -9 -55 -9q-73 0 -73 63zM70 552l23 101h91l-23 -101h-91zM264 552l23 101h91l-23 -101h-91z" />
<glyph unicode="&#x3cb;" horiz-adv-x="523" d="M74 139q0 25 8 65l62 267h80l-64 -268q-9 -40 -9 -63q0 -92 95 -92q56 0 94.5 37t52.5 98l67 288h75l-67 -285q-22 -95 -75.5 -146.5t-155.5 -51.5q-72 0 -117.5 38.5t-45.5 112.5zM212 552l23 101h91l-23 -101h-91zM406 552l23 101h91l-23 -101h-91z" />
<glyph unicode="&#x3cc;" d="M62 195q0 69 27.5 133t89.5 109.5t147 45.5q91 0 143.5 -60t52.5 -150q0 -111 -71.5 -198t-190.5 -87q-92 0 -145 58.5t-53 148.5zM142 189q0 -73 35 -107t83 -34q79 0 130.5 71.5t51.5 163.5q0 43 -13 73t-33 43t-36.5 18t-32.5 5q-86 0 -135.5 -72t-49.5 -161zM315 533 l87 150h117l-143 -150h-61z" />
<glyph unicode="&#x3cd;" horiz-adv-x="523" d="M74 139q0 25 8 65l62 267h80l-64 -268q-9 -40 -9 -63q0 -92 95 -92q56 0 94.5 37t52.5 98l67 288h75l-67 -285q-22 -95 -75.5 -146.5t-155.5 -51.5q-72 0 -117.5 38.5t-45.5 112.5zM308 533l87 150h117l-143 -150h-61z" />
<glyph unicode="&#x3ce;" horiz-adv-x="683" d="M65 128q0 77 24 150t57 118q62 87 176 87l-15 -63q-61 0 -111.5 -85.5t-50.5 -216.5q0 -70 57 -70q24 0 43.5 10t33.5 29t24.5 39.5t18 50t12.5 51t10.5 51.5t8.5 44h77q-3 -14 -15.5 -65t-18.5 -83.5t-6 -58.5q0 -31 14.5 -51t44.5 -20q39 0 70 35.5t46 86t22.5 93 t7.5 68.5q0 50 -20.5 69.5t-57.5 22.5l15 63q141 -9 141 -159q0 -32 -6 -71.5t-22 -87.5t-40 -86.5t-64.5 -64.5t-91.5 -26q-45 0 -78 24.5t-34 70.5q-21 -47 -60.5 -71t-84.5 -24q-127 0 -127 140zM396 533l87 150h117l-143 -150h-61z" />
<glyph unicode="&#x401;" horiz-adv-x="625" d="M56 0l163 706h459l-17 -75h-370l-54 -233h339l-16 -70h-339l-59 -253h420l-17 -75h-509zM314 777l24 103h91l-23 -103h-92zM508 777l24 103h91l-24 -103h-91z" />
<glyph unicode="&#x402;" horiz-adv-x="750" d="M125 632l17 74h518l-17 -74h-215l-57 -246q86 41 174 41q81 0 131 -50t50 -148q0 -22 -5.5 -47t-23.5 -58.5t-46 -60t-80.5 -45t-119.5 -18.5h-34l16 74h24q51 0 88 15t55 40t26 51t8 54q0 59 -32 89t-76 30q-87 0 -174 -51l-70 -302h-88l146 632h-215z" />
<glyph unicode="&#x403;" horiz-adv-x="562" d="M58 0l163 706h455l-17 -74h-367l-146 -632h-88zM410 768l87 127h125l-145 -127h-67z" />
<glyph unicode="&#x404;" horiz-adv-x="780" d="M96 312q0 171 104.5 289.5t278.5 118.5q71 0 127 -18.5t91 -50.5t56.5 -68t32.5 -78l-89 -17q-7 29 -21 54.5t-38 51t-65.5 41t-94.5 15.5q-58 0 -105.5 -20t-76.5 -48t-50.5 -65.5t-31 -65t-14.5 -53.5h376l-18 -74h-368v-14q0 -112 54.5 -182.5t172.5 -70.5 q182 0 262 188l89 -12q-49 -120 -141.5 -183t-213.5 -63q-58 0 -110.5 16t-100.5 51t-77 101.5t-29 156.5z" />
<glyph unicode="&#x405;" horiz-adv-x="667" d="M61 228l94 18q0 -2 -0.5 -8t-0.5 -10q0 -73 45.5 -124t139.5 -51q97 0 145.5 43t48.5 100q0 44 -28 68t-83 46l-86 34q-21 8 -28.5 11t-29.5 13.5t-33 18.5t-28 23t-25.5 30t-15.5 36t-7 45q0 59 27.5 100.5t72 61.5t85.5 28.5t82 8.5q102 0 173.5 -45.5t81.5 -144.5 l-87 -21q-24 143 -172 143q-77 0 -123.5 -34.5t-46.5 -86.5q0 -21 8 -37t28 -29t37.5 -21.5t51.5 -21.5l81 -32q75 -29 115.5 -71t40.5 -110q0 -35 -12.5 -70t-41.5 -71t-88 -58.5t-140 -22.5q-39 0 -74 5t-74.5 20.5t-67.5 40.5t-46.5 70t-18.5 105z" />
<glyph unicode="&#x406;" horiz-adv-x="271" d="M57 0l163 706h86l-163 -706h-86z" />
<glyph unicode="&#x407;" horiz-adv-x="271" d="M57 0l163 706h86l-163 -706h-86zM165 778l23 102h80l-23 -102h-80zM307 778l24 102h80l-24 -102h-80z" />
<glyph unicode="&#x408;" horiz-adv-x="437" d="M17 6l19 85q52 -24 101 -24q31 0 54.5 11.5t37 25.5t25.5 43t16 45t12 50l107 464h88l-112 -485q-11 -47 -20 -76t-26 -62.5t-39.5 -52t-58.5 -31t-84 -12.5q-63 0 -120 19z" />
<glyph unicode="&#x409;" horiz-adv-x="1040" d="M-30 0l17 74h10q53 0 84 36t72 169t106 427h435l-70 -299h191q90 0 145.5 -47.5t55.5 -140.5q0 -20 -5.5 -44.5t-22.5 -56.5t-44 -57.5t-76.5 -43t-113.5 -17.5h-312l147 632h-263q-33 -147 -57 -241.5t-50 -169.5t-47.5 -115t-52.5 -65.5t-61.5 -33t-77.5 -7.5h-10z M547 74h200q97 0 137 45t40 105q0 55 -39.5 82t-96.5 27h-181z" />
<glyph unicode="&#x40a;" horiz-adv-x="1100" d="M58 0l163 706h88l-69 -299h356l69 299h89l-70 -299h191q90 0 145.5 -47.5t55.5 -140.5q0 -20 -5.5 -44.5t-22.5 -56.5t-44 -57.5t-76.5 -43t-113.5 -17.5h-312l77 333h-356l-77 -333h-88zM607 74h200q97 0 137 45t40 105q0 55 -39.5 82t-96.5 27h-181z" />
<glyph unicode="&#x40b;" horiz-adv-x="760" d="M125 632l17 74h518l-17 -74h-215l-52 -226q94 18 167 18q194 0 194 -134q0 -40 -17 -113l-41 -177h-88l41 177q13 58 13 96q0 40 -29 58.5t-99 18.5q-65 0 -158 -18l-77 -332h-88l146 632h-215z" />
<glyph unicode="&#x40c;" horiz-adv-x="654" d="M58 0l163 706h88l-68 -296h120q51 0 88 13.5t57 34.5t37.5 52t29 61.5t32 68t45.5 66.5h104q-41 -35 -70 -89t-44 -97t-48.5 -84.5t-84.5 -59.5q38 -9 57 -40t22 -75.5t2.5 -90t3.5 -93.5t18 -77h-96q-12 37 -12 118v64q0 76 -26 115t-109 39h-143l-78 -336h-88zM419 768 l87 127h125l-145 -127h-67z" />
<glyph unicode="&#x40e;" horiz-adv-x="620" d="M80 0l17 74h32q53 0 89 21t71 73l-159 538h96l130 -452l278 452h96l-299 -472q-67 -106 -111 -153t-88.5 -64t-121.5 -17h-30zM293 878l74 10q0 -56 77 -56q79 0 101 56l70 -10q-19 -52 -69 -83t-110 -31q-68 0 -105.5 30.5t-37.5 83.5z" />
<glyph unicode="&#x40f;" horiz-adv-x="732" d="M58 0l163 706h88l-146 -632h370l146 632h88l-163 -706h-228l-40 -170h-84l40 170h-234z" />
<glyph unicode="&#x410;" horiz-adv-x="667" d="M0 0l409 706h108l90 -706h-91l-25 222h-268l-128 -222h-95zM265 295h218l-35 353z" />
<glyph unicode="&#x411;" horiz-adv-x="699" d="M57 0l163 706h503l-17 -74h-414l-53 -225h234q90 0 145.5 -47.5t55.5 -140.5q0 -20 -5.5 -44.5t-22.5 -56.5t-44 -57.5t-76.5 -43t-113.5 -17.5h-355zM162 74h243q97 0 137 45t40 105q0 55 -39.5 82t-96.5 27h-224z" />
<glyph unicode="&#x412;" horiz-adv-x="708" d="M57 0l163 706h274q107 0 159.5 -46t52.5 -118q0 -43 -16.5 -76.5t-43.5 -53t-55 -30t-58 -14.5q57 -1 99 -41.5t42 -107.5q0 -20 -5.5 -44.5t-22.5 -56.5t-44 -57.5t-76.5 -43t-113.5 -17.5h-355zM161 74h244q97 0 137 45t40 105q0 55 -39.5 82t-96.5 27h-225zM238 407 h216q81 0 121 38t40 93q0 37 -24 66.5t-75 29.5h-225z" />
<glyph unicode="&#x413;" horiz-adv-x="562" d="M58 0l163 706h455l-17 -74h-367l-146 -632h-88z" />
<glyph unicode="&#x414;" horiz-adv-x="746" d="M-73 -150l51 224q30 2 62.5 26t67 73t68.5 136t60 201l45 196h460l-146 -632h90l-52 -224h-84l35 150h-538l-35 -150h-84zM127 74h380l129 558h-288l-28 -122q-20 -118 -71 -248.5t-122 -187.5z" />
<glyph unicode="&#x415;" horiz-adv-x="625" d="M56 0l163 706h459l-17 -75h-370l-54 -233h339l-16 -70h-339l-59 -253h420l-17 -75h-509z" />
<glyph unicode="&#x416;" horiz-adv-x="900" d="M-17 0q40 43 69.5 96.5t46.5 95t37.5 80.5t54 66t83.5 38q-36 15 -53 41t-20 59.5t-3.5 69t-9.5 79.5t-32 81h98q16 -33 21.5 -76.5t6 -77.5t7 -66t30 -51.5t68.5 -24.5h84l68 296h88l-68 -296h48q51 0 88 13.5t57 34.5t37.5 52t29 61.5t32 68t45.5 66.5h104 q-41 -35 -70 -89t-44 -97t-48.5 -84.5t-84.5 -59.5q38 -9 57 -40t22 -75.5t2.5 -90t3.5 -93.5t18 -77h-96q-12 31 -12 107v75q0 76 -26 115t-109 39h-71l-78 -336h-88l78 336h-94q-53 -3 -87.5 -27t-53 -62.5t-32.5 -79.5t-37 -88.5t-55 -78.5h-112z" />
<glyph unicode="&#x417;" horiz-adv-x="700" d="M62 203l90 18q0 -74 46.5 -119t151.5 -45q225 0 225 166q0 55 -39.5 82t-96.5 27h-154l18 74h143q81 0 121 39.5t40 96.5q0 44 -35 76t-124 32q-82 0 -140 -35t-80 -93l-84 18q36 87 117.5 133.5t189.5 46.5q134 0 191 -48t57 -120q0 -45 -16.5 -80.5t-43 -56t-52.5 -32 t-53 -15.5q52 -1 92.5 -42t40.5 -107q0 -26 -6.5 -53t-28.5 -60.5t-56 -58.5t-95.5 -42.5t-141.5 -17.5q-39 0 -73 4.5t-73 18.5t-66.5 36.5t-46 63t-18.5 93.5z" />
<glyph unicode="&#x418;" horiz-adv-x="754" d="M58 0l163 706h88l-116 -502l493 436l15 66h88l-163 -706h-88l119 516l-493 -436l-18 -80h-88z" />
<glyph unicode="&#x419;" horiz-adv-x="754" d="M58 0l163 706h88l-116 -502l493 436l15 66h88l-163 -706h-88l119 516l-493 -436l-18 -80h-88zM374 878l74 10q0 -56 77 -56q79 0 101 56l70 -10q-19 -52 -69 -83t-110 -31q-68 0 -105.5 30.5t-37.5 83.5z" />
<glyph unicode="&#x41a;" horiz-adv-x="654" d="M58 0l163 706h88l-68 -296h120q51 0 88 13.5t57 34.5t37.5 52t29 61.5t32 68t45.5 66.5h104q-41 -35 -70 -89t-44 -97t-48.5 -84.5t-84.5 -59.5q38 -9 57 -40t22 -75.5t2.5 -90t3.5 -93.5t18 -77h-96q-12 37 -12 118v64q0 76 -26 115t-109 39h-143l-78 -336h-88z" />
<glyph unicode="&#x41b;" horiz-adv-x="684" d="M-30 0l17 74h10q53 0 84 36t72 169t106 427h460l-163 -706h-88l146 632h-288q-33 -147 -57 -241.5t-50 -169.5t-47.5 -115t-52.5 -65.5t-61.5 -33t-77.5 -7.5h-10z" />
<glyph unicode="&#x41c;" horiz-adv-x="833" d="M58 0l163 706h105l72 -632l366 632h104l-163 -706h-84l153 600l-343 -600h-95l-67 611l-127 -611h-84z" />
<glyph unicode="&#x41d;" horiz-adv-x="750" d="M58 0l163 706h87l-68 -295h390l68 295h87l-163 -706h-87l78 337h-390l-78 -337h-87z" />
<glyph unicode="&#x41e;" horiz-adv-x="792" d="M96 308q0 177 104.5 294.5t276.5 117.5q152 0 234 -91t82 -231q0 -178 -111.5 -294.5t-274.5 -116.5q-142 0 -226.5 89.5t-84.5 231.5zM191 307q0 -107 60 -178.5t162 -71.5q90 0 157 52t98.5 129t31.5 165q0 123 -65 185t-158 62q-61 0 -111.5 -22.5t-82 -58.5 t-53 -82.5t-30.5 -91t-9 -88.5z" />
<glyph unicode="&#x41f;" horiz-adv-x="740" d="M58 0l163 706h554l-163 -706h-88l146 632h-378l-146 -632h-88z" />
<glyph unicode="&#x420;" horiz-adv-x="646" d="M56 0l163 706h285q89 0 145 -46.5t56 -133.5q0 -101 -73 -163t-208 -62h-211l-69 -301h-88zM230 375h165q45 0 70.5 2t60 15.5t57.5 40.5q34 39 34 92q0 48 -30 77t-84 29h-213z" />
<glyph unicode="&#x421;" horiz-adv-x="771" d="M87 312q0 171 104.5 289.5t278.5 118.5q71 0 127 -18.5t91 -50.5t56.5 -68t32.5 -78l-89 -17q-7 29 -21 54t-38 51t-65.5 41t-94.5 15q-64 0 -115.5 -24t-82.5 -60.5t-52 -83.5t-29 -89.5t-8 -81.5q0 -111 54.5 -181t171.5 -70q182 0 262 186l89 -12 q-49 -120 -141.5 -183t-213.5 -63q-58 0 -110.5 16t-100.5 51t-77 101.5t-29 156.5z" />
<glyph unicode="&#x422;" d="M125 630l17 76h518l-17 -76h-216l-145 -630h-89l150 630h-218z" />
<glyph unicode="&#x423;" horiz-adv-x="620" d="M80 0l17 74h32q53 0 89 21t71 73l-159 538h96l130 -452l278 452h96l-299 -472q-67 -106 -111 -153t-88.5 -64t-121.5 -17h-30z" />
<glyph unicode="&#x424;" horiz-adv-x="810" d="M96 315q0 81 34.5 150t96.5 104q69 40 190 40h51l25 111h88l-25 -111h14q62 0 91 -5t56 -20q94 -52 94 -184q0 -81 -34.5 -150t-96.5 -104q-69 -40 -190 -40h-51l-26 -116h-88l26 116h-14q-62 0 -91 5t-56 20q-94 52 -94 184zM190 319q0 -72 31 -106q20 -20 47.5 -28.5 t83.5 -8.5h16l83 363h-40q-68 0 -116 -21t-76.5 -74t-28.5 -125zM456 176h40q68 0 116 21t76.5 74t28.5 125t-31 106q-20 20 -47.5 28.5t-83.5 8.5h-16z" />
<glyph unicode="&#x425;" horiz-adv-x="584" d="M-19 0l315 369l-139 337h92l109 -273l224 273h104l-296 -349l150 -357h-94l-120 294l-241 -294h-104z" />
<glyph unicode="&#x426;" horiz-adv-x="772" d="M58 0l163 706h88l-146 -632h370l146 632h88l-146 -632h90l-52 -224h-84l35 150h-552z" />
<glyph unicode="&#x427;" horiz-adv-x="660" d="M118 406q0 24 21 119l40 181h88l-40 -172q-17 -68 -17 -109q0 -42 31.5 -60.5t110.5 -18.5q72 0 176 18l79 342h88l-163 -706h-88l67 290q-104 -18 -185 -18q-208 0 -208 134z" />
<glyph unicode="&#x428;" horiz-adv-x="974" d="M58 0l163 706h88l-146 -632h262l146 632h88l-146 -632h262l146 632h88l-163 -706h-788z" />
<glyph unicode="&#x429;" horiz-adv-x="1014" d="M58 0l163 706h88l-146 -632h262l146 632h88l-146 -632h262l146 632h88l-146 -632h90l-52 -224h-84l35 150h-794z" />
<glyph unicode="&#x42a;" horiz-adv-x="796" d="M125 632l17 74h278l-70 -299h221q90 0 145.5 -47.5t55.5 -140.5q0 -20 -5.5 -44.5t-22.5 -56.5t-44 -57.5t-76.5 -43t-113.5 -17.5h-342l146 632h-189zM273 74h230q97 0 137 45t40 105q0 55 -39.5 82t-96.5 27h-211z" />
<glyph unicode="&#x42b;" horiz-adv-x="880" d="M58 0l163 706h89l-70 -299h191q90 0 145.5 -47.5t55.5 -140.5q0 -20 -5.5 -44.5t-22.5 -56.5t-44 -57.5t-76.5 -43t-113.5 -17.5h-312zM163 74h200q97 0 137 45t40 105q0 55 -39.5 82t-96.5 27h-181zM666 0l163 706h86l-163 -706h-86z" />
<glyph unicode="&#x42c;" horiz-adv-x="686" d="M58 0l163 706h89l-70 -299h221q90 0 145.5 -47.5t55.5 -140.5q0 -20 -5.5 -44.5t-22.5 -56.5t-44 -57.5t-76.5 -43t-113.5 -17.5h-342zM163 74h230q97 0 137 45t40 105q0 55 -39.5 82t-96.5 27h-211z" />
<glyph unicode="&#x42d;" horiz-adv-x="780" d="M91 201l90 18q7 -29 20.5 -54.5t37.5 -51t65.5 -41t94.5 -15.5q61 0 111 22.5t79 54t50.5 71.5t29.5 68t11 51h-379l18 74h368q0 111 -54.5 181.5t-172.5 70.5q-163 0 -233 -138l-84 18q44 93 127.5 141.5t193.5 48.5q58 0 110.5 -16t100.5 -51t77 -101.5t29 -156.5 q0 -171 -104.5 -289.5t-278.5 -118.5q-71 0 -127 18.5t-91 50.5t-56.5 67.5t-32.5 77.5z" />
<glyph unicode="&#x42e;" horiz-adv-x="1052" d="M58 0l163 706h88l-67 -290h153q10 49 33 97.5t63.5 97t108 79t151.5 30.5q145 0 223.5 -91t78.5 -231q0 -177 -107.5 -294t-264.5 -117q-138 0 -217.5 88.5t-79.5 241.5v25h-159l-79 -342h-88zM478 307q0 -106 56.5 -178t151.5 -72q85 0 149 52t94 129t30 165 q0 123 -60.5 185t-148.5 62q-72 0 -127.5 -33.5t-85.5 -87t-44.5 -110t-14.5 -112.5z" />
<glyph unicode="&#x42f;" horiz-adv-x="680" d="M-18 0q34 25 60 65.5t43 81t36 79.5t50.5 69.5t76.5 42.5q-16 5 -30.5 13.5t-30.5 24.5t-26 45t-10 66q0 20 5.5 44.5t22.5 56.5t44 57.5t76.5 43t113.5 17.5h302l-163 -706h-88l70 302h-168q-54 0 -91.5 -22.5t-58.5 -59.5t-36.5 -76t-36.5 -80t-47 -64h-114zM243 482 q0 -53 39.5 -79.5t96.5 -26.5h172l59 256h-190q-97 0 -137 -45t-40 -105z" />
<glyph unicode="&#x430;" horiz-adv-x="500" d="M36 107q0 58 39.5 98.5t108.5 54.5q29 6 95.5 15t99.5 16q10 47 10 62q0 67 -91 67q-99 0 -115 -95l-89 8q8 23 16 39.5t25 38.5t38 35.5t56.5 23.5t79.5 10q60 0 110.5 -28.5t50.5 -84.5q0 -27 -9 -67l-43 -185q-4 -18 -4 -29q0 -24 25 -24q12 0 31 7l-15 -65 q-28 -7 -47 -7q-25 0 -47 13.5t-22 45.5q0 9 1 13q-16 -30 -56.5 -54.5t-107.5 -24.5q-74 0 -107 36t-33 81zM123 114q0 -26 19 -45.5t61 -19.5q23 0 53 10t48 24q9 7 16.5 16.5t12 16.5t8.5 18t5.5 16t3.5 14l2 10l13 56l-17 -2q-28 -3 -42.5 -5t-42.5 -7t-43.5 -10 t-36.5 -13.5t-32.5 -19t-19.5 -26t-8 -33.5z" />
<glyph unicode="&#x431;" horiz-adv-x="546" d="M66 191q0 78 31 188q1 3 5 16q9 30 15.5 48t22 52t36.5 56.5t51.5 46.5t75 37t99.5 15q55 1 79.5 14t30.5 42h80q-14 -63 -56 -96t-136 -38q-106 -6 -160 -50t-74 -116l-7 -25q42 49 85.5 69.5t105.5 20.5q88 0 132 -52.5t44 -145.5q0 -111 -71.5 -198t-190.5 -87 q-100 0 -149 55t-49 148zM146 189q0 -73 35 -107t83 -34q79 0 130.5 71.5t51.5 163.5q0 40 -12 67.5t-30.5 39.5t-33.5 16.5t-29 4.5q-91 0 -143 -68.5t-52 -153.5z" />
<glyph unicode="&#x432;" horiz-adv-x="504" d="M41 0l109 471h213q71 0 106 -31t35 -78q0 -53 -32 -80t-70 -36q31 -3 56 -28.5t25 -71.5q0 -18 -7 -39t-23.5 -47t-54.5 -43t-90 -17h-267zM134 66h153q65 0 91.5 25t26.5 58q0 64 -80 64h-157zM183 279h140q52 0 77.5 22t25.5 54q0 20 -14.5 35t-45.5 15h-153z" />
<glyph unicode="&#x433;" horiz-adv-x="400" d="M41 0l109 471h324l-15 -66h-246l-94 -405h-78z" />
<glyph unicode="&#x434;" horiz-adv-x="576" d="M-40 -120l43 186q125 31 192 331l17 74h344l-94 -405h78l-43 -186h-70l28 120h-397l-28 -120h-70zM120 66h264l79 339h-194l-9 -38q-18 -84 -54.5 -173t-85.5 -128z" />
<glyph unicode="&#x435;" horiz-adv-x="521" d="M62 189q0 124 73 209t187 85q84 0 131 -49.5t47 -143.5q0 -31 -6 -63h-353q-2 -14 -2 -33q0 -37 10.5 -64.5t26 -42.5t35 -24t34 -11.5t27.5 -2.5q42 0 80 25.5t54 70.5l75 -13q-7 -20 -22 -42t-41 -46.5t-68.5 -40t-93.5 -15.5q-93 0 -143.5 55.5t-50.5 145.5zM156 285 h266q0 1 0.5 8t0.5 11q0 53 -29.5 85.5t-76.5 32.5q-55 0 -100 -40.5t-61 -96.5z" />
<glyph unicode="&#x436;" horiz-adv-x="640" d="M-13 0q30 26 55 69.5t40 79t41.5 66.5t62.5 39q-30 11 -40.5 38.5t-8 56.5t-5 64t-30.5 58h78q16 -21 20.5 -57t4 -62.5t17 -47t58.5 -20.5h39l43 187h78l-43 -187h45q37 0 61 21t34 47.5t26.5 62.5t36.5 56h90q-31 -18 -53 -54t-32.5 -68t-32 -60.5t-52.5 -34.5 q35 -11 49 -42t12.5 -64.5t4 -76.5t25.5 -71h-86q-10 22 -12.5 64.5t-3.5 73.5t-21 55.5t-62 24.5h-45l-50 -218h-78l50 218h-52q-32 0 -56.5 -25t-38 -57.5t-34.5 -73.5t-43 -62h-92z" />
<glyph unicode="&#x437;" horiz-adv-x="466" d="M26 128l74 17q3 -22 11.5 -42t37 -39t71.5 -19q80 0 112.5 30t32.5 71q0 64 -80 64h-93l16 66h75q52 0 77.5 23.5t25.5 56.5q0 29 -22 49.5t-76 20.5q-103 0 -138 -92l-74 20q23 55 75.5 93.5t142.5 38.5q172 0 172 -114q0 -31 -10.5 -55t-28 -38t-32.5 -21.5t-31 -11.5 q31 -3 56 -28.5t25 -71.5q0 -15 -5 -32.5t-20.5 -41.5t-40.5 -42.5t-70.5 -31.5t-103.5 -13q-72 0 -121 36.5t-58 106.5z" />
<glyph unicode="&#x438;" horiz-adv-x="556" d="M41 0l109 471h78l-73 -317l311 267l12 50h78l-109 -471h-78l75 325l-312 -267l-13 -58h-78z" />
<glyph unicode="&#x439;" horiz-adv-x="556" d="M41 0l109 471h78l-73 -317l311 267l12 50h78l-109 -471h-78l75 325l-312 -267l-13 -58h-78zM235 674l66 10q0 -66 69 -66q75 0 101 66l62 -10q-21 -55 -68.5 -87.5t-104.5 -32.5q-61 0 -93 32t-32 88z" />
<glyph unicode="&#x43a;" horiz-adv-x="478" d="M41 0l109 471h78l-43 -187h95q37 0 61 21t34 47.5t26.5 62.5t36.5 56h90q-31 -18 -53 -54t-32.5 -68t-32 -60.5t-52.5 -34.5q35 -11 49 -42t12.5 -64.5t4 -76.5t25.5 -71h-86q-10 22 -12.5 64.5t-3.5 73.5t-21 55.5t-62 24.5h-95l-50 -218h-78z" />
<glyph unicode="&#x43b;" horiz-adv-x="520" d="M-20 0l15 66h11q49 1 75.5 55.5t69.5 240.5l25 109h344l-109 -471h-78l94 405h-194l-10 -43q-12 -54 -18 -80t-17.5 -69t-20 -64t-22 -50.5t-27.5 -43.5t-33 -29t-42.5 -20.5t-51.5 -5.5h-11z" />
<glyph unicode="&#x43c;" horiz-adv-x="658" d="M41 0l109 471h114l53 -391l235 391h106l-109 -471h-78l97 387l-235 -387h-78l-53 395l-83 -395h-78z" />
<glyph unicode="&#x43d;" horiz-adv-x="548" d="M41 0l109 471h78l-44 -191h242l44 191h78l-109 -471h-78l49 214h-242l-49 -214h-78z" />
<glyph unicode="&#x43e;" d="M62 195q0 69 27.5 133t89.5 109.5t147 45.5q91 0 143.5 -60t52.5 -150q0 -111 -71.5 -198t-190.5 -87q-92 0 -145 58.5t-53 148.5zM142 189q0 -73 35 -107t83 -34q79 0 130.5 71.5t51.5 163.5q0 43 -13 73.5t-33 43.5t-36.5 18t-32.5 5q-86 0 -135.5 -72.5t-49.5 -161.5z " />
<glyph unicode="&#x43f;" horiz-adv-x="540" d="M41 0l109 471h390l-109 -471h-78l93 405h-234l-93 -405h-78z" />
<glyph unicode="&#x440;" horiz-adv-x="546" d="M-6 -215l158 686h78l-14 -59q55 68 140 68q13 0 28.5 -2t42.5 -13t47.5 -29t36 -55.5t15.5 -87.5q0 -37 -8 -76.5t-27.5 -80.5t-47 -72.5t-70.5 -52t-95 -20.5q-105 0 -138 90l-69 -296h-77zM167 167q0 -57 31.5 -84.5t76.5 -27.5q65 0 118 64.5t53 174.5q0 64 -33.5 93 t-75.5 29q-36 0 -74.5 -21.5t-63.5 -76.5q-32 -71 -32 -151z" />
<glyph unicode="&#x441;" horiz-adv-x="509" d="M62 186q0 126 75 211.5t187 85.5q73 0 126.5 -37.5t58.5 -105.5l-74 -17q-4 18 -9 29.5t-17 29.5t-33.5 27.5t-52.5 9.5q-48 0 -85.5 -25.5t-56.5 -64t-28.5 -74t-9.5 -64.5q0 -59 31 -102t93 -43q45 0 83 27t56 80l82 -11q-65 -154 -227 -154q-26 0 -51.5 5t-53 18.5 t-48 35t-33.5 57.5t-13 82z" />
<glyph unicode="&#x442;" horiz-adv-x="400" d="M63 405l15 66h392l-15 -66h-157l-94 -405h-78l94 405h-157z" />
<glyph unicode="&#x443;" horiz-adv-x="458" d="M-54 -228l16 68q24 -2 37 -2q26 0 44.5 11t27 22.5t23.5 37.5l58 99l-53 463h78l37 -376l209 376h86l-356 -602q-38 -64 -69 -82t-88 -18q-23 0 -50 3z" />
<glyph unicode="&#x444;" horiz-adv-x="660" d="M62 197q0 133 78.5 203.5t225.5 70.5l54 235h78l-54 -235q21 0 43.5 -4t51 -17t50 -33.5t36.5 -57.5t15 -85q0 -133 -78.5 -203.5t-226.5 -70.5l-50 -215h-78l50 215q-27 0 -56 8t-62.5 27t-55 61t-21.5 101zM142 197q0 -73 39 -105t90 -32l81 351q-96 0 -153 -54 t-57 -160zM349 60q96 0 153.5 54t57.5 160q0 73 -39 105t-91 32z" />
<glyph unicode="&#x445;" horiz-adv-x="437" d="M-23 0l227 245l-67 226h76l46 -171l153 171h91l-218 -237l69 -234h-77l-46 180l-160 -180h-94z" />
<glyph unicode="&#x446;" horiz-adv-x="560" d="M41 0l109 471h78l-94 -405h234l94 405h78l-94 -405h78l-43 -186h-70l28 120h-398z" />
<glyph unicode="&#x447;" horiz-adv-x="480" d="M80 282q0 16 10 63l29 126h78l-27 -114q-10 -41 -10 -62q0 -50 85 -50q55 0 109 18l48 208h78l-109 -471h-78l46 197q-74 -16 -123 -16q-136 0 -136 101z" />
<glyph unicode="&#x448;" horiz-adv-x="752" d="M41 0l109 471h78l-93 -400h184l93 400h78l-93 -400h184l93 400h78l-109 -471h-602z" />
<glyph unicode="&#x449;" horiz-adv-x="772" d="M41 0l109 471h78l-93 -400h184l93 400h78l-93 -400h184l93 400h78l-94 -405h78l-43 -186h-70l28 120h-610z" />
<glyph unicode="&#x44a;" horiz-adv-x="554" d="M63 405l15 66h216l-43 -185h157q58 0 94 -33t36 -96q0 -15 -3.5 -32t-15 -40t-29.5 -41.5t-50.5 -31t-75.5 -12.5h-257l94 405h-138zM200 66h152q59 0 83.5 26t24.5 61q0 67 -76 67h-148z" />
<glyph unicode="&#x44b;" horiz-adv-x="656" d="M41 0l109 471h78l-43 -185h133q58 0 94 -33t36 -96q0 -15 -3.5 -32t-15 -40t-29.5 -41.5t-50.5 -31t-75.5 -12.5h-233zM134 66h128q59 0 83.5 26t24.5 61q0 67 -76 67h-124zM469 0l109 471h78l-109 -471h-78z" />
<glyph unicode="&#x44c;" horiz-adv-x="488" d="M41 0l109 471h78l-43 -185h157q58 0 94 -33t36 -96q0 -15 -3.5 -32t-15 -40t-29.5 -41.5t-50.5 -31t-75.5 -12.5h-257zM134 66h152q59 0 83.5 26t24.5 61q0 67 -76 67h-148z" />
<glyph unicode="&#x44d;" horiz-adv-x="512" d="M42 131l74 17q3 -22 12 -42t38.5 -39t74.5 -19q43 0 75.5 19t50 49t25.5 52t11 42h-211l16 66h204v6q0 59 -31.5 100t-93.5 41q-44 0 -80.5 -22t-54.5 -67l-74 20q23 54 75 91.5t140 37.5q26 0 51.5 -5t53 -18.5t48 -35t33.5 -57.5t13 -82q0 -130 -67.5 -213.5 t-184.5 -83.5q-82 0 -135 36.5t-63 106.5z" />
<glyph unicode="&#x44e;" horiz-adv-x="754" d="M41 0l109 471h78l-44 -191h116q5 21 14 44t28.5 52.5t45 52t67 38.5t90.5 16q88 0 138.5 -60t50.5 -150q0 -111 -69.5 -198t-185.5 -87q-89 0 -140 58.5t-51 148.5l1 19h-121l-49 -214h-78zM368 189q0 -73 33 -107t78 -34q76 0 125.5 71.5t49.5 163.5q0 43 -12 73.5 t-31 43.5t-34.5 18t-30.5 5q-56 0 -98 -37t-61 -89t-19 -108z" />
<glyph unicode="&#x44f;" horiz-adv-x="500" d="M0 0q23 16 41 51t29 66t36.5 60.5t61.5 39.5q-22 0 -48.5 25t-26.5 72q0 26 7 50t25 50t57 41.5t95 15.5h223l-109 -471h-78l44 189h-99q-43 0 -71.5 -23.5t-39.5 -52.5t-25.5 -64t-29.5 -49h-92zM171 322q0 -67 76 -67h125l35 150h-144q-49 0 -70.5 -25.5t-21.5 -57.5z " />
<glyph unicode="&#x451;" horiz-adv-x="522" d="M62 189q0 124 73 209t187 85q84 0 131 -49.5t47 -143.5q0 -31 -6 -63h-353q-2 -14 -2 -33q0 -37 10.5 -64.5t26 -42.5t35 -24t34 -11.5t27.5 -2.5q42 0 80 25.5t54 70.5l75 -13q-7 -20 -22 -42t-41 -46.5t-68.5 -40t-93.5 -15.5q-93 0 -143.5 55.5t-50.5 145.5zM156 285 h266q0 1 0.5 8t0.5 11q0 53 -29.5 85.5t-76.5 32.5q-55 0 -100 -40.5t-61 -96.5zM200 604l23 102h82l-23 -102h-82zM383 604l23 102h82l-23 -102h-82z" />
<glyph unicode="&#x452;" horiz-adv-x="538" d="M41 0l123 534h-100l16 66h100l24 106h78l-24 -106h190l-16 -66h-190l-42 -183q60 92 166 92q64 0 99 -31t35 -80q0 -22 -11 -77l-76 -331q-21 -91 -48 -121.5t-101 -30.5q-29 0 -53 4l15 64q18 -2 32 -2q38 0 51.5 16.5t25.5 69.5l78 340q7 34 7 47q0 33 -22 50.5 t-57 17.5q-57 0 -105 -40t-71 -140l-46 -199h-78z" />
<glyph unicode="&#x453;" horiz-adv-x="400" d="M41 0l109 471h324l-15 -66h-246l-94 -405h-78zM264 533l87 150h117l-143 -150h-61z" />
<glyph unicode="&#x454;" horiz-adv-x="510" d="M62 186q0 126 75 211.5t187 85.5q84 0 130.5 -38.5t55.5 -104.5l-74 -17q-4 20 -9 34t-17 31t-34 26t-53 9q-73 0 -114 -46.5t-55 -100.5h208l-16 -66h-203l-1 -17q0 -59 31 -102t94 -43q45 0 83 26.5t56 78.5l82 -11q-65 -154 -227 -154q-26 0 -51.5 5t-53 18.5t-48 35 t-33.5 57.5t-13 82z" />
<glyph unicode="&#x455;" horiz-adv-x="479" d="M46 131q0 15 3 31l80 13q-6 -36 -6 -40q0 -88 111 -88q54 0 87 22.5t33 60.5q0 23 -16 38t-55 30l-83 32q-97 38 -97 113q0 53 46.5 96.5t142.5 43.5q92 0 129 -37.5t37 -86.5q0 -11 -1 -18l-76 -13q3 9 3 27q0 30 -25.5 50t-65.5 20q-51 0 -79 -22.5t-28 -49.5 q0 -23 16 -35t56 -28l77 -30q50 -19 76.5 -45t26.5 -71q0 -16 -4 -33t-17 -40t-33.5 -40.5t-58.5 -30t-87 -12.5q-98 0 -145 38t-47 105z" />
<glyph unicode="&#x456;" horiz-adv-x="229" d="M41 0l108 471h78l-109 -471h-77zM178 604l23 102h78l-23 -102h-78z" />
<glyph unicode="&#x457;" horiz-adv-x="240" d="M47 0l108 471h78l-109 -471h-77zM126 604l23 102h74l-23 -102h-74zM252 604l23 102h74l-23 -102h-74z" />
<glyph unicode="&#x458;" horiz-adv-x="229" d="M-97 -224l15 64q18 -2 32 -2q37 0 50 16.5t25 68.5l131 548h76l-127 -547q-21 -91 -48 -121.5t-101 -30.5q-29 0 -53 4zM186 617l20 89h80l-21 -89h-79z" />
<glyph unicode="&#x459;" horiz-adv-x="746" d="M-20 0l15 66h11q49 1 75.5 55.5t69.5 240.5l25 109h334l-43 -185h133q58 0 94 -33t36 -96q0 -15 -3.5 -32t-15 -40t-29.5 -41.5t-50.5 -31t-75.5 -12.5h-233l94 405h-184l-10 -43q-12 -54 -18 -80t-17.5 -69t-20 -64t-22 -50.5t-27.5 -43.5t-33 -29t-42.5 -20.5 t-51.5 -5.5h-11zM416 66h128q59 0 83.5 26t24.5 61q0 67 -76 67h-124z" />
<glyph unicode="&#x45a;" horiz-adv-x="774" d="M41 0l109 471h78l-43 -185h232l43 185h78l-43 -185h133q58 0 94 -33t36 -96q0 -15 -3.5 -32t-15 -40t-29.5 -41.5t-50.5 -31t-75.5 -12.5h-233l50 220h-232l-50 -220h-78zM444 66h128q59 0 83.5 26t24.5 61q0 67 -76 67h-124z" />
<glyph unicode="&#x45b;" horiz-adv-x="538" d="M41 0l123 534h-100l16 66h100l24 106h78l-24 -106h190l-16 -66h-190l-42 -183q60 92 166 92q64 0 99 -31t35 -80q0 -22 -11 -77l-59 -255h-78l61 264q7 34 7 47q0 33 -22 50.5t-57 17.5q-57 0 -105 -40t-71 -140l-46 -199h-78z" />
<glyph unicode="&#x45c;" horiz-adv-x="478" d="M41 0l109 471h78l-43 -187h95q37 0 61 21t34 47.5t26.5 62.5t36.5 56h90q-31 -18 -53 -54t-32.5 -68t-32 -60.5t-52.5 -34.5q35 -11 49 -42t12.5 -64.5t4 -76.5t25.5 -71h-86q-10 22 -12.5 64.5t-3.5 73.5t-21 55.5t-62 24.5h-95l-50 -218h-78zM274 533l87 150h117 l-143 -150h-61z" />
<glyph unicode="&#x45e;" horiz-adv-x="458" d="M-54 -228l16 68q24 -2 37 -2q26 0 44.5 11t27 22.5t23.5 37.5l58 99l-53 463h78l37 -376l209 376h86l-356 -602q-38 -64 -69 -82t-88 -18q-23 0 -50 3zM183 674l66 10q0 -66 69 -66q75 0 101 66l62 -10q-21 -55 -68.5 -87.5t-104.5 -32.5q-61 0 -93 32t-32 88z" />
<glyph unicode="&#x45f;" horiz-adv-x="540" d="M41 0l109 471h78l-94 -405h234l94 405h78l-109 -471h-156l-33 -140h-70l33 140h-164z" />
<glyph unicode="&#x490;" horiz-adv-x="562" d="M58 0l163 706h374l35 150h80l-51 -224h-367l-146 -632h-88z" />
<glyph unicode="&#x491;" horiz-adv-x="400" d="M41 0l109 471h254l28 120h70l-43 -186h-246l-94 -405h-78z" />
<glyph unicode="&#x2013;" horiz-adv-x="600" d="M70 262l18 76h510l-18 -76h-510z" />
<glyph unicode="&#x2014;" horiz-adv-x="895" d="M70 262l18 76h805l-18 -76h-805z" />
<glyph unicode="&#x2018;" horiz-adv-x="229" d="M134 442q16 130 93 264h50q-51 -92 -62 -154h37l-21 -110h-97z" />
<glyph unicode="&#x2019;" horiz-adv-x="229" d="M145 439q45 75 63 156h-38l26 111h99q-15 -121 -99 -267h-51z" />
<glyph unicode="&#x201a;" horiz-adv-x="229" d="M8 -154q50 88 64 154h-41l26 110h95q-18 -146 -95 -264h-49z" />
<glyph unicode="&#x201c;" horiz-adv-x="354" d="M121 443q17 135 93 263h47q-41 -80 -60 -153h40l-26 -110h-94zM271 443q17 132 97 263h48q-47 -73 -64 -153h42l-26 -110h-97z" />
<glyph unicode="&#x201d;" horiz-adv-x="354" d="M138 444q45 91 58 154h-44l25 108h97q-3 -23 -7 -43t-10.5 -41t-10 -33.5t-14 -36t-14 -32t-17.5 -38t-18 -38.5h-45zM292 444q41 82 61 154h-42l25 108h99q-23 -128 -98 -262h-45z" />
<glyph unicode="&#x201e;" horiz-adv-x="354" d="M-1 -152q44 82 62 152h-42l26 111h96q-18 -128 -94 -263h-48zM153 -152q46 93 60 152h-41l26 111h94q-15 -128 -92 -263h-47z" />
<glyph unicode="&#x2022;" horiz-adv-x="333" d="M73 241l52 225h227l-51 -225h-228z" />
<glyph unicode="&#x2026;" horiz-adv-x="1000" d="M84 0l22 93h94l-21 -93h-95zM418 0l21 93h95l-22 -93h-94zM752 0l21 93h95l-22 -93h-94z" />
<glyph unicode="&#x2039;" horiz-adv-x="229" d="M70 274l15 66l165 115l-23 -96l-88 -58l60 -66l-19 -80z" />
<glyph unicode="&#x203a;" horiz-adv-x="229" d="M51 153l22 94l89 60l-60 66l18 80l111 -118l-16 -69z" />
<glyph unicode="&#x20ac;" horiz-adv-x="772" d="M59 267l38 62h51q2 25 6 49h-72l38 62h47q39 134 135.5 204t237.5 70q161 0 244 -110l-48 -80q-61 118 -201 118q-197 0 -271 -202h426l-37 -62h-403q-4 -24 -6 -49h382l-38 -62h-345q8 -100 67.5 -157t158.5 -57q76 0 131.5 20t108.5 71l-27 -109q-90 -53 -216 -53 q-136 0 -221.5 75t-95.5 210h-90z" />
<glyph unicode="&#x2122;" horiz-adv-x="694" d="M123 657l11 49h250l-11 -49h-94l-66 -283h-59l65 283h-96zM342 374l77 332h77l19 -265l142 265h75l-76 -332h-54l62 261l-135 -261h-54l-19 257l-58 -257h-56z" />
<glyph unicode="&#xe000;" horiz-adv-x="470" d="M0 0v470h470v-470h-470z" />
hkern u1="&#x218;" u2="F" k="-21" />
</font>
</defs>
</svg>
