<!DOCTYPE svg PUBLIC "-//W3C//DTD SVG 1.1//EN" "http://www.w3.org/Graphics/SVG/1.1/DTD/svg11.dtd" >
<svg xmlns="http://www.w3.org/2000/svg">
<metadata/>
<defs>
<font id="nissan_proregular" horiz-adv-x="521">
<font-face units-per-em="1000" ascent="750" descent="-250"/>
<missing-glyph horiz-adv-x="271"/>
<glyph horiz-adv-x="1000"/>
<glyph horiz-adv-x="1000"/>
<glyph unicode="
" horiz-adv-x="1000"/>
<glyph unicode=" " horiz-adv-x="271"/>
<glyph unicode="	" horiz-adv-x="271"/>
<glyph unicode=" " horiz-adv-x="271"/>
<glyph unicode="!" horiz-adv-x="271" d="M115 0v90h79v-90h-79zM115 429v277h79v-288l-24 -271h-31z"/>
<glyph unicode="&quot;" horiz-adv-x="347" d="M44 743h89l-28 -294h-32zM214 743h88l-28 -294h-31z"/>
<glyph unicode="#" horiz-adv-x="667" d="M42 229v77h149l16 108h-142v77h152l31 214h80l-31 -214h110l32 214h78l-30 -214h138v-77h-148l-16 -108h139v-77h-150l-33 -229h-79l33 229h-111l-33 -229h-81l35 229h-139zM270 306h112l15 108h-111z"/>
<glyph unicode="$" horiz-adv-x="625" d="M20 204l102 11q13 -60 55 -101t110 -53v253q-32 9 -57 18t-58 27t-55 38.5t-37.5 53t-15.5 70.5q0 48 22 86t57 60t71.5 34t72.5 15v110h67v-111q33 -5 65 -16t65.5 -32t60 -57t37.5 -83l-93 -9q-15 48 -49.5 81t-85.5 40v-236q34 -10 58.5 -18t63 -27t63 -40.5t43 -56 t18.5 -74.5q0 -88 -72 -146.5t-166 -58.5h-8v-119h-67v119q-97 14 -158 55q-84 57 -109 167zM165 532q0 -26 11 -45t31.5 -31.5t37.5 -19.5t42 -14v220q-47 -2 -84.5 -31.5t-37.5 -78.5zM354 58q54 0 98 30t44 84q0 44 -33 71.5t-109 51.5v-237z"/>
<glyph unicode="%" horiz-adv-x="896" d="M26 452q0 54 14 103.5t53 88.5t96 39q68 0 116 -61t48 -171q0 -36 -7 -72t-24 -72.5t-51 -59.5t-81 -23q-76 0 -120 63.5t-44 164.5zM92 458q0 -22 2 -42t10 -55.5t30 -57t56 -21.5q44 0 71 40t27 128q0 55 -10.5 93.5t-28 54.5t-32 22t-29.5 6q-48 0 -72 -47t-24 -121z M248 -3l318 685l54 -26l-317 -685zM522 219q0 54 14 103.5t53 88.5t96 39q68 0 116 -61t48 -171q0 -36 -7 -72t-24 -72.5t-51 -59.5t-81 -23q-76 0 -120 63.5t-44 164.5zM588 225q0 -22 2 -42t10 -55.5t30 -57t56 -21.5q44 0 71 40t27 128q0 55 -10.5 93.5t-28 54.5t-32 22 t-29.5 6q-48 0 -72 -47t-24 -121z"/>
<glyph unicode="&amp;" horiz-adv-x="604" d="M38 185q0 44 14.5 80.5t42.5 63.5t51 42.5t57 34.5q-2 4 -7 18t-7 19t-6 17t-5.5 18.5t-3.5 17t-3 20.5t-1 20q0 70 44.5 117.5t113.5 47.5q61 0 103 -40t42 -101q0 -87 -96 -153q-11 -8 -57 -34q31 -68 100 -178q30 57 47 130h77q-14 -95 -76 -197q37 -52 97 -52 q9 0 28 3v-83q-21 -4 -38 -4q-83 0 -146 72q-81 -73 -178 -73q-29 0 -60.5 10.5t-62.5 32t-50.5 61t-19.5 90.5zM123 195q0 -49 34 -87.5t90 -38.5q58 0 115 52q-3 4 -70 115q-44 75 -56 101q-62 -27 -87.5 -67t-25.5 -75zM250 553q0 -43 33 -110q57 25 84 59t27 68 q0 29 -18.5 49.5t-48.5 20.5q-26 0 -51.5 -21.5t-25.5 -65.5z"/>
<glyph unicode="'" horiz-adv-x="177" d="M44 743h89l-28 -294h-32z"/>
<glyph unicode="(" horiz-adv-x="315" d="M40 321q0 141 62 268.5t182 208.5l33 -40q-94 -82 -139 -187t-45 -243q0 -137 50 -257t136 -188l-32 -46q-118 88 -182.5 213t-64.5 271z"/>
<glyph unicode=")" horiz-adv-x="319" d="M4 755l33 46q119 -87 182.5 -213t63.5 -271q0 -144 -64.5 -272t-180.5 -205l-33 39q185 163 185 432q0 138 -50 257.5t-136 186.5z"/>
<glyph unicode="*" horiz-adv-x="349" d="M18 575l17 57l102 -27v103h62v-105l103 34l21 -54l-104 -37l63 -83l-48 -37l-66 85l-59 -85l-50 36l59 85z"/>
<glyph unicode="+" horiz-adv-x="724" d="M94 262v78h224v228h88v-228h225v-78h-225v-229h-88v229h-224z"/>
<glyph unicode="," horiz-adv-x="229" d="M63 0v109h99v-60q0 -113 -41 -205h-47q33 95 33 156h-44z"/>
<glyph unicode="-" horiz-adv-x="370" d="M45 262v76h280v-76h-280z"/>
<glyph unicode="." horiz-adv-x="229" d="M64 0v113h99v-113h-99z"/>
<glyph unicode="/" horiz-adv-x="333" d="M13 0l233 702h75l-231 -702h-77z"/>
<glyph unicode="0" horiz-adv-x="583" d="M49 334q0 153 64.5 249.5t176.5 96.5q106 0 175.5 -92t69.5 -248q0 -155 -64 -250.5t-180 -95.5q-42 0 -82 17t-77 53.5t-60 106t-23 163.5zM138 330q0 -117 40 -187.5t115 -70.5q46 0 78 27t47 71.5t21 85t6 82.5q0 25 -2 50.5t-10.5 66.5t-23.5 71t-45.5 52.5 t-70.5 22.5q-155 0 -155 -271z"/>
<glyph unicode="1" horiz-adv-x="583" d="M118 493v62q114 0 151 59q17 26 21 60h67v-674h-94v493h-145z"/>
<glyph unicode="2" horiz-adv-x="583" d="M77 469q0 103 63 159q59 52 155 52q86 0 145 -50q72 -60 72 -163q0 -145 -166 -282q-72 -58 -149 -108h323v-77h-441v85q96 51 209 157q61 56 96 110.5t35 120.5q0 60 -33.5 94.5t-93.5 34.5q-67 0 -97 -37t-30 -96q0 -32 12 -80h-88q-12 41 -12 80z"/>
<glyph unicode="3" horiz-adv-x="583" d="M40 223h90q5 -73 37 -111t121 -38q14 0 26.5 1t36.5 7.5t40.5 18t30 36t13.5 58.5q0 113 -148 113q-36 0 -66 -3v81q28 -2 51 -2q147 0 147 108q0 55 -42 84.5t-94 29.5q-73 0 -108 -56q-19 -31 -23 -102l-89 4q3 58 13 89q12 37 34 64.5t44.5 41.5t50.5 22t45 9.5 t34 1.5q104 0 164.5 -53t60.5 -135q0 -99 -82 -143q43 -17 72.5 -58t29.5 -103q0 -76 -52 -129q-64 -65 -182 -65q-51 0 -95 12.5t-81 38.5t-58 71.5t-21 106.5z"/>
<glyph unicode="4" horiz-adv-x="583" d="M42 162v81l322 431h70v-436h98v-76h-98v-162h-87v162h-305zM133 238h214l4 302z"/>
<glyph unicode="5" horiz-adv-x="583" d="M47 210l89 6q8 -60 43.5 -102.5t104.5 -42.5q21 0 42.5 6.5t47 22.5t42 52t16.5 87q0 68 -37.5 111.5t-108.5 43.5q-92 0 -133 -87h-81l22 367h383v-79h-315l-9 -177q62 54 149 54q105 0 164 -70.5t59 -165.5q0 -99 -63 -170.5t-175 -71.5q-53 0 -95.5 15.5t-68.5 41 t-40.5 48.5t-23.5 47q-8 25 -12 64z"/>
<glyph unicode="6" horiz-adv-x="583" d="M62 329q0 73 13 133.5t40.5 110.5t75.5 78.5t113 28.5q166 0 205 -174l-87 -12q-7 49 -37.5 79.5t-79.5 30.5q-44 0 -76 -21.5t-49 -58t-24.5 -76.5t-7.5 -85q22 33 65.5 57.5t101.5 24.5q50 0 96.5 -21.5t81 -73t34.5 -122.5q0 -39 -12.5 -77.5t-37.5 -75t-70 -59 t-104 -22.5q-54 0 -104 24.5t-83 75.5q-30 46 -42 100t-12 135zM162 220q0 -63 40.5 -104.5t102.5 -41.5q60 0 97 42.5t37 102.5q0 21 -6.5 44t-20.5 47t-42.5 39t-67.5 15q-71 0 -105.5 -46t-34.5 -98z"/>
<glyph unicode="7" horiz-adv-x="583" d="M96 466v208h413v-97q0 -9 -1 -17t-2 -13t-5.5 -14t-6.5 -13.5t-11 -19t-13 -22.5l-35 -61q-139 -241 -161 -417h-106q23 179 204 461l30 47q22 35 27.5 48.5t5.5 37.5h-267v-128h-72z"/>
<glyph unicode="8" horiz-adv-x="583" d="M52 201q0 51 24 94.5t68 66.5q-75 50 -75 139q0 86 57.5 132.5t166.5 46.5q58 0 101.5 -14.5t65.5 -34t35 -46.5t16 -45.5t3 -38.5q0 -94 -76 -139q19 -12 30 -20.5t29 -28t27 -47t9 -63.5q0 -87 -61 -148t-180 -61q-62 0 -110 18.5t-75 49.5t-41 66.5t-14 72.5zM143 202 q0 -45 25.5 -75t57.5 -40.5t68 -10.5q25 0 48.5 6t46.5 19t37 39t14 61q0 65 -43.5 93t-107.5 28q-78 0 -112 -36.5t-34 -83.5zM158 503q0 -41 28.5 -73.5t105.5 -32.5q132 0 132 110q0 37 -32.5 66.5t-103.5 29.5q-56 0 -93 -24.5t-37 -75.5z"/>
<glyph unicode="9" horiz-adv-x="583" d="M52 444q0 42 12.5 81t38 74t71.5 56.5t106 21.5q123 0 184 -87.5t61 -248.5q0 -172 -75 -270q-59 -77 -175 -77q-85 0 -136 50t-66 118l87 16q23 -108 121 -108q55 0 92 36q33 32 49.5 89t16.5 109q-67 -86 -167 -86q-98 0 -159 63.5t-61 162.5zM141 439q0 -69 41 -105 t100 -36q73 0 110.5 42t37.5 95q0 68 -40 117.5t-111 49.5q-40 0 -69 -16.5t-43 -43.5t-20 -52.5t-6 -50.5z"/>
<glyph unicode=":" horiz-adv-x="271" d="M106 0v113h99v-113h-99zM106 377v112h99v-112h-99z"/>
<glyph unicode=";" horiz-adv-x="271" d="M107 0v111h99v-61q0 -121 -39 -205h-45q25 78 25 155h-40zM107 380v110h99v-110h-99z"/>
<glyph unicode="&lt;" horiz-adv-x="724" d="M114 257v89l465 235v-88l-384 -190l384 -189v-91z"/>
<glyph unicode="=" horiz-adv-x="724" d="M99 163v77h526v-77h-526zM99 350v78h526v-78h-526z"/>
<glyph unicode="&gt;" horiz-adv-x="724" d="M144 21v89l384 189l-384 189v91l465 -233v-90z"/>
<glyph unicode="?" horiz-adv-x="562" d="M71 471v18q0 92 61 157.5t164 65.5q94 0 162 -60.5t68 -155.5q0 -86 -54 -137.5t-136 -56.5v-152h-79v236h31q69 0 112 30t43 91q0 60 -44 95t-106 35q-73 0 -104 -45.5t-31 -104.5v-16h-87zM251 0v97h89v-97h-89z"/>
<glyph unicode="@" horiz-adv-x="896" d="M69 234q0 126 60 236t166.5 176t233.5 66q133 0 215.5 -77.5t82.5 -210.5q0 -74 -23 -146q-25 -77 -81.5 -142.5t-126.5 -65.5q-39 0 -61 23t-22 63q-65 -85 -144 -85q-64 0 -97 47.5t-33 114.5q0 64 24.5 128t74.5 110t112 46q40 0 70 -22.5t45 -61.5l15 62h68l-33 -150 q-28 -126 -28 -172q0 -43 31 -43t65 41q41 48 63.5 115.5t22.5 134.5q0 111 -66 174t-178 63q-110 0 -203 -60t-145 -157t-52 -206q0 -141 92 -222.5t235 -81.5q184 0 335 146l33 -41q-160 -160 -367 -160q-90 0 -174 35q-103 44 -156.5 127t-53.5 196zM318 238 q0 -43 20 -73t60 -30q39 0 69 27t44.5 66.5t21.5 73t7 55.5q0 40 -22.5 68.5t-61.5 28.5q-61 0 -99.5 -71t-38.5 -145z"/>
<glyph unicode="A" horiz-adv-x="646" d="M10 0l269 706h98l257 -706h-99l-77 216h-269l-79 -216h-100zM219 295h211l-103 295z"/>
<glyph unicode="B" horiz-adv-x="688" d="M77 0v706h339q82 0 142.5 -48.5t60.5 -132.5q0 -54 -29.5 -96.5t-78.5 -56.5q129 -39 129 -177q0 -45 -15 -80.5t-37.5 -56.5t-53 -34.5t-58.5 -18.5t-57 -5h-342zM166 83h229q31 0 53 3.5t46 15t36.5 37t12.5 63.5q0 62 -39.5 94.5t-105.5 32.5h-232v-246zM166 409h209 q145 0 145 111q0 47 -29 75t-92 28h-233v-214z"/>
<glyph unicode="C" horiz-adv-x="764" d="M49 353q0 167 95.5 269t261.5 102q124 0 205 -56t117 -160l-95 -19q-21 67 -78.5 113.5t-149.5 46.5q-119 0 -185.5 -79.5t-66.5 -211.5q0 -145 70.5 -221t182.5 -76q88 0 153 52.5t81 154.5l102 -12q-10 -47 -34 -92t-64.5 -87.5t-105.5 -68.5t-144 -26 q-158 0 -251.5 102t-93.5 269z"/>
<glyph unicode="D" horiz-adv-x="708" d="M78 0v706h280q133 0 216.5 -92t83.5 -262q0 -71 -16 -130t-51.5 -111t-101.5 -81.5t-158 -29.5h-253zM175 82h167q108 0 164 71.5t56 199.5q0 122 -55.5 196t-169.5 74h-162v-541z"/>
<glyph unicode="E" horiz-adv-x="604" d="M79 0v706h486v-83h-396v-218h344v-82h-344v-241h408v-82h-498z"/>
<glyph unicode="F" horiz-adv-x="542" d="M78 0v706h453v-84h-359v-208h334v-82h-334v-332h-94z"/>
<glyph unicode="G" horiz-adv-x="812" d="M50 344q0 175 103 277.5t261 102.5q46 0 89.5 -10t88.5 -32t84 -63.5t65 -99.5l-98 -25q-22 72 -82 112t-144 40q-66 0 -117.5 -25t-82.5 -66.5t-47 -92.5t-16 -107q0 -143 75.5 -217t185.5 -74q102 0 173 59.5t71 160.5v10h-246v79h328v-373h-82v99q-26 -44 -92 -80.5 t-166 -36.5q-157 0 -254 101t-97 261z"/>
<glyph unicode="H" horiz-adv-x="729" d="M79 0v706h93v-300h384v300h95v-706h-95v323h-384v-323h-93z"/>
<glyph unicode="I" horiz-adv-x="229" d="M67 0v706h95v-706h-95z"/>
<glyph unicode="J" horiz-adv-x="375" d="M9 -8v103q40 -20 93 -20q58 0 83 37q11 16 13.5 39.5t2.5 76.5v478h96v-519q0 -36 -1.5 -54t-10 -43t-26.5 -46q-53 -62 -154 -62q-44 0 -96 10z"/>
<glyph unicode="K" horiz-adv-x="625" d="M67 0v706h94v-345l335 345h116l-286 -292l298 -414h-115l-248 348l-100 -102v-246h-94z"/>
<glyph unicode="L" d="M68 0v706h94v-622h342v-84h-436z"/>
<glyph unicode="M" horiz-adv-x="812" d="M68 0v706h122l216 -579l218 579h122v-706h-94l13 592l-223 -592h-73l-219 583q10 -562 10 -583h-92z"/>
<glyph unicode="N" horiz-adv-x="708" d="M78 0v706h89l382 -566q-4 544 -4 566h85v-706h-85l-387 574q9 -560 9 -574h-89z"/>
<glyph unicode="O" horiz-adv-x="812" d="M51 354q0 93 30 166t80.5 116.5t113 65.5t132.5 22q160 0 257.5 -101.5t97.5 -263.5q0 -54 -11.5 -105.5t-38.5 -101.5t-67.5 -87t-102.5 -60t-138 -23q-70 0 -132.5 23t-112.5 67.5t-79 117t-29 164.5zM153 353q0 -137 68.5 -217t187.5 -80q111 0 181 76.5t70 226.5 q0 56 -13.5 105t-41.5 91.5t-79 67.5t-119 25q-67 0 -118 -25t-79.5 -68t-42.5 -93.5t-14 -108.5z"/>
<glyph unicode="P" horiz-adv-x="625" d="M76 0v706h335q99 0 151 -55.5t52 -143.5q0 -53 -18.5 -98t-67 -77.5t-120.5 -32.5h-241v-299h-91zM167 383h227q58 0 92.5 32t34.5 94q0 59 -34 87.5t-92 28.5h-228v-242z"/>
<glyph unicode="Q" horiz-adv-x="812" d="M47 353q0 71 21.5 135.5t64 118t113.5 85.5t162 32q158 0 256 -99.5t98 -274.5q0 -120 -65 -222l109 -94l-60 -70l-112 95q-104 -77 -231 -77q-154 0 -255 98t-101 273zM150 356q0 -55 14 -105.5t42.5 -95t80.5 -71t121 -26.5q66 0 116.5 25.5t79.5 69t43 93.5t14 105 q0 127 -65.5 213.5t-190.5 86.5q-65 0 -115.5 -25.5t-80 -68.5t-44.5 -94t-15 -107z"/>
<glyph unicode="R" horiz-adv-x="667" d="M78 0v706h318q106 0 167.5 -51.5t61.5 -154.5q0 -73 -38.5 -126t-127.5 -68l198 -306h-112l-193 300h-182v-300h-92zM170 379h208q154 0 154 121q0 60 -37 94t-104 34h-221v-249z"/>
<glyph unicode="S" horiz-adv-x="667" d="M37 226l101 13q0 -10 1 -19t5.5 -29t12 -36t23 -35.5t36 -32.5t53 -22t72.5 -9q26 0 53 6t56.5 20t48 43.5t18.5 71.5q0 54 -34 79t-100 38l-64 13q-126 25 -187 70.5t-61 130.5q0 82 67 138q70 58 183 58q126 0 195 -53q43 -32 61.5 -69.5t28.5 -94.5l-95 -6 q0 15 -3.5 31.5t-15 38.5t-30 39t-53.5 29t-80 12q-38 0 -72 -9t-61.5 -35t-27.5 -67q0 -47 35.5 -70.5t105.5 -40.5l129 -31q20 -5 32.5 -8.5t44 -19t51 -34.5t36 -54t16.5 -79q0 -87 -59 -145q-78 -76 -223 -76q-117 0 -193 49q-93 60 -106 195z"/>
<glyph unicode="T" horiz-adv-x="542" d="M11 624v82h517v-82h-211v-624h-94v624h-212z"/>
<glyph unicode="U" horiz-adv-x="688" d="M76 223v483h94v-467q0 -79 40.5 -128t128.5 -49q93 0 135 53t42 137v454h95v-473q0 -105 -70 -178t-203 -73q-126 0 -194 68t-68 173z"/>
<glyph unicode="V" horiz-adv-x="604" d="M11 706h100l187 -590l194 590h100l-249 -706h-93z"/>
<glyph unicode="W" horiz-adv-x="1021" d="M18 706h99l167 -585l179 585h92l186 -585l165 585h97l-216 -706h-92l-186 585l-180 -585h-94z"/>
<glyph unicode="X" horiz-adv-x="625" d="M21 0l235 370l-222 336h112l165 -254l158 254h111l-216 -336l241 -370h-111l-183 287l-181 -287h-109z"/>
<glyph unicode="Y" horiz-adv-x="625" d="M14 706h111l186 -299l188 299h112l-254 -383v-323h-95v323z"/>
<glyph unicode="Z" horiz-adv-x="604" d="M18 0v92l436 528h-401v86h508v-88l-434 -533h444v-85h-553z"/>
<glyph unicode="[" horiz-adv-x="277" d="M68 -144v923h184v-59h-104v-805h104v-59h-184z"/>
<glyph unicode="\" horiz-adv-x="333" d="M13 702h77l231 -702h-75z"/>
<glyph unicode="]" horiz-adv-x="276" d="M23 -84h104v805h-104v58h184v-922h-184v59z"/>
<glyph unicode="^" horiz-adv-x="724" d="M113 287l204 419h91l203 -419h-91l-156 339l-157 -339h-94z"/>
<glyph unicode="_" horiz-adv-x="500" d="M-10 -139h520v-75h-520v75z"/>
<glyph unicode="`" horiz-adv-x="271" d="M70 665h89l42 -144h-48z"/>
<glyph unicode="a" horiz-adv-x="500" d="M32 122q0 63 51 102q59 44 191 53l72 5v16q0 19 -1 31t-6.5 32t-15.5 32.5t-31 22t-51 9.5q-49 0 -75.5 -24t-26.5 -68v-7l-83 5q0 11 2.5 25.5t13.5 38.5t29 43t53.5 33.5t82.5 14.5q71 0 118 -28q46 -26 58.5 -62.5t12.5 -108.5v-166q0 -18 1.5 -27.5t10 -18.5t24.5 -9 q6 0 24 4v-67q-27 -9 -51 -9q-33 0 -50 12q-13 10 -22 28t-10 30q-71 -77 -161 -77q-71 0 -115.5 37.5t-44.5 97.5zM120 124q0 -29 22.5 -49.5t66.5 -20.5q20 0 40.5 5t44 18.5t38.5 43.5t15 72v37q-145 -23 -169 -34q-58 -23 -58 -72z"/>
<glyph unicode="b" horiz-adv-x="562" d="M65 0v706h80v-300q54 80 162 80q94 0 155.5 -67.5t61.5 -182.5q0 -110 -56.5 -180.5t-161.5 -70.5q-103 0 -161 76v-61h-80zM143 234q0 -72 36 -126.5t114 -54.5q58 0 102 44t44 146q0 80 -42 125t-104 45q-59 0 -104.5 -42.5t-45.5 -136.5z"/>
<glyph unicode="c" d="M39 232q0 111 59.5 182.5t169.5 71.5q97 0 151.5 -48.5t65.5 -109.5l-88 -8q-9 52 -42.5 80t-85.5 28q-61 0 -101.5 -45.5t-40.5 -145.5q0 -86 38 -138t109 -52q118 0 134 131l86 -8q-35 -185 -222 -185q-109 0 -171 68.5t-62 178.5z"/>
<glyph unicode="d" horiz-adv-x="562" d="M39 237q0 65 20 115.5t52.5 78.5t69 41.5t74.5 13.5q57 0 101 -25t61 -52v297h80v-706h-80v60q-64 -75 -161 -75q-101 0 -159 70t-58 182zM125 234q0 -73 34.5 -125.5t112.5 -52.5q61 0 104 43.5t43 142.5q0 74 -39.5 122.5t-105.5 48.5q-75 0 -112 -52t-37 -127z"/>
<glyph unicode="e" d="M39 240q0 64 21.5 113.5t56 77t73 41.5t77.5 14q88 0 152 -62.5t64 -189.5v-13h-358v-6q0 -65 38 -117.5t115 -52.5q55 0 84.5 33.5t39.5 76.5l81 -11q-53 -159 -213 -159q-97 0 -164 62.5t-67 192.5zM127 279h269q0 60 -38 102.5t-97 42.5q-60 0 -94 -41.5t-40 -103.5z "/>
<glyph unicode="f" horiz-adv-x="271" d="M11 405v66h78v41q0 94 12 124q25 65 112 65q26 0 58 -6v-63q-15 5 -44 5q-60 0 -60 -76v-90h89v-66h-89v-405h-78v405h-78z"/>
<glyph unicode="g" horiz-adv-x="562" d="M41 233q0 45 11 86.5t34.5 80.5t68.5 62.5t105 23.5q86 0 154 -79v64h83v-480q0 -63 -18 -107.5t-50.5 -68t-69.5 -34t-82 -10.5q-87 0 -146.5 44.5t-67.5 130.5h90q0 -54 35.5 -82t94.5 -28q72 0 101.5 35.5t29.5 106.5v91q-61 -84 -155 -84q-93 0 -155.5 66.5 t-62.5 181.5zM123 235q0 -79 37.5 -128.5t111.5 -49.5q73 0 109 51.5t36 133.5q0 80 -41 126t-107 46q-64 0 -105 -47t-41 -132z"/>
<glyph unicode="h" d="M66 0v706h80v-283q58 63 143 63q169 0 169 -181v-305h-81v276q0 52 -9 78q-22 62 -95 62q-70 0 -105 -59q-22 -38 -22 -123v-234h-80z"/>
<glyph unicode="i" horiz-adv-x="208" d="M69 0v471h77v-471h-77zM69 614v92h77v-92h-77z"/>
<glyph unicode="j" horiz-adv-x="208" d="M-23 -154q28 -3 36 -3q22 0 36 10q11 8 13.5 20.5t2.5 44.5v553h78v-575q0 -68 -25 -95q-28 -30 -81 -30q-33 0 -60 4v71zM65 613v93h78v-93h-78z"/>
<glyph unicode="k" horiz-adv-x="458" d="M65 0v706h81v-435l188 200h98l-175 -186l215 -285h-100l-169 226l-57 -60v-166h-81z"/>
<glyph unicode="l" horiz-adv-x="208" d="M67 0v706h76v-706h-76z"/>
<glyph unicode="m" horiz-adv-x="771" d="M64 0v471h75v-64q67 79 142 79q59 0 98 -44q9 -10 29 -43l18 18q18 18 27.5 25t29 20t40 18.5t43.5 5.5q67 0 109 -52q32 -38 32 -123v-311h-79v314q0 55 -26.5 76t-59.5 21q-35 0 -69 -22.5t-44 -55.5q-6 -18 -6 -68v-265h-78v307q0 33 -9.5 55t-24.5 31.5t-27.5 13 t-25.5 3.5q-33 0 -67 -20t-45 -50q-7 -18 -7 -60v-280h-75z"/>
<glyph unicode="n" d="M64 0v471h80v-69q19 33 56 58.5t92 25.5q16 0 35 -3.5t49.5 -19t49.5 -42.5q29 -41 29 -123v-298h-79v309q0 51 -31 76.5t-76 25.5q-52 0 -88.5 -35.5t-36.5 -96.5v-279h-80z"/>
<glyph unicode="o" horiz-adv-x="542" d="M40 235q0 27 5 55.5t20.5 65t40.5 64.5t69.5 47t102.5 19q91 0 157.5 -63.5t66.5 -182.5q0 -122 -65.5 -188.5t-165.5 -66.5q-102 0 -166.5 66t-64.5 184zM127 231q0 -20 2.5 -40.5t11.5 -47.5t24 -46.5t42 -33.5t63 -14q71 0 108.5 52t37.5 145q0 72 -33 124t-106 52 q-42 0 -72.5 -18t-45 -40t-22.5 -53.5t-9 -47t-1 -32.5z"/>
<glyph unicode="p" horiz-adv-x="562" d="M65 -224v695h78v-67q25 31 69 56.5t99 25.5q83 0 147.5 -65t64.5 -187q0 -44 -11.5 -85t-35.5 -79.5t-69 -61.5t-105 -23q-48 0 -91 18t-68 52v-279h-78zM143 227q0 -80 39.5 -126t108.5 -46q73 0 111.5 49t38.5 133q0 88 -43.5 131t-101.5 43q-69 0 -111 -49t-42 -135z "/>
<glyph unicode="q" horiz-adv-x="562" d="M40 227q0 69 19.5 121.5t51.5 81t68.5 42.5t75.5 14q106 0 161 -85v70h81v-696h-81v281q-58 -71 -162 -71q-94 0 -154 62t-60 180zM127 229q0 -92 42 -135.5t105 -43.5q13 0 26.5 1.5t37 11t40.5 26t30.5 50.5t13.5 80q0 30 -6 59.5t-21 61.5t-46 51.5t-75 19.5 q-147 0 -147 -182z"/>
<glyph unicode="r" horiz-adv-x="313" d="M65 0v471h80v-86q17 33 44 54q48 38 117 38v-86q-15 3 -31 3q-44 0 -77.5 -23.5t-45.5 -65.5q-7 -28 -7 -87v-218h-80z"/>
<glyph unicode="s" horiz-adv-x="479" d="M31 152l91 13q0 -55 26 -83q33 -36 106 -36q41 0 75 17.5t34 61.5q0 20 -8 34t-25.5 22t-30 11.5t-34.5 7.5l-46 9q-93 18 -130.5 51.5t-37.5 85.5q0 71 54.5 105.5t128.5 34.5q66 0 110 -25t66 -58q19 -29 25 -72l-86 -10q-1 32 -7 44q-11 23 -42 41.5t-77 18.5 q-45 0 -69 -21.5t-24 -47.5q0 -29 27 -44.5t87 -29.5l46 -11q76 -18 116.5 -48t40.5 -89q0 -67 -56 -108t-141 -41q-194 0 -219 167z"/>
<glyph unicode="t" horiz-adv-x="292" d="M16 405v66h76v149h82v-149h85v-66h-85v-303q0 -25 8 -36t27 -11q20 0 50 11v-66q-56 -8 -76 -8q-55 0 -73 20t-18 65v328h-76z"/>
<glyph unicode="u" d="M65 168v303h79v-268q0 -72 11 -95q23 -45 86 -45q75 0 112 54q23 34 23 113v241h78v-471h-79v72q-26 -39 -69.5 -61.5t-90.5 -22.5q-88 0 -126 62q-24 40 -24 118z"/>
<glyph unicode="v" horiz-adv-x="437" d="M12 471h83l125 -361l124 361h82l-170 -471h-72z"/>
<glyph unicode="w" horiz-adv-x="729" d="M11 471h86l118 -350l116 350h70l111 -350l123 350h84l-173 -471h-70l-113 351l-115 -351h-73z"/>
<glyph unicode="x" horiz-adv-x="396" d="M9 0l146 239l-139 232h92l94 -162l95 162h90l-142 -232l142 -239h-90l-100 168l-98 -168h-90z"/>
<glyph unicode="y" horiz-adv-x="437" d="M9 -151q24 -8 53 -8q35 0 53.5 19.5t38.5 78.5l20 58l-160 474h85l118 -374l125 374h83l-198 -557q-30 -85 -59 -116t-88 -31q-35 0 -71 10v72z"/>
<glyph unicode="z" horiz-adv-x="417" d="M13 0v66l271 336h-245v69h344v-64l-274 -341h280v-66h-376z"/>
<glyph unicode="{" horiz-adv-x="281" d="M17 288v60q52 4 68.5 23.5t16.5 82.5v192q0 71 30.5 104t106.5 33h29v-58h-16q-46 0 -57.5 -20.5t-11.5 -74.5v-178q0 -62 -16.5 -89t-65.5 -46q46 -14 64 -43t18 -91v-196q0 -44 15.5 -60.5t59.5 -16.5h10v-58h-40q-60 0 -93 29t-33 108v192q0 64 -16 83t-69 24z"/>
<glyph unicode="|" horiz-adv-x="236" d="M77 -143v922h80v-922h-80z"/>
<glyph unicode="}" horiz-adv-x="281" d="M12 -90h19q43 0 55 21.5t12 74.5v176q0 62 16.5 89.5t64.5 46.5q-43 11 -62 41t-19 87v199q0 45 -15 62t-59 17h-12v58h44q57 0 90 -30.5t33 -108.5v-201q0 -52 16.5 -71.5t67.5 -23.5v-60q-51 -6 -67.5 -23.5t-16.5 -72.5v-197q0 -72 -28 -107t-103 -35h-36v58z"/>
<glyph unicode="~" horiz-adv-x="724" d="M74 287q38 54 74.5 77.5t83.5 23.5q41 0 133 -41l45 -20q58 -25 79 -25q55 0 117 73l45 -60q-86 -100 -158 -100q-47 0 -127 38l-35 17q-65 31 -104 31q-29 0 -47.5 -13t-54.5 -55l-6 -7z"/>
<glyph unicode="¡" horiz-adv-x="271" d="M77 0v288l24 271h31l24 -282v-277h-79zM77 616v90h79v-90h-79z"/>
<glyph unicode="¢" horiz-adv-x="500" d="M28 237q0 93 52.5 161.5t151.5 82.5v96h59v-95q25 -4 44.5 -10t48 -21.5t52 -47.5t38.5 -79l-90 -8q-8 78 -93 101v-364q99 17 105 127l88 -8q-11 -53 -34.5 -91t-52.5 -56.5t-54.5 -27t-51.5 -9.5v-103h-60v103q-95 9 -149 80.5t-54 168.5zM113 237q0 -41 8.5 -75.5 t36.5 -66.5t73 -41v365q-118 -33 -118 -182z"/>
<glyph unicode="£" horiz-adv-x="667" d="M36 281v65h131q-61 99 -61 168q0 96 79.5 153t182.5 57q65 0 115 -22t77.5 -57.5t41 -72.5t13.5 -73l-105 -10q1 10 1 19q0 21 -6.5 43t-22 46.5t-47 39.5t-74.5 15q-63 0 -105 -35t-42 -94q0 -26 8 -52t15.5 -40t27.5 -44t26 -41h209v-65h-173q2 -5 6.5 -19t6 -19t4 -15 t3.5 -19.5t1 -20.5q0 -33 -11 -76q1 0 11.5 -6t17 -9l19.5 -9t23.5 -9t25 -5.5t27.5 -2.5q46 0 72 30.5t27 76.5l93 -6q-3 -32 -12.5 -61.5t-28 -58.5t-51.5 -46.5t-76 -17.5q-19 0 -38.5 3t-33 6t-34 10.5t-28 11t-28.5 13.5t-24 11q-67 -58 -141 -58q-43 0 -77.5 24 t-34.5 68q0 39 30 63t79 24q47 0 100 -18q2 8 2 17q0 24 -13 58.5t-31 59.5h-177zM125 70q0 -9 8.5 -16.5t23.5 -7.5q35 0 70 31q-42 17 -70 17q-32 0 -32 -24z"/>
<glyph unicode="¥" horiz-adv-x="625" d="M14 677h112l185 -287l189 287h111l-171 -247h112v-72h-159l-38 -52h197v-72h-195v-234h-94v234h-194v72h194l-32 51h-162v71h113z"/>
<glyph unicode="¨" horiz-adv-x="271" d="M-7 541v103h87v-103h-87zM189 541v103h89v-103h-89z"/>
<glyph unicode="©" horiz-adv-x="840" d="M64 353q0 149 104 252.5t253 103.5q146 0 250.5 -103t104.5 -246q0 -155 -102 -259t-255 -104q-148 0 -251.5 104t-103.5 252zM100 352q0 -134 93 -227.5t227 -93.5q130 0 225 93.5t95 221.5q0 140 -92 234.5t-228 94.5q-133 0 -226.5 -94.5t-93.5 -228.5zM214 345 q0 106 61 173.5t158 67.5q71 0 115 -33t68 -105l-67 -19q-21 52 -46.5 72t-70.5 20q-66 0 -105 -46.5t-39 -125.5q0 -75 37 -119t99 -44q50 0 80.5 25t47.5 79l68 -14q-45 -157 -197 -157q-94 0 -151.5 62.5t-57.5 163.5z"/>
<glyph unicode="«" horiz-adv-x="396" d="M42 250v85l135 117v-91l-78 -68l78 -67v-89zM200 254v83l134 116v-89l-80 -71l80 -66v-86z"/>
<glyph unicode="®" horiz-adv-x="840" d="M64 353q0 149 104 252.5t253 103.5q146 0 250.5 -103t104.5 -246q0 -155 -102 -259t-255 -104q-148 0 -251.5 104t-103.5 252zM101 352q0 -134 93 -227.5t226 -93.5q130 0 225 93.5t95 221.5q0 140 -92 234.5t-228 94.5q-133 0 -226 -94.5t-93 -228.5zM281 128v450h130 q83 0 121 -31t38 -98q0 -100 -96 -126l102 -195h-77l-95 189h-54v-189h-69zM351 378h57q48 0 70 16.5t22 53.5t-23 53t-76 16h-50v-139z"/>
<glyph unicode="´" horiz-adv-x="271" d="M72 522l41 144h86l-86 -144h-41z"/>
<glyph unicode="¸" horiz-adv-x="271" d="M68 -96l73 112l29 -7l-29 -52l24 -13q19 -10 28.5 -27.5t9.5 -33.5q0 -40 -36.5 -63t-85.5 -23h-5v23q3 -1 10 -1q17 0 29.5 10t12.5 27q0 9 -3.5 16t-11.5 12t-14 8t-17 7t-14 5z"/>
<glyph unicode="»" horiz-adv-x="396" d="M62 134v90l80 70l-80 67v85l134 -113v-83zM218 136v90l79 69l-79 66v89l135 -113v-84z"/>
<glyph unicode="¿" horiz-adv-x="562" d="M37 210q0 86 54 137.5t136 56.5v152h79v-236h-31q-69 0 -112 -30t-43 -91q0 -60 44 -95t106 -35q73 0 104 45.5t31 104.5v16h87v-18q0 -92 -61 -157.5t-164 -65.5q-94 0 -162 60.5t-68 155.5zM222 609v97h89v-97h-89z"/>
<glyph unicode="À" horiz-adv-x="646" d="M10 0l269 706h98l257 -706h-99l-77 216h-269l-79 -216h-100zM218 895h99l47 -124h-59zM219 295h211l-103 295z"/>
<glyph unicode="Á" horiz-adv-x="646" d="M10 0l269 706h98l257 -706h-99l-77 216h-269l-79 -216h-100zM219 295h211l-103 295zM280 771l48 124h99l-87 -124h-60z"/>
<glyph unicode="Â" horiz-adv-x="646" d="M10 0l269 706h98l257 -706h-99l-77 216h-269l-79 -216h-100zM188 771l101 124h65l107 -124h-77l-62 74l-59 -74h-75zM219 295h211l-103 295z"/>
<glyph unicode="Ã" horiz-adv-x="646" d="M10 0l269 706h98l257 -706h-99l-77 216h-269l-79 -216h-100zM183 786q4 34 14.5 56t25 30.5t23.5 10.5t21 2q23 0 61.5 -16.5t59.5 -16.5q13 0 18.5 6.5t10.5 23.5h47q-14 -101 -78 -101q-24 0 -67 17.5t-58 17.5q-22 0 -30 -30h-48zM219 295h211l-103 295z"/>
<glyph unicode="Ä" horiz-adv-x="646" d="M10 0l269 706h98l257 -706h-99l-77 216h-269l-79 -216h-100zM184 781v102h87v-102h-87zM219 295h211l-103 295zM380 781v102h88v-102h-88z"/>
<glyph unicode="Å" horiz-adv-x="646" d="M10 0l269 706h98l257 -706h-99l-77 216h-269l-79 -216h-100zM219 295h211l-103 295zM232 849q0 39 28 66.5t68 27.5q39 0 67 -27.5t28 -67.5q0 -39 -28.5 -67t-67.5 -28q-40 0 -67.5 28t-27.5 68zM277 848q0 -21 15 -35.5t36 -14.5q20 0 35 15t15 36t-15 35.5t-36 14.5 t-35.5 -15t-14.5 -36z"/>
<glyph unicode="Æ" horiz-adv-x="1042" d="M-2 0l483 706h521v-83h-395v-231h319v-79h-319v-231h407v-82h-500v232h-252l-154 -232h-110zM317 313h197v302z"/>
<glyph unicode="Ç" horiz-adv-x="764" d="M49 355q0 166 96 267.5t262 101.5q135 0 214 -62.5t107 -153.5l-95 -20q-24 72 -81.5 116.5t-145.5 44.5q-46 0 -88.5 -15t-80.5 -47t-61 -92t-23 -140q0 -55 14 -105.5t42.5 -94t79 -69.5t116.5 -26q93 0 156 55t79 153l102 -12q-21 -107 -111 -188.5t-210 -82.5 l-16 -28q1 -1 11 -6t17 -10t15.5 -13t13.5 -19.5t5 -25.5q0 -38 -34 -62t-93 -24v23q2 -1 7 -1q22 0 33.5 11t11.5 25q0 19 -14 28.5t-46 20.5l52 79q-143 1 -239 99.5t-96 272.5z"/>
<glyph unicode="È" horiz-adv-x="604" d="M79 0v706h486v-83h-396v-218h344v-82h-344v-241h408v-82h-498zM208 895h99l47 -124h-59z"/>
<glyph unicode="É" horiz-adv-x="604" d="M79 0v706h486v-83h-396v-218h344v-82h-344v-241h408v-82h-498zM270 771l48 124h99l-87 -124h-60z"/>
<glyph unicode="Ê" horiz-adv-x="604" d="M79 0v706h486v-83h-396v-218h344v-82h-344v-241h408v-82h-498zM183 771l101 124h65l107 -124h-77l-62 74l-59 -74h-75z"/>
<glyph unicode="Ë" horiz-adv-x="604" d="M79 0v706h486v-83h-396v-218h344v-82h-344v-241h408v-82h-498zM176 781v102h87v-102h-87zM372 781v102h88v-102h-88z"/>
<glyph unicode="Ì" horiz-adv-x="229" d="M10 895h99l47 -124h-59zM67 0v706h95v-706h-95z"/>
<glyph unicode="Í" horiz-adv-x="229" d="M67 0v706h95v-706h-95zM73 771l48 124h99l-87 -124h-60z"/>
<glyph unicode="Î" horiz-adv-x="229" d="M-20 771l101 124h65l107 -124h-77l-62 74l-59 -74h-75zM67 0v706h95v-706h-95z"/>
<glyph unicode="Ï" horiz-adv-x="229" d="M-27 781v102h87v-102h-87zM67 0v706h95v-706h-95zM169 781v102h88v-102h-88z"/>
<glyph unicode="Ð" horiz-adv-x="708" d="M13 341v60h65v305h248q88 0 133 -15q92 -32 145.5 -118t53.5 -227q0 -17 -0.5 -32.5t-5.5 -47.5t-13 -58.5t-25 -59.5t-40.5 -58.5t-61 -47.5t-83.5 -33q-42 -9 -107 -9h-244v341h-65zM175 82h125q90 0 132 17q61 25 95.5 88.5t34.5 161.5q0 223 -153 264q-39 10 -108 10 h-126v-222h168v-60h-168v-259z"/>
<glyph unicode="Ñ" horiz-adv-x="708" d="M78 0v706h89l382 -566q-4 544 -4 566h85v-706h-85l-387 574q9 -560 9 -574h-89zM214 786q4 34 14.5 56t25 30.5t23.5 10.5t21 2q23 0 61.5 -16.5t59.5 -16.5q13 0 18.5 6.5t10.5 23.5h47q-14 -101 -78 -101q-24 0 -67 17.5t-58 17.5q-22 0 -30 -30h-48z"/>
<glyph unicode="Ò" horiz-adv-x="812" d="M51 354q0 93 30 166t80.5 116.5t113 65.5t132.5 22q160 0 257.5 -101.5t97.5 -263.5q0 -54 -11.5 -105.5t-38.5 -101.5t-67.5 -87t-102.5 -60t-138 -23q-70 0 -132.5 23t-112.5 67.5t-79 117t-29 164.5zM153 353q0 -137 68.5 -217t187.5 -80q111 0 181 76.5t70 226.5 q0 56 -13.5 105t-41.5 91.5t-79 67.5t-119 25q-67 0 -118 -25t-79.5 -68t-42.5 -93.5t-14 -108.5zM302 895h99l47 -124h-59z"/>
<glyph unicode="Ó" horiz-adv-x="812" d="M51 354q0 93 30 166t80.5 116.5t113 65.5t132.5 22q160 0 257.5 -101.5t97.5 -263.5q0 -54 -11.5 -105.5t-38.5 -101.5t-67.5 -87t-102.5 -60t-138 -23q-70 0 -132.5 23t-112.5 67.5t-79 117t-29 164.5zM153 353q0 -137 68.5 -217t187.5 -80q111 0 181 76.5t70 226.5 q0 56 -13.5 105t-41.5 91.5t-79 67.5t-119 25q-67 0 -118 -25t-79.5 -68t-42.5 -93.5t-14 -108.5zM364 771l48 124h99l-87 -124h-60z"/>
<glyph unicode="Ô" horiz-adv-x="812" d="M51 354q0 93 30 166t80.5 116.5t113 65.5t132.5 22q160 0 257.5 -101.5t97.5 -263.5q0 -54 -11.5 -105.5t-38.5 -101.5t-67.5 -87t-102.5 -60t-138 -23q-70 0 -132.5 23t-112.5 67.5t-79 117t-29 164.5zM153 353q0 -137 68.5 -217t187.5 -80q111 0 181 76.5t70 226.5 q0 56 -13.5 105t-41.5 91.5t-79 67.5t-119 25q-67 0 -118 -25t-79.5 -68t-42.5 -93.5t-14 -108.5zM271 771l101 124h65l107 -124h-77l-62 74l-59 -74h-75z"/>
<glyph unicode="Õ" horiz-adv-x="812" d="M51 354q0 93 30 166t80.5 116.5t113 65.5t132.5 22q160 0 257.5 -101.5t97.5 -263.5q0 -54 -11.5 -105.5t-38.5 -101.5t-67.5 -87t-102.5 -60t-138 -23q-70 0 -132.5 23t-112.5 67.5t-79 117t-29 164.5zM153 353q0 -137 68.5 -217t187.5 -80q111 0 181 76.5t70 226.5 q0 56 -13.5 105t-41.5 91.5t-79 67.5t-119 25q-67 0 -118 -25t-79.5 -68t-42.5 -93.5t-14 -108.5zM266 786q4 34 14.5 56t25 30.5t23.5 10.5t21 2q23 0 61.5 -16.5t59.5 -16.5q13 0 18.5 6.5t10.5 23.5h47q-14 -101 -78 -101q-24 0 -67 17.5t-58 17.5q-22 0 -30 -30h-48z "/>
<glyph unicode="Ö" horiz-adv-x="812" d="M51 354q0 93 30 166t80.5 116.5t113 65.5t132.5 22q160 0 257.5 -101.5t97.5 -263.5q0 -54 -11.5 -105.5t-38.5 -101.5t-67.5 -87t-102.5 -60t-138 -23q-70 0 -132.5 23t-112.5 67.5t-79 117t-29 164.5zM153 353q0 -137 68.5 -217t187.5 -80q111 0 181 76.5t70 226.5 q0 56 -13.5 105t-41.5 91.5t-79 67.5t-119 25q-67 0 -118 -25t-79.5 -68t-42.5 -93.5t-14 -108.5zM269 781v102h87v-102h-87zM465 781v102h88v-102h-88z"/>
<glyph unicode="Ø" horiz-adv-x="812" d="M47 59l69 66q-66 114 -66 228q0 64 19.5 126t59.5 118.5t111.5 91.5t163.5 35q80 0 130.5 -21.5t111.5 -68.5l69 65l48 -51l-70 -68q70 -102 70 -225q0 -42 -10 -88t-36 -98t-65 -92.5t-105 -67.5t-148 -27q-72 0 -126 21t-112 68l-65 -62zM154 350q0 -82 32 -157 l394 378q-70 78 -179 78q-121 0 -184 -85.5t-63 -213.5zM224 131q76 -75 182 -75q66 0 117 26.5t79.5 70t42.5 91.5t14 97q0 93 -38 171z"/>
<glyph unicode="Ù" horiz-adv-x="688" d="M76 223v483h94v-467q0 -79 40.5 -128t128.5 -49q93 0 135 53t42 137v454h95v-473q0 -105 -70 -178t-203 -73q-126 0 -194 68t-68 173zM239 895h99l47 -124h-59z"/>
<glyph unicode="Ú" horiz-adv-x="688" d="M76 223v483h94v-467q0 -79 40.5 -128t128.5 -49q93 0 135 53t42 137v454h95v-473q0 -105 -70 -178t-203 -73q-126 0 -194 68t-68 173zM302 771l48 124h99l-87 -124h-60z"/>
<glyph unicode="Û" horiz-adv-x="688" d="M76 223v483h94v-467q0 -79 40.5 -128t128.5 -49q93 0 135 53t42 137v454h95v-473q0 -105 -70 -178t-203 -73q-126 0 -194 68t-68 173zM209 771l101 124h65l107 -124h-77l-62 74l-59 -74h-75z"/>
<glyph unicode="Ü" horiz-adv-x="688" d="M76 223v483h94v-467q0 -79 40.5 -128t128.5 -49q93 0 135 53t42 137v454h95v-473q0 -105 -70 -178t-203 -73q-126 0 -194 68t-68 173zM201 781v102h87v-102h-87zM397 781v102h88v-102h-88z"/>
<glyph unicode="Ý" horiz-adv-x="625" d="M14 706h111l186 -299l188 299h112l-254 -383v-323h-95v323zM270 771l48 124h99l-87 -124h-60z"/>
<glyph unicode="ß" horiz-adv-x="542" d="M64 0v506q0 103 33 149q49 69 162 69q79 0 128 -35q63 -45 63 -126q0 -13 -3 -28t-11 -37t-27.5 -42t-48.5 -31q34 -5 60.5 -20t41.5 -36t22.5 -37t11.5 -31q7 -29 7 -69q0 -157 -97 -213q-52 -30 -120 -30q-42 0 -94 15v84q63 -21 99 -21q67 0 101 46q30 41 30 111 q0 64 -34 104q-27 31 -68 43t-120 12v79q14 -2 41 -2q65 0 97 28.5t32 71.5t-31 66.5t-75 23.5q-33 0 -57 -9t-36 -22t-18.5 -33.5t-8 -35.5t-1.5 -37v-513h-79z"/>
<glyph unicode="à" horiz-adv-x="500" d="M32 122q0 63 51 102q59 44 191 53l72 5v16q0 19 -1 31t-6.5 32t-15.5 32.5t-31 22t-51 9.5q-49 0 -75.5 -24t-26.5 -68v-7l-83 5q0 11 2.5 25.5t13.5 38.5t29 43t53.5 33.5t82.5 14.5q71 0 118 -28q46 -26 58.5 -62.5t12.5 -108.5v-166q0 -18 1.5 -27.5t10 -18.5t24.5 -9 q6 0 24 4v-67q-27 -9 -51 -9q-33 0 -50 12q-13 10 -22 28t-10 30q-71 -77 -161 -77q-71 0 -115.5 37.5t-44.5 97.5zM120 124q0 -29 22.5 -49.5t66.5 -20.5q20 0 40.5 5t44 18.5t38.5 43.5t15 72v37q-145 -23 -169 -34q-58 -23 -58 -72zM149 665h89l42 -144h-48z"/>
<glyph unicode="á" horiz-adv-x="500" d="M32 122q0 63 51 102q59 44 191 53l72 5v16q0 19 -1 31t-6.5 32t-15.5 32.5t-31 22t-51 9.5q-49 0 -75.5 -24t-26.5 -68v-7l-83 5q0 11 2.5 25.5t13.5 38.5t29 43t53.5 33.5t82.5 14.5q71 0 118 -28q46 -26 58.5 -62.5t12.5 -108.5v-166q0 -18 1.5 -27.5t10 -18.5t24.5 -9 q6 0 24 4v-67q-27 -9 -51 -9q-33 0 -50 12q-13 10 -22 28t-10 30q-71 -77 -161 -77q-71 0 -115.5 37.5t-44.5 97.5zM120 124q0 -29 22.5 -49.5t66.5 -20.5q20 0 40.5 5t44 18.5t38.5 43.5t15 72v37q-145 -23 -169 -34q-58 -23 -58 -72zM217 522l41 144h86l-86 -144h-41z"/>
<glyph unicode="â" horiz-adv-x="500" d="M32 122q0 63 51 102q59 44 191 53l72 5v16q0 19 -1 31t-6.5 32t-15.5 32.5t-31 22t-51 9.5q-49 0 -75.5 -24t-26.5 -68v-7l-83 5q0 11 2.5 25.5t13.5 38.5t29 43t53.5 33.5t82.5 14.5q71 0 118 -28q46 -26 58.5 -62.5t12.5 -108.5v-166q0 -18 1.5 -27.5t10 -18.5t24.5 -9 q6 0 24 4v-67q-27 -9 -51 -9q-33 0 -50 12q-13 10 -22 28t-10 30q-71 -77 -161 -77q-71 0 -115.5 37.5t-44.5 97.5zM110 523l94 151h67l104 -151h-75l-61 95l-59 -95h-70zM120 124q0 -29 22.5 -49.5t66.5 -20.5q20 0 40.5 5t44 18.5t38.5 43.5t15 72v37q-145 -23 -169 -34 q-58 -23 -58 -72z"/>
<glyph unicode="ã" horiz-adv-x="500" d="M32 122q0 63 51 102q59 44 191 53l72 5v16q0 19 -1 31t-6.5 32t-15.5 32.5t-31 22t-51 9.5q-49 0 -75.5 -24t-26.5 -68v-7l-83 5q0 11 2.5 25.5t13.5 38.5t29 43t53.5 33.5t82.5 14.5q71 0 118 -28q46 -26 58.5 -62.5t12.5 -108.5v-166q0 -18 1.5 -27.5t10 -18.5t24.5 -9 q6 0 24 4v-67q-27 -9 -51 -9q-33 0 -50 12q-13 10 -22 28t-10 30q-71 -77 -161 -77q-71 0 -115.5 37.5t-44.5 97.5zM110 539q12 99 82 99q23 0 64 -16.5t54 -16.5q29 0 29 30h50q-3 -27 -8.5 -46t-23.5 -36.5t-46 -17.5q-22 0 -64.5 17t-56.5 17q-16 0 -23.5 -11t-7.5 -19 h-49zM120 124q0 -29 22.5 -49.5t66.5 -20.5q20 0 40.5 5t44 18.5t38.5 43.5t15 72v37q-145 -23 -169 -34q-58 -23 -58 -72z"/>
<glyph unicode="ä" horiz-adv-x="500" d="M32 122q0 63 51 102q59 44 191 53l72 5v16q0 19 -1 31t-6.5 32t-15.5 32.5t-31 22t-51 9.5q-49 0 -75.5 -24t-26.5 -68v-7l-83 5q0 11 2.5 25.5t13.5 38.5t29 43t53.5 33.5t82.5 14.5q71 0 118 -28q46 -26 58.5 -62.5t12.5 -108.5v-166q0 -18 1.5 -27.5t10 -18.5t24.5 -9 q6 0 24 4v-67q-27 -9 -51 -9q-33 0 -50 12q-13 10 -22 28t-10 30q-71 -77 -161 -77q-71 0 -115.5 37.5t-44.5 97.5zM105 541v103h87v-103h-87zM120 124q0 -29 22.5 -49.5t66.5 -20.5q20 0 40.5 5t44 18.5t38.5 43.5t15 72v37q-145 -23 -169 -34q-58 -23 -58 -72zM301 541 v103h89v-103h-89z"/>
<glyph unicode="å" horiz-adv-x="500" d="M32 122q0 63 51 102q59 44 191 53l72 5v16q0 19 -1 31t-6.5 32t-15.5 32.5t-31 22t-51 9.5q-49 0 -75.5 -24t-26.5 -68v-7l-83 5q0 11 2.5 25.5t13.5 38.5t29 43t53.5 33.5t82.5 14.5q71 0 118 -28q46 -26 58.5 -62.5t12.5 -108.5v-166q0 -18 1.5 -27.5t10 -18.5t24.5 -9 q6 0 24 4v-67q-27 -9 -51 -9q-33 0 -50 12q-13 10 -22 28t-10 30q-71 -77 -161 -77q-71 0 -115.5 37.5t-44.5 97.5zM120 124q0 -29 22.5 -49.5t66.5 -20.5q20 0 40.5 5t44 18.5t38.5 43.5t15 72v37q-145 -23 -169 -34q-58 -23 -58 -72zM152 608q0 39 27.5 67t66.5 28 q42 0 68.5 -29.5t26.5 -65.5q0 -40 -27.5 -67.5t-67.5 -27.5q-39 0 -66.5 28t-27.5 67zM195 609q0 -21 15 -36.5t36 -15.5q22 0 37 15.5t15 36.5t-15 36t-37 15t-36.5 -15t-14.5 -36z"/>
<glyph unicode="æ" horiz-adv-x="812" d="M33 118q0 44 25 78.5t66 52.5q54 23 160 23h73v19q0 55 -31.5 94.5t-83.5 39.5q-40 0 -69 -24.5t-32 -70.5l-84 6q5 41 20 68q18 32 58.5 57t104.5 25q111 0 159 -84q58 84 162 84q98 0 160 -76q58 -73 58 -191v-5h-342q0 -73 34 -117q36 -47 101 -47q44 0 75.5 28 t39.5 72l84 -13q-14 -54 -55 -93q-62 -59 -154 -59q-121 0 -177 99q-77 -99 -191 -99q-67 0 -114 35t-47 98zM116 121q0 -27 23.5 -50t70.5 -23q69 0 108 49t39 107v10h-63q-78 0 -128 -24t-50 -69zM436 272h258q-3 62 -36 101q-39 47 -96 47q-62 0 -99 -56q-27 -40 -27 -92 z"/>
<glyph unicode="ç" d="M39 232q0 111 59.5 182.5t169.5 71.5q97 0 151.5 -48.5t65.5 -109.5l-88 -8q-9 52 -42.5 80t-85.5 28q-61 0 -101.5 -45.5t-40.5 -145.5q0 -86 38 -138t109 -52q118 0 134 131l86 -8q-35 -178 -201 -183l-18 -30q1 -1 11 -5.5t17 -9.5t16 -13t14 -20t5 -26q0 -38 -34 -62 t-93 -24v23q2 -1 7 -1q22 0 33.5 11t11.5 25q0 12 -7.5 21t-14 13t-22 9.5t-16.5 5.5l52 82q-101 4 -158.5 72t-57.5 174z"/>
<glyph unicode="è" d="M39 240q0 64 21.5 113.5t56 77t73 41.5t77.5 14q88 0 152 -62.5t64 -189.5v-13h-358v-6q0 -65 38 -117.5t115 -52.5q55 0 84.5 33.5t39.5 76.5l81 -11q-53 -159 -213 -159q-97 0 -164 62.5t-67 192.5zM127 279h269q0 60 -38 102.5t-97 42.5q-60 0 -94 -41.5t-40 -103.5z M172 665h89l42 -144h-48z"/>
<glyph unicode="é" d="M39 240q0 64 21.5 113.5t56 77t73 41.5t77.5 14q88 0 152 -62.5t64 -189.5v-13h-358v-6q0 -65 38 -117.5t115 -52.5q55 0 84.5 33.5t39.5 76.5l81 -11q-53 -159 -213 -159q-97 0 -164 62.5t-67 192.5zM127 279h269q0 60 -38 102.5t-97 42.5q-60 0 -94 -41.5t-40 -103.5z M228 522l41 144h86l-86 -144h-41z"/>
<glyph unicode="ê" d="M39 240q0 64 21.5 113.5t56 77t73 41.5t77.5 14q88 0 152 -62.5t64 -189.5v-13h-358v-6q0 -65 38 -117.5t115 -52.5q55 0 84.5 33.5t39.5 76.5l81 -11q-53 -159 -213 -159q-97 0 -164 62.5t-67 192.5zM127 279h269q0 60 -38 102.5t-97 42.5q-60 0 -94 -41.5t-40 -103.5z M131 523l94 151h67l104 -151h-75l-61 95l-59 -95h-70z"/>
<glyph unicode="ë" d="M39 240q0 64 21.5 113.5t56 77t73 41.5t77.5 14q88 0 152 -62.5t64 -189.5v-13h-358v-6q0 -65 38 -117.5t115 -52.5q55 0 84.5 33.5t39.5 76.5l81 -11q-53 -159 -213 -159q-97 0 -164 62.5t-67 192.5zM127 279h269q0 60 -38 102.5t-97 42.5q-60 0 -94 -41.5t-40 -103.5z M130 541v103h87v-103h-87zM326 541v103h89v-103h-89z"/>
<glyph unicode="ì" horiz-adv-x="208" d="M16 665h89l42 -144h-48zM67 0v471h77v-471h-77z"/>
<glyph unicode="í" horiz-adv-x="208" d="M67 0v471h77v-471h-77zM69 522l41 144h86l-86 -144h-41z"/>
<glyph unicode="î" horiz-adv-x="208" d="M-25 523l94 151h67l104 -151h-75l-61 95l-59 -95h-70zM67 0v471h77v-471h-77z"/>
<glyph unicode="ï" horiz-adv-x="208" d="M-37 541v103h87v-103h-87zM67 0v471h77v-471h-77zM159 541v103h89v-103h-89z"/>
<glyph unicode="ð" horiz-adv-x="542" d="M40 235q0 68 21 119.5t56 78.5t72.5 40t77.5 13q79 0 134 -57q-20 88 -60 143l-178 -58l-18 45l165 55q-13 17 -71 75l62 29q21 -19 75 -83l85 29l19 -47l-74 -24q96 -153 96 -345q0 -45 -11 -87t-35 -83.5t-72 -67t-114 -25.5q-60 0 -105 21.5t-68 50t-37 67t-17 63.5 t-3 48zM127 231q0 -76 35.5 -129t109.5 -53q64 0 104 47t40 147q0 92 -39 135.5t-100 43.5q-43 0 -74 -17.5t-46.5 -47t-22.5 -60.5t-7 -66z"/>
<glyph unicode="ñ" d="M64 0v471h80v-69q19 33 56 58.5t92 25.5q16 0 35 -3.5t49.5 -19t49.5 -42.5q29 -41 29 -123v-298h-79v309q0 51 -31 76.5t-76 25.5q-52 0 -88.5 -35.5t-36.5 -96.5v-279h-80zM120 539q12 99 82 99q23 0 64 -16.5t54 -16.5q29 0 29 30h50q-3 -27 -8.5 -46t-23.5 -36.5 t-46 -17.5q-22 0 -64.5 17t-56.5 17q-16 0 -23.5 -11t-7.5 -19h-49z"/>
<glyph unicode="ò" horiz-adv-x="542" d="M40 235q0 27 5 55.5t20.5 65t40.5 64.5t69.5 47t102.5 19q91 0 157.5 -63.5t66.5 -182.5q0 -122 -65.5 -188.5t-165.5 -66.5q-102 0 -166.5 66t-64.5 184zM127 231q0 -20 2.5 -40.5t11.5 -47.5t24 -46.5t42 -33.5t63 -14q71 0 108.5 52t37.5 145q0 72 -33 124t-106 52 q-42 0 -72.5 -18t-45 -40t-22.5 -53.5t-9 -47t-1 -32.5zM175 665h89l42 -144h-48z"/>
<glyph unicode="ó" horiz-adv-x="542" d="M40 235q0 27 5 55.5t20.5 65t40.5 64.5t69.5 47t102.5 19q91 0 157.5 -63.5t66.5 -182.5q0 -122 -65.5 -188.5t-165.5 -66.5q-102 0 -166.5 66t-64.5 184zM127 231q0 -20 2.5 -40.5t11.5 -47.5t24 -46.5t42 -33.5t63 -14q71 0 108.5 52t37.5 145q0 72 -33 124t-106 52 q-42 0 -72.5 -18t-45 -40t-22.5 -53.5t-9 -47t-1 -32.5zM243 522l41 144h86l-86 -144h-41z"/>
<glyph unicode="ô" horiz-adv-x="542" d="M40 235q0 27 5 55.5t20.5 65t40.5 64.5t69.5 47t102.5 19q91 0 157.5 -63.5t66.5 -182.5q0 -122 -65.5 -188.5t-165.5 -66.5q-102 0 -166.5 66t-64.5 184zM127 231q0 -20 2.5 -40.5t11.5 -47.5t24 -46.5t42 -33.5t63 -14q71 0 108.5 52t37.5 145q0 72 -33 124t-106 52 q-42 0 -72.5 -18t-45 -40t-22.5 -53.5t-9 -47t-1 -32.5zM142 523l94 151h67l104 -151h-75l-61 95l-59 -95h-70z"/>
<glyph unicode="õ" horiz-adv-x="542" d="M40 235q0 27 5 55.5t20.5 65t40.5 64.5t69.5 47t102.5 19q91 0 157.5 -63.5t66.5 -182.5q0 -122 -65.5 -188.5t-165.5 -66.5q-102 0 -166.5 66t-64.5 184zM127 231q0 -20 2.5 -40.5t11.5 -47.5t24 -46.5t42 -33.5t63 -14q71 0 108.5 52t37.5 145q0 72 -33 124t-106 52 q-42 0 -72.5 -18t-45 -40t-22.5 -53.5t-9 -47t-1 -32.5zM132 539q12 99 82 99q23 0 64 -16.5t54 -16.5q29 0 29 30h50q-3 -27 -8.5 -46t-23.5 -36.5t-46 -17.5q-22 0 -64.5 17t-56.5 17q-16 0 -23.5 -11t-7.5 -19h-49z"/>
<glyph unicode="ö" horiz-adv-x="542" d="M40 235q0 27 5 55.5t20.5 65t40.5 64.5t69.5 47t102.5 19q91 0 157.5 -63.5t66.5 -182.5q0 -122 -65.5 -188.5t-165.5 -66.5q-102 0 -166.5 66t-64.5 184zM127 231q0 -20 2.5 -40.5t11.5 -47.5t24 -46.5t42 -33.5t63 -14q71 0 108.5 52t37.5 145q0 72 -33 124t-106 52 q-42 0 -72.5 -18t-45 -40t-22.5 -53.5t-9 -47t-1 -32.5zM133 541v103h87v-103h-87zM329 541v103h89v-103h-89z"/>
<glyph unicode="ø" horiz-adv-x="542" d="M38 45l43 42q-40 65 -40 146q0 60 20 109q27 66 84 105t128 39q85 0 154 -61l44 43l35 -36l-46 -46q43 -67 43 -152q0 -51 -15 -95q-8 -23 -21.5 -45t-38.5 -49t-66 -43.5t-92 -16.5q-96 0 -157 64l-40 -40zM125 242q0 -51 17 -94l231 224q-47 50 -104 50q-60 0 -102 -49 t-42 -131zM169 103q36 -54 104 -54q63 0 105.5 48t42.5 133q0 59 -20 98z"/>
<glyph unicode="ù" d="M65 168v303h79v-268q0 -72 11 -95q23 -45 86 -45q75 0 112 54q23 34 23 113v241h78v-471h-79v72q-26 -39 -69.5 -61.5t-90.5 -22.5q-88 0 -126 62q-24 40 -24 118zM164 665h89l42 -144h-48z"/>
<glyph unicode="ú" d="M65 168v303h79v-268q0 -72 11 -95q23 -45 86 -45q75 0 112 54q23 34 23 113v241h78v-471h-79v72q-26 -39 -69.5 -61.5t-90.5 -22.5q-88 0 -126 62q-24 40 -24 118zM233 522l41 144h86l-86 -144h-41z"/>
<glyph unicode="û" d="M65 168v303h79v-268q0 -72 11 -95q23 -45 86 -45q75 0 112 54q23 34 23 113v241h78v-471h-79v72q-26 -39 -69.5 -61.5t-90.5 -22.5q-88 0 -126 62q-24 40 -24 118zM131 523l94 151h67l104 -151h-75l-61 95l-59 -95h-70z"/>
<glyph unicode="ü" d="M65 168v303h79v-268q0 -72 11 -95q23 -45 86 -45q75 0 112 54q23 34 23 113v241h78v-471h-79v72q-26 -39 -69.5 -61.5t-90.5 -22.5q-88 0 -126 62q-24 40 -24 118zM116 541v103h87v-103h-87zM312 541v103h89v-103h-89z"/>
<glyph unicode="ý" horiz-adv-x="437" d="M9 -151q24 -8 53 -8q35 0 53.5 19.5t38.5 78.5l20 58l-160 474h85l118 -374l125 374h83l-198 -557q-30 -85 -59 -116t-88 -31q-35 0 -71 10v72zM196 522l41 144h86l-86 -144h-41z"/>
<glyph unicode="ÿ" horiz-adv-x="437" d="M9 -151q24 -8 53 -8q35 0 53.5 19.5t38.5 78.5l20 58l-160 474h85l118 -374l125 374h83l-198 -557q-30 -85 -59 -116t-88 -31q-35 0 -71 10v72zM78 541v103h87v-103h-87zM274 541v103h89v-103h-89z"/>
<glyph unicode="Ā" horiz-adv-x="646" d="M10 0l269 706h98l257 -706h-99l-77 216h-269l-79 -216h-100zM186 781v68h285v-68h-285zM219 295h211l-103 295z"/>
<glyph unicode="ā" horiz-adv-x="500" d="M32 122q0 63 51 102q59 44 191 53l72 5v16q0 19 -1 31t-6.5 32t-15.5 32.5t-31 22t-51 9.5q-49 0 -75.5 -24t-26.5 -68v-7l-83 5q0 11 2.5 25.5t13.5 38.5t29 43t53.5 33.5t82.5 14.5q71 0 118 -28q46 -26 58.5 -62.5t12.5 -108.5v-166q0 -18 1.5 -27.5t10 -18.5t24.5 -9 q6 0 24 4v-67q-27 -9 -51 -9q-33 0 -50 12q-13 10 -22 28t-10 30q-71 -77 -161 -77q-71 0 -115.5 37.5t-44.5 97.5zM107 541v68h285v-68h-285zM120 124q0 -29 22.5 -49.5t66.5 -20.5q20 0 40.5 5t44 18.5t38.5 43.5t15 72v37q-145 -23 -169 -34q-58 -23 -58 -72z"/>
<glyph unicode="Ă" horiz-adv-x="646" d="M10 0l269 706h98l257 -706h-99l-77 216h-269l-79 -216h-100zM196 880h50q8 -23 31 -34.5t52 -11.5q31 0 52.5 14t26.5 32h52q0 -40 -39.5 -74.5t-92.5 -34.5q-49 0 -90 30.5t-42 78.5zM219 295h211l-103 295z"/>
<glyph unicode="ă" horiz-adv-x="500" d="M32 122q0 63 51 102q59 44 191 53l72 5v16q0 19 -1 31t-6.5 32t-15.5 32.5t-31 22t-51 9.5q-49 0 -75.5 -24t-26.5 -68v-7l-83 5q0 11 2.5 25.5t13.5 38.5t29 43t53.5 33.5t82.5 14.5q71 0 118 -28q46 -26 58.5 -62.5t12.5 -108.5v-166q0 -18 1.5 -27.5t10 -18.5t24.5 -9 q6 0 24 4v-67q-27 -9 -51 -9q-33 0 -50 12q-13 10 -22 28t-10 30q-71 -77 -161 -77q-71 0 -115.5 37.5t-44.5 97.5zM120 124q0 -29 22.5 -49.5t66.5 -20.5q20 0 40.5 5t44 18.5t38.5 43.5t15 72v37q-145 -23 -169 -34q-58 -23 -58 -72zM128 654h50q8 -29 29.5 -46t48.5 -17 q26 0 47 18t27 46h52q0 -41 -35 -85.5t-93 -44.5q-54 0 -90 38t-36 91z"/>
<glyph unicode="Ą" horiz-adv-x="646" d="M10 0l269 706h98l257 -706h-17q-25 -10 -45 -31t-20 -44q0 -38 61 -38h12v-74h-9q-74 0 -111.5 14t-37.5 59q0 34 15.5 57t52.5 57l-77 216h-269l-79 -216h-100zM219 295h211l-103 295z"/>
<glyph unicode="ą" horiz-adv-x="500" d="M32 122q0 63 51 102q59 44 191 53l72 5v16q0 19 -1 31t-6.5 32t-15.5 32.5t-31 22t-51 9.5q-49 0 -75.5 -24t-26.5 -68v-7l-83 5q0 11 2.5 25.5t13.5 38.5t29 43t53.5 33.5t82.5 14.5q71 0 118 -28q46 -26 58.5 -62t12.5 -109v-166q0 -18 1.5 -27.5t10 -18.5t24.5 -9 q6 0 24 4v-67q-27 -9 -54 -9q-21 -10 -38 -28.5t-17 -40.5q0 -38 61 -38h12v-74h-9q-74 0 -111.5 14t-37.5 59q0 35 17.5 59t67.5 69q-22 24 -24 50q-71 -77 -161 -77q-71 0 -115.5 37.5t-44.5 97.5zM120 124q0 -29 22.5 -49.5t66.5 -20.5q20 0 40.5 5t44 18.5t38.5 43.5 t15 72v37q-145 -23 -169 -34q-58 -23 -58 -72z"/>
<glyph unicode="Ć" horiz-adv-x="764" d="M49 353q0 167 95.5 269t261.5 102q124 0 205 -56t117 -160l-95 -19q-21 67 -78.5 113.5t-149.5 46.5q-119 0 -185.5 -79.5t-66.5 -211.5q0 -145 70.5 -221t182.5 -76q88 0 153 52.5t81 154.5l102 -12q-10 -47 -34 -92t-64.5 -87.5t-105.5 -68.5t-144 -26 q-158 0 -251.5 102t-93.5 269zM345 771l48 124h99l-87 -124h-60z"/>
<glyph unicode="ć" d="M39 232q0 111 59.5 182.5t169.5 71.5q97 0 151.5 -48.5t65.5 -109.5l-88 -8q-9 52 -42.5 80t-85.5 28q-61 0 -101.5 -45.5t-40.5 -145.5q0 -86 38 -138t109 -52q118 0 134 131l86 -8q-35 -185 -222 -185q-109 0 -171 68.5t-62 178.5zM222 522l41 144h86l-86 -144h-41z "/>
<glyph unicode="Ĉ" horiz-adv-x="764" d="M49 353q0 167 95.5 269t261.5 102q124 0 205 -56t117 -160l-95 -19q-21 67 -78.5 113.5t-149.5 46.5q-119 0 -185.5 -79.5t-66.5 -211.5q0 -145 70.5 -221t182.5 -76q88 0 153 52.5t81 154.5l102 -12q-10 -47 -34 -92t-64.5 -87.5t-105.5 -68.5t-144 -26 q-158 0 -251.5 102t-93.5 269zM265 771l101 124h65l107 -124h-77l-62 74l-59 -74h-75z"/>
<glyph unicode="ĉ" d="M39 232q0 111 59.5 182.5t169.5 71.5q97 0 151.5 -48.5t65.5 -109.5l-88 -8q-9 52 -42.5 80t-85.5 28q-61 0 -101.5 -45.5t-40.5 -145.5q0 -86 38 -138t109 -52q118 0 134 131l86 -8q-35 -185 -222 -185q-109 0 -171 68.5t-62 178.5zM138 523l94 151h67l104 -151h-75 l-61 95l-59 -95h-70z"/>
<glyph unicode="Ċ" horiz-adv-x="764" d="M49 353q0 167 95.5 269t261.5 102q124 0 205 -56t117 -160l-95 -19q-21 67 -78.5 113.5t-149.5 46.5q-119 0 -185.5 -79.5t-66.5 -211.5q0 -145 70.5 -221t182.5 -76q88 0 153 52.5t81 154.5l102 -12q-10 -47 -34 -92t-64.5 -87.5t-105.5 -68.5t-144 -26 q-158 0 -251.5 102t-93.5 269zM360 781v99h87v-99h-87z"/>
<glyph unicode="ċ" d="M39 232q0 111 59.5 182.5t169.5 71.5q97 0 151.5 -48.5t65.5 -109.5l-88 -8q-9 52 -42.5 80t-85.5 28q-61 0 -101.5 -45.5t-40.5 -145.5q0 -86 38 -138t109 -52q118 0 134 131l86 -8q-35 -185 -222 -185q-109 0 -171 68.5t-62 178.5zM232 541v99h87v-99h-87z"/>
<glyph unicode="Č" horiz-adv-x="764" d="M49 353q0 167 95.5 269t261.5 102q124 0 205 -56t117 -160l-95 -19q-21 67 -78.5 113.5t-149.5 46.5q-119 0 -185.5 -79.5t-66.5 -211.5q0 -145 70.5 -221t182.5 -76q88 0 153 52.5t81 154.5l102 -12q-10 -47 -34 -92t-64.5 -87.5t-105.5 -68.5t-144 -26 q-158 0 -251.5 102t-93.5 269zM258 895h76l62 -77l59 77h75l-101 -124h-66z"/>
<glyph unicode="č" d="M39 232q0 111 59.5 182.5t169.5 71.5q97 0 151.5 -48.5t65.5 -109.5l-88 -8q-9 52 -42.5 80t-85.5 28q-61 0 -101.5 -45.5t-40.5 -145.5q0 -86 38 -138t109 -52q118 0 134 131l86 -8q-35 -185 -222 -185q-109 0 -171 68.5t-62 178.5zM133 673h74l61 -96l59 96h71 l-96 -151h-67z"/>
<glyph unicode="Ď" horiz-adv-x="708" d="M78 0v706h280q133 0 216.5 -92t83.5 -262q0 -71 -16 -130t-51.5 -111t-101.5 -81.5t-158 -29.5h-253zM166 895h76l62 -77l59 77h75l-101 -124h-66zM175 82h167q108 0 164 71.5t56 199.5q0 122 -55.5 196t-169.5 74h-162v-541z"/>
<glyph unicode="ď" horiz-adv-x="562" d="M39 237q0 65 20 115.5t52.5 78.5t69 41.5t74.5 13.5q57 0 101 -25t61 -52v297h80v-706h-80v60q-64 -75 -161 -75q-101 0 -159 70t-58 182zM125 234q0 -73 34.5 -125.5t112.5 -52.5q61 0 104 43.5t43 142.5q0 74 -39.5 122.5t-105.5 48.5q-75 0 -112 -52t-37 -127z M532 623v83h75v-38q0 -49 -6.5 -78.5t-23.5 -76.5h-36q20 52 24 110h-33z"/>
<glyph unicode="Đ" horiz-adv-x="708" d="M13 341v60h65v305h248q88 0 133 -15q92 -32 145.5 -118t53.5 -227q0 -17 -0.5 -32.5t-5.5 -47.5t-13 -58.5t-25 -59.5t-40.5 -58.5t-61 -47.5t-83.5 -33q-42 -9 -107 -9h-244v341h-65zM175 82h125q90 0 132 17q61 25 95.5 88.5t34.5 161.5q0 223 -153 264q-39 10 -108 10 h-126v-222h168v-60h-168v-259z"/>
<glyph unicode="đ" horiz-adv-x="562" d="M39 237q0 65 20 115.5t52.5 78.5t69 41.5t74.5 13.5q57 0 101 -25t61 -52v153h-156v59h156v85h80v-85h65v-59h-65v-562h-80v60q-64 -75 -161 -75q-101 0 -159 70t-58 182zM125 234q0 -73 34.5 -125.5t112.5 -52.5q61 0 104 43.5t43 142.5q0 74 -39.5 122.5t-105.5 48.5 q-75 0 -112 -52t-37 -127z"/>
<glyph unicode="Ē" horiz-adv-x="604" d="M79 0v706h486v-83h-396v-218h344v-82h-344v-241h408v-82h-498zM180 781v68h285v-68h-285z"/>
<glyph unicode="ē" d="M39 240q0 64 21.5 113.5t56 77t73 41.5t77.5 14q88 0 152 -62.5t64 -189.5v-13h-358v-6q0 -65 38 -117.5t115 -52.5q55 0 84.5 33.5t39.5 76.5l81 -11q-53 -159 -213 -159q-97 0 -164 62.5t-67 192.5zM119 541v68h285v-68h-285zM127 279h269q0 60 -38 102.5t-97 42.5 q-60 0 -94 -41.5t-40 -103.5z"/>
<glyph unicode="Ė" horiz-adv-x="604" d="M79 0v706h486v-83h-396v-218h344v-82h-344v-241h408v-82h-498zM284 781v99h87v-99h-87z"/>
<glyph unicode="ė" d="M39 240q0 64 21.5 113.5t56 77t73 41.5t77.5 14q88 0 152 -62.5t64 -189.5v-13h-358v-6q0 -65 38 -117.5t115 -52.5q55 0 84.5 33.5t39.5 76.5l81 -11q-53 -159 -213 -159q-97 0 -164 62.5t-67 192.5zM127 279h269q0 60 -38 102.5t-97 42.5q-60 0 -94 -41.5t-40 -103.5z M216 541v99h87v-99h-87z"/>
<glyph unicode="Ę" horiz-adv-x="604" d="M79 0v706h486v-83h-396v-218h344v-82h-344v-241h408v-82h-29q-27 -12 -46 -32t-19 -43q0 -38 61 -38h12v-74h-9q-74 0 -111.5 14t-37.5 59q0 34 15.5 57t52.5 57h-387z"/>
<glyph unicode="ę" d="M39 240q0 64 21.5 113.5t56 77t73 41.5t77.5 14q88 0 152 -62.5t64 -189.5v-13h-358v-6q0 -65 38 -117.5t115 -52.5q55 0 84.5 33.5t39.5 76.5l81 -11q-32 -91 -99 -131q-82 -48 -82 -88q0 -38 61 -38h12v-74h-9q-74 0 -111.5 14t-37.5 59q0 30 13 52t40 47 q-98 0 -164.5 62.5t-66.5 192.5zM127 279h269q0 60 -38 102.5t-97 42.5q-60 0 -94 -41.5t-40 -103.5z"/>
<glyph unicode="Ĝ" horiz-adv-x="812" d="M50 344q0 175 103 277.5t261 102.5q46 0 89.5 -10t88.5 -32t84 -63.5t65 -99.5l-98 -25q-22 72 -82 112t-144 40q-66 0 -117.5 -25t-82.5 -66.5t-47 -92.5t-16 -107q0 -143 75.5 -217t185.5 -74q102 0 173 59.5t71 160.5v10h-246v79h328v-373h-82v99q-26 -44 -92 -80.5 t-166 -36.5q-157 0 -254 101t-97 261zM282 771l101 124h65l107 -124h-77l-62 74l-59 -74h-75z"/>
<glyph unicode="ĝ" horiz-adv-x="562" d="M41 233q0 45 11 86.5t34.5 80.5t68.5 62.5t105 23.5q86 0 154 -79v64h83v-480q0 -63 -18 -107.5t-50.5 -68t-69.5 -34t-82 -10.5q-87 0 -146.5 44.5t-67.5 130.5h90q0 -54 35.5 -82t94.5 -28q72 0 101.5 35.5t29.5 106.5v91q-61 -84 -155 -84q-93 0 -155.5 66.5 t-62.5 181.5zM123 235q0 -79 37.5 -128.5t111.5 -49.5q73 0 109 51.5t36 133.5q0 80 -41 126t-107 46q-64 0 -105 -47t-41 -132zM129 523l94 151h67l104 -151h-75l-61 95l-59 -95h-70z"/>
<glyph unicode="Ğ" horiz-adv-x="812" d="M50 344q0 175 103 277.5t261 102.5q46 0 89.5 -10t88.5 -32t84 -63.5t65 -99.5l-98 -25q-22 72 -82 112t-144 40q-66 0 -117.5 -25t-82.5 -66.5t-47 -92.5t-16 -107q0 -143 75.5 -217t185.5 -74q102 0 173 59.5t71 160.5v10h-246v79h328v-373h-82v99q-26 -44 -92 -80.5 t-166 -36.5q-157 0 -254 101t-97 261zM274 880h50q8 -23 31 -34.5t52 -11.5q31 0 52.5 14t26.5 32h52q0 -40 -39.5 -74.5t-92.5 -34.5q-49 0 -90 30.5t-42 78.5z"/>
<glyph unicode="ğ" horiz-adv-x="562" d="M41 233q0 45 11 86.5t34.5 80.5t68.5 62.5t105 23.5q86 0 154 -79v64h83v-480q0 -63 -18 -107.5t-50.5 -68t-69.5 -34t-82 -10.5q-87 0 -146.5 44.5t-67.5 130.5h90q0 -54 35.5 -82t94.5 -28q72 0 101.5 35.5t29.5 106.5v91q-61 -84 -155 -84q-93 0 -155.5 66.5 t-62.5 181.5zM123 235q0 -79 37.5 -128.5t111.5 -49.5q73 0 109 51.5t36 133.5q0 80 -41 126t-107 46q-64 0 -105 -47t-41 -132zM134 654h50q8 -29 29.5 -46t48.5 -17q26 0 47 18t27 46h52q0 -41 -35 -85.5t-93 -44.5q-54 0 -90 38t-36 91z"/>
<glyph unicode="Ġ" horiz-adv-x="812" d="M50 344q0 175 103 277.5t261 102.5q46 0 89.5 -10t88.5 -32t84 -63.5t65 -99.5l-98 -25q-22 72 -82 112t-144 40q-66 0 -117.5 -25t-82.5 -66.5t-47 -92.5t-16 -107q0 -143 75.5 -217t185.5 -74q102 0 173 59.5t71 160.5v10h-246v79h328v-373h-82v99q-26 -44 -92 -80.5 t-166 -36.5q-157 0 -254 101t-97 261zM362 781v99h87v-99h-87z"/>
<glyph unicode="ġ" horiz-adv-x="562" d="M41 233q0 45 11 86.5t34.5 80.5t68.5 62.5t105 23.5q86 0 154 -79v64h83v-480q0 -63 -18 -107.5t-50.5 -68t-69.5 -34t-82 -10.5q-87 0 -146.5 44.5t-67.5 130.5h90q0 -54 35.5 -82t94.5 -28q72 0 101.5 35.5t29.5 106.5v91q-61 -84 -155 -84q-93 0 -155.5 66.5 t-62.5 181.5zM123 235q0 -79 37.5 -128.5t111.5 -49.5q73 0 109 51.5t36 133.5q0 80 -41 126t-107 46q-64 0 -105 -47t-41 -132zM219 541v99h87v-99h-87z"/>
<glyph unicode="Ģ" horiz-adv-x="812" d="M50 344q0 175 103 277.5t261 102.5q46 0 89.5 -10t88.5 -32t84 -63.5t65 -99.5l-98 -25q-22 72 -82 112t-144 40q-66 0 -117.5 -25t-82.5 -66.5t-47 -92.5t-16 -107q0 -143 75.5 -217t185.5 -74q102 0 173 59.5t71 160.5v10h-246v79h328v-373h-82v99q-26 -44 -92 -80.5 t-166 -36.5q-157 0 -254 101t-97 261zM369 -38h80v-31q0 -59 -29 -113h-39q17 33 20 69h-32v75z"/>
<glyph unicode="ģ" horiz-adv-x="562" d="M41 233q0 45 11 86.5t34.5 80.5t68.5 62.5t105 23.5q86 0 154 -79v64h83v-480q0 -63 -18 -107.5t-50.5 -68t-69.5 -34t-82 -10.5q-87 0 -146.5 44.5t-67.5 130.5h90q0 -54 35.5 -82t94.5 -28q72 0 101.5 35.5t29.5 106.5v91q-61 -84 -155 -84q-93 0 -155.5 66.5 t-62.5 181.5zM123 235q0 -79 37.5 -128.5t111.5 -49.5q73 0 109 51.5t36 133.5q0 80 -41 126t-107 46q-64 0 -105 -47t-41 -132zM229 522v31q0 59 29 113h39q-17 -33 -20 -69h32v-75h-80z"/>
<glyph unicode="Ĥ" horiz-adv-x="729" d="M79 0v706h93v-300h384v300h95v-706h-95v323h-384v-323h-93zM228 771l101 124h65l107 -124h-77l-62 74l-59 -74h-75z"/>
<glyph unicode="ĥ" d="M-34 771l101 124h65l107 -124h-77l-62 74l-59 -74h-75zM66 0v706h80v-283q58 63 143 63q169 0 169 -181v-305h-81v276q0 52 -9 78q-22 62 -95 62q-70 0 -105 -59q-22 -38 -22 -123v-234h-80z"/>
<glyph unicode="Ħ" horiz-adv-x="729" d="M15 523v73h64v110h93v-110h384v110h95v-110h62v-73h-62v-523h-95v323h-384v-323h-93v523h-64zM172 406h384v117h-384v-117z"/>
<glyph unicode="ħ" d="M0 562v59h66v85h80v-85h156v-59h-156v-139q58 63 143 63q169 0 169 -181v-305h-81v276q0 52 -9 78q-22 62 -95 62q-70 0 -105 -59q-22 -38 -22 -123v-234h-80v562h-66z"/>
<glyph unicode="Ī" horiz-adv-x="229" d="M-3 781v68h235v-68h-235zM67 0v706h95v-706h-95z"/>
<glyph unicode="ī" horiz-adv-x="208" d="M-4 541v68h216v-68h-216zM67 0v471h77v-471h-77z"/>
<glyph unicode="Į" horiz-adv-x="229" d="M20 -114q0 34 15.5 57t52.5 57h-21v706h95v-706q-57 -41 -57 -75q0 -38 61 -38h12v-74h-9q-74 0 -111.5 14t-37.5 59z"/>
<glyph unicode="į" horiz-adv-x="208" d="M4 -114q0 23 10 44t20.5 33.5t34.5 36.5v471h77v-471q-57 -42 -57 -74q0 -39 61 -39h12v-74h-9q-74 0 -111.5 14t-37.5 59zM69 614v92h77v-92h-77z"/>
<glyph unicode="İ" horiz-adv-x="229" d="M67 0v706h95v-706h-95zM71 781v99h87v-99h-87z"/>
<glyph unicode="ı" horiz-adv-x="208" d="M67 0v471h77v-471h-77z"/>
<glyph unicode="Ĵ" horiz-adv-x="375" d="M9 -8v103q40 -20 93 -20q58 0 83 37q11 16 13.5 39.5t2.5 76.5v478h96v-519q0 -36 -1.5 -54t-10 -43t-26.5 -46q-53 -62 -154 -62q-44 0 -96 10zM110 771l101 124h65l107 -124h-77l-62 74l-59 -74h-75z"/>
<glyph unicode="ĵ" horiz-adv-x="208" d="M-28 523l94 151h67l104 -151h-75l-61 95l-59 -95h-70zM-23 -154q28 -3 36 -3q22 0 36 10q11 8 13.5 20.5t2.5 44.5v553h78v-575q0 -68 -25 -95q-28 -30 -81 -30q-33 0 -60 4v71z"/>
<glyph unicode="Ķ" horiz-adv-x="625" d="M67 0v706h94v-345l335 345h116l-286 -292l298 -414h-115l-248 348l-100 -102v-246h-94zM289 -38h80v-31q0 -59 -29 -113h-39q17 33 20 69h-32v75z"/>
<glyph unicode="ķ" horiz-adv-x="458" d="M65 0v706h81v-435l188 200h98l-175 -186l215 -285h-100l-169 226l-57 -60v-166h-81zM212 -38h80v-31q0 -59 -29 -113h-39q17 33 20 69h-32v75z"/>
<glyph unicode="Ĺ" d="M68 0v706h94v-622h342v-84h-436zM68 771l48 124h99l-87 -124h-60z"/>
<glyph unicode="ĺ" horiz-adv-x="208" d="M59 771l48 124h99l-87 -124h-60zM67 0v706h76v-706h-76z"/>
<glyph unicode="Ļ" d="M68 0v706h94v-622h342v-84h-436zM249 -38h80v-31q0 -59 -29 -113h-39q17 33 20 69h-32v75z"/>
<glyph unicode="ļ" horiz-adv-x="208" d="M67 0v706h76v-706h-76zM67 -38h80v-31q0 -59 -29 -113h-39q17 33 20 69h-32v75z"/>
<glyph unicode="Ľ" d="M68 0v706h94v-622h342v-84h-436zM201 623v83h75v-38q0 -49 -6.5 -78.5t-23.5 -76.5h-36q20 52 24 110h-33z"/>
<glyph unicode="ľ" horiz-adv-x="208" d="M67 0v706h76v-706h-76zM178 623v83h75v-38q0 -49 -6.5 -78.5t-23.5 -76.5h-36q20 52 24 110h-33z"/>
<glyph unicode="Ŀ" d="M68 0v706h94v-622h342v-84h-436zM313 322v102h86v-102h-86z"/>
<glyph unicode="ŀ" horiz-adv-x="264" d="M67 0v706h76v-706h-76zM198 318v98h80v-98h-80z"/>
<glyph unicode="Ł" d="M5 174v79l63 60v393h94v-306l154 141v-78l-154 -140v-239h342v-84h-436v234z"/>
<glyph unicode="ł" horiz-adv-x="208" d="M11 278v67l56 50v311h76v-238l54 49v-70l-54 -50v-397h-76v326z"/>
<glyph unicode="Ń" horiz-adv-x="708" d="M78 0v706h89l382 -566q-4 544 -4 566h85v-706h-85l-387 574q9 -560 9 -574h-89zM314 771l48 124h99l-87 -124h-60z"/>
<glyph unicode="ń" d="M64 0v471h80v-69q19 33 56 58.5t92 25.5q16 0 35 -3.5t49.5 -19t49.5 -42.5q29 -41 29 -123v-298h-79v309q0 51 -31 76.5t-76 25.5q-52 0 -88.5 -35.5t-36.5 -96.5v-279h-80zM235 522l41 144h86l-86 -144h-41z"/>
<glyph unicode="Ņ" horiz-adv-x="708" d="M78 0v706h89l382 -566q-4 544 -4 566h85v-706h-85l-387 574q9 -560 9 -574h-89zM314 -38h80v-31q0 -59 -29 -113h-39q17 33 20 69h-32v75z"/>
<glyph unicode="ņ" d="M64 0v471h80v-69q19 33 56 58.5t92 25.5q16 0 35 -3.5t49.5 -19t49.5 -42.5q29 -41 29 -123v-298h-79v309q0 51 -31 76.5t-76 25.5q-52 0 -88.5 -35.5t-36.5 -96.5v-279h-80zM221 -38h80v-31q0 -59 -29 -113h-39q17 33 20 69h-32v75z"/>
<glyph unicode="Ň" horiz-adv-x="708" d="M78 0v706h89l382 -566q-4 544 -4 566h85v-706h-85l-387 574q9 -560 9 -574h-89zM216 895h76l62 -77l59 77h75l-101 -124h-66z"/>
<glyph unicode="ň" d="M64 0v471h80v-69q19 33 56 58.5t92 25.5q16 0 35 -3.5t49.5 -19t49.5 -42.5q29 -41 29 -123v-298h-79v309q0 51 -31 76.5t-76 25.5q-52 0 -88.5 -35.5t-36.5 -96.5v-279h-80zM126 673h74l61 -96l59 96h71l-96 -151h-67z"/>
<glyph unicode="Ő" horiz-adv-x="812" d="M51 354q0 93 30 166t80.5 116.5t113 65.5t132.5 22q160 0 257.5 -101.5t97.5 -263.5q0 -54 -11.5 -105.5t-38.5 -101.5t-67.5 -87t-102.5 -60t-138 -23q-70 0 -132.5 23t-112.5 67.5t-79 117t-29 164.5zM153 353q0 -137 68.5 -217t187.5 -80q111 0 181 76.5t70 226.5 q0 56 -13.5 105t-41.5 91.5t-79 67.5t-119 25q-67 0 -118 -25t-79.5 -68t-42.5 -93.5t-14 -108.5zM301 771l53 124h92l-87 -124h-58zM443 771l53 124h92l-87 -124h-58z"/>
<glyph unicode="ő" horiz-adv-x="542" d="M40 235q0 27 5 55.5t20.5 65t40.5 64.5t69.5 47t102.5 19q91 0 157.5 -63.5t66.5 -182.5q0 -122 -65.5 -188.5t-165.5 -66.5q-102 0 -166.5 66t-64.5 184zM127 231q0 -20 2.5 -40.5t11.5 -47.5t24 -46.5t42 -33.5t63 -14q71 0 108.5 52t37.5 145q0 72 -33 124t-106 52 q-42 0 -72.5 -18t-45 -40t-22.5 -53.5t-9 -47t-1 -32.5zM173 521l46 144h83l-88 -144h-41zM309 521l43 144h84l-86 -144h-41z"/>
<glyph unicode="Œ" horiz-adv-x="1146" d="M50 356q0 170 98 269t242 99q146 0 228 -92v74h490v-84h-400v-219h323v-82h-323v-239h411v-82h-501v82q-92 -100 -232 -100q-65 0 -124.5 24.5t-107 70t-76 118t-28.5 161.5zM150 352q0 -120 63 -206t175 -86q115 0 179 92q51 75 51 209q0 86 -22.5 146.5t-59.5 90 t-72 41.5t-73 12q-106 0 -173.5 -81t-67.5 -218z"/>
<glyph unicode="œ" horiz-adv-x="875" d="M42 236q0 90 40 151q65 99 189 99q104 0 171 -87q63 87 172 87q108 0 169 -81q55 -74 55 -191h-355q0 -63 34 -109q43 -56 112 -56q30 0 54 12t37.5 31t20 32.5t10.5 27.5l81 -11q-8 -22 -21 -45t-37 -50t-63.5 -44t-87.5 -17q-57 0 -104 25t-77 69q-62 -94 -174 -94 q-93 0 -159.5 63.5t-66.5 187.5zM127 231q0 -83 38.5 -131t99.5 -48q65 0 101.5 51.5t36.5 129.5q0 85 -36.5 135.5t-101.5 50.5q-57 0 -97.5 -47t-40.5 -141zM483 274h267q-4 44 -20 75.5t-38 46t-40.5 20.5t-35.5 6q-61 0 -94.5 -44.5t-38.5 -103.5z"/>
<glyph unicode="Ŕ" horiz-adv-x="667" d="M78 0v706h318q106 0 167.5 -51.5t61.5 -154.5q0 -73 -38.5 -126t-127.5 -68l198 -306h-112l-193 300h-182v-300h-92zM170 379h208q154 0 154 121q0 60 -37 94t-104 34h-221v-249zM273 771l48 124h99l-87 -124h-60z"/>
<glyph unicode="ŕ" horiz-adv-x="313" d="M65 0v471h80v-86q17 33 44 54q48 38 117 38v-86q-15 3 -31 3q-44 0 -77.5 -23.5t-45.5 -65.5q-7 -28 -7 -87v-218h-80zM149 522l41 144h86l-86 -144h-41z"/>
<glyph unicode="Ś" horiz-adv-x="667" d="M37 226l101 13q0 -10 1 -19t5.5 -29t12 -36t23 -35.5t36 -32.5t53 -22t72.5 -9q26 0 53 6t56.5 20t48 43.5t18.5 71.5q0 54 -34 79t-100 38l-64 13q-126 25 -187 70.5t-61 130.5q0 82 67 138q70 58 183 58q126 0 195 -53q43 -32 61.5 -69.5t28.5 -94.5l-95 -6 q0 15 -3.5 31.5t-15 38.5t-30 39t-53.5 29t-80 12q-38 0 -72 -9t-61.5 -35t-27.5 -67q0 -47 35.5 -70.5t105.5 -40.5l129 -31q20 -5 32.5 -8.5t44 -19t51 -34.5t36 -54t16.5 -79q0 -87 -59 -145q-78 -76 -223 -76q-117 0 -193 49q-93 60 -106 195zM279 771l48 124h99 l-87 -124h-60z"/>
<glyph unicode="ś" horiz-adv-x="479" d="M31 152l91 13q0 -55 26 -83q33 -36 106 -36q41 0 75 17.5t34 61.5q0 20 -8 34t-25.5 22t-30 11.5t-34.5 7.5l-46 9q-93 18 -130.5 51.5t-37.5 85.5q0 71 54.5 105.5t128.5 34.5q66 0 110 -25t66 -58q19 -29 25 -72l-86 -10q-1 32 -7 44q-11 23 -42 41.5t-77 18.5 q-45 0 -69 -21.5t-24 -47.5q0 -29 27 -44.5t87 -29.5l46 -11q76 -18 116.5 -48t40.5 -89q0 -67 -56 -108t-141 -41q-194 0 -219 167zM203 522l41 144h86l-86 -144h-41z"/>
<glyph unicode="Ŝ" horiz-adv-x="667" d="M37 226l101 13q0 -10 1 -19t5.5 -29t12 -36t23 -35.5t36 -32.5t53 -22t72.5 -9q26 0 53 6t56.5 20t48 43.5t18.5 71.5q0 54 -34 79t-100 38l-64 13q-126 25 -187 70.5t-61 130.5q0 82 67 138q70 58 183 58q126 0 195 -53q43 -32 61.5 -69.5t28.5 -94.5l-95 -6 q0 15 -3.5 31.5t-15 38.5t-30 39t-53.5 29t-80 12q-38 0 -72 -9t-61.5 -35t-27.5 -67q0 -47 35.5 -70.5t105.5 -40.5l129 -31q20 -5 32.5 -8.5t44 -19t51 -34.5t36 -54t16.5 -79q0 -87 -59 -145q-78 -76 -223 -76q-117 0 -193 49q-93 60 -106 195zM209 771l101 124h65 l107 -124h-77l-62 74l-59 -74h-75z"/>
<glyph unicode="ŝ" horiz-adv-x="479" d="M31 152l91 13q0 -55 26 -83q33 -36 106 -36q41 0 75 17.5t34 61.5q0 20 -8 34t-25.5 22t-30 11.5t-34.5 7.5l-46 9q-93 18 -130.5 51.5t-37.5 85.5q0 71 54.5 105.5t128.5 34.5q66 0 110 -25t66 -58q19 -29 25 -72l-86 -10q-1 32 -7 44q-11 23 -42 41.5t-77 18.5 q-45 0 -69 -21.5t-24 -47.5q0 -29 27 -44.5t87 -29.5l46 -11q76 -18 116.5 -48t40.5 -89q0 -67 -56 -108t-141 -41q-194 0 -219 167zM112 523l94 151h67l104 -151h-75l-61 95l-59 -95h-70z"/>
<glyph unicode="Ş" horiz-adv-x="667" d="M37 226l101 13q0 -10 1 -19t5.5 -29t12 -36t23 -35.5t36 -32.5t53 -22t72.5 -9q26 0 53 6t56.5 20t48 43.5t18.5 71.5q0 54 -34 79t-100 38l-64 13q-126 25 -187 70.5t-61 130.5q0 82 67 138q70 58 183 58q126 0 195 -53q43 -32 61.5 -69.5t28.5 -94.5l-95 -6 q0 15 -3.5 31.5t-15 38.5t-30 39t-53.5 29t-80 12q-38 0 -72 -9t-61.5 -35t-27.5 -67q0 -47 35.5 -70.5t105.5 -40.5l129 -31q20 -5 32.5 -8.5t44 -19t51 -34.5t36 -54t16.5 -79q0 -19 -3.5 -39.5t-19 -54t-42 -59.5t-79 -46t-122.5 -22l-14 -25l24 -13q19 -10 28.5 -27.5 t9.5 -33.5q0 -40 -36.5 -63t-85.5 -23h-5v23q3 -1 10 -1q17 0 29.5 10t12.5 27q0 9 -3.5 16t-11.5 12t-14 8t-17 7t-14 5l51 78q-106 6 -173 49q-93 60 -106 195z"/>
<glyph unicode="ş" horiz-adv-x="479" d="M31 152l91 13q0 -55 26 -83q33 -36 106 -36q41 0 75 17.5t34 61.5q0 20 -8 34t-25.5 22t-30 11.5t-34.5 7.5l-46 9q-93 18 -130.5 51.5t-37.5 85.5q0 71 54.5 105.5t128.5 34.5q66 0 110 -25t66 -58q19 -29 25 -72l-86 -10q-1 32 -7 44q-11 23 -42 41.5t-77 18.5 q-45 0 -69 -21.5t-24 -47.5q0 -29 27 -44.5t87 -29.5l46 -11q76 -18 116.5 -48t40.5 -89q0 -64 -51.5 -104.5t-131.5 -43.5l-16 -29l24 -13q19 -10 28.5 -27.5t9.5 -33.5q0 -40 -36.5 -63t-85.5 -23h-5v23q3 -1 10 -1q17 0 29.5 10t12.5 27q0 9 -3.5 16t-11.5 12t-14 8 t-17 7t-14 5l53 82q-174 9 -197 166z"/>
<glyph unicode="Š" horiz-adv-x="667" d="M37 226l101 13q0 -10 1 -19t5.5 -29t12 -36t23 -35.5t36 -32.5t53 -22t72.5 -9q26 0 53 6t56.5 20t48 43.5t18.5 71.5q0 54 -34 79t-100 38l-64 13q-126 25 -187 70.5t-61 130.5q0 82 67 138q70 58 183 58q126 0 195 -53q43 -32 61.5 -69.5t28.5 -94.5l-95 -6 q0 15 -3.5 31.5t-15 38.5t-30 39t-53.5 29t-80 12q-38 0 -72 -9t-61.5 -35t-27.5 -67q0 -47 35.5 -70.5t105.5 -40.5l129 -31q20 -5 32.5 -8.5t44 -19t51 -34.5t36 -54t16.5 -79q0 -87 -59 -145q-78 -76 -223 -76q-117 0 -193 49q-93 60 -106 195zM196 895h76l62 -77l59 77 h75l-101 -124h-66z"/>
<glyph unicode="š" horiz-adv-x="479" d="M31 152l91 13q0 -55 26 -83q33 -36 106 -36q41 0 75 17.5t34 61.5q0 20 -8 34t-25.5 22t-30 11.5t-34.5 7.5l-46 9q-93 18 -130.5 51.5t-37.5 85.5q0 71 54.5 105.5t128.5 34.5q66 0 110 -25t66 -58q19 -29 25 -72l-86 -10q-1 32 -7 44q-11 23 -42 41.5t-77 18.5 q-45 0 -69 -21.5t-24 -47.5q0 -29 27 -44.5t87 -29.5l46 -11q76 -18 116.5 -48t40.5 -89q0 -67 -56 -108t-141 -41q-194 0 -219 167zM101 673h74l61 -96l59 96h71l-96 -151h-67z"/>
<glyph unicode="Ţ" horiz-adv-x="542" d="M11 624v82h517v-82h-211v-624h-94v624h-212zM232 -38h80v-31q0 -59 -29 -113h-39q17 33 20 69h-32v75z"/>
<glyph unicode="ţ" horiz-adv-x="292" d="M16 405v66h76v149h82v-149h85v-66h-85v-303q0 -25 8 -36t27 -11q20 0 50 11v-66q-56 -8 -76 -8q-55 0 -73 20t-18 65v328h-76zM128 -38h80v-31q0 -59 -29 -113h-39q17 33 20 69h-32v75z"/>
<glyph unicode="Ť" horiz-adv-x="542" d="M11 624v82h517v-82h-211v-624h-94v624h-212zM134 895h76l62 -77l59 77h75l-101 -124h-66z"/>
<glyph unicode="ť" horiz-adv-x="292" d="M16 405v66h76v149h82v-149h85v-66h-85v-303q0 -25 8 -36t27 -11q20 0 50 11v-66q-56 -8 -76 -8q-55 0 -73 20t-18 65v328h-76zM209 623v83h75v-38q0 -49 -6.5 -78.5t-23.5 -76.5h-36q20 52 24 110h-33z"/>
<glyph unicode="Ū" horiz-adv-x="688" d="M76 223v483h94v-467q0 -79 40.5 -128t128.5 -49q93 0 135 53t42 137v454h95v-473q0 -105 -70 -178t-203 -73q-126 0 -194 68t-68 173zM199 781v68h285v-68h-285z"/>
<glyph unicode="ū" d="M65 168v303h79v-268q0 -72 11 -95q23 -45 86 -45q75 0 112 54q23 34 23 113v241h78v-471h-79v72q-26 -39 -69.5 -61.5t-90.5 -22.5q-88 0 -126 62q-24 40 -24 118zM117 541v68h285v-68h-285z"/>
<glyph unicode="Ŭ" horiz-adv-x="688" d="M76 223v483h94v-467q0 -79 40.5 -128t128.5 -49q93 0 135 53t42 137v454h95v-473q0 -105 -70 -178t-203 -73q-126 0 -194 68t-68 173zM212 880h50q8 -23 31 -34.5t52 -11.5q31 0 52.5 14t26.5 32h52q0 -40 -39.5 -74.5t-92.5 -34.5q-49 0 -90 30.5t-42 78.5z"/>
<glyph unicode="ŭ" d="M65 168v303h79v-268q0 -72 11 -95q23 -45 86 -45q75 0 112 54q23 34 23 113v241h78v-471h-79v72q-26 -39 -69.5 -61.5t-90.5 -22.5q-88 0 -126 62q-24 40 -24 118zM133 654h50q8 -29 29.5 -46t48.5 -17q26 0 47 18t27 46h52q0 -41 -35 -85.5t-93 -44.5q-54 0 -90 38 t-36 91z"/>
<glyph unicode="Ű" horiz-adv-x="688" d="M76 223v483h94v-467q0 -79 40.5 -128t128.5 -49q93 0 135 53t42 137v454h95v-473q0 -105 -70 -178t-203 -73q-126 0 -194 68t-68 173zM235 771l53 124h92l-87 -124h-58zM377 771l53 124h92l-87 -124h-58z"/>
<glyph unicode="ű" d="M65 168v303h79v-268q0 -72 11 -95q23 -45 86 -45q75 0 112 54q23 34 23 113v241h78v-471h-79v72q-26 -39 -69.5 -61.5t-90.5 -22.5q-88 0 -126 62q-24 40 -24 118zM164 521l46 144h83l-88 -144h-41zM300 521l43 144h84l-86 -144h-41z"/>
<glyph unicode="Ų" horiz-adv-x="688" d="M76 223v483h94v-467q0 -79 40.5 -128t128.5 -49q93 0 135 53t42 137v454h95v-473q0 -91 -50.5 -156t-143.5 -87q-27 -6 -43.5 -26t-16.5 -39q0 -38 61 -38h12v-74h-9q-74 0 -111.5 14t-37.5 59q0 29 12 49.5t38 46.5q-119 4 -182.5 72t-63.5 169z"/>
<glyph unicode="ų" d="M65 168v303h79v-268q0 -72 11 -95q23 -45 86 -45q75 0 112 54q23 34 23 113v241h78v-471q-22 -6 -44.5 -29t-22.5 -46q0 -38 61 -38h12v-74h-9q-74 0 -111.5 14t-37.5 59q0 35 16.5 59t56.5 59v68q-26 -39 -69.5 -61.5t-90.5 -22.5q-88 0 -126 62q-24 40 -24 118z"/>
<glyph unicode="Ÿ" horiz-adv-x="625" d="M14 706h111l186 -299l188 299h112l-254 -383v-323h-95v323zM171 781v102h87v-102h-87zM367 781v102h88v-102h-88z"/>
<glyph unicode="Ź" horiz-adv-x="604" d="M18 0v92l436 528h-401v86h508v-88l-434 -533h444v-85h-553zM266 771l48 124h99l-87 -124h-60z"/>
<glyph unicode="ź" horiz-adv-x="417" d="M13 0v66l271 336h-245v69h344v-64l-274 -341h280v-66h-376zM176 522l41 144h86l-86 -144h-41z"/>
<glyph unicode="Ż" horiz-adv-x="604" d="M18 0v92l436 528h-401v86h508v-88l-434 -533h444v-85h-553zM252 781v99h87v-99h-87z"/>
<glyph unicode="ż" horiz-adv-x="417" d="M13 0v66l271 336h-245v69h344v-64l-274 -341h280v-66h-376zM157 541v99h87v-99h-87z"/>
<glyph unicode="Ž" horiz-adv-x="604" d="M18 0v92l436 528h-401v86h508v-88l-434 -533h444v-85h-553zM165 895h76l62 -77l59 77h75l-101 -124h-66z"/>
<glyph unicode="ž" horiz-adv-x="417" d="M13 0v66l271 336h-245v69h344v-64l-274 -341h280v-66h-376zM69 673h74l61 -96l59 96h71l-96 -151h-67z"/>
<glyph unicode="Ș" horiz-adv-x="667" d="M37 226l101 13q0 -10 1 -19t5.5 -29t12 -36t23 -35.5t36 -32.5t53 -22t72.5 -9q26 0 53 6t56.5 20t48 43.5t18.5 71.5q0 54 -34 79t-100 38l-64 13q-126 25 -187 70.5t-61 130.5q0 82 67 138q70 58 183 58q126 0 195 -53q43 -32 61.5 -69.5t28.5 -94.5l-95 -6 q0 15 -3.5 31.5t-15 38.5t-30 39t-53.5 29t-80 12q-38 0 -72 -9t-61.5 -35t-27.5 -67q0 -47 35.5 -70.5t105.5 -40.5l129 -31q20 -5 32.5 -8.5t44 -19t51 -34.5t36 -54t16.5 -79q0 -87 -59 -145q-78 -76 -223 -76q-117 0 -193 49q-93 60 -106 195zM294 -38h80v-31 q0 -59 -29 -113h-39q17 33 20 69h-32v75z"/>
<glyph unicode="ș" horiz-adv-x="479" d="M31 152l91 13q0 -55 26 -83q33 -36 106 -36q41 0 75 17.5t34 61.5q0 20 -8 34t-25.5 22t-30 11.5t-34.5 7.5l-46 9q-93 18 -130.5 51.5t-37.5 85.5q0 71 54.5 105.5t128.5 34.5q66 0 110 -25t66 -58q19 -29 25 -72l-86 -10q-1 32 -7 44q-11 23 -42 41.5t-77 18.5 q-45 0 -69 -21.5t-24 -47.5q0 -29 27 -44.5t87 -29.5l46 -11q76 -18 116.5 -48t40.5 -89q0 -67 -56 -108t-141 -41q-194 0 -219 167zM203 -38h80v-31q0 -59 -29 -113h-39q17 33 20 69h-32v75z"/>
<glyph unicode="Ț" horiz-adv-x="542" d="M11 624v82h517v-82h-211v-624h-94v624h-212zM232 -38h80v-31q0 -59 -29 -113h-39q17 33 20 69h-32v75z"/>
<glyph unicode="ț" horiz-adv-x="292" d="M16 405v66h76v149h82v-149h85v-66h-85v-303q0 -25 8 -36t27 -11q20 0 50 11v-66q-56 -8 -76 -8q-55 0 -73 20t-18 65v328h-76zM128 -38h80v-31q0 -59 -29 -113h-39q17 33 20 69h-32v75z"/>
<glyph unicode="ˆ" horiz-adv-x="271" d="M3 523l94 151h67l104 -151h-75l-61 95l-59 -95h-70z"/>
<glyph unicode="˚" horiz-adv-x="271" d="M41 608q0 39 27.5 67t66.5 28q42 0 68.5 -29.5t26.5 -65.5q0 -40 -27.5 -67.5t-67.5 -27.5q-39 0 -66.5 28t-27.5 67zM84 609q0 -21 15 -36.5t36 -15.5q22 0 37 15.5t15 36.5t-15 36t-37 15t-36.5 -15t-14.5 -36z"/>
<glyph unicode="˜" horiz-adv-x="271" d="M-4 539q12 99 82 99q23 0 64 -16.5t54 -16.5q29 0 29 30h50q-3 -27 -8.5 -46t-23.5 -36.5t-46 -17.5q-22 0 -64.5 17t-56.5 17q-16 0 -23.5 -11t-7.5 -19h-49z"/>
<glyph unicode=";" horiz-adv-x="271" d="M107 0v111h99v-61q0 -121 -39 -205h-45q25 78 25 155h-40zM107 380v110h99v-110h-99z"/>
<glyph unicode="΄" horiz-adv-x="271" d="M72 522l41 144h86l-86 -144h-41z"/>
<glyph unicode="΅" horiz-adv-x="544" d="M103 541v96h80v-96h-80zM223 541l32 142h100l-74 -142h-58zM366 541v96h81v-96h-81z"/>
<glyph unicode="Ά" horiz-adv-x="646" d="M10 0l269 706h98l257 -706h-99l-77 216h-269l-79 -216h-100zM12 562l41 144h86l-86 -144h-41zM219 295h211l-103 295z"/>
<glyph unicode="·" horiz-adv-x="200" d="M49 228v124h102v-124h-102z"/>
<glyph unicode="Έ" horiz-adv-x="604" d="M-118 562l41 144h86l-86 -144h-41zM79 0v706h486v-83h-396v-218h344v-82h-344v-241h408v-82h-498z"/>
<glyph unicode="Ή" horiz-adv-x="729" d="M-118 562l41 144h86l-86 -144h-41zM79 0v706h93v-300h384v300h95v-706h-95v323h-384v-323h-93z"/>
<glyph unicode="Ί" horiz-adv-x="229" d="M-118 562l41 144h86l-86 -144h-41zM67 0v706h95v-706h-95z"/>
<glyph unicode="Ό" horiz-adv-x="812" d="M-68 562l41 144h86l-86 -144h-41zM51 354q0 93 30 166t80.5 116.5t113 65.5t132.5 22q160 0 257.5 -101.5t97.5 -263.5q0 -54 -11.5 -105.5t-38.5 -101.5t-67.5 -87t-102.5 -60t-138 -23q-70 0 -132.5 23t-112.5 67.5t-79 117t-29 164.5zM153 353q0 -137 68.5 -217 t187.5 -80q111 0 181 76.5t70 226.5q0 56 -13.5 105t-41.5 91.5t-79 67.5t-119 25q-67 0 -118 -25t-79.5 -68t-42.5 -93.5t-14 -108.5z"/>
<glyph unicode="Ύ" horiz-adv-x="625" d="M-138 562l41 144h86l-86 -144h-41zM14 706h111l186 -299l188 299h112l-254 -383v-323h-95v323z"/>
<glyph unicode="Ώ" horiz-adv-x="820" d="M-68 562l41 144h86l-86 -144h-41zM55 374q0 156 100.5 253t254.5 97t254.5 -97t100.5 -253q0 -170 -159 -292h155v-82h-294v72q196 95 196 302q0 122 -67.5 198t-185.5 76t-185.5 -76t-67.5 -198q0 -207 196 -302v-72h-294v82h155q-159 122 -159 292z"/>
<glyph unicode="ΐ" horiz-adv-x="222" d="M-74 541v96h80v-96h-80zM46 541l32 142h100l-74 -142h-58zM65 82v389h77v-354q0 -18 1.5 -27.5t10 -18.5t24.5 -9q8 0 24 4v-66q-27 -9 -57 -9q-80 0 -80 91zM189 541v96h81v-96h-81z"/>
<glyph unicode="Α" horiz-adv-x="646" d="M10 0l269 706h98l257 -706h-99l-77 216h-269l-79 -216h-100zM219 295h211l-103 295z"/>
<glyph unicode="Β" horiz-adv-x="688" d="M77 0v706h339q82 0 142.5 -48.5t60.5 -132.5q0 -54 -29.5 -96.5t-78.5 -56.5q129 -39 129 -177q0 -45 -15 -80.5t-37.5 -56.5t-53 -34.5t-58.5 -18.5t-57 -5h-342zM166 83h229q31 0 53 3.5t46 15t36.5 37t12.5 63.5q0 62 -39.5 94.5t-105.5 32.5h-232v-246zM166 409h209 q145 0 145 111q0 47 -29 75t-92 28h-233v-214z"/>
<glyph unicode="Γ" horiz-adv-x="544" d="M77 0v706h430v-84h-339v-622h-91z"/>
<glyph unicode="Δ" horiz-adv-x="640" d="M-4 0l277 706h97l274 -706h-648zM130 82h380l-191 510z"/>
<glyph unicode="Ε" horiz-adv-x="604" d="M79 0v706h486v-83h-396v-218h344v-82h-344v-241h408v-82h-498z"/>
<glyph unicode="Ζ" horiz-adv-x="604" d="M18 0v92l436 528h-401v86h508v-88l-434 -533h444v-85h-553z"/>
<glyph unicode="Η" horiz-adv-x="729" d="M79 0v706h93v-300h384v300h95v-706h-95v323h-384v-323h-93z"/>
<glyph unicode="Θ" horiz-adv-x="812" d="M51 354q0 93 30 166t80.5 116.5t113 65.5t132.5 22q160 0 257.5 -101.5t97.5 -263.5q0 -54 -11.5 -105.5t-38.5 -101.5t-67.5 -87t-102.5 -60t-138 -23q-70 0 -132.5 23t-112.5 67.5t-79 117t-29 164.5zM153 353q0 -137 68.5 -217t187.5 -80q111 0 181 76.5t70 226.5 q0 56 -13.5 105t-41.5 91.5t-79 67.5t-119 25q-67 0 -118 -25t-79.5 -68t-42.5 -93.5t-14 -108.5zM243 325v80h331v-80h-331z"/>
<glyph unicode="Ι" horiz-adv-x="229" d="M67 0v706h95v-706h-95z"/>
<glyph unicode="Κ" horiz-adv-x="625" d="M67 0v706h94v-345l335 345h116l-286 -292l298 -414h-115l-248 348l-100 -102v-246h-94z"/>
<glyph unicode="Λ" horiz-adv-x="639" d="M13 0l264 706h96l253 -706h-104l-198 592l-207 -592h-104z"/>
<glyph unicode="Μ" horiz-adv-x="812" d="M68 0v706h122l216 -579l218 579h122v-706h-94l13 592l-223 -592h-73l-219 583q10 -562 10 -583h-92z"/>
<glyph unicode="Ν" horiz-adv-x="708" d="M78 0v706h89l382 -566q-4 544 -4 566h85v-706h-85l-387 574q9 -560 9 -574h-89z"/>
<glyph unicode="Ξ" horiz-adv-x="605" d="M28 0v88h549v-88h-549zM34 619v87h537v-87h-537zM86 322v87h433v-87h-433z"/>
<glyph unicode="Ο" horiz-adv-x="812" d="M51 354q0 93 30 166t80.5 116.5t113 65.5t132.5 22q160 0 257.5 -101.5t97.5 -263.5q0 -54 -11.5 -105.5t-38.5 -101.5t-67.5 -87t-102.5 -60t-138 -23q-70 0 -132.5 23t-112.5 67.5t-79 117t-29 164.5zM153 353q0 -137 68.5 -217t187.5 -80q111 0 181 76.5t70 226.5 q0 56 -13.5 105t-41.5 91.5t-79 67.5t-119 25q-67 0 -118 -25t-79.5 -68t-42.5 -93.5t-14 -108.5z"/>
<glyph unicode="Π" horiz-adv-x="709" d="M77 0v706h555v-706h-95v622h-367v-622h-93z"/>
<glyph unicode="Ρ" horiz-adv-x="625" d="M76 0v706h335q99 0 151 -55.5t52 -143.5q0 -53 -18.5 -98t-67 -77.5t-120.5 -32.5h-241v-299h-91zM167 383h227q58 0 92.5 32t34.5 94q0 59 -34 87.5t-92 28.5h-228v-242z"/>
<glyph unicode="Σ" horiz-adv-x="594" d="M22 0v92l235 277l-225 261v76h533v-83h-413l218 -251l-239 -287h444v-85h-553z"/>
<glyph unicode="Τ" horiz-adv-x="542" d="M11 624v82h517v-82h-211v-624h-94v624h-212z"/>
<glyph unicode="Υ" horiz-adv-x="625" d="M14 706h111l186 -299l188 299h112l-254 -383v-323h-95v323z"/>
<glyph unicode="Φ" horiz-adv-x="845" d="M41 352q0 52 16 99.5t52 93t104 74.5t162 34v53h95v-53q76 -4 135.5 -24.5t96 -50.5t60.5 -69.5t33 -77.5t9 -79q0 -52 -17 -99t-53 -91t-104 -72t-160 -33v-57h-95v57q-92 5 -160 33t-104 72t-53 91t-17 99zM143 352q0 -89 60 -153t172 -69v449q-114 -5 -173 -70 t-59 -157zM470 130q112 5 172 68.5t60 153.5q0 92 -59 157t-173 70v-449z"/>
<glyph unicode="Χ" horiz-adv-x="625" d="M21 0l235 370l-222 336h112l165 -254l158 254h111l-216 -336l241 -370h-111l-183 287l-181 -287h-109z"/>
<glyph unicode="Ψ" horiz-adv-x="830" d="M57 429v277h95v-291q0 -167 215 -179v470h95v-470q40 2 74 10.5t68 27t54 54.5t20 87v291h95v-277q0 -256 -311 -271v-158h-95v158q-27 1 -50 3.5t-56.5 10t-59.5 18.5t-54 32t-47 48t-31 68t-12 91z"/>
<glyph unicode="Ω" horiz-adv-x="742" d="M49 0v80h158q-146 87 -146 300q0 154 86 248.5t226 94.5q142 0 223 -88t81 -242q0 -106 -40 -187t-114 -126h169v-80h-271v80q44 15 76 47.5t49 74.5t25 86t8 91q0 122 -55.5 194t-150.5 72q-100 0 -156 -74.5t-56 -207.5q0 -65 13.5 -118.5t50.5 -99.5t95 -65v-80h-271z "/>
<glyph unicode="Ϊ" horiz-adv-x="229" d="M-27 781v102h87v-102h-87zM67 0v706h95v-706h-95zM169 781v102h88v-102h-88z"/>
<glyph unicode="Ϋ" horiz-adv-x="613" d="M8 706h111l186 -299l188 299h112l-254 -383v-323h-95v323zM171 781v102h87v-102h-87zM367 781v102h88v-102h-88z"/>
<glyph unicode="ά" horiz-adv-x="578" d="M40 237q0 65 20 115.5t52.5 78.5t69 41.5t74.5 13.5q62 0 102.5 -26t59.5 -56v67h80v-354q0 -18 1.5 -27.5t10 -18.5t24.5 -9q6 0 24 4v-66q-27 -9 -56 -9q-73 0 -79 78q-58 -84 -166 -84q-101 0 -159 70t-58 182zM126 234q0 -73 34.5 -125.5t112.5 -52.5q61 0 104 43.5 t43 142.5q0 74 -39.5 122.5t-105.5 48.5q-75 0 -112 -52t-37 -127zM259 522l41 144h86l-86 -144h-41z"/>
<glyph unicode="έ" horiz-adv-x="504" d="M40 127q0 46 33.5 82t84.5 43q-48 7 -73 35t-25 66q0 68 54.5 100.5t141.5 32.5q174 0 209 -134l-80 -19q-6 37 -34.5 65t-88.5 28q-116 0 -116 -78q0 -33 25 -51t71 -18h95v-57h-102q-46 0 -76 -21t-30 -68q0 -39 31 -62.5t96 -23.5q117 0 156 94l72 -31 q-39 -69 -93 -97t-133 -28q-218 0 -218 142zM248 522l41 144h86l-86 -144h-41z"/>
<glyph unicode="ή" horiz-adv-x="547" d="M30 405v66q28 11 56 11q42 0 63 -17t21 -63q51 84 148 84q16 0 35 -3.5t49.5 -19t49.5 -42.5q29 -41 29 -123v-522h-79v533q0 51 -31 76.5t-76 25.5q-52 0 -88.5 -35.5t-36.5 -96.5v-279h-80v354q0 18 -1.5 27.5t-10 18.5t-24.5 9q-6 0 -24 -4zM253 522l41 144h86 l-86 -144h-41z"/>
<glyph unicode="ί" horiz-adv-x="222" d="M59 522l41 144h86l-86 -144h-41zM65 82v389h77v-354q0 -18 1.5 -27.5t10 -18.5t24.5 -9q8 0 24 4v-66q-27 -9 -57 -9q-80 0 -80 91z"/>
<glyph unicode="ΰ" horiz-adv-x="479" d="M45 173v298h79v-304q0 -63 34.5 -90.5t83.5 -27.5q114 0 114 126v296h78v-292q0 -194 -194 -194q-28 0 -52.5 4t-51.5 16.5t-46.5 32t-32 54.5t-12.5 81zM69 541v96h80v-96h-80zM189 541l32 142h100l-74 -142h-58zM332 541v96h81v-96h-81z"/>
<glyph unicode="α" horiz-adv-x="578" d="M40 237q0 65 20 115.5t52.5 78.5t69 41.5t74.5 13.5q62 0 102.5 -26t59.5 -56v67h80v-354q0 -18 1.5 -27.5t10 -18.5t24.5 -9q6 0 24 4v-66q-27 -9 -56 -9q-73 0 -79 78q-58 -84 -166 -84q-101 0 -159 70t-58 182zM126 234q0 -73 34.5 -125.5t112.5 -52.5q61 0 104 43.5 t43 142.5q0 74 -39.5 122.5t-105.5 48.5q-75 0 -112 -52t-37 -127z"/>
<glyph unicode="β" horiz-adv-x="541" d="M69 -224v683q0 242 210 242q102 0 151 -47t49 -115q0 -44 -28 -90.5t-95 -61.5q89 -12 130 -65t41 -132q0 -33 -11 -66.5t-34 -66t-68 -53t-105 -20.5q-47 0 -84.5 16.5t-53 31.5t-24.5 31v-287h-78zM147 231q0 -78 38 -128.5t120 -50.5q60 0 99.5 37.5t39.5 103.5 q0 78 -42 115.5t-137 37.5h-19v69h10q19 0 39.5 4t47 15.5t43.5 38.5t17 66q0 43 -32.5 70.5t-89.5 27.5q-134 0 -134 -167v-239z"/>
<glyph unicode="γ" horiz-adv-x="480" d="M20 402v69h32q45 0 66 -18t40 -75l93 -279l127 372h82l-172 -474v-221h-78v222l-123 352q-13 37 -21 44.5t-33 7.5h-13z"/>
<glyph unicode="δ" horiz-adv-x="539" d="M42 219q0 96 50.5 161t149.5 71q-72 20 -106.5 56.5t-34.5 77.5q0 59 49 87.5t119 28.5q61 0 115 -26.5t75 -85.5l-80 -19q-12 36 -41.5 54.5t-64.5 18.5q-89 0 -89 -59q0 -19 12.5 -36t39 -32.5t43 -23t49.5 -21.5q97 -40 136.5 -101t39.5 -142q0 -121 -67.5 -182 t-163.5 -61q-106 0 -168.5 62.5t-62.5 171.5zM129 219q0 -87 41 -128.5t104 -41.5q62 0 102.5 44t40.5 134q0 26 -5.5 51.5t-19.5 55t-45 48t-75 18.5q-68 0 -105.5 -50t-37.5 -131z"/>
<glyph unicode="ε" horiz-adv-x="504" d="M40 127q0 46 33.5 82t84.5 43q-48 7 -73 35t-25 66q0 68 54.5 100.5t141.5 32.5q174 0 209 -134l-80 -19q-6 37 -34.5 65t-88.5 28q-116 0 -116 -78q0 -33 25 -51t71 -18h95v-57h-102q-46 0 -76 -21t-30 -68q0 -39 31 -62.5t96 -23.5q117 0 156 94l72 -31 q-39 -69 -93 -97t-133 -28q-218 0 -218 142z"/>
<glyph unicode="ζ" horiz-adv-x="420" d="M38 169q0 122 69.5 239.5t200.5 215.5h-244v72h358v-60q-55 -41 -103.5 -87.5t-94 -104t-72.5 -124t-27 -130.5q0 -71 35 -92.5t123 -22.5q74 -1 108 -21t34 -75q0 -40 -23.5 -77.5t-67.5 -85.5l-66 46q82 59 82 100q0 26 -17 32t-71 6q-224 0 -224 169z"/>
<glyph unicode="η" horiz-adv-x="547" d="M30 405v66q28 11 56 11q42 0 63 -17t21 -63q51 84 148 84q16 0 35 -3.5t49.5 -19t49.5 -42.5q29 -41 29 -123v-522h-79v533q0 51 -31 76.5t-76 25.5q-52 0 -88.5 -35.5t-36.5 -96.5v-279h-80v354q0 18 -1.5 27.5t-10 18.5t-24.5 9q-6 0 -24 -4z"/>
<glyph unicode="θ" horiz-adv-x="536" d="M44 357q0 29 2.5 59t10 72t23.5 77.5t39.5 67t62 50t86.5 18.5q46 0 83.5 -17.5t61 -47.5t40 -65t24.5 -75.5t11.5 -72.5t3.5 -63q0 -375 -226 -375q-222 0 -222 372zM128 327q0 -53 6.5 -99t21.5 -88t43.5 -66.5t68.5 -24.5q39 0 67.5 24t43.5 65.5t21.5 88t6.5 100.5 h-279zM129 394h278q0 43 -6 82t-20 78t-43 62t-70 23q-40 0 -68.5 -24t-43 -62.5t-21 -78t-6.5 -80.5z"/>
<glyph unicode="ι" horiz-adv-x="222" d="M65 82v389h77v-354q0 -18 1.5 -27.5t10 -18.5t24.5 -9q8 0 24 4v-66q-27 -9 -57 -9q-80 0 -80 91z"/>
<glyph unicode="κ" horiz-adv-x="519" d="M69 0v471h81v-220l202 182q28 26 48.5 32t77.5 6v-69h-7q-27 -1 -41 -5.5t-35 -22.5l-99 -89l210 -285h-98l-171 233l-87 -77v-156h-81z"/>
<glyph unicode="λ" horiz-adv-x="490" d="M6 0l199 461l-20 58q-27 78 -39 98t-37 20q-29 0 -60 -15v61q27 18 68 18q22 0 38 -3.5t29.5 -13.5t22 -20t19 -33t17 -41.5t18.5 -54.5l137 -404q15 -43 26.5 -56t28.5 -13q18 0 29 4v-64q-20 -9 -55 -9q-31 0 -53.5 20.5t-42.5 79.5l-91 265l-148 -358h-86z"/>
<glyph unicode="μ" horiz-adv-x="564" d="M86 -216v686h80v-236q0 -102 22 -134q29 -44 86 -44q68 0 98 68q17 38 17 130v216h80v-347q0 -40 7 -54t26 -14q12 0 28 7v-64q-28 -7 -43 -7q-41 0 -61.5 18.5t-26.5 61.5q-23 -44 -51.5 -63t-74.5 -19q-68 0 -109 59q4 -235 4 -264h-82z"/>
<glyph unicode="ν" horiz-adv-x="448" d="M14 471h83l128 -364l99 239q27 69 27 84q0 18 -6 41h78q5 -18 5 -43q0 -35 -31 -105l-139 -323h-72z"/>
<glyph unicode="ξ" horiz-adv-x="440" d="M36 185q0 75 43 126t123 67q-61 9 -94 46t-33 86q0 48 29 78t71 41h-106v67h361v-67h-90q-82 0 -132 -28t-50 -86q0 -33 12.5 -55.5t35 -32t42.5 -13t47 -3.5h76v-69h-71q-74 0 -125 -37.5t-51 -107.5q0 -63 33.5 -93.5t128.5 -30.5q78 0 113.5 -20t35.5 -76 q0 -40 -23 -76t-68 -85l-66 46q82 59 82 100q0 26 -17 32t-71 6q-106 0 -171 44.5t-65 140.5z"/>
<glyph unicode="ο" horiz-adv-x="542" d="M40 235q0 27 5 55.5t20.5 65t40.5 64.5t69.5 47t102.5 19q91 0 157.5 -63.5t66.5 -182.5q0 -122 -65.5 -188.5t-165.5 -66.5q-102 0 -166.5 66t-64.5 184zM127 231q0 -20 2.5 -40.5t11.5 -47.5t24 -46.5t42 -33.5t63 -14q71 0 108.5 52t37.5 145q0 72 -33 124t-106 52 q-42 0 -72.5 -18t-45 -40t-22.5 -53.5t-9 -47t-1 -32.5z"/>
<glyph unicode="π" horiz-adv-x="560" d="M44 402v69h468v-69h-54v-266q0 -43 10.5 -56t47.5 -13h11v-67h-34q-64 0 -89.5 26t-25.5 80v296h-201v-402h-79v402h-54z"/>
<glyph unicode="ρ" horiz-adv-x="550" d="M50 -224v459q0 26 4.5 55t19.5 65t39 64t66.5 47.5t97.5 19.5q104 0 168.5 -62t64.5 -187q0 -44 -11.5 -85.5t-35.5 -80.5t-69.5 -63t-105.5 -24q-112 0 -160 81v-289h-78zM128 230q0 -77 38.5 -129t119.5 -52q72 0 106 52t34 138q0 183 -149 183q-39 0 -68.5 -15.5 t-44.5 -36t-23.5 -50t-10.5 -49.5t-2 -41z"/>
<glyph unicode="ς" horiz-adv-x="489" d="M40 243q0 103 60 173t169 70q161 0 207 -146l-80 -30q-9 53 -42 85.5t-84 32.5q-60 0 -101.5 -46t-41.5 -137q0 -79 34.5 -115t120.5 -47q27 -4 38.5 -5.5t35.5 -9t35 -17.5t21 -29t10 -45q0 -40 -23 -76t-68 -85l-66 46q82 59 82 100q0 7 -2 13.5t-6 11t-8.5 8.5 t-12 6.5t-13 4.5t-16 4t-16 2.5t-17.5 2t-17 2.5q-199 30 -199 226z"/>
<glyph unicode="σ" horiz-adv-x="562" d="M40 226q0 106 62 175.5t172 69.5h258v-69h-123q93 -44 93 -171q0 -116 -67.5 -181t-164.5 -65q-99 0 -164.5 63.5t-65.5 177.5zM127 222q0 -88 40.5 -130.5t103.5 -42.5q61 0 103 46.5t42 131.5q0 90 -42 132.5t-104 42.5t-102.5 -45.5t-40.5 -134.5z"/>
<glyph unicode="τ" horiz-adv-x="438" d="M30 381v70q39 20 105 20h283v-69h-153v-300q0 -25 8 -36t27 -11q20 0 50 11v-66q-56 -8 -76 -8q-55 0 -73 20t-18 65v325h-75q-36 0 -78 -21z"/>
<glyph unicode="υ" horiz-adv-x="479" d="M45 173v298h79v-304q0 -63 34.5 -90.5t83.5 -27.5q114 0 114 126v296h78v-292q0 -194 -194 -194q-28 0 -52.5 4t-51.5 16.5t-46.5 32t-32 54.5t-12.5 81z"/>
<glyph unicode="φ" horiz-adv-x="644" d="M40 236q0 28 5 55.5t21 61.5t41.5 60t71.5 46t105 25v147h76v-147q101 -5 172.5 -66t71.5 -178q0 -119 -68.5 -182t-175.5 -71v-211h-76v211q-110 7 -177 70t-67 179zM127 230q0 -33 7 -61t23 -55t48.5 -44.5t78.5 -21.5v374q-157 -18 -157 -192zM360 48q158 16 158 198 q0 76 -39 123.5t-119 53.5v-375z"/>
<glyph unicode="χ" horiz-adv-x="495" d="M30 405v66q31 11 56 11q47 0 68 -17.5t42 -68.5l74 -173l123 248h90l-171 -340l92 -214q23 -52 36 -64.5t34 -12.5q18 0 29 4v-64q-19 -9 -50 -9q-41 0 -67 21t-52 83l-70 164l-129 -263h-90l178 354l-100 228q-16 35 -28 44t-36 9q-13 0 -29 -6z"/>
<glyph unicode="ψ" horiz-adv-x="616" d="M45 228v243h79v-240q0 -103 36.5 -140t109.5 -42v582h76v-582q73 5 109.5 42t36.5 140v240h79v-243q0 -129 -59.5 -182.5t-165.5 -58.5v-211h-76v211q-106 5 -165.5 58.5t-59.5 182.5z"/>
<glyph unicode="ω" horiz-adv-x="673" d="M42 218q0 79 14 131.5t43 78.5t60 36.5t76 13.5v-64q-23 -2 -38 -8.5t-32.5 -25.5t-26.5 -59.5t-9 -102.5q0 -29 3.5 -56t12.5 -54t27 -43t43 -16q83 0 83 134v139h77v-138q0 -135 83 -135q26 0 44 16t26.5 43t12 53.5t3.5 56.5q0 62 -9 102.5t-26.5 59.5t-32.5 25.5 t-38 8.5v64q45 -3 76 -13.5t60 -36.5t43 -78.5t14 -131.5q0 -100 -38.5 -166.5t-125.5 -66.5q-110 0 -131 85q-20 -85 -131 -85q-45 0 -78 19.5t-51 53.5t-26 73.5t-8 86.5z"/>
<glyph unicode="ϊ" horiz-adv-x="222" d="M-60 541v103h87v-103h-87zM65 82v389h77v-354q0 -18 1.5 -27.5t10 -18.5t24.5 -9q8 0 24 4v-66q-27 -9 -57 -9q-80 0 -80 91zM136 541v103h89v-103h-89z"/>
<glyph unicode="ϋ" horiz-adv-x="479" d="M45 173v298h79v-304q0 -63 34.5 -90.5t83.5 -27.5q114 0 114 126v296h78v-292q0 -194 -194 -194q-28 0 -52.5 4t-51.5 16.5t-46.5 32t-32 54.5t-12.5 81zM98 541v103h87v-103h-87zM294 541v103h89v-103h-89z"/>
<glyph unicode="ό" horiz-adv-x="542" d="M40 235q0 27 5 55.5t20.5 65t40.5 64.5t69.5 47t102.5 19q91 0 157.5 -63.5t66.5 -182.5q0 -122 -65.5 -188.5t-165.5 -66.5q-102 0 -166.5 66t-64.5 184zM127 231q0 -20 2.5 -40.5t11.5 -47.5t24 -46.5t42 -33.5t63 -14q71 0 108.5 52t37.5 145q0 72 -33 124t-106 52 q-42 0 -72.5 -18t-45 -40t-22.5 -53.5t-9 -47t-1 -32.5zM253 522l41 144h86l-86 -144h-41z"/>
<glyph unicode="ύ" horiz-adv-x="479" d="M45 173v298h79v-304q0 -63 34.5 -90.5t83.5 -27.5q114 0 114 126v296h78v-292q0 -194 -194 -194q-28 0 -52.5 4t-51.5 16.5t-46.5 32t-32 54.5t-12.5 81zM218 522l41 144h86l-86 -144h-41z"/>
<glyph unicode="ώ" horiz-adv-x="673" d="M42 218q0 79 14 131.5t43 78.5t60 36.5t76 13.5v-64q-23 -2 -38 -8.5t-32.5 -25.5t-26.5 -59.5t-9 -102.5q0 -29 3.5 -56t12.5 -54t27 -43t43 -16q83 0 83 134v139h77v-138q0 -135 83 -135q26 0 44 16t26.5 43t12 53.5t3.5 56.5q0 62 -9 102.5t-26.5 59.5t-32.5 25.5 t-38 8.5v64q45 -3 76 -13.5t60 -36.5t43 -78.5t14 -131.5q0 -100 -38.5 -166.5t-125.5 -66.5q-110 0 -131 85q-20 -85 -131 -85q-45 0 -78 19.5t-51 53.5t-26 73.5t-8 86.5zM314 522l41 144h86l-86 -144h-41z"/>
<glyph unicode="Ё" horiz-adv-x="604" d="M79 0v706h486v-83h-396v-218h344v-82h-344v-241h408v-82h-498zM176 781v102h87v-102h-87zM372 781v102h88v-102h-88z"/>
<glyph unicode="Ђ" horiz-adv-x="750" d="M12 624v82h518v-82h-212v-238q76 41 164 41q67 0 115 -18.5t72 -51t34.5 -68.5t10.5 -79q0 -41 -10.5 -75.5t-35.5 -66.5t-74 -50t-118 -18h-27v76q167 0 167 134q0 68 -35.5 101.5t-98.5 33.5q-88 0 -164 -43v-302h-94v624h-212z"/>
<glyph unicode="Ѓ" horiz-adv-x="542" d="M78 0v706h453v-82h-359v-624h-94zM262 771l48 124h99l-87 -124h-60z"/>
<glyph unicode="Є" horiz-adv-x="764" d="M50 353q0 167 95.5 269t260.5 102q257 0 326 -206l-95 -18q-14 45 -42.5 76.5t-63 46t-63 20t-58.5 5.5q-113 0 -178.5 -66t-77.5 -182h368v-82h-368q9 -112 70.5 -186t181.5 -74q87 0 154 50t82 123l100 -12q-34 -119 -127.5 -178t-220.5 -59q-157 0 -250.5 102 t-93.5 269z"/>
<glyph unicode="Ѕ" horiz-adv-x="667" d="M37 226l101 13q0 -10 1 -19t5.5 -29t12 -36t23 -35.5t36 -32.5t53 -22t72.5 -9q26 0 53 6t56.5 20t48 43.5t18.5 71.5q0 54 -34 79t-100 38l-64 13q-126 25 -187 70.5t-61 130.5q0 82 67 138q70 58 183 58q126 0 195 -53q43 -32 61.5 -69.5t28.5 -94.5l-95 -6 q0 15 -3.5 31.5t-15 38.5t-30 39t-53.5 29t-80 12q-38 0 -72 -9t-61.5 -35t-27.5 -67q0 -47 35.5 -70.5t105.5 -40.5l129 -31q20 -5 32.5 -8.5t44 -19t51 -34.5t36 -54t16.5 -79q0 -87 -59 -145q-78 -76 -223 -76q-117 0 -193 49q-93 60 -106 195z"/>
<glyph unicode="І" horiz-adv-x="229" d="M67 0v706h95v-706h-95z"/>
<glyph unicode="Ї" horiz-adv-x="280" d="M26 781v102h84v-102h-84zM93 0v706h94v-706h-94zM170 781v102h84v-102h-84z"/>
<glyph unicode="Ј" horiz-adv-x="375" d="M9 -8v103q40 -20 93 -20q58 0 83 37q11 16 13.5 39.5t2.5 76.5v478h96v-519q0 -36 -1.5 -54t-10 -43t-26.5 -46q-53 -62 -154 -62q-44 0 -96 10z"/>
<glyph unicode="Љ" horiz-adv-x="1060" d="M10 0v82h10q30 3 46.5 9t33 28.5t24 60t14 109.5t8.5 169.5t2 247.5h436v-296h218q64 0 109.5 -17t69 -47t33.5 -63t10 -73q0 -41 -10.5 -75.5t-35.5 -66.5t-74 -50t-118 -18h-296v624h-252q0 -144 -3 -237.5t-13 -166.5t-24 -112t-40.5 -64.5t-57 -33.5t-80.5 -10h-10z M584 82h198q144 0 144 124q0 61 -35.5 91.5t-98.5 30.5h-208v-246z"/>
<glyph unicode="Њ" horiz-adv-x="1100" d="M78 0v706h94v-296h358v296h94v-296h218q64 0 109.5 -17t69 -47t33.5 -63t10 -73q0 -41 -10.5 -75.5t-35.5 -66.5t-74 -50t-118 -18h-296v328h-358v-328h-94zM624 82h198q144 0 144 124q0 61 -35.5 91.5t-98.5 30.5h-208v-246z"/>
<glyph unicode="Ћ" horiz-adv-x="760" d="M12 624v82h518v-82h-212v-222q88 26 161 26q124 0 175.5 -46t51.5 -132v-250h-94v204q0 85 -31.5 113.5t-110.5 28.5q-77 0 -152 -26v-320h-94v624h-212z"/>
<glyph unicode="Ќ" horiz-adv-x="660" d="M78 0v706h94v-292h167q48 5 77 24.5t41.5 51t19.5 65t20.5 76.5t36.5 75h104q-33 -37 -52 -81t-26 -79.5t-16.5 -69t-33 -59.5t-66.5 -41q48 -11 75 -38t38.5 -66t18.5 -80.5t24.5 -95t47.5 -96.5h-108q-22 31 -33.5 77.5t-18 86.5t-19.5 78.5t-47 62t-91 27.5h-159v-332 h-94zM292 771l48 124h99l-87 -124h-60z"/>
<glyph unicode="Ў" horiz-adv-x="624" d="M14 706h106l204 -452l190 452h100l-208 -472q-47 -107 -79 -153t-73 -63.5t-117 -17.5h-30v82h30q63 0 89 14.5t45 58.5zM168 878l73 10q13 -54 85 -54q75 0 85 54l72 -10q-7 -52 -51 -83t-106 -31t-106.5 31t-51.5 83z"/>
<glyph unicode="Џ" horiz-adv-x="708" d="M78 0v706h94v-624h366v624h92v-706h-233v-170h-86v170h-233z"/>
<glyph unicode="А" horiz-adv-x="646" d="M10 0l269 706h98l257 -706h-99l-77 216h-269l-79 -216h-100zM219 295h211l-103 295z"/>
<glyph unicode="Б" horiz-adv-x="680" d="M78 0v706h508v-82h-414v-214h250q64 0 109.5 -17t69 -47t33.5 -63t10 -73q0 -41 -10.5 -75.5t-35.5 -66.5t-74 -50t-118 -18h-328zM172 82h230q144 0 144 124q0 61 -35.5 91.5t-98.5 30.5h-240v-246z"/>
<glyph unicode="В" horiz-adv-x="688" d="M77 0v706h339q82 0 142.5 -48.5t60.5 -132.5q0 -54 -29.5 -96.5t-78.5 -56.5q129 -39 129 -177q0 -45 -15 -80.5t-37.5 -56.5t-53 -34.5t-58.5 -18.5t-57 -5h-342zM166 83h229q31 0 53 3.5t46 15t36.5 37t12.5 63.5q0 62 -39.5 94.5t-105.5 32.5h-232v-246zM166 409h209 q145 0 145 111q0 47 -29 75t-92 28h-233v-214z"/>
<glyph unicode="Г" horiz-adv-x="542" d="M78 0v706h453v-82h-359v-624h-94z"/>
<glyph unicode="Д" horiz-adv-x="754" d="M12 82q29 2 56 26t51 72t38.5 133t14.5 197v196h460v-624h90v-232h-86v150h-538v-150h-86v232zM158 82h380v542h-276v-114q0 -339 -104 -428z"/>
<glyph unicode="Е" horiz-adv-x="604" d="M78 0v706h486v-82h-392v-219h340v-82h-340v-241h404v-82h-498z"/>
<glyph unicode="Ж" horiz-adv-x="900" d="M10 0q30 43 47.5 96.5t24.5 95t18.5 80.5t38.5 66t75 38q-41 15 -63 41t-31 59.5t-15.5 69t-24.5 79.5t-50 81h104q21 -32 34.5 -75t20 -76.5t18.5 -65t39 -51t73 -24.5h84v292h94v-292h84q46 5 73 24.5t39 51t18.5 65t20 76.5t34.5 75h104q-32 -37 -50 -81t-24.5 -79.5 t-15.5 -69t-31 -59.5t-63 -41q48 -11 75 -38t38.5 -66t18.5 -80.5t24.5 -95t47.5 -96.5h-108q-22 31 -33.5 77.5t-18 86.5t-19.5 78.5t-47 62t-91 27.5h-76v-332h-94v332h-76q-57 -4 -91 -27.5t-47 -62t-19.5 -78.5t-18 -86.5t-33.5 -77.5h-108z"/>
<glyph unicode="З" horiz-adv-x="662" d="M34 215l94 16q0 -43 16 -76t38.5 -51t53 -29t54.5 -14t47 -3q88 0 131.5 42t43.5 108q0 20 -4.5 37.5t-16.5 38t-40 32.5t-70 12h-151v82h122q84 0 115.5 30t31.5 86q0 60 -43 91t-116 31q-80 0 -127.5 -40t-54.5 -108l-91 18q15 100 86.5 153t183.5 53q129 0 195.5 -51 t66.5 -146q0 -111 -108 -155q57 -14 90 -58t33 -108q0 -224 -278 -224q-55 0 -102.5 10.5t-92 35t-73 72.5t-34.5 115z"/>
<glyph unicode="И" horiz-adv-x="728" d="M78 0v706h94v-502l384 436v66h94v-706h-94v516l-384 -436v-80h-94z"/>
<glyph unicode="Й" horiz-adv-x="728" d="M78 0v706h94v-502l384 436v66h94v-706h-94v516l-384 -436v-80h-94zM207 878l72 10q13 -54 85 -54q75 0 85 54l72 -10q-7 -52 -51 -83t-106 -31t-106 31t-51 83z"/>
<glyph unicode="К" horiz-adv-x="660" d="M78 0v706h94v-292h167q48 5 77 24.5t41.5 51t19.5 65t20.5 76.5t36.5 75h104q-33 -37 -52 -81t-26 -79.5t-16.5 -69t-33 -59.5t-66.5 -41q48 -11 75 -38t38.5 -66t18.5 -80.5t24.5 -95t47.5 -96.5h-108q-22 31 -33.5 77.5t-18 86.5t-19.5 78.5t-47 62t-91 27.5h-159v-332 h-94z"/>
<glyph unicode="Л" horiz-adv-x="686" d="M10 0v82h10q30 3 46.5 9t33 28.5t24 60t14 109.5t8.5 169.5t2 247.5h460v-706h-94v624h-276q0 -144 -3 -237.5t-13 -166.5t-24 -112t-40.5 -64.5t-57 -33.5t-80.5 -10h-10z"/>
<glyph unicode="М" horiz-adv-x="812" d="M68 0v706h122l216 -579l218 579h122v-706h-94l13 592l-223 -592h-73l-219 583q10 -562 10 -583h-92z"/>
<glyph unicode="Н" horiz-adv-x="729" d="M79 0v706h93v-300h384v300h95v-706h-95v323h-384v-323h-93z"/>
<glyph unicode="О" horiz-adv-x="812" d="M51 354q0 93 30 166t80.5 116.5t113 65.5t132.5 22q160 0 257.5 -101.5t97.5 -263.5q0 -54 -11.5 -105.5t-38.5 -101.5t-67.5 -87t-102.5 -60t-138 -23q-70 0 -132.5 23t-112.5 67.5t-79 117t-29 164.5zM153 353q0 -137 68.5 -217t187.5 -80q111 0 181 76.5t70 226.5 q0 56 -13.5 105t-41.5 91.5t-79 67.5t-119 25q-67 0 -118 -25t-79.5 -68t-42.5 -93.5t-14 -108.5z"/>
<glyph unicode="П" horiz-adv-x="710" d="M78 0v706h554v-706h-94v624h-366v-624h-94z"/>
<glyph unicode="Р" horiz-adv-x="625" d="M76 0v706h335q99 0 151 -55.5t52 -143.5q0 -53 -18.5 -98t-67 -77.5t-120.5 -32.5h-241v-299h-91zM167 383h227q58 0 92.5 32t34.5 94q0 59 -34 87.5t-92 28.5h-228v-242z"/>
<glyph unicode="С" horiz-adv-x="764" d="M49 353q0 167 95.5 269t261.5 102q124 0 205 -56t117 -160l-95 -19q-21 67 -78.5 113.5t-149.5 46.5q-119 0 -185.5 -79.5t-66.5 -211.5q0 -145 70.5 -221t182.5 -76q88 0 153 52.5t81 154.5l102 -12q-10 -47 -34 -92t-64.5 -87.5t-105.5 -68.5t-144 -26 q-158 0 -251.5 102t-93.5 269z"/>
<glyph unicode="Т" horiz-adv-x="542" d="M11 624v82h517v-82h-211v-624h-94v624h-212z"/>
<glyph unicode="У" horiz-adv-x="624" d="M14 706h106l204 -452l190 452h100l-208 -472q-47 -107 -79 -153t-73 -63.5t-117 -17.5h-30v82h30q63 0 89 14.5t45 58.5z"/>
<glyph unicode="Ф" horiz-adv-x="794" d="M44 354q0 65 12.5 108.5t45.5 78.5t94 51.5t154 16.5v111h94v-111q93 0 154 -16t94 -50.5t45.5 -78t12.5 -108.5t-12.5 -108.5t-45.5 -77t-94 -49t-154 -15.5v-116h-94v116q-93 0 -154 15.5t-94 49t-45.5 76.5t-12.5 107zM142 351q0 -95 43 -132t165 -37v351 q-120 0 -164 -41.5t-44 -140.5zM444 182q120 0 164 36.5t44 137.5q0 98 -42.5 137.5t-165.5 39.5v-351z"/>
<glyph unicode="Х" horiz-adv-x="625" d="M21 0l235 370l-222 336h112l165 -254l158 254h111l-216 -336l241 -370h-111l-183 287l-181 -287h-109z"/>
<glyph unicode="Ц" horiz-adv-x="752" d="M78 0v706h94v-624h364v624h94v-624h90v-232h-86v150h-556z"/>
<glyph unicode="Ч" horiz-adv-x="660" d="M54 446v260h94v-214q0 -85 37.5 -113.5t130.5 -28.5q73 0 172 18v338h94v-706h-94v286q-100 -18 -181 -18q-139 0 -196 46t-57 132z"/>
<glyph unicode="Ш" horiz-adv-x="962" d="M78 0v706h94v-624h262v624h94v-624h262v624h94v-706h-806z"/>
<glyph unicode="Щ" horiz-adv-x="1006" d="M78 0v706h94v-624h262v624h94v-624h262v624h94v-624h90v-232h-86v150h-810z"/>
<glyph unicode="Ъ" horiz-adv-x="788" d="M10 624v82h282v-296h238q64 0 109.5 -17t69 -47t33.5 -63t10 -73q0 -41 -10.5 -75.5t-35.5 -66.5t-74 -50t-118 -18h-316v624h-188zM292 82h218q144 0 144 124q0 61 -35.5 91.5t-98.5 30.5h-228v-246z"/>
<glyph unicode="Ы" horiz-adv-x="860" d="M78 0v706h94v-296h218q64 0 109.5 -17t69 -47t33.5 -63t10 -73q0 -41 -10.5 -75.5t-35.5 -66.5t-74 -50t-118 -18h-296zM172 82h198q144 0 144 124q0 61 -35.5 91.5t-98.5 30.5h-208v-246zM688 0v706h94v-706h-94z"/>
<glyph unicode="Ь" horiz-adv-x="668" d="M78 0v706h94v-296h238q64 0 109.5 -17t69 -47t33.5 -63t10 -73q0 -41 -10.5 -75.5t-35.5 -66.5t-74 -50t-118 -18h-316zM172 82h218q144 0 144 124q0 61 -35.5 91.5t-98.5 30.5h-228v-246z"/>
<glyph unicode="Э" horiz-adv-x="776" d="M34 219l100 12q15 -73 82 -123t154 -50q112 0 176.5 76.5t75.5 183.5h-368v82h368q-12 114 -79 181t-169 67q-23 0 -46.5 -4t-59.5 -17t-68.5 -45.5t-52.5 -81.5l-95 18q23 61 63.5 103.5t88.5 63.5t92 30t91 9q146 0 242.5 -96.5t96.5 -269.5q0 -85 -23.5 -153 t-60.5 -108.5t-85 -67.5t-93 -37t-89 -10q-122 0 -214.5 59t-126.5 178z"/>
<glyph unicode="Ю" horiz-adv-x="1062" d="M78 0v706h94v-300h160q16 157 112 237.5t229 80.5q72 0 131 -23.5t97 -60.5t63.5 -86t36.5 -97.5t11 -97.5q0 -56 -13 -109.5t-40.5 -102.5t-67 -85.5t-97 -58t-125.5 -21.5q-139 0 -235 88.5t-102 253.5h-160v-324h-94zM430 353q0 -137 66 -216t173 -79q105 0 173 82.5 t68 218.5q0 115 -64 202t-173 87q-118 0 -180.5 -85t-62.5 -210z"/>
<glyph unicode="Я" horiz-adv-x="680" d="M20 0q29 25 45 65t22.5 79t16.5 77t35.5 67t69.5 40q-61 11 -100 53t-39 116q0 101 64.5 155t168.5 54h299v-706h-94v302h-133q-71 0 -113 -22.5t-58 -59.5t-23 -76t-18 -80.5t-33 -63.5h-110zM168 500q0 -63 33.5 -89.5t108.5 -26.5h198v240h-212q-69 0 -98.5 -37 t-29.5 -87z"/>
<glyph unicode="а" horiz-adv-x="500" d="M32 122q0 63 51 102q59 44 191 53l72 5v16q0 19 -1 31t-6.5 32t-15.5 32.5t-31 22t-51 9.5q-49 0 -75.5 -24t-26.5 -68v-7l-83 5q0 11 2.5 25.5t13.5 38.5t29 43t53.5 33.5t82.5 14.5q71 0 118 -28q46 -26 58.5 -62.5t12.5 -108.5v-166q0 -18 1.5 -27.5t10 -18.5t24.5 -9 q6 0 24 4v-67q-27 -9 -51 -9q-33 0 -50 12q-13 10 -22 28t-10 30q-71 -77 -161 -77q-71 0 -115.5 37.5t-44.5 97.5zM120 124q0 -29 22.5 -49.5t66.5 -20.5q20 0 40.5 5t44 18.5t38.5 43.5t15 72v37q-145 -23 -169 -34q-58 -23 -58 -72z"/>
<glyph unicode="б" horiz-adv-x="546" d="M46 254q0 147 29.5 232.5t91.5 124.5t170 46q33 2 51 12.5t18 36.5h80q0 -64 -36.5 -94t-114.5 -37q-105 -9 -153 -53.5t-59 -140.5q35 48 75 69t100 21q100 0 154 -65t54 -174q0 -45 -12.5 -87t-38.5 -79t-71.5 -59t-104.5 -22q-115 0 -174 73t-59 196zM138 234 q0 -87 40 -136t105 -49q57 0 97 49.5t40 138.5q0 70 -37.5 121t-98.5 51q-68 0 -107 -51.5t-39 -123.5z"/>
<glyph unicode="в" horiz-adv-x="500" d="M66 0v471h231q151 0 151 -118q0 -73 -65 -108q85 -24 85 -120q0 -59 -43.5 -92t-121.5 -33h-237zM144 66h145q101 0 101 72q0 36 -22.5 55.5t-78.5 19.5h-145v-147zM144 279h130q46 0 71 12.5t25 49.5t-25 50.5t-71 13.5h-130v-126z"/>
<glyph unicode="г" horiz-adv-x="416" d="M66 0v471h340v-66h-262v-405h-78z"/>
<glyph unicode="д" horiz-adv-x="572" d="M10 66q124 30 126 331v74h338v-405h78v-186h-70v120h-402v-120h-70v186zM125 66h271v339h-188v-38q0 -83 -19.5 -172.5t-63.5 -128.5z"/>
<glyph unicode="е" d="M39 240q0 64 21.5 113.5t56 77t73 41.5t77.5 14q88 0 152 -62.5t64 -189.5v-13h-358v-6q0 -65 38 -117.5t115 -52.5q55 0 84.5 33.5t39.5 76.5l81 -11q-53 -159 -213 -159q-97 0 -164 62.5t-67 192.5zM127 279h269q0 60 -38 102.5t-97 42.5q-60 0 -94 -41.5t-40 -103.5z "/>
<glyph unicode="ж" horiz-adv-x="642" d="M12 0q24 28 36.5 71t16.5 76.5t25 64.5t62 42q-32 12 -48 39t-19 56t-15.5 64t-37.5 58h90q15 -20 23.5 -56t12.5 -62.5t22.5 -47.5t54.5 -21h47v187h78v-187h47q36 0 54.5 21t22.5 47.5t12.5 62.5t23.5 56h90q-25 -23 -37.5 -58t-15.5 -64t-19 -56t-48 -39 q41 -11 62 -42t25 -64.5t16.5 -76.5t36.5 -71h-90q-15 28 -24 72.5t-13.5 73t-30 50.5t-73.5 22h-39v-218h-78v218h-39q-48 0 -73.5 -22t-30 -50.5t-13.5 -73t-24 -72.5h-90z"/>
<glyph unicode="з" horiz-adv-x="478" d="M30 146l78 12q6 -27 12 -41.5t20 -33t40.5 -26.5t66.5 -8q117 0 117 79q0 42 -25.5 62t-86.5 20h-60v66h50q106 0 106 77q0 29 -25.5 50t-75.5 21q-43 0 -79 -21t-45 -71l-78 10q7 68 62.5 106t144.5 38q42 0 79 -9.5t68 -39t31 -75.5q0 -41 -20.5 -68.5t-71.5 -43.5 q108 -19 108 -122q0 -68 -51.5 -105.5t-148.5 -37.5q-92 0 -148 35t-68 126z"/>
<glyph unicode="и" horiz-adv-x="540" d="M66 0v471h78v-317l252 267v50h78v-471h-78v325l-252 -267v-58h-78z"/>
<glyph unicode="й" horiz-adv-x="540" d="M66 0v471h78v-317l252 267v50h78v-471h-78v325l-252 -267v-58h-78zM125 674l64 10q12 -66 81 -66q71 0 81 66l64 -10q-7 -55 -47.5 -87.5t-97.5 -32.5t-97.5 32.5t-47.5 87.5z"/>
<glyph unicode="к" horiz-adv-x="478" d="M66 0v471h78v-187h95q40 0 60.5 21t25 47.5t14 62.5t25.5 56h90q-27 -23 -40.5 -60t-17 -67.5t-20.5 -57t-52 -32.5q41 -11 62 -42t25 -64.5t16.5 -76.5t36.5 -71h-90q-16 28 -24.5 72.5t-13.5 73t-30.5 50.5t-74.5 22h-87v-218h-78z"/>
<glyph unicode="л" horiz-adv-x="514" d="M10 0v66h12q37 1 54.5 23.5t25.5 84.5t8 188v109h338v-471h-78v405h-188v-43q0 -86 -1 -125.5t-9 -95.5t-24.5 -80t-47.5 -42.5t-78 -18.5h-12z"/>
<glyph unicode="м" horiz-adv-x="640" d="M66 0v471h118l144 -391l144 391h102v-471h-70v387l-142 -387h-82l-136 395v-395h-78z"/>
<glyph unicode="н" horiz-adv-x="530" d="M66 0v471h78v-191h242v191h78v-471h-78v214h-242v-214h-78z"/>
<glyph unicode="о" horiz-adv-x="542" d="M40 235q0 27 5 55.5t20.5 65t40.5 64.5t69.5 47t102.5 19q99 0 161.5 -62.5t62.5 -183.5q0 -122 -65.5 -188.5t-165.5 -66.5q-102 0 -166.5 66t-64.5 184zM126 231q0 -20 2.5 -40.5t11.5 -47.5t24 -46.5t42.5 -33.5t63.5 -14q71 0 108.5 52t37.5 145q0 72 -33 124 t-106 52q-42 0 -73 -18t-45.5 -40t-22.5 -53.5t-9 -47t-1 -32.5z"/>
<glyph unicode="п" horiz-adv-x="522" d="M66 0v471h390v-471h-78v405h-234v-405h-78z"/>
<glyph unicode="р" horiz-adv-x="562" d="M66 -224v695h78v-67q25 31 69 56.5t99 25.5q83 0 147.5 -65t64.5 -187q0 -44 -11.5 -85t-35.5 -79.5t-69 -61.5t-105 -23q-48 0 -91 18t-68 52v-279h-78zM144 227q0 -80 39.5 -126t108.5 -46q71 0 108.5 49t37.5 133q0 88 -42.5 131.5t-98.5 43.5q-69 0 -111 -49 t-42 -136z"/>
<glyph unicode="с" d="M39 232q0 111 59.5 182.5t169.5 71.5q97 0 151.5 -48.5t65.5 -109.5l-88 -8q-9 52 -42.5 80t-85.5 28q-61 0 -101.5 -45.5t-40.5 -145.5q0 -86 38 -138t109 -52q118 0 134 131l86 -8q-35 -185 -222 -185q-109 0 -171 68.5t-62 178.5z"/>
<glyph unicode="т" horiz-adv-x="420" d="M14 405v66h392v-66h-157v-405h-78v405h-157z"/>
<glyph unicode="у" horiz-adv-x="437" d="M9 -151q24 -8 53 -8q35 0 53.5 19.5t38.5 78.5l20 58l-160 474h85l118 -374l125 374h83l-198 -557q-30 -85 -59 -116t-88 -31q-35 0 -71 10v72z"/>
<glyph unicode="ф" horiz-adv-x="640" d="M40 233q0 113 59.5 171t181.5 67v235h78v-235q130 -8 185.5 -68t55.5 -166q0 -230 -241 -237v-224h-78v224q-241 5 -241 233zM126 231q0 -74 34.5 -117t120.5 -50v343q-31 -3 -55 -10.5t-48.5 -25.5t-38 -53.5t-13.5 -86.5zM359 64q91 5 123 50.5t32 119.5 q0 79 -34 121.5t-121 51.5v-343z"/>
<glyph unicode="х" horiz-adv-x="396" d="M9 0l146 239l-139 232h92l94 -162l95 162h90l-142 -232l142 -239h-90l-100 168l-98 -168h-90z"/>
<glyph unicode="ц" horiz-adv-x="554" d="M66 0v471h78v-405h234v405h78v-405h78v-186h-70v120h-398z"/>
<glyph unicode="ч" horiz-adv-x="472" d="M44 309v162h78v-141q0 -46 24.5 -65.5t76.5 -19.5q55 0 105 18v208h78v-471h-78v197q-76 -16 -131 -16q-72 0 -112.5 33t-40.5 95z"/>
<glyph unicode="ш" horiz-adv-x="734" d="M66 0v471h78v-400h184v400h78v-400h184v400h78v-471h-602z"/>
<glyph unicode="щ" horiz-adv-x="766" d="M66 0v471h78v-400h184v400h78v-400h184v400h78v-405h78v-186h-70v120h-610z"/>
<glyph unicode="ъ" horiz-adv-x="570" d="M10 405v66h216v-185h155q84 0 122.5 -39t38.5 -100q0 -82 -44 -114.5t-139 -32.5h-211v405h-138zM226 66h125q107 0 107 78q0 44 -28.5 60t-85.5 16h-118v-154z"/>
<glyph unicode="ы" horiz-adv-x="636" d="M66 0v471h78v-185h130q85 0 123.5 -39t38.5 -100q0 -82 -44 -114.5t-140 -32.5h-186zM144 66h100q108 0 108 78q0 44 -28.5 60t-86.5 16h-93v-154zM492 0v471h78v-471h-78z"/>
<glyph unicode="ь" horiz-adv-x="488" d="M66 0v471h78v-185h155q84 0 122.5 -39t38.5 -100q0 -82 -44 -114.5t-139 -32.5h-211zM144 66h125q107 0 107 78q0 44 -28.5 60t-85.5 16h-118v-154z"/>
<glyph unicode="э" horiz-adv-x="526" d="M30 150l78 8q10 -45 40.5 -71.5t54.5 -32t47 -5.5q65 0 105.5 44t42.5 112h-222v66h222q-12 153 -143 153q-46 0 -83 -24.5t-46 -67.5l-85 6q14 59 69.5 103.5t146.5 44.5q106 0 167.5 -63t61.5 -188q0 -30 -6 -61t-22.5 -66t-41.5 -61.5t-67.5 -44t-96.5 -17.5 q-84 0 -144 39.5t-78 125.5z"/>
<glyph unicode="ю" horiz-adv-x="750" d="M66 0v471h78v-191h121q5 37 17.5 69.5t37 65t70 52t106.5 19.5q90 0 152 -63t62 -183q0 -116 -63.5 -185.5t-157.5 -69.5q-100 0 -160.5 59.5t-66.5 169.5h-118v-214h-78zM348 231q0 -28 5 -54t18 -57.5t43 -51t74 -19.5q70 0 103 54t33 140q0 71 -33.5 125t-102.5 54 q-33 0 -58.5 -11.5t-40 -32t-23.5 -40.5t-12.5 -45t-4.5 -37t-1 -25z"/>
<glyph unicode="я" horiz-adv-x="500" d="M30 0q21 16 32 48.5t15 62.5t25 59.5t61 42.5q-42 6 -66 38t-24 71q0 149 166 149h195v-471h-78v189h-99q-45 0 -70.5 -23.5t-31 -52.5t-13 -64t-20.5 -49h-92zM151 330q0 -32 18.5 -53.5t62.5 -21.5h124v150h-126q-42 0 -60.5 -24.5t-18.5 -50.5z"/>
<glyph unicode="ё" d="M39 240q0 64 21.5 113.5t56 77t73 41.5t77.5 14q88 0 152 -62.5t64 -189.5v-13h-358v-6q0 -65 38 -117.5t115 -52.5q55 0 84.5 33.5t39.5 76.5l81 -11q-53 -159 -213 -159q-97 0 -164 62.5t-67 192.5zM127 279h269q0 60 -38 102.5t-97 42.5q-60 0 -94 -41.5t-40 -103.5z M134 604v102h78v-102h-78zM321 604v102h78v-102h-78z"/>
<glyph unicode="ђ" d="M-34 534v66h100v106h78v-106h190v-66h-190v-151q59 63 145 63q169 0 169 -181v-369q0 -68 -25 -95q-28 -30 -81 -30q-33 0 -60 4v71q28 -3 36 -3q22 0 36 10q11 8 13.5 20.5t2.5 44.5v318q0 52 -10 79q-24 61 -97 61q-71 0 -107 -59q-22 -38 -22 -123v-194h-78v534h-100z "/>
<glyph unicode="ѓ" horiz-adv-x="416" d="M66 0v471h340v-66h-262v-405h-78zM192 522l41 144h86l-86 -144h-41z"/>
<glyph unicode="є" horiz-adv-x="526" d="M40 232q0 111 60.5 182.5t172.5 71.5q100 0 155 -44t64 -104l-85 -6q-7 44 -42.5 68t-89.5 24q-61 0 -101.5 -38.5t-45.5 -114.5h222v-66h-222q2 -68 42.5 -112t105.5 -44q23 0 47 5.5t54.5 32t40.5 71.5l78 -8q-18 -86 -78 -125.5t-144 -39.5q-110 0 -172 68.5 t-62 178.5z"/>
<glyph unicode="ѕ" horiz-adv-x="479" d="M31 152l91 13q0 -55 26 -83q33 -36 106 -36q41 0 75 17.5t34 61.5q0 20 -8 34t-25.5 22t-30 11.5t-34.5 7.5l-46 9q-93 18 -130.5 51.5t-37.5 85.5q0 71 54.5 105.5t128.5 34.5q66 0 110 -25t66 -58q19 -29 25 -72l-86 -10q-1 32 -7 44q-11 23 -42 41.5t-77 18.5 q-45 0 -69 -21.5t-24 -47.5q0 -29 27 -44.5t87 -29.5l46 -11q76 -18 116.5 -48t40.5 -89q0 -67 -56 -108t-141 -41q-194 0 -219 167z"/>
<glyph unicode="і" horiz-adv-x="208" d="M66 604v102h78v-102h-78zM69 0v471h77v-471h-77z"/>
<glyph unicode="ї" horiz-adv-x="240" d="M20 604v102h74v-102h-74zM81 0v471h78v-471h-78zM146 604v102h74v-102h-74z"/>
<glyph unicode="ј" horiz-adv-x="208" d="M-23 -154q28 -3 36 -3q22 0 36 10q11 8 13.5 20.5t2.5 44.5v553h78v-575q0 -68 -25 -95q-28 -30 -81 -30q-33 0 -60 4v71zM65 613v93h78v-93h-78z"/>
<glyph unicode="љ" horiz-adv-x="760" d="M10 0v66h12q37 1 54.5 23.5t25.5 84.5t8 188v109h326v-185h135q84 0 122.5 -39t38.5 -100q0 -82 -44 -114.5t-139 -32.5h-191v405h-176v-43q0 -86 -1 -125.5t-9 -95.5t-24.5 -80t-47.5 -42.5t-78 -18.5h-12zM436 66h105q107 0 107 78q0 44 -28.5 60t-85.5 16h-98v-154z "/>
<glyph unicode="њ" horiz-adv-x="780" d="M66 0v471h78v-185h234v185h78v-185h135q84 0 122.5 -39t38.5 -100q0 -82 -44 -114.5t-139 -32.5h-191v220h-234v-220h-78zM456 66h105q107 0 107 78q0 44 -28.5 60t-85.5 16h-98v-154z"/>
<glyph unicode="ћ" d="M-34 534v66h100v106h78v-106h190v-66h-190v-151q59 63 145 63q169 0 169 -181v-265h-78v236q0 52 -10 79q-24 61 -97 61q-71 0 -107 -59q-22 -38 -22 -123v-194h-78v534h-100z"/>
<glyph unicode="ќ" horiz-adv-x="478" d="M66 0v471h78v-187h95q40 0 60.5 21t25 47.5t14 62.5t25.5 56h90q-27 -23 -40.5 -60t-17 -67.5t-20.5 -57t-52 -32.5q41 -11 62 -42t25 -64.5t16.5 -76.5t36.5 -71h-90q-16 28 -24.5 72.5t-13.5 73t-30.5 50.5t-74.5 22h-87v-218h-78zM222 522l41 144h86l-86 -144h-41z "/>
<glyph unicode="ў" horiz-adv-x="437" d="M9 -151q24 -8 53 -8q35 0 53.5 19.5t38.5 78.5l20 58l-160 474h85l118 -374l125 374h83l-198 -557q-30 -85 -59 -116t-88 -31q-35 0 -71 10v72zM80 674l65 10q12 -66 81 -66q71 0 81 66l64 -10q-7 -55 -47.5 -87.5t-97.5 -32.5t-97.5 32.5t-48.5 87.5z"/>
<glyph unicode="џ" horiz-adv-x="522" d="M66 0v471h78v-405h234v405h78v-471h-160v-140h-70v140h-160z"/>
<glyph unicode="Ґ" horiz-adv-x="542" d="M78 0v706h367v150h86v-232h-359v-624h-94z"/>
<glyph unicode="ґ" horiz-adv-x="416" d="M66 0v471h268v120h72v-186h-262v-405h-78z"/>
<glyph unicode="–" horiz-adv-x="600" d="M45 262v76h510v-76h-510z"/>
<glyph unicode="—" horiz-adv-x="895" d="M45 262v76h805v-76h-805z"/>
<glyph unicode="‘" horiz-adv-x="229" d="M63 440v51q0 64 8.5 106t33.5 109h47q-26 -76 -33 -157h43v-109h-99z"/>
<glyph unicode="’" horiz-adv-x="229" d="M63 596v110h99v-52q0 -119 -41 -214h-47q33 95 33 156h-44z"/>
<glyph unicode="‚" horiz-adv-x="229" d="M63 0v109h99v-60q0 -113 -41 -205h-47q33 95 33 156h-44z"/>
<glyph unicode="“" horiz-adv-x="375" d="M63 440v57q0 113 42 209h47q-33 -91 -33 -157h43v-109h-99zM212 440v57q0 113 42 209h46q-30 -70 -32 -157h43v-109h-99z"/>
<glyph unicode="”" horiz-adv-x="375" d="M63 596v110h99v-61q0 -113 -41 -205h-47q33 95 33 156h-44zM212 596v110h99v-67q0 -105 -42 -199h-46q24 70 32 156h-43z"/>
<glyph unicode="„" horiz-adv-x="375" d="M63 0v109h99v-60q0 -113 -41 -205h-47q33 95 33 156h-44zM212 0v109h99v-67q0 -102 -42 -198h-46q25 76 32 156h-43z"/>
<glyph unicode="•" horiz-adv-x="333" d="M53 241v227h228v-227h-228z"/>
<glyph unicode="…" horiz-adv-x="1000" d="M119 0v93h94v-93h-94zM452 0v93h95v-93h-95zM786 0v93h95v-93h-95z"/>
<glyph unicode="‹" horiz-adv-x="250" d="M48 254v83l134 116v-89l-80 -71l80 -66v-86z"/>
<glyph unicode="›" horiz-adv-x="250" d="M68 134v90l80 70l-80 67v85l134 -113v-83z"/>
<glyph unicode="€" horiz-adv-x="700" d="M23 267l23 62h50q0 33 2 49h-75l23 62h59q26 137 112 210.5t225 73.5q76 0 131.5 -16t104.5 -59l-32 -91q-71 91 -194 91q-202 0 -245 -209h399l-22 -62h-384v-20q0 -6 0.5 -16.5t0.5 -12.5h366l-22 -62h-337q18 -99 81.5 -152.5t163.5 -53.5q66 0 125.5 25.5t98.5 75.5 v-106q-93 -74 -236 -74q-139 0 -228 74t-111 211h-79z"/>
<glyph unicode="™" horiz-adv-x="694" d="M23 657v49h250v-49h-95v-283h-59v283h-96zM307 374v332h78l82 -265l79 265h75v-332h-54l2 261l-78 -261h-54l-75 257q1 -223 1 -257h-56z"/>
<glyph unicode="" horiz-adv-x="470" d="M0 0v470h470v-470h-470z"/>
</font>
</defs>
</svg>
