<!DOCTYPE svg PUBLIC "-//W3C//DTD SVG 1.1//EN" "http://www.w3.org/Graphics/SVG/1.1/DTD/svg11.dtd" >
<svg xmlns="http://www.w3.org/2000/svg">
<metadata></metadata>
<defs>
<font id="nissan_probold" horiz-adv-x="604" >
<font-face units-per-em="1000" ascent="750" descent="-250" />
<missing-glyph horiz-adv-x="292" />
<glyph horiz-adv-x="1000" />
<glyph horiz-adv-x="1000" />
<glyph unicode="&#xd;" horiz-adv-x="1000" />
<glyph unicode=" "  horiz-adv-x="292" />
<glyph unicode="&#x09;" horiz-adv-x="292" />
<glyph unicode="&#xa0;" horiz-adv-x="292" />
<glyph unicode="!" horiz-adv-x="292" d="M90 0v170h160v-170h-160zM90 495v211h160v-204l-48 -259h-67z" />
<glyph unicode="&#x22;" horiz-adv-x="318" d="M27 743h103l-33 -304h-37zM189 743h103l-33 -304h-37z" />
<glyph unicode="#" horiz-adv-x="667" d="M42 186v124h112l13 95h-100v124h117l25 177h124l-25 -177h100l24 177h125l-24 -177h91v-124h-109l-12 -95h98v-124h-116l-26 -186h-126l27 186h-99l-26 -186h-124l25 186h-94zM278 310h99l14 95h-100z" />
<glyph unicode="$" horiz-adv-x="667" d="M26 82l92 104q1 0 15.5 -8t23 -12.5t27 -12.5t34 -12.5t37 -9t41.5 -5.5v154q-32 5 -51 9.5t-51.5 14t-53 23t-42.5 33t-32.5 49t-10.5 65.5q0 63 25 108t65.5 66.5t76.5 31t73 10.5v115h81v-115q113 -11 223 -81l-88 -102q-73 37 -135 49v-133q58 -12 97 -25.5t76 -36.5 t55.5 -59t18.5 -85q0 -97 -66 -158.5t-181 -68.5v-120h-80v120q-89 8 -149.5 30t-120.5 62zM215 492q0 -23 18 -35t63 -20v120q-32 -3 -56.5 -19t-24.5 -46zM376 128q30 2 58.5 21t28.5 55q0 17 -8 29t-24 18t-26.5 8.5t-28.5 5.5v-137z" />
<glyph unicode="%" horiz-adv-x="875" d="M26 457q0 41 7.5 78t24 73t50 58t80.5 22q79 0 118 -66.5t39 -166.5q0 -41 -7.5 -78.5t-24.5 -72t-49 -55.5t-75 -21q-85 0 -124 63.5t-39 165.5zM128 450q0 -137 60 -137q55 0 55 143q0 145 -58 145q-57 0 -57 -151zM210 0l375 721l80 -42l-376 -721zM528 223 q0 41 7.5 78t24 73t50 58t80.5 22q79 0 118 -66t39 -167q0 -56 -12.5 -104t-50 -85.5t-95.5 -37.5t-95.5 35.5t-51.5 84.5t-14 109zM631 216q0 -137 60 -137q55 0 55 143q0 145 -58 145q-57 0 -57 -151z" />
<glyph unicode="&#x26;" horiz-adv-x="688" d="M29 212q0 149 173 222q-46 75 -46 121q0 57 32 94t70 49t79 12q66 0 119 -37.5t53 -115.5q0 -24 -7 -48t-39 -59t-86 -57q10 -15 57 -85l39 -55q20 44 34 105l125 -46q-20 -60 -32.5 -87.5t-43.5 -80.5q22 -33 80 -33h26v-111h-84q-78 0 -119 47q-89 -54 -188 -54 q-97 0 -169.5 57t-72.5 162zM182 217q0 -36 26.5 -70.5t78.5 -34.5q40 0 99 33l-122 186l-24 -16q-58 -39 -58 -98zM284 561q0 -6 1 -11.5t2.5 -9.5t5.5 -12t6 -11.5t9 -15t10 -16.5q65 35 65 75q0 21 -14 32t-35 11q-20 0 -35 -11t-15 -31z" />
<glyph unicode="'" horiz-adv-x="156" d="M27 743h103l-33 -304h-37z" />
<glyph unicode="(" horiz-adv-x="335" d="M31 312q0 196 116 351q55 74 138 138l58 -60q-42 -48 -67 -83q-97 -139 -97 -334q0 -132 42.5 -240t122.5 -179l-54 -70q-78 56 -140 131q-119 146 -119 346z" />
<glyph unicode=")" horiz-adv-x="336" d="M-6 -106q47 53 68 83q96 140 96 334q0 132 -42.5 240.5t-121.5 178.5l54 70q83 -60 139 -131q120 -149 120 -346q0 -199 -117 -352q-51 -67 -138 -137z" />
<glyph unicode="*" horiz-adv-x="411" d="M16 527l31 104l101 -30v105h108v-105l103 35l35 -102l-99 -34l61 -78l-85 -67l-66 85l-61 -85l-87 64l57 79z" />
<glyph unicode="+" horiz-adv-x="724" d="M92 259v130h187v201h166v-201h187v-130h-187v-204h-166v204h-187z" />
<glyph unicode="," horiz-adv-x="250" d="M45 0v168h160v-137q0 -88 -36.5 -134.5t-122.5 -69.5v71q33 12 44.5 36t15.5 66h-61z" />
<glyph unicode="-" horiz-adv-x="375" d="M38 237v143h299v-143h-299z" />
<glyph unicode="." horiz-adv-x="250" d="M45 0v167h158v-167h-158z" />
<glyph unicode="/" horiz-adv-x="479" d="M16 0l304 706h142l-304 -706h-142z" />
<glyph unicode="0" horiz-adv-x="562" d="M40 344q0 152 61 248.5t180 96.5q62 0 108 -28.5t70.5 -67.5t39 -92t18.5 -90.5t4 -74.5q0 -63 -11.5 -120.5t-37.5 -111.5t-76.5 -86.5t-120.5 -32.5q-117 0 -176 95t-59 264zM188 311q0 -202 93 -202q90 0 90 225q0 230 -92 230q-50 0 -70 -64t-21 -189z" />
<glyph unicode="1" horiz-adv-x="562" d="M88 473v104q74 5 112 25q45 23 70 76h122v-678h-161v495q-30 -13 -52 -17t-91 -5z" />
<glyph unicode="2" horiz-adv-x="562" d="M32 435v24q0 115 65.5 173t172.5 58q105 0 167.5 -55t62.5 -152q0 -89 -57 -167.5t-205 -191.5q236 4 264 4v-128h-465v118q96 75 157 128q72 63 105 112t33 122q0 93 -69 93q-28 0 -51 -18t-23 -65q0 -22 4 -64z" />
<glyph unicode="3" horiz-adv-x="562" d="M31 213v15l156 13q-1 -19 -1 -29q0 -46 23.5 -73t59.5 -27q40 0 64.5 26.5t24.5 73.5q0 87 -100 87l-22 -1v115q15 -1 23 -1q24 0 41.5 8t25.5 18t12.5 23.5t5 19.5t0.5 11q0 38 -22.5 57.5t-50.5 19.5q-69 0 -69 -98l-158 14q6 59 28 100.5t56 63.5t71.5 31.5t81.5 9.5 q52 0 93 -13t64.5 -32t38.5 -45t20 -48t5 -44q0 -112 -112 -151q62 -11 95.5 -53t33.5 -102q0 -22 -5.5 -47t-23 -55.5t-44.5 -54.5t-75 -40.5t-109 -16.5q-110 0 -170.5 61t-60.5 164z" />
<glyph unicode="4" horiz-adv-x="562" d="M11 156l2 122l280 400h151v-411h90v-110h-90v-157h-158v156h-275zM126 267h161v239z" />
<glyph unicode="5" horiz-adv-x="562" d="M28 213l159 6q0 -111 80 -111q84 0 84 126q0 59 -24.5 88t-61.5 29q-52 0 -71 -53l-139 23l41 355h390l-10 -128h-256l-16 -124q48 35 107 35q95 0 149.5 -64t54.5 -160q0 -46 -15 -89t-44.5 -79t-80 -58t-115.5 -22q-117 0 -174.5 65t-57.5 161z" />
<glyph unicode="6" horiz-adv-x="562" d="M42 323q0 60 6 109.5t23.5 99t46 83.5t76.5 55t112 21q176 0 209 -184l-160 -18v13q0 30 -17.5 49t-44.5 19q-31 0 -51.5 -20t-30 -57t-13 -66.5t-4.5 -70.5q14 31 53.5 55t93.5 24q72 0 129.5 -52.5t57.5 -155.5q0 -111 -67 -174.5t-176 -63.5q-48 0 -89 16.5t-77 53 t-56.5 104t-20.5 160.5zM214 216q0 -24 4.5 -45.5t23 -42.5t50.5 -21q83 0 83 109q0 104 -81 104q-36 0 -58 -27t-22 -77z" />
<glyph unicode="7" horiz-adv-x="562" d="M34 547v131h479v-122q-72 -87 -114.5 -163.5t-73.5 -172.5q-34 -105 -47 -220h-186q10 44 17.5 73.5t29.5 95.5t48 120t71 125t99 133h-323z" />
<glyph unicode="8" horiz-adv-x="562" d="M39 194q0 40 12.5 70.5t35 48.5t37 26.5t36.5 16.5q-93 55 -93 153q0 72 53 126.5t161 54.5q92 0 151 -49t59 -137q0 -35 -9.5 -62t-27.5 -44t-29 -24.5t-30 -16.5q124 -46 124 -164q0 -55 -22.5 -96.5t-59 -64t-76.5 -33t-82 -10.5q-112 0 -176 56.5t-64 148.5zM201 207 q0 -49 22.5 -73.5t54.5 -24.5q79 0 79 98q0 39 -19 68t-58 29q-32 0 -55.5 -25.5t-23.5 -71.5zM216 493q0 -39 17 -62.5t48 -23.5q32 0 47.5 22t15.5 55q0 40 -16.5 64t-45.5 24q-33 0 -49.5 -22.5t-16.5 -56.5z" />
<glyph unicode="9" horiz-adv-x="562" d="M32 451q0 111 67 174.5t176 63.5q108 0 175.5 -79t67.5 -255q0 -61 -6 -110.5t-23.5 -99t-46 -83t-76 -54.5t-111.5 -21q-60 0 -103 21t-64 54.5t-30 59t-12 50.5l160 17v-11q0 -32 17 -51t45 -19q30 0 50.5 20t30 57t13 66.5t4.5 70.5q-24 -44 -66.5 -61.5t-80.5 -17.5 q-71 0 -129 52t-58 156zM185 462q0 -104 81 -104q36 0 58 27t22 77q0 24 -4.5 45.5t-23 42.5t-50.5 21q-83 0 -83 -109z" />
<glyph unicode=":" horiz-adv-x="292" d="M86 0v170h160v-170h-160zM86 354v168h160v-168h-160z" />
<glyph unicode=";" horiz-adv-x="292" d="M86 0v171h160v-135q0 -89 -38.5 -139.5t-121.5 -67.5v70q25 8 38.5 24.5t16.5 31.5t6 45h-61zM86 354v170h160v-170h-160z" />
<glyph unicode="&#x3c;" horiz-adv-x="724" d="M112 258v151l465 222v-155l-314 -137l315 -144v-163z" />
<glyph unicode="=" horiz-adv-x="724" d="M100 136v131h525v-131h-525zM100 352v132h525v-132h-525z" />
<glyph unicode="&#x3e;" horiz-adv-x="724" d="M142 31v156l314 137l-314 144v163l465 -226v-152z" />
<glyph unicode="?" d="M61 534q56 186 274 186q127 0 188.5 -54.5t61.5 -132.5q0 -31 -8 -57t-24.5 -45.5t-25.5 -28.5t-26 -22q-16 -12 -54.5 -39t-59.5 -43q-20 -16 -26 -25.5t-10 -29.5h-127q2 40 9 63t33 49q17 17 85 64q66 47 66 97q0 17 -4.5 34.5t-27 36.5t-61.5 19q-57 0 -88.5 -35 t-31.5 -83zM210 0v170h158v-170h-158z" />
<glyph unicode="@" horiz-adv-x="851" d="M41 237q0 129 61 239t166.5 173.5t229.5 63.5q135 0 217.5 -80.5t82.5 -211.5q0 -139 -72 -246.5t-165 -107.5q-76 0 -92 68q-53 -68 -125 -68q-64 0 -101.5 45.5t-37.5 122.5q0 116 65 202t152 86q36 0 59 -13t46 -47l10 40h90l-33 -159q-28 -136 -28 -165q0 -28 21 -28 q18 0 43 27q38 41 61 106.5t23 133.5q0 99 -60 157t-163 58q-148 0 -258 -117.5t-110 -275.5q0 -130 82 -207.5t219 -77.5q178 0 327 146l46 -62q-68 -62 -121 -94q-117 -69 -252 -69q-166 0 -274.5 98.5t-108.5 262.5zM308 242q0 -40 17 -63t47 -23q46 0 84 60t38 130v4 q0 38 -18.5 61t-48.5 23q-46 0 -82.5 -58.5t-36.5 -133.5z" />
<glyph unicode="A" horiz-adv-x="708" d="M-1 0l262 706h184l260 -706h-188l-35 113h-260l-35 -113h-188zM263 240h179l-92 298z" />
<glyph unicode="B" horiz-adv-x="708" d="M68 0v706h329q131 0 190.5 -50.5t59.5 -134.5q0 -42 -17 -74t-43 -48.5t-48.5 -25t-42.5 -10.5q23 -2 45 -7.5t47 -17.5t43.5 -29.5t30.5 -46t12 -64.5q0 -94 -73.5 -146t-186.5 -52h-346zM236 128h123q28 0 46.5 2t42 9.5t35.5 25.5t12 47q0 24 -8 41.5t-18.5 26 t-27.5 13t-27.5 5.5t-25.5 1h-152v-171zM236 427h133q105 0 105 76q0 71 -93 71h-145v-147z" />
<glyph unicode="C" horiz-adv-x="702" d="M39 354q0 158 97 266t245 108q96 0 178 -51t120 -132l-140 -70q-12 42 -55 75t-95 33q-82 0 -128 -65t-46 -159q0 -111 49.5 -171.5t124.5 -60.5q32 0 58 9.5t45 29t28 32t22 34.5l139 -71q-46 -81 -123 -131.5t-181 -50.5q-145 0 -241.5 100.5t-96.5 274.5z" />
<glyph unicode="D" horiz-adv-x="729" d="M67 0v706h242q202 0 296 -88t94 -265q0 -68 -16.5 -126.5t-54.5 -112t-110 -84t-173 -30.5h-278zM245 142h57q117 0 168.5 47.5t51.5 165.5q0 44 -8.5 78.5t-28.5 63.5t-58.5 44.5t-94.5 15.5h-87v-415z" />
<glyph unicode="E" horiz-adv-x="646" d="M68 0v706h522v-137h-346v-128h323v-134h-323v-168h377v-139h-553z" />
<glyph unicode="F" horiz-adv-x="625" d="M67 0v706h542v-136h-366v-148h337v-137h-337v-285h-176z" />
<glyph unicode="G" horiz-adv-x="750" d="M40 353q0 52 12 103.5t39 101.5t66 88t99 61t132 23q53 0 102 -14.5t79 -31t61.5 -44.5t42 -40t26.5 -33l-134 -81q-21 42 -64.5 71t-100.5 29q-85 0 -134.5 -60.5t-49.5 -167.5q0 -38 7 -73t25 -73.5t57.5 -62t95.5 -23.5q58 0 104 31.5t50 100.5h-158v134h307v-392 h-138v65q-89 -81 -208 -81q-79 0 -141.5 32t-100 85.5t-57 118t-19.5 133.5z" />
<glyph unicode="H" horiz-adv-x="750" d="M68 0v706h178v-255h258v255h177v-706h-177v301h-258v-301h-178z" />
<glyph unicode="I" horiz-adv-x="313" d="M67 0v706h176v-706h-176z" />
<glyph unicode="J" horiz-adv-x="396" d="M16 0v143h35q62 0 82.5 12.5t20.5 50.5v500h177v-536q0 -96 -47.5 -133t-149.5 -37h-118z" />
<glyph unicode="K" horiz-adv-x="708" d="M68 0v706h168v-288l264 288h213l-250 -262l269 -444h-199l-188 320l-109 -113v-207h-168z" />
<glyph unicode="L" horiz-adv-x="542" d="M68 0v706h176v-557h276v-149h-452z" />
<glyph unicode="M" horiz-adv-x="917" d="M68 0v706h258l133 -494l131 494h258v-706h-170q0 390 4 528l-147 -528h-153l-146 528l4 -528h-172z" />
<glyph unicode="N" horiz-adv-x="729" d="M67 0v706h173l251 -430v430h169v-706h-173l-250 422v-422h-170z" />
<glyph unicode="O" horiz-adv-x="792" d="M42 356q0 50 11.5 100.5t38.5 100t66 87t99 61t134 23.5q92 0 163.5 -35t112.5 -92.5t61.5 -122t20.5 -130.5q0 -97 -40.5 -179.5t-123.5 -136t-192 -53.5q-112 0 -193.5 54.5t-119.5 138.5t-38 184zM216 358q0 -60 17 -110t59 -84.5t102 -34.5q62 0 104 36t58 83.5 t16 101.5q0 102 -45.5 166t-135.5 64q-48 0 -83.5 -21t-54.5 -55t-28 -70.5t-9 -75.5z" />
<glyph unicode="P" horiz-adv-x="688" d="M67 0v706h350q255 0 255 -241q0 -64 -26 -111.5t-69 -73t-90.5 -37.5t-99.5 -12h-143v-231h-177zM244 362h116q67 0 101.5 23.5t34.5 87.5q0 29 -10 49.5t-22.5 31t-34.5 15.5t-35.5 6t-36.5 1h-113v-214z" />
<glyph unicode="Q" horiz-adv-x="792" d="M42 356q0 155 96.5 263t255.5 108q150 0 253 -100t103 -269q0 -66 -19.5 -129t-50.5 -105q30 -30 61.5 -43t75.5 -20l-51 -125q-88 8 -194 93q-55 -27 -91.5 -38t-86.5 -11q-163 0 -257.5 106.5t-94.5 269.5zM218 356q0 -91 44.5 -159t135.5 -68q43 0 76 17.5t51.5 43 t30.5 58.5t15.5 58.5t3.5 48.5q0 101 -49.5 162t-130.5 61q-91 0 -134 -63.5t-43 -158.5z" />
<glyph unicode="R" horiz-adv-x="708" d="M67 0v706h334q37 0 69 -4t71 -18.5t66.5 -38.5t46 -67t18.5 -101q0 -83 -39 -127t-106 -68l163 -282h-194l-141 252h-110v-252h-178zM244 383h146q35 0 58.5 11.5t32.5 30t12 31t3 25.5q0 94 -105 94h-147v-192z" />
<glyph unicode="S" horiz-adv-x="688" d="M9 127l134 85q34 -42 90 -65.5t114 -23.5q47 0 88.5 21t41.5 61q0 34 -32.5 49.5t-90.5 22.5l-81 11q-101 14 -163 62.5t-62 136.5q0 106 75.5 171t209.5 65q101 0 174 -36.5t137 -97.5l-130 -93q-85 88 -185 88q-50 0 -77.5 -23.5t-27.5 -51.5t22 -43t68 -22l78 -11 q139 -20 199.5 -66.5t60.5 -136.5q0 -113 -85.5 -179.5t-235.5 -66.5q-115 0 -188.5 36.5t-133.5 106.5z" />
<glyph unicode="T" horiz-adv-x="562" d="M7 567v139h545v-139h-183v-567h-178v567h-184z" />
<glyph unicode="U" horiz-adv-x="729" d="M62 267v439h178v-459q0 -67 31.5 -92t95.5 -25q65 0 93 31.5t28 94.5v450h177v-427q0 -134 -81 -214.5t-223 -80.5q-132 0 -215.5 71.5t-83.5 211.5z" />
<glyph unicode="V" horiz-adv-x="667" d="M-1 706h188l146 -502l145 502h188l-245 -706h-180z" />
<glyph unicode="W" horiz-adv-x="979" d="M0 706h177l104 -486l128 486h157l132 -486l103 486h176l-179 -706h-182l-127 452l-128 -452h-182z" />
<glyph unicode="X" horiz-adv-x="771" d="M0 0l273 383l-235 323h209l136 -213l138 213h205l-233 -323l276 -383h-203l-181 267l-183 -267h-202z" />
<glyph unicode="Y" horiz-adv-x="708" d="M2 706h202l152 -239l151 239h201l-267 -372v-334h-174v329z" />
glyph unicode="Z" horiz-adv-x="625" d="M5 0v133l391 436h-358v137h570v-138l-385 -429h383v-139h-601z" />
<glyph unicode="[" horiz-adv-x="292" d="M51 -144v923h224v-84h-91v-755h91v-84h-224z" />
<glyph unicode="\" horiz-adv-x="479" d="M16 706h142l304 -706h-142z" />
<glyph unicode="]" horiz-adv-x="292" d="M17 -60h91v755h-91v84h224v-923h-224v84z" />
<glyph unicode="^" horiz-adv-x="724" d="M73 281l214 425h156l208 -425h-165l-118 281l-121 -281h-174z" />
<glyph unicode="_" horiz-adv-x="498" d="M-12 -121h520v-110h-520v110z" />
<glyph unicode="`" horiz-adv-x="271" d="M6 720h185l74 -133h-101z" />
<glyph unicode="a" horiz-adv-x="583" d="M44 145q0 48 30.5 88.5t79.5 61.5q38 16 206 48v29q0 63 -59 63q-70 0 -81 -61h-154q0 81 63 121.5t157 40.5q30 0 58 -3.5t59.5 -13.5t54.5 -26t38 -43.5t15 -63.5v-305q0 -59 15 -81h-151v47q-2 -2 -19.5 -13.5t-23 -14.5l-22 -12t-28 -12t-30 -6t-37.5 -3 q-83 0 -127 48t-44 111zM195 152q0 -18 15 -35.5t44 -17.5q45 0 75.5 36.5t30.5 91.5v23l-99 -33q-66 -21 -66 -65z" />
<glyph unicode="b" horiz-adv-x="625" d="M69 0v706h150v-232q18 19 29 29t44 22t76 12q97 0 160 -71t63 -195q0 -53 -12.5 -101.5t-38 -91t-71 -67.5t-106.5 -25q-52 0 -91.5 20.5t-60.5 48.5v-55h-142zM215 265q0 -165 115 -165q36 0 60.5 18.5t34.5 49t13 53t3 46.5q0 23 -3.5 45.5t-13 50.5t-32 45t-56.5 17 q-54 0 -87.5 -37.5t-33.5 -122.5z" />
<glyph unicode="c" horiz-adv-x="539" d="M33 257q0 75 24 131.5t63.5 87.5t83.5 46t91 15q144 0 223 -126l-114 -65q-35 73 -102 73q-38 0 -64.5 -27t-36.5 -61t-10 -69q0 -59 29 -108t87 -49q41 0 66 23.5t35 54.5l116 -60q-41 -72 -103.5 -106t-128.5 -34q-48 0 -92.5 16t-82.5 47t-61 86t-23 125z" />
<glyph unicode="d" d="M31 257q0 121 57.5 200t160.5 79q72 0 138 -53v223h149v-706h-140v49q-62 -63 -139 -63q-97 0 -161.5 72t-64.5 199zM187 258q0 -23 3.5 -45t12.5 -50t30.5 -45.5t52.5 -17.5q35 0 58 19.5t32 50.5t11.5 50.5t2.5 36.5q0 164 -96 164q-56 0 -81.5 -48.5t-25.5 -114.5z " />
<glyph unicode="e" horiz-adv-x="583" d="M32 251q0 53 14 101t43 91t83.5 69t127.5 26q70 0 123 -26.5t82 -71t43 -95.5t14 -109v-7h-373v-6q0 -53 33 -88.5t86 -35.5q50 0 84 27.5t48 65.5l116 -60q-44 -74 -111 -112.5t-149 -38.5q-120 0 -192 72t-72 198zM189 325h214q-2 45 -30 74t-74 29q-49 0 -76 -31.5 t-34 -71.5z" />
<glyph unicode="f" horiz-adv-x="354" d="M10 416v94h82v75q0 65 43 98.5t114 33.5q38 0 92 -9v-116h-28q-45 0 -57 -10t-12 -41v-31h103v-94h-102v-416h-153v416h-82z" />
<glyph unicode="g" d="M31 276q0 116 60.5 185.5t155.5 69.5q86 0 145 -57v48h145v-509q0 -200 -259 -200q-109 0 -174 44t-65 127v16h159q0 -34 20.5 -59.5t74.5 -25.5q91 0 91 83v71q-24 -16 -37 -23t-40 -14.5t-60 -7.5q-28 0 -55.5 6.5t-57 24t-52 44.5t-37 73t-14.5 104zM190 282 q0 -66 20.5 -103.5t77.5 -37.5q32 0 53 13t29.5 36.5t11 42t2.5 44.5q0 23 -1.5 40t-7.5 37t-16.5 32.5t-29.5 21t-45 8.5q-31 0 -52 -15.5t-29 -40.5t-10.5 -42.5t-2.5 -35.5z" />
<glyph unicode="h" d="M68 0v706h154v-240q63 70 149 70q80 0 123 -47.5t43 -131.5v-357h-153v282q0 26 -2 43t-9 38t-24 31.5t-44 10.5q-46 0 -64.5 -32.5t-18.5 -97.5v-275h-154z" />
<glyph unicode="i" horiz-adv-x="292" d="M69 0v522h153v-522h-153zM69 587v119h153v-119h-153z" />
<glyph unicode="j" horiz-adv-x="292" d="M0 -54q1 0 8.5 -0.5t10.5 -0.5q14 0 24 4t15 9t7.5 16t3 19.5t0.5 25.5v503h152v-518q0 -103 -33.5 -142.5t-117.5 -39.5q-45 0 -70 2v122zM69 588v118h152v-118h-152z" />
<glyph unicode="k" horiz-adv-x="583" d="M67 0v706h151v-363l169 179h185l-180 -186l203 -336h-178l-134 225l-66 -63v-162h-150z" />
<glyph unicode="l" horiz-adv-x="292" d="M69 0v706h153v-706h-153z" />
<glyph unicode="m" horiz-adv-x="896" d="M67 0v522h153v-54q55 68 147 68q95 0 146 -61q74 61 155 61q74 0 117 -39t43 -114v-383h-153v301q0 55 -16 82.5t-56 27.5q-79 0 -79 -98v-313h-153v312q0 53 -18.5 75.5t-56.5 22.5q-77 0 -77 -108v-302h-152z" />
<glyph unicode="n" d="M70 0v522h156v-46q49 59 147 59q162 0 162 -160v-375h-154v322q0 90 -76 90q-49 0 -65 -30t-16 -90v-292h-154z" />
<glyph unicode="o" horiz-adv-x="625" d="M32 264q0 52 16 99t48 87t86.5 64t124.5 24q63 0 113.5 -17t82 -44.5t52.5 -64.5t29.5 -74t8.5 -77q0 -127 -75 -202t-206 -75q-54 0 -101.5 15.5t-89 47t-65.5 87.5t-24 130zM187 263q0 -70 31.5 -113t95.5 -43q60 0 91.5 43t31.5 106q0 160 -131 160q-49 0 -84 -38.5 t-35 -114.5z" />
<glyph unicode="p" d="M64 -181v703h138v-51q8 12 22 24.5t48 25.5t76 13q108 0 167.5 -78.5t59.5 -193.5q0 -126 -61.5 -199t-165.5 -73q-38 0 -63.5 10t-64.5 34v-215h-156zM213 254q0 -68 27.5 -110.5t78.5 -42.5q55 0 81.5 50t26.5 119q0 18 -3.5 39.5t-13 50t-32.5 47t-55 18.5 q-47 0 -78.5 -43t-31.5 -128z" />
<glyph unicode="q" d="M31 255q0 52 13.5 101t40 90t71 65.5t101.5 24.5q43 0 73 -13.5t66 -45.5v45h140v-702h-154v217q-23 -16 -37 -24.5t-40.5 -16t-57.5 -7.5q-90 0 -153 68.5t-63 197.5zM183 263q0 -71 31 -115.5t74 -44.5q45 0 75 42.5t30 120.5q0 75 -29 117.5t-73 42.5 q-55 0 -81.5 -49.5t-26.5 -113.5z" />
<glyph unicode="r" horiz-adv-x="375" d="M67 0v522h149v-54q32 27 61 39q46 19 90 21v-136l-51 -8q-59 -9 -77.5 -27.5t-18.5 -62.5v-294h-153z" />
<glyph unicode="s" horiz-adv-x="521" d="M-2 88l97 88q30 -32 71 -52t81 -20t66.5 13.5t26.5 37.5q0 20 -18.5 29.5t-64.5 16.5l-47 8q-175 30 -175 155q0 72 58.5 123.5t162.5 51.5q130 0 232 -78l-95 -88q-63 52 -133 52q-29 0 -50.5 -10t-21.5 -30q0 -18 18 -26.5t67 -18.5l37 -7q188 -35 188 -164 q0 -61 -40 -104t-94 -60.5t-113 -17.5q-87 0 -151.5 31t-101.5 70z" />
<glyph unicode="t" horiz-adv-x="354" d="M11 416v94h76v163h152v-164h102v-94h-102v-250q0 -25 10 -34t30 -9l54 1v-119q-40 -8 -97 -8q-71 0 -110 31.5t-39 116.5v272h-76z" />
<glyph unicode="u" d="M64 172v350h155v-335q0 -77 74 -77q44 0 66 24t22 62v326h153v-522h-154v49q-15 -22 -55 -43t-97 -21q-86 0 -125 45t-39 142z" />
<glyph unicode="v" horiz-adv-x="500" d="M-1 522h163l93 -354l86 354h158l-169 -522h-161z" />
<glyph unicode="w" horiz-adv-x="792" d="M0 522h162l73 -365l79 365h164l72 -368l81 368h159l-156 -522h-167l-77 348l-78 -348h-169z" />
<glyph unicode="x" horiz-adv-x="521" d="M0 0l177 283l-158 239h174l69 -133l74 133h165l-158 -244l177 -278h-164l-99 162l-87 -162h-170z" />
<glyph unicode="y" horiz-adv-x="500" d="M0 522h164l86 -374l86 374h164l-184 -564q-22 -66 -51 -98q-23 -24 -47 -32t-62 -8h-111v123h66q52 0 52 38q0 16 -11 50z" />
<glyph unicode="z" horiz-adv-x="542" d="M34 0v115l282 289h-252v118h447v-118l-278 -285h278v-119h-477z" />
<glyph unicode="{" horiz-adv-x="317" d="M11 274v87q52 4 69 24t17 82v154q0 94 28.5 127.5t114.5 33.5h64v-84h-16q-35 0 -46 -22.5t-11 -83.5v-141q0 -62 -17 -89t-66 -46q47 -14 65 -42.5t18 -91.5v-138q0 -30 1.5 -45.5t7 -32.5t18.5 -24t35 -7h12v-83h-63q-89 0 -117 33t-28 128v155q0 64 -16 82.5t-70 23.5 z" />
<glyph unicode="|" horiz-adv-x="256" d="M61 -143v922h133v-922h-133z" />
<glyph unicode="}" horiz-adv-x="317" d="M12 -65h16q35 0 46 21.5t11 84.5v141q0 62 17 89t66 46q-46 14 -64.5 43t-18.5 91v143q0 23 -0.5 34.5t-3.5 27.5t-9 23.5t-18 13t-30 5.5h-12v84h64q88 0 116 -34t28 -128v-155q0 -64 15.5 -82.5t70.5 -23.5v-86q-52 -5 -69 -24t-17 -82v-155q0 -93 -28 -127t-115 -34 h-65v84z" />
<glyph unicode="~" horiz-adv-x="724" d="M70 345q40 55 75.5 77.5t83.5 22.5q41 0 121 -36l57 -26q55 -25 79 -25q31 0 56.5 16.5t65.5 61.5l46 -130q-80 -99 -165 -99q-42 0 -121 38l-35 17q-63 30 -104 30q-28 0 -50 -13.5t-53 -53.5l-9 -12z" />
<glyph unicode="&#xa1;" horiz-adv-x="292" d="M41 0v205l47 260h67l45 -253v-212h-159zM41 538v168h159v-168h-159z" />
<glyph unicode="&#xa2;" horiz-adv-x="542" d="M32 254q0 68 22 123.5t57.5 88t75.5 50t80 17.5v112h77v-113q69 -11 109.5 -43t72.5 -78l-114 -66q-19 34 -33 47t-35 19v-302q23 6 39 21.5t33 51.5l114 -59q-15 -24 -25 -37.5t-33 -37t-55.5 -39t-73.5 -22.5v-119h-76v117q-62 7 -108.5 32t-69.5 54.5t-37 68.5t-17 64 t-3 50zM191 260q0 -108 76 -147v298q-34 -14 -55 -55t-21 -96z" />
<glyph unicode="&#xa3;" horiz-adv-x="688" d="M16 107q0 20 8 40t25.5 40.5t52 33t80.5 12.5q24 0 63 -5q-20 40 -42 71h-145v98h77q-11 13 -23.5 45t-12.5 69q0 19 4 38t21 47.5t45 49t83.5 35.5t130.5 15q132 0 192 -62q52 -53 52 -167l-153 -11q0 39 -9 64.5t-26.5 36t-31.5 13.5t-34 3q-106 0 -106 -81 q0 -9 2 -18.5t4 -15.5t8.5 -17t8.5 -14t11 -15.5t10 -14.5h156v-98h-90q26 -55 26 -96q0 -12 -4 -43q6 -3 19.5 -14t24.5 -16.5t22 -5.5q23 0 36 21.5t14 91.5l145 -11q-1 -33 -3.5 -57.5t-11.5 -60t-23 -58t-41.5 -39.5t-64.5 -17q-29 0 -61.5 12.5t-50.5 23.5t-54 36 q-26 -39 -75 -60t-101 -21q-37 0 -71.5 11t-60.5 40t-26 71zM125 111q0 -18 14.5 -28.5t32.5 -10.5q29 0 52.5 22.5t23.5 39.5q-45 18 -67 18q-27 0 -41.5 -13t-14.5 -28z" />
<glyph unicode="&#xa5;" horiz-adv-x="708" d="M2 692h202l152 -236l151 236h201l-173 -236h85v-108h-164l-15 -21v-48h179v-108h-179v-171h-174v171h-180v108h180v43l-19 26h-161v108h84z" />
<glyph unicode="&#xa8;" horiz-adv-x="271" d="M-69 596v124h157v-124h-157zM182 596v124h158v-124h-158z" />
<glyph unicode="&#xa9;" horiz-adv-x="823" d="M56 354q0 148 104 252t252 104q146 0 251 -102.5t105 -246.5q0 -155 -102 -259t-255 -104q-148 0 -251.5 104t-103.5 252zM105 353q0 -130 89 -221.5t217 -91.5q126 0 217 91t91 216q0 136 -88 228.5t-219 92.5q-127 0 -217 -92t-90 -223zM200 356q0 102 61 167.5 t156 65.5q53 0 91.5 -18.5t77.5 -61.5l-69 -80q-27 31 -48 42t-52 11q-46 0 -74 -34.5t-28 -91.5q0 -56 28 -90t74 -34q28 0 48.5 11t48.5 40l72 -83q-72 -80 -169 -80q-96 0 -156.5 66t-60.5 170z" />
<glyph unicode="&#xab;" horiz-adv-x="417" d="M32 231v124l160 134v-138l-65 -57l65 -57v-137zM220 230v125l158 134v-138l-68 -57l68 -57v-137z" />
<glyph unicode="&#xae;" horiz-adv-x="823" d="M56 354q0 148 104 252t252 104q146 0 251 -102.5t105 -246.5q0 -155 -102 -259t-255 -104q-148 0 -251.5 104t-103.5 252zM105 353q0 -130 89 -221.5t217 -91.5q126 0 217 91t91 216q0 136 -88 228.5t-219 92.5q-127 0 -217 -92t-90 -223zM260 134v446h133q101 0 140 -25 q59 -37 59 -119q0 -44 -18 -73t-59 -50l82 -179h-118l-60 161h-52v-161h-107zM366 381h56q32 0 45 12.5t13 42.5q0 53 -59 53h-55v-108z" />
<glyph unicode="&#xb4;" horiz-adv-x="271" d="M8 586l73 133h182l-153 -133h-102z" />
<glyph unicode="&#xb8;" horiz-adv-x="271" d="M38 -145l28 23q25 -32 54 -32q14 0 24.5 8.5t10.5 22.5q0 20 -17 30t-38 10q-14 0 -28 -3l-12 18l32 59h47l-21 -44q4 0 12 1t14.5 1.5t12.5 0.5q40 0 58 -20t18 -45q0 -36 -30 -59t-66 -23q-54 0 -99 52z" />
<glyph unicode="&#xbb;" horiz-adv-x="417" d="M36 96v138l68 58l-68 57v136l159 -129v-125zM223 96v138l64 58l-64 57v136l159 -131v-123z" />
<glyph unicode="&#xbf;" d="M19 176q0 31 8 57t24.5 45.5t25.5 28.5t26 22q16 12 54.5 39t59.5 43q20 16 26 25.5t10 29.5h127q-2 -40 -9 -63t-33 -49q-17 -17 -85 -64q-66 -47 -66 -97q0 -17 4.5 -34.5t27 -36.5t61.5 -19q57 0 88.5 35t31.5 83l143 -46q-56 -186 -274 -186q-127 0 -188.5 54.5 t-61.5 132.5zM236 539v167h158v-167h-158z" />
<glyph unicode="&#xc0;" horiz-adv-x="708" d="M-1 0l262 706h184l260 -706h-188l-35 113h-260l-35 -113h-188zM168 898h183l64 -116h-101zM263 240h179l-92 298z" />
<glyph unicode="&#xc1;" horiz-adv-x="708" d="M-1 0l262 706h184l260 -706h-188l-35 113h-260l-35 -113h-188zM263 240h179l-92 298zM285 782l61 115h180l-145 -115h-96z" />
<glyph unicode="&#xc2;" horiz-adv-x="708" d="M-1 0l262 706h184l260 -706h-188l-35 113h-260l-35 -113h-188zM199 779l89 115h133l88 -115h-116l-40 51l-38 -51h-116zM263 240h179l-92 298z" />
<glyph unicode="&#xc3;" horiz-adv-x="708" d="M-1 0l262 706h184l260 -706h-188l-35 113h-260l-35 -113h-188zM183 770q2 50 28.5 92.5t76.5 42.5q30 0 77.5 -22.5t63.5 -22.5q14 0 23.5 9.5t12.5 18t4 14.5h69q-2 -58 -28 -97.5t-69 -39.5q-31 0 -83.5 25t-69.5 25q-32 0 -37 -45h-68zM263 240h179l-92 298z" />
<glyph unicode="&#xc4;" horiz-adv-x="708" d="M-1 0l262 706h184l260 -706h-188l-35 113h-260l-35 -113h-188zM159 780v117h160v-117h-160zM263 240h179l-92 298zM381 780v116h161v-116h-161z" />
<glyph unicode="&#xc5;" horiz-adv-x="708" d="M-1 0l262 706h184l260 -706h-188l-35 113h-260l-35 -113h-188zM251 829q0 41 28.5 69.5t69.5 28.5t69.5 -28.5t28.5 -69.5t-28.5 -69.5t-69.5 -28.5t-69.5 28.5t-28.5 69.5zM263 240h179l-92 298zM309 829q0 -17 11.5 -28.5t28.5 -11.5t28.5 11.5t11.5 28.5t-11.5 28.5 t-28.5 11.5t-28.5 -11.5t-11.5 -28.5z" />
<glyph unicode="&#xc6;" horiz-adv-x="1125" d="M-5 0l417 706h660v-134h-361v-131h337v-135h-336v-168h394v-138h-571v171h-247l-95 -171h-198zM359 301h176v316z" />
<glyph unicode="&#xc7;" horiz-adv-x="702" d="M39 354q0 158 97 266t245 108q96 0 178 -51t120 -132l-140 -70q-12 42 -55 75t-95 33q-82 0 -128 -65t-46 -159q0 -111 49.5 -171.5t124.5 -60.5q32 0 58 9.5t45 29t28 32t22 34.5l139 -71q-46 -80 -124 -131t-180 -51h-7l-15 -32l39 3q40 0 58 -20t18 -45q0 -36 -30 -59 t-66 -23q-52 0 -99 52l28 23q26 -32 54 -32q14 0 24.5 8.5t10.5 22.5q0 20 -17 30t-38 10q-1 0 -28 -3l-12 18l27 51q-127 19 -206 116.5t-79 254.5z" />
<glyph unicode="&#xc8;" horiz-adv-x="646" d="M68 0v706h522v-137h-346v-128h323v-134h-323v-168h377v-139h-553zM164 898h183l64 -116h-101z" />
<glyph unicode="&#xc9;" horiz-adv-x="646" d="M68 0v706h522v-137h-346v-128h323v-134h-323v-168h377v-139h-553zM252 782l61 115h180l-145 -115h-96z" />
<glyph unicode="&#xca;" horiz-adv-x="646" d="M68 0v706h522v-137h-346v-128h323v-134h-323v-168h377v-139h-553zM168 779l89 115h133l88 -115h-116l-40 51l-38 -51h-116z" />
<glyph unicode="&#xcb;" horiz-adv-x="646" d="M68 0v706h522v-137h-346v-128h323v-134h-323v-168h377v-139h-553zM131 780v117h160v-117h-160zM353 780v116h161v-116h-161z" />
<glyph unicode="&#xcc;" horiz-adv-x="313" d="M-14 898h183l64 -116h-101zM67 0v706h176v-706h-176z" />
<glyph unicode="&#xcd;" horiz-adv-x="313" d="M67 0v706h176v-706h-176zM82 782l61 115h180l-145 -115h-96z" />
<glyph unicode="&#xce;" horiz-adv-x="313" d="M1 779l89 115h133l88 -115h-116l-40 51l-38 -51h-116zM67 0v706h176v-706h-176z" />
<glyph unicode="&#xcf;" horiz-adv-x="313" d="M-36 780v117h160v-117h-160zM67 0v706h176v-706h-176zM186 780v116h161v-116h-161z" />
<glyph unicode="&#xd0;" horiz-adv-x="729" d="M0 341v79h67v286h239q203 0 298 -88t95 -265q0 -54 -9.5 -101.5t-34.5 -95t-64 -81t-102 -54.5t-145 -21h-277v341h-67zM245 142h53q117 0 171 48t54 165q0 93 -42.5 147.5t-148.5 54.5h-87v-137h174v-79h-174v-199z" />
<glyph unicode="&#xd1;" horiz-adv-x="729" d="M67 0v706h173l251 -430v430h169v-706h-173l-250 422v-422h-170zM194 770q2 50 28.5 92.5t76.5 42.5q30 0 77.5 -22.5t63.5 -22.5q14 0 23.5 9.5t12.5 18t4 14.5h69q-2 -58 -28 -97.5t-69 -39.5q-31 0 -83.5 25t-69.5 25q-32 0 -37 -45h-68z" />
<glyph unicode="&#xd2;" horiz-adv-x="792" d="M42 356q0 50 11.5 100.5t38.5 100t66 87t99 61t134 23.5q92 0 163.5 -35t112.5 -92.5t61.5 -122t20.5 -130.5q0 -97 -40.5 -179.5t-123.5 -136t-192 -53.5q-112 0 -193.5 54.5t-119.5 138.5t-38 184zM215 898h183l64 -116h-101zM216 358q0 -60 17 -110t59 -84.5 t102 -34.5q62 0 104 36t58 83.5t16 101.5q0 102 -45.5 166t-135.5 64q-48 0 -83.5 -21t-54.5 -55t-28 -70.5t-9 -75.5z" />
<glyph unicode="&#xd3;" horiz-adv-x="792" d="M42 356q0 50 11.5 100.5t38.5 100t66 87t99 61t134 23.5q92 0 163.5 -35t112.5 -92.5t61.5 -122t20.5 -130.5q0 -97 -40.5 -179.5t-123.5 -136t-192 -53.5q-112 0 -193.5 54.5t-119.5 138.5t-38 184zM216 358q0 -60 17 -110t59 -84.5t102 -34.5q62 0 104 36t58 83.5 t16 101.5q0 102 -45.5 166t-135.5 64q-48 0 -83.5 -21t-54.5 -55t-28 -70.5t-9 -75.5zM330 782l61 115h180l-145 -115h-96z" />
<glyph unicode="&#xd4;" horiz-adv-x="792" d="M42 356q0 50 11.5 100.5t38.5 100t66 87t99 61t134 23.5q92 0 163.5 -35t112.5 -92.5t61.5 -122t20.5 -130.5q0 -97 -40.5 -179.5t-123.5 -136t-192 -53.5q-112 0 -193.5 54.5t-119.5 138.5t-38 184zM216 358q0 -60 17 -110t59 -84.5t102 -34.5q62 0 104 36t58 83.5 t16 101.5q0 102 -45.5 166t-135.5 64q-48 0 -83.5 -21t-54.5 -55t-28 -70.5t-9 -75.5zM241 779l89 115h133l88 -115h-116l-40 51l-38 -51h-116z" />
<glyph unicode="&#xd5;" horiz-adv-x="792" d="M42 356q0 50 11.5 100.5t38.5 100t66 87t99 61t134 23.5q92 0 163.5 -35t112.5 -92.5t61.5 -122t20.5 -130.5q0 -97 -40.5 -179.5t-123.5 -136t-192 -53.5q-112 0 -193.5 54.5t-119.5 138.5t-38 184zM215 770q2 50 28.5 92.5t76.5 42.5q30 0 77.5 -22.5t63.5 -22.5 q14 0 23.5 9.5t12.5 18t4 14.5h69q-2 -58 -28 -97.5t-69 -39.5q-31 0 -83.5 25t-69.5 25q-32 0 -37 -45h-68zM216 358q0 -60 17 -110t59 -84.5t102 -34.5q62 0 104 36t58 83.5t16 101.5q0 102 -45.5 166t-135.5 64q-48 0 -83.5 -21t-54.5 -55t-28 -70.5t-9 -75.5z" />
<glyph unicode="&#xd6;" horiz-adv-x="792" d="M42 356q0 50 11.5 100.5t38.5 100t66 87t99 61t134 23.5q92 0 163.5 -35t112.5 -92.5t61.5 -122t20.5 -130.5q0 -97 -40.5 -179.5t-123.5 -136t-192 -53.5q-112 0 -193.5 54.5t-119.5 138.5t-38 184zM205 780v117h160v-117h-160zM216 358q0 -60 17 -110t59 -84.5 t102 -34.5q62 0 104 36t58 83.5t16 101.5q0 102 -45.5 166t-135.5 64q-48 0 -83.5 -21t-54.5 -55t-28 -70.5t-9 -75.5zM427 780v116h161v-116h-161z" />
<glyph unicode="&#xd8;" horiz-adv-x="771" d="M-3 54l97 88q-1 1 -9 15t-12 22.5t-12 28.5t-12 39t-7.5 47.5t-3.5 60.5q0 70 22 135.5t64.5 119t111.5 85.5t155 32q78 0 129 -24.5t109 -75.5l89 81l54 -59l-94 -86q53 -89 53 -207q0 -166 -96 -271t-252 -105q-133 0 -239 99l-93 -85zM209 362q0 -51 11 -105l293 267 q-57 62 -124 62q-71 0 -118 -48q-62 -63 -62 -176zM260 183q19 -28 58.5 -43.5t75.5 -15.5q73 0 122 63.5t49 159.5q0 52 -15 100z" />
<glyph unicode="&#xd9;" horiz-adv-x="729" d="M62 267v439h178v-459q0 -67 31.5 -92t95.5 -25q65 0 93 31.5t28 94.5v450h177v-427q0 -134 -81 -214.5t-223 -80.5q-132 0 -215.5 71.5t-83.5 211.5zM191 898h183l64 -116h-101z" />
<glyph unicode="&#xda;" horiz-adv-x="729" d="M62 267v439h178v-459q0 -67 31.5 -92t95.5 -25q65 0 93 31.5t28 94.5v450h177v-427q0 -134 -81 -214.5t-223 -80.5q-132 0 -215.5 71.5t-83.5 211.5zM295 782l61 115h180l-145 -115h-96z" />
<glyph unicode="&#xdb;" horiz-adv-x="729" d="M62 267v439h178v-459q0 -67 31.5 -92t95.5 -25q65 0 93 31.5t28 94.5v450h177v-427q0 -134 -81 -214.5t-223 -80.5q-132 0 -215.5 71.5t-83.5 211.5zM210 779l89 115h133l88 -115h-116l-40 51l-38 -51h-116z" />
<glyph unicode="&#xdc;" horiz-adv-x="729" d="M62 267v439h178v-459q0 -67 31.5 -92t95.5 -25q65 0 93 31.5t28 94.5v450h177v-427q0 -134 -81 -214.5t-223 -80.5q-132 0 -215.5 71.5t-83.5 211.5zM172 780v117h160v-117h-160zM394 780v116h161v-116h-161z" />
<glyph unicode="&#xdd;" horiz-adv-x="708" d="M2 706h202l152 -239l151 239h201l-267 -372v-334h-174v329zM294 782l61 115h180l-145 -115h-96z" />
<glyph unicode="&#xdf;" d="M67 0v469q0 252 233 252q98 0 162.5 -45.5t64.5 -138.5q0 -58 -28.5 -87t-61.5 -35q21 -2 37.5 -7t42 -22t40.5 -57.5t15 -100.5q0 -109 -49.5 -174t-140.5 -65q-43 0 -97 17v114q30 -15 51 -15q29 0 48.5 14.5t26.5 37.5t9 37t2 27q0 143 -109 143h-40v92h26 q42 0 64 17.5t22 62.5q0 36 -20 59t-60 23q-85 0 -85 -115v-503h-153z" />
<glyph unicode="&#xe0;" horiz-adv-x="583" d="M44 145q0 48 30.5 88.5t79.5 61.5q38 16 206 48v29q0 63 -59 63q-70 0 -81 -61h-154q0 81 63 121.5t157 40.5q30 0 58 -3.5t59.5 -13.5t54.5 -26t38 -43.5t15 -63.5v-305q0 -59 15 -81h-151v47q-2 -2 -19.5 -13.5t-23 -14.5l-22 -12t-28 -12t-30 -6t-37.5 -3 q-83 0 -127 48t-44 111zM118 720h185l74 -133h-101zM195 152q0 -18 15 -35.5t44 -17.5q45 0 75.5 36.5t30.5 91.5v23l-99 -33q-66 -21 -66 -65z" />
<glyph unicode="&#xe1;" horiz-adv-x="583" d="M44 145q0 48 30.5 88.5t79.5 61.5q38 16 206 48v29q0 63 -59 63q-70 0 -81 -61h-154q0 81 63 121.5t157 40.5q30 0 58 -3.5t59.5 -13.5t54.5 -26t38 -43.5t15 -63.5v-305q0 -59 15 -81h-151v47q-2 -2 -19.5 -13.5t-23 -14.5l-22 -12t-28 -12t-30 -6t-37.5 -3 q-83 0 -127 48t-44 111zM195 152q0 -18 15 -35.5t44 -17.5q45 0 75.5 36.5t30.5 91.5v23l-99 -33q-66 -21 -66 -65zM210 586l73 133h182l-153 -133h-102z" />
<glyph unicode="&#xe2;" horiz-adv-x="583" d="M44 145q0 48 30.5 88.5t79.5 61.5q38 16 206 48v29q0 63 -59 63q-70 0 -81 -61h-154q0 81 63 121.5t157 40.5q30 0 58 -3.5t59.5 -13.5t54.5 -26t38 -43.5t15 -63.5v-305q0 -59 15 -81h-151v47q-2 -2 -19.5 -13.5t-23 -14.5l-22 -12t-28 -12t-30 -6t-37.5 -3 q-83 0 -127 48t-44 111zM129 588l101 132h127l103 -131h-118l-49 62l-46 -63h-118zM195 152q0 -18 15 -35.5t44 -17.5q45 0 75.5 36.5t30.5 91.5v23l-99 -33q-66 -21 -66 -65z" />
<glyph unicode="&#xe3;" horiz-adv-x="583" d="M44 145q0 48 30.5 88.5t79.5 61.5q38 16 206 48v29q0 63 -59 63q-70 0 -81 -61h-154q0 81 63 121.5t157 40.5q30 0 58 -3.5t59.5 -13.5t54.5 -26t38 -43.5t15 -63.5v-305q0 -59 15 -81h-151v47q-2 -2 -19.5 -13.5t-23 -14.5l-22 -12t-28 -12t-30 -6t-37.5 -3 q-83 0 -127 48t-44 111zM112 582q7 75 31 108.5t69 33.5q32 0 78.5 -22.5t66.5 -22.5q35 0 40 41h69q-3 -28 -7 -47.5t-13.5 -42.5t-27.5 -35.5t-44 -12.5q-33 0 -83 23t-70 23q-33 0 -37 -46h-72zM195 152q0 -18 15 -35.5t44 -17.5q45 0 75.5 36.5t30.5 91.5v23l-99 -33 q-66 -21 -66 -65z" />
<glyph unicode="&#xe4;" horiz-adv-x="583" d="M44 145q0 48 30.5 88.5t79.5 61.5q38 16 206 48v29q0 63 -59 63q-70 0 -81 -61h-154q0 81 63 121.5t157 40.5q30 0 58 -3.5t59.5 -13.5t54.5 -26t38 -43.5t15 -63.5v-305q0 -59 15 -81h-151v47q-2 -2 -19.5 -13.5t-23 -14.5l-22 -12t-28 -12t-30 -6t-37.5 -3 q-83 0 -127 48t-44 111zM102 596v124h157v-124h-157zM195 152q0 -18 15 -35.5t44 -17.5q45 0 75.5 36.5t30.5 91.5v23l-99 -33q-66 -21 -66 -65zM353 596v124h158v-124h-158z" />
<glyph unicode="&#xe5;" horiz-adv-x="583" d="M44 145q0 48 30.5 88.5t79.5 61.5q38 16 206 48v29q0 63 -59 63q-70 0 -81 -61h-154q0 81 63 121.5t157 40.5q30 0 58 -3.5t59.5 -13.5t54.5 -26t38 -43.5t15 -63.5v-305q0 -59 15 -81h-151v47q-2 -2 -19.5 -13.5t-23 -14.5l-22 -12t-28 -12t-30 -6t-37.5 -3 q-83 0 -127 48t-44 111zM190 655q0 41 29 69.5t69 28.5t69 -28.5t29 -69.5t-29 -69.5t-69 -28.5t-69 28.5t-29 69.5zM195 152q0 -18 15 -35.5t44 -17.5q45 0 75.5 36.5t30.5 91.5v23l-99 -33q-66 -21 -66 -65zM248 655q0 -17 12 -28.5t28 -11.5t28 11.5t12 28.5t-12 28.5 t-28 11.5t-28 -11.5t-12 -28.5z" />
<glyph unicode="&#xe6;" horiz-adv-x="875" d="M25 156q0 72 45 113.5t140 58.5q9 2 61.5 9.5t79.5 13.5q0 42 -15.5 61.5t-60.5 19.5q-72 0 -72 -57h-157q11 164 203 164q57 0 99 -13t88 -43q29 21 45.5 30.5t47 17.5t69.5 8q84 0 143 -42t85.5 -108.5t26.5 -151.5h-349q0 -51 34 -89.5t83 -38.5q16 0 30 4t24.5 11 t19 14t16 17t11.5 16t8 14.5t5 9.5l119 -60q-33 -66 -100 -106.5t-142 -40.5q-55 0 -105.5 21.5t-82.5 57.5q-37 -37 -93 -58.5t-112 -21.5q-46 0 -87.5 15t-74 55t-32.5 99zM177 161q0 -58 67 -58q53 0 79.5 40t26.5 95v21q-12 -6 -61.5 -16.5t-80.5 -29t-31 -52.5z M505 332h188q-1 11 -4.5 23.5t-12.5 31t-28.5 30.5t-46.5 12q-81 0 -96 -97z" />
<glyph unicode="&#xe7;" horiz-adv-x="539" d="M33 257q0 75 24 131.5t63.5 87.5t83.5 46t91 15q144 0 223 -126l-114 -65q-35 73 -102 73q-38 0 -64.5 -27t-36.5 -61t-10 -69q0 -59 29 -108t87 -49q41 0 66 23.5t35 54.5l116 -60q-41 -72 -103 -105.5t-128 -33.5h-14l-18 -37l39 3q40 0 58 -20t18 -45q0 -36 -30 -59 t-66 -23q-52 0 -99 52l28 23q26 -32 54 -32q14 0 24.5 8.5t10.5 22.5q0 20 -17 30t-38 10q-1 0 -28 -3l-12 18l32 58q-87 18 -144.5 84.5t-57.5 182.5z" />
<glyph unicode="&#xe8;" horiz-adv-x="583" d="M32 251q0 53 14 101t43 91t83.5 69t127.5 26q70 0 123 -26.5t82 -71t43 -95.5t14 -109v-7h-373v-6q0 -53 33 -88.5t86 -35.5q50 0 84 27.5t48 65.5l116 -60q-44 -74 -111 -112.5t-149 -38.5q-120 0 -192 72t-72 198zM115 720h185l74 -133h-101zM189 325h214q-2 45 -30 74 t-74 29q-49 0 -76 -31.5t-34 -71.5z" />
<glyph unicode="&#xe9;" horiz-adv-x="583" d="M32 251q0 53 14 101t43 91t83.5 69t127.5 26q70 0 123 -26.5t82 -71t43 -95.5t14 -109v-7h-373v-6q0 -53 33 -88.5t86 -35.5q50 0 84 27.5t48 65.5l116 -60q-44 -74 -111 -112.5t-149 -38.5q-120 0 -192 72t-72 198zM189 325h214q-2 45 -30 74t-74 29q-49 0 -76 -31.5 t-34 -71.5zM218 586l73 133h182l-153 -133h-102z" />
<glyph unicode="&#xea;" horiz-adv-x="583" d="M32 251q0 53 14 101t43 91t83.5 69t127.5 26q70 0 123 -26.5t82 -71t43 -95.5t14 -109v-7h-373v-6q0 -53 33 -88.5t86 -35.5q50 0 84 27.5t48 65.5l116 -60q-44 -74 -111 -112.5t-149 -38.5q-120 0 -192 72t-72 198zM129 588l101 132h127l103 -131h-118l-49 62l-46 -63 h-118zM189 325h214q-2 45 -30 74t-74 29q-49 0 -76 -31.5t-34 -71.5z" />
<glyph unicode="&#xeb;" horiz-adv-x="583" d="M32 251q0 53 14 101t43 91t83.5 69t127.5 26q70 0 123 -26.5t82 -71t43 -95.5t14 -109v-7h-373v-6q0 -53 33 -88.5t86 -35.5q50 0 84 27.5t48 65.5l116 -60q-44 -74 -111 -112.5t-149 -38.5q-120 0 -192 72t-72 198zM88 596v124h157v-124h-157zM189 325h214q-2 45 -30 74 t-74 29q-49 0 -76 -31.5t-34 -71.5zM339 596v124h158v-124h-158z" />
<glyph unicode="&#xec;" horiz-adv-x="292" d="M-41 720h185l74 -133h-101zM69 0v522h152v-522h-152z" />
<glyph unicode="&#xed;" horiz-adv-x="292" d="M69 0v522h152v-522h-152zM73 586l73 133h182l-153 -133h-102z" />
<glyph unicode="&#xee;" horiz-adv-x="292" d="M-16 588l101 132h127l103 -131h-118l-49 62l-46 -63h-118zM69 0v522h152v-522h-152z" />
<glyph unicode="&#xef;" horiz-adv-x="292" d="M-57 596v124h157v-124h-157zM69 0v522h152v-522h-152zM194 596v124h158v-124h-158z" />
<glyph unicode="&#xf0;" horiz-adv-x="625" d="M31 260q0 128 74 203t178 75q69 0 114 -49q-29 62 -66 106l-156 -43l-18 51l135 37q-33 33 -41 40l120 47q42 -42 50 -52l92 25l22 -49l-76 -21q134 -168 134 -363q0 -129 -74 -206t-207 -77q-129 0 -205 76.5t-76 199.5zM186 263q0 -77 37 -117t88 -40q64 0 95 44.5 t31 106.5q0 80 -33.5 120t-87.5 40q-58 0 -94 -38.5t-36 -115.5z" />
<glyph unicode="&#xf1;" d="M70 0v522h156v-46q49 59 147 59q162 0 162 -160v-375h-154v322q0 90 -76 90q-49 0 -65 -30t-16 -90v-292h-154zM123 582q7 75 31 108.5t69 33.5q32 0 78.5 -22.5t66.5 -22.5q35 0 40 41h69q-3 -28 -7 -47.5t-13.5 -42.5t-27.5 -35.5t-44 -12.5q-33 0 -83 23t-70 23 q-33 0 -37 -46h-72z" />
<glyph unicode="&#xf2;" horiz-adv-x="625" d="M32 264q0 52 16 99t48 87t86.5 64t124.5 24q63 0 113.5 -17t82 -44.5t52.5 -64.5t29.5 -74t8.5 -77q0 -127 -75 -202t-206 -75q-54 0 -101.5 15.5t-89 47t-65.5 87.5t-24 130zM129 720h185l74 -133h-101zM187 263q0 -70 31.5 -113t95.5 -43q60 0 91.5 43t31.5 106 q0 160 -131 160q-49 0 -84 -38.5t-35 -114.5z" />
<glyph unicode="&#xf3;" horiz-adv-x="625" d="M32 264q0 52 16 99t48 87t86.5 64t124.5 24q63 0 113.5 -17t82 -44.5t52.5 -64.5t29.5 -74t8.5 -77q0 -127 -75 -202t-206 -75q-54 0 -101.5 15.5t-89 47t-65.5 87.5t-24 130zM187 263q0 -70 31.5 -113t95.5 -43q60 0 91.5 43t31.5 106q0 160 -131 160q-49 0 -84 -38.5 t-35 -114.5zM238 586l73 133h182l-153 -133h-102z" />
<glyph unicode="&#xf4;" horiz-adv-x="625" d="M32 264q0 52 16 99t48 87t86.5 64t124.5 24q63 0 113.5 -17t82 -44.5t52.5 -64.5t29.5 -74t8.5 -77q0 -127 -75 -202t-206 -75q-54 0 -101.5 15.5t-89 47t-65.5 87.5t-24 130zM149 588l101 132h127l103 -131h-118l-49 62l-46 -63h-118zM187 263q0 -70 31.5 -113t95.5 -43 q60 0 91.5 43t31.5 106q0 160 -131 160q-49 0 -84 -38.5t-35 -114.5z" />
<glyph unicode="&#xf5;" horiz-adv-x="625" d="M32 264q0 52 16 99t48 87t86.5 64t124.5 24q63 0 113.5 -17t82 -44.5t52.5 -64.5t29.5 -74t8.5 -77q0 -127 -75 -202t-206 -75q-54 0 -101.5 15.5t-89 47t-65.5 87.5t-24 130zM132 582q7 75 31 108.5t69 33.5q32 0 78.5 -22.5t66.5 -22.5q35 0 40 41h69q-3 -28 -7 -47.5 t-13.5 -42.5t-27.5 -35.5t-44 -12.5q-33 0 -83 23t-70 23q-33 0 -37 -46h-72zM187 263q0 -70 31.5 -113t95.5 -43q60 0 91.5 43t31.5 106q0 160 -131 160q-49 0 -84 -38.5t-35 -114.5z" />
<glyph unicode="&#xf6;" horiz-adv-x="625" d="M32 264q0 52 16 99t48 87t86.5 64t124.5 24q63 0 113.5 -17t82 -44.5t52.5 -64.5t29.5 -74t8.5 -77q0 -127 -75 -202t-206 -75q-54 0 -101.5 15.5t-89 47t-65.5 87.5t-24 130zM111 596v124h157v-124h-157zM187 263q0 -70 31.5 -113t95.5 -43q60 0 91.5 43t31.5 106 q0 160 -131 160q-49 0 -84 -38.5t-35 -114.5zM362 596v124h158v-124h-158z" />
<glyph unicode="&#xf8;" horiz-adv-x="625" d="M10 30l75 69q-1 1 -6 8.5t-8.5 14t-10 18t-10.5 24t-8.5 28t-6.5 34.5t-2 40q0 50 15.5 96.5t46.5 87t85.5 64.5t125.5 24q110 0 190 -65l75 68l40 -46l-74 -68q55 -83 55 -171q0 -50 -17 -96.5t-50 -86t-88.5 -63.5t-124.5 -24q-113 0 -185 67l-76 -69zM182 263 q0 -39 9 -68l208 190q-36 36 -89 36q-56 0 -92 -40.5t-36 -117.5zM224 141q35 -37 89 -37q66 0 96.5 46.5t30.5 114.5q0 29 -9 66z" />
<glyph unicode="&#xf9;" d="M64 172v350h155v-335q0 -77 74 -77q44 0 66 24t22 62v326h153v-522h-154v49q-15 -22 -55 -43t-97 -21q-86 0 -125 45t-39 142zM120 720h185l74 -133h-101z" />
<glyph unicode="&#xfa;" d="M64 172v350h155v-335q0 -77 74 -77q44 0 66 24t22 62v326h153v-522h-154v49q-15 -22 -55 -43t-97 -21q-86 0 -125 45t-39 142zM229 586l73 133h182l-153 -133h-102z" />
<glyph unicode="&#xfb;" d="M64 172v350h155v-335q0 -77 74 -77q44 0 66 24t22 62v326h153v-522h-154v49q-15 -22 -55 -43t-97 -21q-86 0 -125 45t-39 142zM140 588l101 132h127l103 -131h-118l-49 62l-46 -63h-118z" />
<glyph unicode="&#xfc;" d="M64 172v350h155v-335q0 -77 74 -77q44 0 66 24t22 62v326h153v-522h-154v49q-15 -22 -55 -43t-97 -21q-86 0 -125 45t-39 142zM97 596v124h157v-124h-157zM348 596v124h158v-124h-158z" />
<glyph unicode="&#xfd;" horiz-adv-x="500" d="M0 522h164l86 -374l86 374h164l-184 -564q-22 -66 -51 -98q-23 -24 -47 -32t-62 -8h-111v123h66q52 0 52 38q0 16 -11 50zM187 586l73 133h182l-153 -133h-102z" />
<glyph unicode="&#xff;" horiz-adv-x="500" d="M0 522h164l86 -374l86 374h164l-184 -564q-22 -66 -51 -98q-23 -24 -47 -32t-62 -8h-111v123h66q52 0 52 38q0 16 -11 50zM47 596v124h157v-124h-157zM298 596v124h158v-124h-158z" />
<glyph unicode="&#x100;" horiz-adv-x="708" d="M-1 0l262 706h184l260 -706h-188l-35 113h-260l-35 -113h-188zM167 778v101h369v-101h-369zM263 240h179l-92 298z" />
<glyph unicode="&#x101;" horiz-adv-x="583" d="M44 145q0 48 30.5 88.5t79.5 61.5q38 16 206 48v29q0 63 -59 63q-70 0 -81 -61h-154q0 81 63 121.5t157 40.5q30 0 58 -3.5t59.5 -13.5t54.5 -26t38 -43.5t15 -63.5v-305q0 -59 15 -81h-151v47q-2 -2 -19.5 -13.5t-23 -14.5l-22 -12t-28 -12t-30 -6t-37.5 -3 q-83 0 -127 48t-44 111zM116 597v101h369v-101h-369zM195 152q0 -18 15 -35.5t44 -17.5q45 0 75.5 36.5t30.5 91.5v23l-99 -33q-66 -21 -66 -65z" />
<glyph unicode="&#x102;" horiz-adv-x="708" d="M-1 0l262 706h184l260 -706h-188l-35 113h-260l-35 -113h-188zM196 899h101q0 -28 16.5 -41.5t39.5 -13.5q22 0 40.5 13t18.5 41h100q-6 -68 -50.5 -99.5t-107.5 -31.5q-66 0 -109 32t-49 100zM263 240h179l-92 298z" />
<glyph unicode="&#x103;" horiz-adv-x="583" d="M44 145q0 48 30.5 88.5t79.5 61.5q38 16 206 48v29q0 63 -59 63q-70 0 -81 -61h-154q0 81 63 121.5t157 40.5q30 0 58 -3.5t59.5 -13.5t54.5 -26t38 -43.5t15 -63.5v-305q0 -59 15 -81h-151v47q-2 -2 -19.5 -13.5t-23 -14.5l-22 -12t-28 -12t-30 -6t-37.5 -3 q-83 0 -127 48t-44 111zM149 720h101q0 -61 52 -61q55 0 55 61h101q-8 -73 -48 -111t-106 -38q-63 0 -106 36.5t-49 112.5zM195 152q0 -18 15 -35.5t44 -17.5q45 0 75.5 36.5t30.5 91.5v23l-99 -33q-66 -21 -66 -65z" />
<glyph unicode="&#x104;" horiz-adv-x="708" d="M-1 0l262 706h184l260 -706h-49q-25 -4 -47 -31.5t-22 -54.5q0 -20 14 -30.5t33 -10.5q15 0 39 17l25 -25q-42 -40 -95 -40q-46 0 -70.5 22t-24.5 52q0 31 21.5 53.5t61.5 47.5h-74l-35 113h-260l-35 -113h-188zM263 240h179l-92 298z" />
<glyph unicode="&#x105;" horiz-adv-x="583" d="M44 145q0 48 30.5 88.5t79.5 61.5q38 16 206 48v29q0 63 -59 63q-70 0 -81 -61h-154q0 81 63 121.5t157 40.5q30 0 58 -3.5t59.5 -13.5t54.5 -26t38 -43.5t15 -63.5v-305q0 -59 15 -81h-30q-23 -1 -46 -30t-23 -56q0 -20 14 -30.5t33 -10.5q15 0 39 17l25 -25 q-42 -40 -95 -40q-46 0 -70.5 22t-24.5 52q0 31 21.5 54t60.5 47h-55v47q-2 -2 -19.5 -13.5t-23 -14.5l-22 -12t-28 -12t-30 -6t-37.5 -3q-83 0 -127 48t-44 111zM195 152q0 -18 15 -35.5t44 -17.5q45 0 75.5 36.5t30.5 91.5v23l-99 -33q-66 -21 -66 -65z" />
<glyph unicode="&#x106;" horiz-adv-x="702" d="M39 354q0 158 97 266t245 108q96 0 178 -51t120 -132l-140 -70q-12 42 -55 75t-95 33q-82 0 -128 -65t-46 -159q0 -111 49.5 -171.5t124.5 -60.5q32 0 58 9.5t45 29t28 32t22 34.5l139 -71q-46 -81 -123 -131.5t-181 -50.5q-145 0 -241.5 100.5t-96.5 274.5zM296 782 l61 115h180l-145 -115h-96z" />
<glyph unicode="&#x107;" horiz-adv-x="539" d="M33 257q0 75 24 131.5t63.5 87.5t83.5 46t91 15q144 0 223 -126l-114 -65q-35 73 -102 73q-38 0 -64.5 -27t-36.5 -61t-10 -69q0 -59 29 -108t87 -49q41 0 66 23.5t35 54.5l116 -60q-41 -72 -103.5 -106t-128.5 -34q-48 0 -92.5 16t-82.5 47t-61 86t-23 125zM202 586 l73 133h182l-153 -133h-102z" />
<glyph unicode="&#x108;" horiz-adv-x="702" d="M39 354q0 158 97 266t245 108q96 0 178 -51t120 -132l-140 -70q-12 42 -55 75t-95 33q-82 0 -128 -65t-46 -159q0 -111 49.5 -171.5t124.5 -60.5q32 0 58 9.5t45 29t28 32t22 34.5l139 -71q-46 -81 -123 -131.5t-181 -50.5q-145 0 -241.5 100.5t-96.5 274.5zM236 779 l89 115h133l88 -115h-116l-40 51l-38 -51h-116z" />
<glyph unicode="&#x109;" horiz-adv-x="539" d="M33 257q0 75 24 131.5t63.5 87.5t83.5 46t91 15q144 0 223 -126l-114 -65q-35 73 -102 73q-38 0 -64.5 -27t-36.5 -61t-10 -69q0 -59 29 -108t87 -49q41 0 66 23.5t35 54.5l116 -60q-41 -72 -103.5 -106t-128.5 -34q-48 0 -92.5 16t-82.5 47t-61 86t-23 125zM139 588 l101 132h127l103 -131h-118l-49 62l-46 -63h-118z" />
<glyph unicode="&#x10a;" horiz-adv-x="702" d="M39 354q0 158 97 266t245 108q96 0 178 -51t120 -132l-140 -70q-12 42 -55 75t-95 33q-82 0 -128 -65t-46 -159q0 -111 49.5 -171.5t124.5 -60.5q32 0 58 9.5t45 29t28 32t22 34.5l139 -71q-46 -81 -123 -131.5t-181 -50.5q-145 0 -241.5 100.5t-96.5 274.5zM307 767v132 h160v-132h-160z" />
<glyph unicode="&#x10b;" horiz-adv-x="539" d="M33 257q0 75 24 131.5t63.5 87.5t83.5 46t91 15q144 0 223 -126l-114 -65q-35 73 -102 73q-38 0 -64.5 -27t-36.5 -61t-10 -69q0 -59 29 -108t87 -49q41 0 66 23.5t35 54.5l116 -60q-41 -72 -103.5 -106t-128.5 -34q-48 0 -92.5 16t-82.5 47t-61 86t-23 125zM223 590v132 h157v-132h-157z" />
<glyph unicode="&#x10c;" horiz-adv-x="702" d="M39 354q0 158 97 266t245 108q96 0 178 -51t120 -132l-140 -70q-12 42 -55 75t-95 33q-82 0 -128 -65t-46 -159q0 -111 49.5 -171.5t124.5 -60.5q32 0 58 9.5t45 29t28 32t22 34.5l139 -71q-46 -81 -123 -131.5t-181 -50.5q-145 0 -241.5 100.5t-96.5 274.5zM218 898h117 l40 -51l39 51h115l-88 -115h-133z" />
<glyph unicode="&#x10d;" horiz-adv-x="539" d="M33 257q0 75 24 131.5t63.5 87.5t83.5 46t91 15q144 0 223 -126l-114 -65q-35 73 -102 73q-38 0 -64.5 -27t-36.5 -61t-10 -69q0 -59 29 -108t87 -49q41 0 66 23.5t35 54.5l116 -60q-41 -72 -103.5 -106t-128.5 -34q-48 0 -92.5 16t-82.5 47t-61 86t-23 125zM120 720h120 l48 -63l45 63h120l-102 -131h-126z" />
<glyph unicode="&#x10e;" horiz-adv-x="729" d="M67 0v706h242q202 0 296 -88t94 -265q0 -68 -16.5 -126.5t-54.5 -112t-110 -84t-173 -30.5h-278zM161 898h117l40 -51l39 51h115l-88 -115h-133zM245 142h57q117 0 168.5 47.5t51.5 165.5q0 44 -8.5 78.5t-28.5 63.5t-58.5 44.5t-94.5 15.5h-87v-415z" />
<glyph unicode="&#x10f;" d="M31 257q0 121 57.5 200t160.5 79q72 0 138 -53v223h149v-706h-140v49q-62 -63 -139 -63q-97 0 -161.5 72t-64.5 199zM187 258q0 -23 3.5 -45t12.5 -50t30.5 -45.5t52.5 -17.5q35 0 58 19.5t32 50.5t11.5 50.5t2.5 36.5q0 164 -96 164q-56 0 -81.5 -48.5t-25.5 -114.5z M571 520v40q25 5 35.5 17.5t10.5 38.5h-46v90h112v-74q0 -50 -27 -77.5t-85 -34.5z" />
<glyph unicode="&#x110;" horiz-adv-x="729" d="M0 341v79h67v286h239q203 0 298 -88t95 -265q0 -54 -9.5 -101.5t-34.5 -95t-64 -81t-102 -54.5t-145 -21h-277v341h-67zM245 142h53q117 0 171 48t54 165q0 93 -42.5 147.5t-148.5 54.5h-87v-137h174v-79h-174v-199z" />
<glyph unicode="&#x111;" d="M31 257q0 121 57.5 200t160.5 79q72 0 138 -53v78h-147v79h147v66h149v-66h68v-79h-68v-561h-140v49q-62 -63 -139 -63q-97 0 -161.5 72t-64.5 199zM187 258q0 -23 3.5 -45t12.5 -50t30.5 -45.5t52.5 -17.5q35 0 58 19.5t32 50.5t11.5 50.5t2.5 36.5q0 164 -96 164 q-56 0 -81.5 -48.5t-25.5 -114.5z" />
<glyph unicode="&#x112;" horiz-adv-x="646" d="M68 0v706h522v-137h-346v-128h323v-134h-323v-168h377v-139h-553zM143 778v101h369v-101h-369z" />
<glyph unicode="&#x113;" horiz-adv-x="583" d="M32 251q0 53 14 101t43 91t83.5 69t127.5 26q70 0 123 -26.5t82 -71t43 -95.5t14 -109v-7h-373v-6q0 -53 33 -88.5t86 -35.5q50 0 84 27.5t48 65.5l116 -60q-44 -74 -111 -112.5t-149 -38.5q-120 0 -192 72t-72 198zM113 597v101h369v-101h-369zM189 325h214 q-2 45 -30 74t-74 29q-49 0 -76 -31.5t-34 -71.5z" />
<glyph unicode="&#x116;" horiz-adv-x="646" d="M68 0v706h522v-137h-346v-128h323v-134h-323v-168h377v-139h-553zM249 767v132h160v-132h-160z" />
<glyph unicode="&#x117;" horiz-adv-x="583" d="M32 251q0 53 14 101t43 91t83.5 69t127.5 26q70 0 123 -26.5t82 -71t43 -95.5t14 -109v-7h-373v-6q0 -53 33 -88.5t86 -35.5q50 0 84 27.5t48 65.5l116 -60q-44 -74 -111 -112.5t-149 -38.5q-120 0 -192 72t-72 198zM189 325h214q-2 45 -30 74t-74 29q-49 0 -76 -31.5 t-34 -71.5zM216 590v132h157v-132h-157z" />
<glyph unicode="&#x118;" horiz-adv-x="646" d="M68 0v706h522v-137h-346v-128h323v-134h-323v-168h377v-139h-44q-24 -2 -46.5 -30.5t-22.5 -55.5q0 -20 14 -30.5t33 -10.5q15 0 39 17l25 -25q-42 -40 -95 -40q-46 0 -70.5 22t-24.5 52q0 31 21.5 54t60.5 47h-443z" />
<glyph unicode="&#x119;" horiz-adv-x="583" d="M32 251q0 53 14 101t43 91t83.5 69t127.5 26q70 0 123 -26.5t82 -71t43 -95.5t14 -109v-7h-373v-6q0 -53 33 -88.5t86 -35.5q50 0 84 27.5t48 65.5l116 -60q-29 -48 -57.5 -73.5t-76.5 -51.5q-76 -41 -76 -93q0 -20 14 -30.5t33 -10.5q15 0 39 17l25 -25q-42 -40 -95 -40 q-46 0 -70.5 22t-24.5 52q0 44 55 83q-8 -1 -26 -1q-120 0 -192 72t-72 198zM189 325h214q-2 45 -30 74t-74 29q-49 0 -76 -31.5t-34 -71.5z" />
<glyph unicode="&#x11c;" horiz-adv-x="750" d="M40 353q0 52 12 103.5t39 101.5t66 88t99 61t132 23q53 0 102 -14.5t79 -31t61.5 -44.5t42 -40t26.5 -33l-134 -81q-21 42 -64.5 71t-100.5 29q-85 0 -134.5 -60.5t-49.5 -167.5q0 -38 7 -73t25 -73.5t57.5 -62t95.5 -23.5q58 0 104 31.5t50 100.5h-158v134h307v-392 h-138v65q-89 -81 -208 -81q-79 0 -141.5 32t-100 85.5t-57 118t-19.5 133.5zM235 779l89 115h133l88 -115h-116l-40 51l-38 -51h-116z" />
<glyph unicode="&#x11d;" d="M31 276q0 116 60.5 185.5t155.5 69.5q86 0 145 -57v48h145v-509q0 -200 -259 -200q-109 0 -174 44t-65 127v16h159q0 -34 20.5 -59.5t74.5 -25.5q91 0 91 83v71q-24 -16 -37 -23t-40 -14.5t-60 -7.5q-28 0 -55.5 6.5t-57 24t-52 44.5t-37 73t-14.5 104zM128 588l101 132 h127l103 -131h-118l-49 62l-46 -63h-118zM190 282q0 -66 20.5 -103.5t77.5 -37.5q32 0 53 13t29.5 36.5t11 42t2.5 44.5q0 23 -1.5 40t-7.5 37t-16.5 32.5t-29.5 21t-45 8.5q-31 0 -52 -15.5t-29 -40.5t-10.5 -42.5t-2.5 -35.5z" />
<glyph unicode="&#x11e;" horiz-adv-x="750" d="M40 353q0 52 12 103.5t39 101.5t66 88t99 61t132 23q53 0 102 -14.5t79 -31t61.5 -44.5t42 -40t26.5 -33l-134 -81q-21 42 -64.5 71t-100.5 29q-85 0 -134.5 -60.5t-49.5 -167.5q0 -38 7 -73t25 -73.5t57.5 -62t95.5 -23.5q58 0 104 31.5t50 100.5h-158v134h307v-392 h-138v65q-89 -81 -208 -81q-79 0 -141.5 32t-100 85.5t-57 118t-19.5 133.5zM225 899h101q0 -28 16.5 -41.5t39.5 -13.5q22 0 40.5 13t18.5 41h100q-6 -68 -50.5 -99.5t-107.5 -31.5q-66 0 -109 32t-49 100z" />
<glyph unicode="&#x11f;" d="M31 276q0 116 60.5 185.5t155.5 69.5q86 0 145 -57v48h145v-509q0 -200 -259 -200q-109 0 -174 44t-65 127v16h159q0 -34 20.5 -59.5t74.5 -25.5q91 0 91 83v71q-24 -16 -37 -23t-40 -14.5t-60 -7.5q-28 0 -55.5 6.5t-57 24t-52 44.5t-37 73t-14.5 104zM133 720h101 q0 -61 52 -61q55 0 55 61h101q-8 -73 -48 -111t-106 -38q-63 0 -106 36.5t-49 112.5zM190 282q0 -66 20.5 -103.5t77.5 -37.5q32 0 53 13t29.5 36.5t11 42t2.5 44.5q0 23 -1.5 40t-7.5 37t-16.5 32.5t-29.5 21t-45 8.5q-31 0 -52 -15.5t-29 -40.5t-10.5 -42.5t-2.5 -35.5z " />
<glyph unicode="&#x120;" horiz-adv-x="750" d="M40 353q0 52 12 103.5t39 101.5t66 88t99 61t132 23q53 0 102 -14.5t79 -31t61.5 -44.5t42 -40t26.5 -33l-134 -81q-21 42 -64.5 71t-100.5 29q-85 0 -134.5 -60.5t-49.5 -167.5q0 -38 7 -73t25 -73.5t57.5 -62t95.5 -23.5q58 0 104 31.5t50 100.5h-158v134h307v-392 h-138v65q-89 -81 -208 -81q-79 0 -141.5 32t-100 85.5t-57 118t-19.5 133.5zM306 767v132h160v-132h-160z" />
<glyph unicode="&#x121;" d="M31 276q0 116 60.5 185.5t155.5 69.5q86 0 145 -57v48h145v-509q0 -200 -259 -200q-109 0 -174 44t-65 127v16h159q0 -34 20.5 -59.5t74.5 -25.5q91 0 91 83v71q-24 -16 -37 -23t-40 -14.5t-60 -7.5q-28 0 -55.5 6.5t-57 24t-52 44.5t-37 73t-14.5 104zM190 282 q0 -66 20.5 -103.5t77.5 -37.5q32 0 53 13t29.5 36.5t11 42t2.5 44.5q0 23 -1.5 40t-7.5 37t-16.5 32.5t-29.5 21t-45 8.5q-31 0 -52 -15.5t-29 -40.5t-10.5 -42.5t-2.5 -35.5zM223 590v132h157v-132h-157z" />
<glyph unicode="&#x122;" horiz-adv-x="750" d="M40 353q0 52 12 103.5t39 101.5t66 88t99 61t132 23q53 0 102 -14.5t79 -31t61.5 -44.5t42 -40t26.5 -33l-134 -81q-21 42 -64.5 71t-100.5 29q-85 0 -134.5 -60.5t-49.5 -167.5q0 -38 7 -73t25 -73.5t57.5 -62t95.5 -23.5q58 0 104 31.5t50 100.5h-158v134h307v-392 h-138v65q-89 -81 -208 -81q-79 0 -141.5 32t-100 85.5t-57 118t-19.5 133.5zM319 -36h112v-38q0 -57 -20 -81.5t-85 -25.5v35q34 4 34 33h-41v77z" />
<glyph unicode="&#x123;" d="M31 276q0 116 60.5 185.5t155.5 69.5q86 0 145 -57v48h145v-509q0 -200 -259 -200q-109 0 -174 44t-65 127v16h159q0 -34 20.5 -59.5t74.5 -25.5q91 0 91 83v71q-24 -16 -37 -23t-40 -14.5t-60 -7.5q-28 0 -55.5 6.5t-57 24t-52 44.5t-37 73t-14.5 104zM190 282 q0 -66 20.5 -103.5t77.5 -37.5q32 0 53 13t29.5 36.5t11 42t2.5 44.5q0 23 -1.5 40t-7.5 37t-16.5 32.5t-29.5 21t-45 8.5q-31 0 -52 -15.5t-29 -40.5t-10.5 -42.5t-2.5 -35.5zM226 586v38q0 57 20 81.5t85 25.5v-35q-34 -4 -34 -33h41v-77h-112z" />
<glyph unicode="&#x124;" horiz-adv-x="750" d="M68 0v706h178v-255h258v255h177v-706h-177v301h-258v-301h-178zM220 779l89 115h133l88 -115h-116l-40 51l-38 -51h-116z" />
<glyph unicode="&#x125;" d="M-11 779l89 115h133l88 -115h-116l-40 51l-38 -51h-116zM68 0v706h154v-240q63 70 149 70q80 0 123 -47.5t43 -131.5v-357h-153v282q0 26 -2 43t-9 38t-24 31.5t-44 10.5q-46 0 -64.5 -32.5t-18.5 -97.5v-275h-154z" />
<glyph unicode="&#x126;" horiz-adv-x="750" d="M12 502v119h56v85h178v-85h258v85h177v-85h58v-119h-58v-502h-177v301h-258v-301h-178v502h-56zM246 451h258v51h-258v-51z" />
<glyph unicode="&#x127;" d="M0 561v79h68v66h154v-66h134v-79h-134v-95q63 70 149 70q80 0 123 -47.5t43 -131.5v-357h-153v282q0 26 -2 43t-9 38t-24 31.5t-44 10.5q-46 0 -64.5 -32.5t-18.5 -97.5v-275h-154v561h-68z" />
<glyph unicode="&#x12a;" horiz-adv-x="313" d="M6 778v101h301v-101h-301zM67 0v706h176v-706h-176z" />
<glyph unicode="&#x12b;" horiz-adv-x="292" d="M6 597v101h280v-101h-280zM69 0v522h152v-522h-152z" />
<glyph unicode="&#x12e;" horiz-adv-x="313" d="M65 -101q0 31 21.5 54t60.5 47h-80v706h176v-706h-30q-28 -6 -48.5 -33t-20.5 -53q0 -20 14 -30.5t33 -10.5q15 0 39 17l25 -25q-42 -40 -95 -40q-46 0 -70.5 22t-24.5 52z" />
<glyph unicode="&#x12f;" horiz-adv-x="292" d="M58 -101q0 31 21.5 53.5t61.5 47.5h-72v522h153v-522h-16q-26 -4 -47.5 -31.5t-21.5 -54.5q0 -20 14 -30.5t33 -10.5q15 0 39 17l25 -25q-42 -40 -95 -40q-46 0 -70.5 22t-24.5 52zM69 587v119h153v-119h-153z" />
<glyph unicode="&#x130;" horiz-adv-x="313" d="M67 0v706h176v-706h-176zM76 767v132h160v-132h-160z" />
<glyph unicode="&#x131;" horiz-adv-x="292" d="M69 0v522h152v-522h-152z" />
<glyph unicode="&#x134;" horiz-adv-x="396" d="M16 0v143h35q62 0 82.5 12.5t20.5 50.5v500h177v-536q0 -96 -47.5 -133t-149.5 -37h-118zM88 779l89 115h133l88 -115h-116l-40 51l-38 -51h-116z" />
<glyph unicode="&#x135;" horiz-adv-x="292" d="M-20 588l101 132h127l103 -131h-118l-49 62l-46 -63h-118zM0 -54q1 0 8.5 -0.5t10.5 -0.5q14 0 24 4t15 9t7.5 16t3 19.5t0.5 25.5v503h152v-518q0 -103 -33.5 -142.5t-117.5 -39.5q-45 0 -70 2v122z" />
<glyph unicode="&#x136;" horiz-adv-x="708" d="M68 0v706h168v-288l264 288h213l-250 -262l269 -444h-199l-188 320l-109 -113v-207h-168zM331 -36h112v-38q0 -57 -20 -81.5t-85 -25.5v35q34 4 34 33h-41v77z" />
<glyph unicode="&#x137;" horiz-adv-x="583" d="M67 0v706h151v-363l169 179h185l-180 -186l203 -336h-178l-134 225l-66 -63v-162h-150zM271 -36h112v-38q0 -57 -20 -81.5t-85 -25.5v35q34 4 34 33h-41v77z" />
<glyph unicode="&#x139;" horiz-adv-x="542" d="M68 0v706h176v-557h276v-149h-452zM88 782l61 115h180l-145 -115h-96z" />
<glyph unicode="&#x13a;" horiz-adv-x="292" d="M69 0v706h153v-706h-153zM78 782l61 115h180l-145 -115h-96z" />
<glyph unicode="&#x13b;" horiz-adv-x="542" d="M68 0v706h176v-557h276v-149h-452zM238 -36h112v-38q0 -57 -20 -81.5t-85 -25.5v35q34 4 34 33h-41v77z" />
<glyph unicode="&#x13c;" horiz-adv-x="292" d="M69 0v706h153v-706h-153zM89 -36h112v-38q0 -57 -20 -81.5t-85 -25.5v35q34 4 34 33h-41v77z" />
<glyph unicode="&#x13d;" horiz-adv-x="542" d="M68 0v706h176v-557h276v-149h-452zM282 520v40q25 5 35.5 17.5t10.5 38.5h-46v90h112v-74q0 -50 -27 -77.5t-85 -34.5z" />
<glyph unicode="&#x13e;" horiz-adv-x="292" d="M69 0v706h153v-706h-153zM259 520v40q25 5 35.5 17.5t10.5 38.5h-46v90h112v-74q0 -50 -27 -77.5t-85 -34.5z" />
<glyph unicode="&#x13f;" horiz-adv-x="542" d="M68 0v706h176v-557h276v-149h-452zM336 309v162h160v-162h-160z" />
<glyph unicode="&#x140;" horiz-adv-x="398" d="M69 0v706h153v-706h-153zM267 289v155h156v-155h-156z" />
<glyph unicode="&#x141;" horiz-adv-x="542" d="M0 171v84l68 47v404h176v-281l191 132v-84l-191 -133v-191h276v-149h-452v218z" />
<glyph unicode="&#x142;" horiz-adv-x="292" d="M0 220v79l69 50v357h153v-246l70 50v-79l-70 -50v-381h-153v270z" />
<glyph unicode="&#x143;" horiz-adv-x="729" d="M67 0v706h173l251 -430v430h169v-706h-173l-250 422v-422h-170zM279 782l61 115h180l-145 -115h-96z" />
<glyph unicode="&#x144;" d="M70 0v522h156v-46q49 59 147 59q162 0 162 -160v-375h-154v322q0 90 -76 90q-49 0 -65 -30t-16 -90v-292h-154zM226 586l73 133h182l-153 -133h-102z" />
<glyph unicode="&#x145;" horiz-adv-x="729" d="M67 0v706h173l251 -430v430h169v-706h-173l-250 422v-422h-170zM308 -36h112v-38q0 -57 -20 -81.5t-85 -25.5v35q34 4 34 33h-41v77z" />
<glyph unicode="&#x146;" d="M70 0v522h156v-46q49 59 147 59q162 0 162 -160v-375h-154v322q0 90 -76 90q-49 0 -65 -30t-16 -90v-292h-154zM249 -36h112v-38q0 -57 -20 -81.5t-85 -25.5v35q34 4 34 33h-41v77z" />
<glyph unicode="&#x147;" horiz-adv-x="729" d="M67 0v706h173l251 -430v430h169v-706h-173l-250 422v-422h-170zM206 898h117l40 -51l39 51h115l-88 -115h-133z" />
<glyph unicode="&#x148;" d="M70 0v522h156v-46q49 59 147 59q162 0 162 -160v-375h-154v322q0 90 -76 90q-49 0 -65 -30t-16 -90v-292h-154zM134 720h120l48 -63l45 63h120l-102 -131h-126z" />
<glyph unicode="&#x150;" horiz-adv-x="792" d="M42 356q0 50 11.5 100.5t38.5 100t66 87t99 61t134 23.5q92 0 163.5 -35t112.5 -92.5t61.5 -122t20.5 -130.5q0 -97 -40.5 -179.5t-123.5 -136t-192 -53.5q-112 0 -193.5 54.5t-119.5 138.5t-38 184zM216 358q0 -60 17 -110t59 -84.5t102 -34.5q62 0 104 36t58 83.5 t16 101.5q0 102 -45.5 166t-135.5 64q-48 0 -83.5 -21t-54.5 -55t-28 -70.5t-9 -75.5zM228 782l61 115h171l-144 -115h-88zM448 782l61 115h171l-144 -115h-88z" />
<glyph unicode="&#x151;" horiz-adv-x="625" d="M32 264q0 52 16 99t48 87t86.5 64t124.5 24q63 0 113.5 -17t82 -44.5t52.5 -64.5t29.5 -74t8.5 -77q0 -127 -75 -202t-206 -75q-54 0 -101.5 15.5t-89 47t-65.5 87.5t-24 130zM147 586l73 133h170l-152 -133h-91zM187 263q0 -70 31.5 -113t95.5 -43q60 0 91.5 43 t31.5 106q0 160 -131 160q-49 0 -84 -38.5t-35 -114.5zM350 586l73 133h170l-152 -133h-91z" />
<glyph unicode="&#x152;" horiz-adv-x="1104" d="M42 357q0 74 20 139t58.5 116.5t102 81.5t143.5 30q77 0 149 -36v18h533v-137h-356v-130h334v-136h-334v-163h390v-140h-568v15q-77 -29 -154 -29q-152 0 -235 106t-83 265zM220 355q0 -122 53 -178t127 -56q51 0 116 34v397q-15 15 -48 25t-65 10q-53 0 -91 -21.5 t-57 -57.5t-27 -73.5t-8 -79.5z" />
<glyph unicode="&#x153;" horiz-adv-x="938" d="M32 262q0 121 69.5 197.5t190.5 76.5q109 0 181 -69q77 70 188 70q123 0 191 -87.5t68 -219.5h-373q7 -61 40 -92.5t86 -31.5q15 0 30.5 3.5t34.5 12t35.5 27t24.5 44.5l119 -62q-37 -77 -108 -111.5t-142 -34.5q-61 0 -112 23.5t-82 54.5q-26 -31 -77.5 -53.5 t-109.5 -22.5q-29 0 -59 6.5t-66 25.5t-64 48t-46.5 79.5t-18.5 115.5zM184 260q0 -73 30 -112t83 -39q47 0 75.5 43t28.5 108q0 158 -105 158q-59 0 -85.5 -47.5t-26.5 -110.5zM549 325h212q-4 42 -31.5 69.5t-76.5 27.5q-89 0 -104 -97z" />
<glyph unicode="&#x154;" horiz-adv-x="708" d="M67 0v706h334q37 0 69 -4t71 -18.5t66.5 -38.5t46 -67t18.5 -101q0 -83 -39 -127t-106 -68l163 -282h-194l-141 252h-110v-252h-178zM244 383h146q35 0 58.5 11.5t32.5 30t12 31t3 25.5q0 94 -105 94h-147v-192zM250 782l61 115h180l-145 -115h-96z" />
<glyph unicode="&#x155;" horiz-adv-x="375" d="M67 0v522h149v-54q32 27 61 39q46 19 90 21v-136l-51 -8q-59 -9 -77.5 -27.5t-18.5 -62.5v-294h-153zM134 586l73 133h182l-153 -133h-102z" />
<glyph unicode="&#x15a;" horiz-adv-x="688" d="M9 127l134 85q34 -42 90 -65.5t114 -23.5q47 0 88.5 21t41.5 61q0 34 -32.5 49.5t-90.5 22.5l-81 11q-101 14 -163 62.5t-62 136.5q0 106 75.5 171t209.5 65q101 0 174 -36.5t137 -97.5l-130 -93q-85 88 -185 88q-50 0 -77.5 -23.5t-27.5 -51.5t22 -43t68 -22l78 -11 q139 -20 199.5 -66.5t60.5 -136.5q0 -113 -85.5 -179.5t-235.5 -66.5q-115 0 -188.5 36.5t-133.5 106.5zM250 782l61 115h180l-145 -115h-96z" />
<glyph unicode="&#x15b;" horiz-adv-x="521" d="M-2 88l97 88q30 -32 71 -52t81 -20t66.5 13.5t26.5 37.5q0 20 -18.5 29.5t-64.5 16.5l-47 8q-175 30 -175 155q0 72 58.5 123.5t162.5 51.5q130 0 232 -78l-95 -88q-63 52 -133 52q-29 0 -50.5 -10t-21.5 -30q0 -18 18 -26.5t67 -18.5l37 -7q188 -35 188 -164 q0 -61 -40 -104t-94 -60.5t-113 -17.5q-87 0 -151.5 31t-101.5 70zM172 586l73 133h182l-153 -133h-102z" />
<glyph unicode="&#x15c;" horiz-adv-x="688" d="M9 127l134 85q34 -42 90 -65.5t114 -23.5q47 0 88.5 21t41.5 61q0 34 -32.5 49.5t-90.5 22.5l-81 11q-101 14 -163 62.5t-62 136.5q0 106 75.5 171t209.5 65q101 0 174 -36.5t137 -97.5l-130 -93q-85 88 -185 88q-50 0 -77.5 -23.5t-27.5 -51.5t22 -43t68 -22l78 -11 q139 -20 199.5 -66.5t60.5 -136.5q0 -113 -85.5 -179.5t-235.5 -66.5q-115 0 -188.5 36.5t-133.5 106.5zM189 779l89 115h133l88 -115h-116l-40 51l-38 -51h-116z" />
<glyph unicode="&#x15d;" horiz-adv-x="521" d="M-2 88l97 88q30 -32 71 -52t81 -20t66.5 13.5t26.5 37.5q0 20 -18.5 29.5t-64.5 16.5l-47 8q-175 30 -175 155q0 72 58.5 123.5t162.5 51.5q130 0 232 -78l-95 -88q-63 52 -133 52q-29 0 -50.5 -10t-21.5 -30q0 -18 18 -26.5t67 -18.5l37 -7q188 -35 188 -164 q0 -61 -40 -104t-94 -60.5t-113 -17.5q-87 0 -151.5 31t-101.5 70zM95 588l101 132h127l103 -131h-118l-49 62l-46 -63h-118z" />
<glyph unicode="&#x15e;" horiz-adv-x="688" d="M9 127l134 85q34 -42 90 -65.5t114 -23.5q47 0 88.5 21t41.5 61q0 35 -32 50t-91 22l-81 11q-101 14 -163 62.5t-62 136.5q0 106 75.5 171t209.5 65q101 0 174 -36.5t137 -97.5l-130 -93q-85 88 -185 88q-50 0 -77.5 -23.5t-27.5 -51.5q0 -51 90 -65l78 -11 q139 -20 199.5 -66.5t60.5 -136.5q0 -111 -82.5 -177.5t-229.5 -68.5l-19 -37q19 3 39 3q40 0 58 -20t18 -45q0 -36 -30 -59t-66 -23q-52 0 -99 52l28 23q26 -32 54 -32q14 0 24.5 8.5t10.5 22.5q0 20 -17 30t-38 10q-1 0 -28 -3l-12 18l29 53q-98 6 -163 42t-120 100z" />
<glyph unicode="&#x15f;" horiz-adv-x="521" d="M-2 88l97 88q30 -32 71 -52t81 -20t66.5 13.5t26.5 37.5q0 21 -18 29.5t-65 16.5l-47 8q-175 30 -175 155q0 72 58.5 123.5t162.5 51.5q130 0 232 -78l-95 -88q-63 52 -133 52q-29 0 -50.5 -10t-21.5 -30q0 -18 18 -26.5t67 -18.5l37 -7q188 -35 188 -164q0 -46 -22 -82 t-58 -57t-77 -32t-84 -12l-19 -39q19 3 39 3q40 0 58 -20t18 -45q0 -36 -30 -59t-66 -23q-54 0 -99 52l28 23q25 -32 54 -32q14 0 24.5 8.5t10.5 22.5q0 20 -17 30t-38 10q-14 0 -28 -3l-12 18l31 56q-134 14 -213 100z" />
<glyph unicode="&#x160;" horiz-adv-x="688" d="M9 127l134 85q34 -42 90 -65.5t114 -23.5q47 0 88.5 21t41.5 61q0 34 -32.5 49.5t-90.5 22.5l-81 11q-101 14 -163 62.5t-62 136.5q0 106 75.5 171t209.5 65q101 0 174 -36.5t137 -97.5l-130 -93q-85 88 -185 88q-50 0 -77.5 -23.5t-27.5 -51.5t22 -43t68 -22l78 -11 q139 -20 199.5 -66.5t60.5 -136.5q0 -113 -85.5 -179.5t-235.5 -66.5q-115 0 -188.5 36.5t-133.5 106.5zM189 898h117l40 -51l39 51h115l-88 -115h-133z" />
<glyph unicode="&#x161;" horiz-adv-x="521" d="M-2 88l97 88q30 -32 71 -52t81 -20t66.5 13.5t26.5 37.5q0 20 -18.5 29.5t-64.5 16.5l-47 8q-175 30 -175 155q0 72 58.5 123.5t162.5 51.5q130 0 232 -78l-95 -88q-63 52 -133 52q-29 0 -50.5 -10t-21.5 -30q0 -18 18 -26.5t67 -18.5l37 -7q188 -35 188 -164 q0 -61 -40 -104t-94 -60.5t-113 -17.5q-87 0 -151.5 31t-101.5 70zM93 720h120l48 -63l45 63h120l-102 -131h-126z" />
<glyph unicode="&#x162;" horiz-adv-x="562" d="M7 567v139h545v-139h-183v-567h-178v567h-184zM225 -36h112v-38q0 -57 -20 -81.5t-85 -25.5v35q34 4 34 33h-41v77z" />
<glyph unicode="&#x163;" horiz-adv-x="354" d="M11 416v94h76v163h152v-164h102v-94h-102v-250q0 -25 10 -34t30 -9l54 1v-119q-40 -8 -97 -8q-71 0 -110 31.5t-39 116.5v272h-76zM154 -36h112v-38q0 -57 -20 -81.5t-85 -25.5v35q34 4 34 33h-41v77z" />
<glyph unicode="&#x164;" horiz-adv-x="562" d="M7 567v139h545v-139h-183v-567h-178v567h-184zM122 898h117l40 -51l39 51h115l-88 -115h-133z" />
<glyph unicode="&#x165;" horiz-adv-x="354" d="M11 416v94h76v163h152v-164h102v-94h-102v-250q0 -25 10 -34t30 -9l54 1v-119q-40 -8 -97 -8q-71 0 -110 31.5t-39 116.5v272h-76zM274 520v40q25 5 35.5 17.5t10.5 38.5h-46v90h112v-74q0 -50 -27 -77.5t-85 -34.5z" />
<glyph unicode="&#x16a;" horiz-adv-x="729" d="M62 267v439h178v-459q0 -67 31.5 -92t95.5 -25q65 0 93 31.5t28 94.5v450h177v-427q0 -134 -81 -214.5t-223 -80.5q-132 0 -215.5 71.5t-83.5 211.5zM180 778v101h369v-101h-369z" />
<glyph unicode="&#x16b;" d="M64 172v350h155v-335q0 -77 74 -77q44 0 66 24t22 62v326h153v-522h-154v49q-15 -22 -55 -43t-97 -21q-86 0 -125 45t-39 142zM115 597v101h369v-101h-369z" />
<glyph unicode="&#x16c;" horiz-adv-x="729" d="M62 267v439h178v-459q0 -67 31.5 -92t95.5 -25q65 0 93 31.5t28 94.5v450h177v-427q0 -134 -81 -214.5t-223 -80.5q-132 0 -215.5 71.5t-83.5 211.5zM206 899h101q0 -28 16.5 -41.5t39.5 -13.5q22 0 40.5 13t18.5 41h100q-6 -68 -50.5 -99.5t-107.5 -31.5q-66 0 -109 32 t-49 100z" />
<glyph unicode="&#x16d;" d="M64 172v350h155v-335q0 -77 74 -77q44 0 66 24t22 62v326h153v-522h-154v49q-15 -22 -55 -43t-97 -21q-86 0 -125 45t-39 142zM147 720h101q0 -61 52 -61q55 0 55 61h101q-8 -73 -48 -111t-106 -38q-63 0 -106 36.5t-49 112.5z" />
<glyph unicode="&#x170;" horiz-adv-x="729" d="M62 267v439h178v-459q0 -67 31.5 -92t95.5 -25q65 0 93 31.5t28 94.5v450h177v-427q0 -134 -81 -214.5t-223 -80.5q-132 0 -215.5 71.5t-83.5 211.5zM196 782l61 115h171l-144 -115h-88zM416 782l61 115h171l-144 -115h-88z" />
<glyph unicode="&#x171;" d="M64 172v350h155v-335q0 -77 74 -77q44 0 66 24t22 62v326h153v-522h-154v49q-15 -22 -55 -43t-97 -21q-86 0 -125 45t-39 142zM141 586l73 133h170l-152 -133h-91zM344 586l73 133h170l-152 -133h-91z" />
<glyph unicode="&#x172;" horiz-adv-x="729" d="M62 267v439h178v-459q0 -67 31.5 -92t95.5 -25q65 0 93 31.5t28 94.5v450h177v-427q0 -122 -60 -192.5t-182 -96.5q-23 -5 -39 -29.5t-16 -46.5q0 -20 13.5 -30.5t32.5 -10.5q16 0 39 16l25 -24q-42 -40 -95 -40q-46 0 -70.5 22t-24.5 52q0 45 58 85q-126 4 -205 75.5 t-79 207.5z" />
<glyph unicode="&#x173;" d="M64 172v350h155v-335q0 -77 74 -77q44 0 66 24t22 62v326h153v-522h-27q-27 -5 -47.5 -31.5t-20.5 -54.5q0 -20 13.5 -30.5t32.5 -10.5q16 0 39 16l25 -24q-42 -40 -95 -40q-46 0 -70.5 22t-24.5 52q0 31 21.5 53.5t61.5 47.5h-62v49q-15 -22 -55 -43t-97 -21 q-86 0 -125 45t-39 142z" />
<glyph unicode="&#x178;" horiz-adv-x="708" d="M2 706h202l152 -239l151 239h201l-267 -372v-334h-174v329zM162 780v117h160v-117h-160zM384 780v116h161v-116h-161z" />
<glyph unicode="&#x179;" horiz-adv-x="625" d="M5 0v133l391 436h-358v137h570v-138l-385 -429h383v-139h-601zM242 782l61 115h180l-145 -115h-96z" />
<glyph unicode="&#x17a;" horiz-adv-x="542" d="M34 0v115l282 289h-252v118h447v-118l-278 -285h278v-119h-477zM202 586l73 133h182l-153 -133h-102z" />
<glyph unicode="&#x17b;" horiz-adv-x="625" d="M5 0v133l391 436h-358v137h570v-138l-385 -429h383v-139h-601zM242 767v132h160v-132h-160z" />
<glyph unicode="&#x17c;" horiz-adv-x="542" d="M34 0v115l282 289h-252v118h447v-118l-278 -285h278v-119h-477zM211 590v132h157v-132h-157z" />
<glyph unicode="&#x17d;" horiz-adv-x="625" d="M5 0v133l391 436h-358v137h570v-138l-385 -429h383v-139h-601zM156 898h117l40 -51l39 51h115l-88 -115h-133z" />
<glyph unicode="&#x17e;" horiz-adv-x="542" d="M34 0v115l282 289h-252v118h447v-118l-278 -285h278v-119h-477zM105 720h120l48 -63l45 63h120l-102 -131h-126z" />
<glyph unicode="&#x218;" horiz-adv-x="688" d="M9 127l134 85q34 -42 90 -65.5t114 -23.5q47 0 88.5 21t41.5 61q0 34 -32.5 49.5t-90.5 22.5l-81 11q-101 14 -163 62.5t-62 136.5q0 106 75.5 171t209.5 65q101 0 174 -36.5t137 -97.5l-130 -93q-85 88 -185 88q-50 0 -77.5 -23.5t-27.5 -51.5t22 -43t68 -22l78 -11 q139 -20 199.5 -66.5t60.5 -136.5q0 -113 -85.5 -179.5t-235.5 -66.5q-115 0 -188.5 36.5t-133.5 106.5zM286 -36h112v-38q0 -57 -20 -81.5t-85 -25.5v35q34 4 34 33h-41v77z" />
<glyph unicode="&#x219;" horiz-adv-x="521" d="M-2 88l97 88q30 -32 71 -52t81 -20t66.5 13.5t26.5 37.5q0 20 -18.5 29.5t-64.5 16.5l-47 8q-175 30 -175 155q0 72 58.5 123.5t162.5 51.5q130 0 232 -78l-95 -88q-63 52 -133 52q-29 0 -50.5 -10t-21.5 -30q0 -18 18 -26.5t67 -18.5l37 -7q188 -35 188 -164 q0 -61 -40 -104t-94 -60.5t-113 -17.5q-87 0 -151.5 31t-101.5 70zM206 -36h112v-38q0 -57 -20 -81.5t-85 -25.5v35q34 4 34 33h-41v77z" />
<glyph unicode="&#x21a;" horiz-adv-x="562" d="M7 567v139h545v-139h-183v-567h-178v567h-184zM225 -36h112v-38q0 -57 -20 -81.5t-85 -25.5v35q34 4 34 33h-41v77z" />
<glyph unicode="&#x21b;" horiz-adv-x="354" d="M11 416v94h76v163h152v-164h102v-94h-102v-250q0 -25 10 -34t30 -9l54 1v-119q-40 -8 -97 -8q-71 0 -110 31.5t-39 116.5v272h-76zM154 -36h112v-38q0 -57 -20 -81.5t-85 -25.5v35q34 4 34 33h-41v77z" />
<glyph unicode="&#x2c6;" horiz-adv-x="271" d="M-30 588l101 132h127l103 -131h-118l-49 62l-46 -63h-118z" />
<glyph unicode="&#x2da;" horiz-adv-x="271" d="M37 655q0 41 28.5 69.5t69.5 28.5t69.5 -28.5t28.5 -69.5t-28.5 -69.5t-69.5 -28.5t-69.5 28.5t-28.5 69.5zM95 655q0 -17 11.5 -28.5t28.5 -11.5t28.5 11.5t11.5 28.5t-11.5 28.5t-28.5 11.5t-28.5 -11.5t-11.5 -28.5z" />
<glyph unicode="&#x2dc;" horiz-adv-x="271" d="M-41 582q7 75 31 108.5t69 33.5q32 0 78.5 -22.5t66.5 -22.5q35 0 40 41h69q-3 -28 -7 -47.5t-13.5 -42.5t-27.5 -35.5t-44 -12.5q-33 0 -83 23t-70 23q-33 0 -37 -46h-72z" />
<glyph unicode="&#x37e;" horiz-adv-x="292" d="M86 0v171h160v-135q0 -89 -38.5 -139.5t-121.5 -67.5v70q25 8 38.5 24.5t16.5 31.5t6 45h-61zM86 354v170h160v-170h-160z" />
<glyph unicode="&#x384;" horiz-adv-x="271" d="M8 586l73 133h182l-153 -133h-102z" />
<glyph unicode="&#x385;" horiz-adv-x="599" d="M58 586v116h140v-116h-140zM230 586l22 145h135l-76 -145h-81zM400 586v116h140v-116h-140z" />
<glyph unicode="&#x386;" horiz-adv-x="716" d="M-66 574l73 133h182l-153 -133h-102zM-1 0l262 706h184l260 -706h-188l-35 113h-260l-35 -113h-188zM263 240h179l-92 298z" />
<glyph unicode="&#x387;" horiz-adv-x="235" d="M37 206v167h161v-167h-161z" />
<glyph unicode="&#x388;" horiz-adv-x="653" d="M-215 574l73 133h182l-153 -133h-102zM68 0v706h522v-137h-346v-128h323v-134h-323v-168h377v-139h-553z" />
<glyph unicode="&#x389;" horiz-adv-x="753" d="M-215 574l73 133h182l-153 -133h-102zM68 0v706h178v-255h258v255h177v-706h-177v301h-258v-301h-178z" />
<glyph unicode="&#x38a;" horiz-adv-x="313" d="M-214 574l73 133h182l-153 -133h-102zM67 0v706h176v-706h-176z" />
<glyph unicode="&#x38c;" horiz-adv-x="792" d="M-149 574l73 133h182l-153 -133h-102zM42 356q0 50 11.5 100.5t38.5 100t66 87t99 61t134 23.5q92 0 163.5 -35t112.5 -92.5t61.5 -122t20.5 -130.5q0 -97 -40.5 -179.5t-123.5 -136t-192 -53.5q-112 0 -193.5 54.5t-119.5 138.5t-38 184zM216 358q0 -60 17 -110 t59 -84.5t102 -34.5q62 0 104 36t58 83.5t16 101.5q0 102 -45.5 166t-135.5 64q-48 0 -83.5 -21t-54.5 -55t-28 -70.5t-9 -75.5z" />
<glyph unicode="&#x38e;" horiz-adv-x="708" d="M-264 574l73 133h182l-153 -133h-102zM2 706h202l152 -239l151 239h201l-267 -372v-334h-174v329z" />
<glyph unicode="&#x38f;" horiz-adv-x="817" d="M-109 574l73 133h182l-153 -133h-102zM55 0v140h141q-137 96 -137 248q0 144 94 242t251 98q158 0 256 -98.5t98 -241.5q0 -152 -137 -248h141v-140h-306v141q61 42 93.5 96.5t32.5 136.5q0 100 -49.5 153t-127.5 53q-77 0 -125 -53t-48 -153q0 -82 32 -136.5t92 -96.5 v-141h-301z" />
<glyph unicode="&#x390;" horiz-adv-x="275" d="M-81 586v116h140v-116h-140zM48 130v392h153v-360q0 -27 6.5 -35t23.5 -8h24v-119q-39 -12 -83 -12q-25 0 -43.5 4.5t-38.5 17.5t-31 43.5t-11 76.5zM91 586l22 145h135l-76 -145h-81zM261 586v116h140v-116h-140z" />
<glyph unicode="&#x391;" horiz-adv-x="708" d="M-1 0l262 706h184l260 -706h-188l-35 113h-260l-35 -113h-188zM263 240h179l-92 298z" />
<glyph unicode="&#x392;" horiz-adv-x="708" d="M68 0v706h329q131 0 190.5 -50.5t59.5 -134.5q0 -42 -17 -74t-43 -48.5t-48.5 -25t-42.5 -10.5q23 -2 45 -7.5t47 -17.5t43.5 -29.5t30.5 -46t12 -64.5q0 -94 -73.5 -146t-186.5 -52h-346zM236 128h123q28 0 46.5 2t42 9.5t35.5 25.5t12 47q0 24 -8 41.5t-18.5 26 t-27.5 13t-27.5 5.5t-25.5 1h-152v-171zM236 427h133q105 0 105 76q0 71 -93 71h-145v-147z" />
<glyph unicode="&#x393;" horiz-adv-x="562" d="M70 0v706h482v-141h-306v-565h-176z" />
<glyph unicode="&#x394;" horiz-adv-x="745" d="M0 0l274 706h202l270 -706h-746zM242 139h261l-134 401z" />
<glyph unicode="&#x395;" horiz-adv-x="646" d="M68 0v706h522v-137h-346v-128h323v-134h-323v-168h377v-139h-553z" />
<glyph unicode="&#x396;" horiz-adv-x="625" d="M5 0v133l391 436h-358v137h570v-138l-385 -429h383v-139h-601z" />
<glyph unicode="&#x397;" horiz-adv-x="750" d="M68 0v706h178v-255h258v255h177v-706h-177v301h-258v-301h-178z" />
<glyph unicode="&#x398;" horiz-adv-x="792" d="M42 356q0 50 11.5 100.5t38.5 100t66 87t99 61t134 23.5q92 0 163.5 -35t112.5 -92.5t61.5 -122t20.5 -130.5q0 -97 -40.5 -179.5t-123.5 -136t-192 -53.5q-112 0 -193.5 54.5t-119.5 138.5t-38 184zM216 358q0 -60 17 -110t59 -84.5t102 -34.5q62 0 104 36t58 83.5 t16 101.5q0 102 -45.5 166t-135.5 64q-48 0 -83.5 -21t-54.5 -55t-28 -70.5t-9 -75.5zM287 309v126h217v-126h-217z" />
<glyph unicode="&#x399;" horiz-adv-x="313" d="M67 0v706h176v-706h-176z" />
<glyph unicode="&#x39a;" horiz-adv-x="708" d="M68 0v706h168v-288l264 288h213l-250 -262l269 -444h-199l-188 320l-109 -113v-207h-168z" />
<glyph unicode="&#x39b;" horiz-adv-x="716" d="M10 0l257 706h184l255 -706h-188l-162 540l-158 -540h-188z" />
<glyph unicode="&#x39c;" horiz-adv-x="917" d="M68 0v706h258l133 -494l131 494h258v-706h-170q0 390 4 528l-147 -528h-153l-146 528l4 -528h-172z" />
<glyph unicode="&#x39d;" horiz-adv-x="729" d="M67 0v706h173l251 -430v430h169v-706h-173l-250 422v-422h-170z" />
<glyph unicode="&#x39e;" horiz-adv-x="643" d="M25 0v152h593v-152h-593zM44 556v150h554v-150h-554zM84 300v147h475v-147h-475z" />
<glyph unicode="&#x39f;" horiz-adv-x="792" d="M42 356q0 50 11.5 100.5t38.5 100t66 87t99 61t134 23.5q92 0 163.5 -35t112.5 -92.5t61.5 -122t20.5 -130.5q0 -97 -40.5 -179.5t-123.5 -136t-192 -53.5q-112 0 -193.5 54.5t-119.5 138.5t-38 184zM216 358q0 -60 17 -110t59 -84.5t102 -34.5q62 0 104 36t58 83.5 t16 101.5q0 102 -45.5 166t-135.5 64q-48 0 -83.5 -21t-54.5 -55t-28 -70.5t-9 -75.5z" />
<glyph unicode="&#x3a0;" horiz-adv-x="739" d="M70 0v706h599v-706h-177v557h-244v-557h-178z" />
<glyph unicode="&#x3a1;" horiz-adv-x="688" d="M67 0v706h350q255 0 255 -241q0 -64 -26 -111.5t-69 -73t-90.5 -37.5t-99.5 -12h-143v-231h-177zM244 362h116q67 0 101.5 23.5t34.5 87.5q0 29 -10 49.5t-22.5 31t-34.5 15.5t-35.5 6t-36.5 1h-113v-214z" />
<glyph unicode="&#x3a3;" horiz-adv-x="651" d="M30 0v133l213 235l-184 204v134h571v-137h-353l177 -200l-206 -230h383v-139h-601z" />
<glyph unicode="&#x3a4;" horiz-adv-x="562" d="M7 567v139h545v-139h-183v-567h-178v567h-184z" />
<glyph unicode="&#x3a5;" horiz-adv-x="708" d="M2 706h202l152 -239l151 239h201l-267 -372v-334h-174v329z" />
<glyph unicode="&#x3a6;" horiz-adv-x="857" d="M30 354q0 121 84 201.5t231 92.5v58h165v-58q152 -12 234.5 -86t82.5 -206q0 -126 -84 -204.5t-233 -90.5v-61h-165v61q-148 12 -231.5 91.5t-83.5 201.5zM200 354q0 -143 145 -164v328q-145 -25 -145 -164zM510 190q75 10 111 54.5t36 111.5q0 139 -147 163v-329z" />
<glyph unicode="&#x3a7;" horiz-adv-x="771" d="M0 0l273 383l-235 323h209l136 -213l138 213h205l-233 -323l276 -383h-203l-181 267l-183 -267h-202z" />
<glyph unicode="&#x3a8;" horiz-adv-x="877" d="M50 427v279h168v-285q0 -66 37.5 -94.5t99.5 -35.5v415h165v-415q139 16 139 130v285h168v-279q0 -63 -19.5 -111.5t-48.5 -77t-72 -47.5t-81.5 -27t-85.5 -12v-152h-165v152q-47 4 -85 12t-81 27t-72 47.5t-48 77t-19 111.5z" />
<glyph unicode="&#x3a9;" horiz-adv-x="767" d="M40 0v129h179q-160 75 -160 272q0 143 91.5 233.5t237.5 90.5q144 0 231 -81t87 -219q0 -101 -41.5 -178.5t-116.5 -117.5h179v-129h-300v131q97 63 97 242q0 98 -36 151.5t-101 53.5q-69 0 -107 -57.5t-38 -162.5q0 -80 20.5 -137.5t77.5 -89.5v-131h-300z" />
<glyph unicode="&#x3aa;" horiz-adv-x="313" d="M-36 780v117h160v-117h-160zM67 0v706h176v-706h-176zM186 780v116h161v-116h-161z" />
<glyph unicode="&#x3ab;" horiz-adv-x="708" d="M2 706h202l152 -239l151 239h201l-267 -372v-334h-174v329zM162 780v117h160v-117h-160zM384 780v116h161v-116h-161z" />
<glyph unicode="&#x3ac;" horiz-adv-x="605" d="M31 255q0 72 21.5 133.5t73.5 104.5t126 43q99 0 144 -69v55h140v-360q0 -27 6.5 -35t23.5 -8h24v-115q-39 -12 -81 -12q-84 0 -104 71q-50 -74 -158 -74q-90 0 -153 68.5t-63 197.5zM183 262q0 -71 31 -115t74 -44q45 0 75 42t30 120q0 75 -29 117t-73 42 q-55 0 -81.5 -49t-26.5 -113zM234 586l73 133h182l-153 -133h-102z" />
<glyph unicode="&#x3ad;" horiz-adv-x="580" d="M40 135q0 53 33.5 92t102.5 50q-62 9 -87.5 43t-25.5 73q0 74 64 109.5t167 35.5q116 0 179.5 -47.5t69.5 -129.5l-131 -14q-11 39 -34.5 57t-80.5 18q-73 0 -73 -53q0 -51 65 -51h81v-95h-86q-81 0 -81 -57q0 -61 99 -61q49 0 75 17t41 61l142 -25q-9 -29 -19.5 -51.5 t-30.5 -46.5t-47 -40t-69.5 -26t-96.5 -10q-132 0 -194.5 37t-62.5 114zM244 586l73 133h182l-153 -133h-102z" />
<glyph unicode="&#x3ae;" horiz-adv-x="584" d="M15 407v115q39 12 81 12q101 0 111 -82q51 83 165 83q162 0 162 -160v-555h-154v502q0 90 -76 90q-49 0 -65 -30t-16 -90v-292h-154v364q0 27 -6.5 35t-23.5 8h-24zM266 586l73 133h182l-153 -133h-102z" />
<glyph unicode="&#x3af;" horiz-adv-x="275" d="M48 130v392h153v-360q0 -27 6.5 -35t23.5 -8h24v-119q-39 -12 -83 -12q-25 0 -43.5 4.5t-38.5 17.5t-31 43.5t-11 76.5zM65 586l73 133h182l-153 -133h-102z" />
<glyph unicode="&#x3b0;" horiz-adv-x="571" d="M50 203v319h155v-317q0 -53 19 -75.5t62 -22.5t62 22.5t19 75.5v317h154v-319q0 -219 -235 -219q-236 0 -236 219zM52 586v116h140v-116h-140zM224 586l22 145h135l-76 -145h-81zM394 586v116h140v-116h-140z" />
<glyph unicode="&#x3b1;" horiz-adv-x="605" d="M31 255q0 72 21.5 133.5t73.5 104.5t126 43q99 0 144 -69v55h140v-360q0 -27 6.5 -35t23.5 -8h24v-115q-39 -12 -81 -12q-84 0 -104 71q-50 -74 -158 -74q-90 0 -153 68.5t-63 197.5zM183 262q0 -71 31 -115t74 -44q45 0 75 42t30 120q0 75 -29 117t-73 42 q-55 0 -81.5 -49t-26.5 -113z" />
<glyph unicode="&#x3b2;" horiz-adv-x="600" d="M55 -181v642q0 133 65.5 194.5t174.5 61.5q96 0 163 -46.5t67 -131.5q0 -60 -29 -98.5t-76 -52.5q150 -31 150 -190q0 -90 -64 -149t-172 -59q-79 0 -123 44v-215h-156zM205 243q0 -60 26.5 -101t80.5 -41q43 0 72.5 31.5t29.5 82.5q0 115 -107 115h-21v94h9 q33 0 61.5 24t28.5 79q0 39 -24 62t-67 23q-46 0 -67.5 -34.5t-21.5 -88.5v-246z" />
<glyph unicode="&#x3b3;" horiz-adv-x="548" d="M15 404v118h69q62 0 95.5 -23.5t47.5 -92.5l55 -265l98 381h167l-185 -522v-181h-158v181l-115 362q-9 27 -19.5 34.5t-32.5 7.5h-22z" />
<glyph unicode="&#x3b4;" horiz-adv-x="617" d="M39 236q0 76 48 137.5t142 75.5q-65 20 -94 54.5t-29 70.5q0 66 59.5 104.5t152.5 38.5q160 0 224 -121l-110 -62q-38 79 -106 79q-31 0 -49.5 -13.5t-18.5 -32.5q0 -7 2 -13.5t7 -12.5t10 -10.5t14.5 -10t16 -9t18.5 -8.5t19 -8t20.5 -8t19.5 -8q207 -81 207 -228 q0 -127 -78 -197t-199 -70t-198.5 71t-77.5 181zM193 241q0 -65 36 -99.5t88 -34.5t86.5 36t34.5 104q0 51 -31.5 90t-88.5 39q-52 0 -88.5 -39t-36.5 -96z" />
<glyph unicode="&#x3b5;" horiz-adv-x="580" d="M40 135q0 53 33.5 92t102.5 50q-62 9 -87.5 43t-25.5 73q0 74 64 109.5t167 35.5q116 0 179.5 -47.5t69.5 -129.5l-131 -14q-11 39 -34.5 57t-80.5 18q-73 0 -73 -53q0 -51 65 -51h81v-95h-86q-81 0 -81 -57q0 -61 99 -61q49 0 75 17t41 61l142 -25q-9 -29 -19.5 -51.5 t-30.5 -46.5t-47 -40t-69.5 -26t-96.5 -10q-132 0 -194.5 37t-62.5 114z" />
<glyph unicode="&#x3b6;" horiz-adv-x="459" d="M28 186q0 105 66 210t179 187h-211v123h402v-114q-281 -182 -281 -374q0 -51 25 -70.5t95 -19.5q81 0 123.5 -26.5t42.5 -100.5q0 -94 -105 -172l-93 71q33 16 48 30t15 34q0 24 -15 30t-63 6q-110 0 -169 39.5t-59 146.5z" />
<glyph unicode="&#x3b7;" horiz-adv-x="584" d="M15 407v115q39 12 81 12q101 0 111 -82q51 83 165 83q162 0 162 -160v-555h-154v502q0 90 -76 90q-49 0 -65 -30t-16 -90v-292h-154v364q0 27 -6.5 35t-23.5 8h-24z" />
<glyph unicode="&#x3b8;" horiz-adv-x="622" d="M45 349q0 39 4 75.5t13.5 80.5t29 80t47.5 67t73 48t101 17q71 0 124 -30t82.5 -81.5t43.5 -112.5t14 -132q0 -377 -271 -377q-60 0 -106 20t-75 53.5t-47 81.5t-25.5 99t-7.5 111zM197 304q0 -207 114 -207t114 207h-228zM199 413h226q-4 195 -112 195q-42 0 -69 -31.5 t-35.5 -72t-9.5 -91.5z" />
<glyph unicode="&#x3b9;" horiz-adv-x="275" d="M48 130v392h153v-360q0 -27 6.5 -35t23.5 -8h24v-119q-39 -12 -83 -12q-25 0 -43.5 4.5t-38.5 17.5t-31 43.5t-11 76.5z" />
<glyph unicode="&#x3ba;" horiz-adv-x="579" d="M55 0v522h150v-185l151 136q30 27 56 38t65 11h71v-118h-17q-32 0 -49.5 -5t-36.5 -23l-60 -54l199 -322h-180l-135 223l-10 -9q-10 -8 -25 -21.5t-29 -26.5v-166h-150z" />
<glyph unicode="&#x3bb;" horiz-adv-x="540" d="M10 0l204 485l-6 18q-11 31 -15.5 42t-13.5 25.5t-19.5 19t-27.5 4.5q-21 0 -61 -10v120q39 13 72 13q80 0 114.5 -30t65.5 -120l138 -402q8 -23 17 -34.5t26 -11.5h31v-119q-39 -12 -81 -12q-48 0 -75 22t-50 101l-54 185l-99 -296h-166z" />
<glyph unicode="&#x3bc;" horiz-adv-x="587" d="M55 -216v737h153v-234q0 -35 1 -55t5 -45.5t12 -39t23.5 -23t37.5 -9.5q48 0 63.5 40.5t15.5 151.5v214h153v-351q0 -30 7 -42.5t24 -12.5q10 0 26 7v-122q-36 -12 -86 -12q-42 0 -67 18t-40 60q-14 -41 -35 -58t-56 -17q-59 0 -87 58q3 -233 3 -265h-153z" />
<glyph unicode="&#x3bd;" horiz-adv-x="513" d="M-1 522h163l98 -374l71 247q11 40 11 61v66h138q8 -35 8 -61q0 -45 -20 -100l-132 -361h-166z" />
<glyph unicode="&#x3be;" horiz-adv-x="509" d="M28 188q0 75 49 123.5t121 65.5q-52 6 -90 38t-38 80q0 39 25 67.5t58 37.5h-88v106h410v-113h-120q-63 0 -101.5 -18t-38.5 -69q0 -79 113 -79h85v-108h-102q-58 0 -91.5 -24.5t-33.5 -72.5q0 -54 31.5 -76t105.5 -22q82 0 124 -25t42 -99q0 -93 -105 -171l-93 71 q33 16 48 30t15 34q0 24 -15 30t-63 6q-53 0 -94.5 8t-78 28t-56 58t-19.5 94z" />
<glyph unicode="&#x3bf;" horiz-adv-x="625" d="M32 264q0 52 16 99t48 87t86.5 64t124.5 24q63 0 113.5 -17t82 -44.5t52.5 -64.5t29.5 -74t8.5 -77q0 -127 -75 -202t-206 -75q-54 0 -101.5 15.5t-89 47t-65.5 87.5t-24 130zM187 263q0 -70 31.5 -113t95.5 -43q60 0 91.5 43t31.5 106q0 160 -131 160q-49 0 -84 -38.5 t-35 -114.5z" />
<glyph unicode="&#x3c0;" horiz-adv-x="637" d="M29 405v117h568v-117h-52v-213q0 -43 10 -55.5t46 -12.5h10v-124q-29 -1 -71 -1q-85 0 -117 33t-32 122v251h-157v-405h-153v405h-52z" />
<glyph unicode="&#x3c1;" horiz-adv-x="592" d="M45 -181v440q0 119 70 199t196 80q118 0 183.5 -78t65.5 -200q0 -115 -59 -194.5t-163 -79.5q-99 0 -137 56v-223h-156zM200 256q0 -61 24.5 -105t77.5 -44q39 0 64 26t33.5 60.5t8.5 76.5q0 59 -24 102.5t-77 43.5t-80 -44t-27 -116z" />
<glyph unicode="&#x3c2;" horiz-adv-x="532" d="M32 271q0 59 16.5 105.5t42.5 76t61 49t70 27.5t72 8q144 0 223 -126l-114 -65q-35 73 -102 73q-54 0 -82.5 -40.5t-28.5 -99.5q0 -35 10.5 -60t34.5 -43.5t47 -30t64 -26.5q32 -12 46 -18.5t34 -21t28 -36.5t8 -54q0 -67 -53 -157h-121q41 66 41 108q0 27 -13.5 38.5 t-48.5 24.5q-33 12 -55.5 21.5t-53 25.5t-50.5 35.5t-38.5 45.5t-28 61.5t-9.5 78.5z" />
<glyph unicode="&#x3c3;" horiz-adv-x="642" d="M32 259q0 115 74 189t206 74h310v-118h-118q47 -23 65.5 -69.5t18.5 -92.5q0 -114 -73 -186t-209 -72q-122 0 -198 75t-76 200zM187 262q0 -71 32 -113t92 -42q55 0 90.5 37t35.5 116q0 74 -37 109t-89 35q-56 0 -90 -37.5t-34 -104.5z" />
<glyph unicode="&#x3c4;" horiz-adv-x="491" d="M15 388v109q39 25 117 25h344v-118h-155v-239q0 -25 10 -34t30 -9l54 1v-119q-40 -8 -97 -8q-71 0 -110 31.5t-39 116.5v260h-66q-46 0 -88 -16z" />
<glyph unicode="&#x3c5;" horiz-adv-x="571" d="M50 203v319h155v-317q0 -53 19 -75.5t62 -22.5t62 22.5t19 75.5v317h154v-319q0 -219 -235 -219q-236 0 -236 219z" />
<glyph unicode="&#x3c6;" horiz-adv-x="793" d="M32 264q0 108 67.5 184t220.5 86v142h153v-142q69 -5 121 -24.5t83 -45.5t50.5 -61.5t26.5 -69.5t7 -72q0 -121 -72 -192t-216 -81v-169h-152v169q-129 9 -209 76t-80 200zM184 263q0 -146 137 -160v317q-59 -4 -98 -42t-39 -115zM472 103q68 7 102.5 48t34.5 106 q0 78 -34.5 116.5t-102.5 45.5v-316z" />
<glyph unicode="&#x3c7;" horiz-adv-x="572" d="M20 -181l196 364l-95 194q-15 30 -37 30h-48v115q39 12 81 12q50 0 78.5 -21.5t51.5 -76.5l53 -127l90 213h172l-180 -337l99 -199q7 -14 11.5 -21.5t13.5 -14t20 -6.5h29v-119q-39 -12 -76 -12q-78 0 -115 85l-67 154l-107 -233h-170z" />
<glyph unicode="&#x3c8;" horiz-adv-x="800" d="M50 230v292h155v-286q0 -121 118 -131v571h153v-571q119 10 119 131v286h155v-292q0 -118 -74.5 -177.5t-199.5 -65.5v-168h-152v168q-125 6 -199.5 65.5t-74.5 177.5z" />
<glyph unicode="&#x3c9;" horiz-adv-x="788" d="M32 251q0 142 65.5 210t187.5 77v-121q-54 -6 -76 -45t-22 -118q0 -32 2.5 -55.5t9.5 -46t21.5 -34t36.5 -11.5q63 0 63 115v108h147v-105q0 -23 2 -40.5t8 -37t19.5 -30t34.5 -10.5q41 0 55 39t14 108q0 80 -21.5 118.5t-75.5 44.5v121q124 -9 188.5 -76.5t64.5 -208.5 q0 -124 -50.5 -196.5t-151.5 -72.5q-122 0 -161 102q-38 -102 -161 -102q-101 0 -150.5 71.5t-49.5 195.5z" />
<glyph unicode="&#x3ca;" horiz-adv-x="275" d="M-70 596v124h157v-124h-157zM48 130v392h153v-360q0 -27 6.5 -35t23.5 -8h24v-119q-39 -12 -83 -12q-25 0 -43.5 4.5t-38.5 17.5t-31 43.5t-11 76.5zM181 596v124h158v-124h-158z" />
<glyph unicode="&#x3cb;" horiz-adv-x="571" d="M50 203v319h155v-317q0 -53 19 -75.5t62 -22.5t62 22.5t19 75.5v317h154v-319q0 -219 -235 -219q-236 0 -236 219zM82 596v124h157v-124h-157zM333 596v124h158v-124h-158z" />
<glyph unicode="&#x3cc;" horiz-adv-x="625" d="M32 264q0 52 16 99t48 87t86.5 64t124.5 24q63 0 113.5 -17t82 -44.5t52.5 -64.5t29.5 -74t8.5 -77q0 -127 -75 -202t-206 -75q-54 0 -101.5 15.5t-89 47t-65.5 87.5t-24 130zM187 263q0 -70 31.5 -113t95.5 -43q60 0 91.5 43t31.5 106q0 160 -131 160q-49 0 -84 -38.5 t-35 -114.5zM246 586l73 133h182l-153 -133h-102z" />
<glyph unicode="&#x3cd;" horiz-adv-x="571" d="M50 203v319h155v-317q0 -53 19 -75.5t62 -22.5t62 22.5t19 75.5v317h154v-319q0 -219 -235 -219q-236 0 -236 219zM223 586l73 133h182l-153 -133h-102z" />
<glyph unicode="&#x3ce;" horiz-adv-x="788" d="M32 251q0 142 65.5 210t187.5 77v-121q-54 -6 -76 -45t-22 -118q0 -32 2.5 -55.5t9.5 -46t21.5 -34t36.5 -11.5q63 0 63 115v108h147v-105q0 -23 2 -40.5t8 -37t19.5 -30t34.5 -10.5q41 0 55 39t14 108q0 80 -21.5 118.5t-75.5 44.5v121q124 -9 188.5 -76.5t64.5 -208.5 q0 -124 -50.5 -196.5t-151.5 -72.5q-122 0 -161 102q-38 -102 -161 -102q-101 0 -150.5 71.5t-49.5 195.5zM336 586l73 133h182l-153 -133h-102z" />
<glyph unicode="&#x401;" horiz-adv-x="646" d="M68 0v706h522v-137h-346v-128h323v-134h-323v-168h377v-139h-553zM131 780v117h160v-117h-160zM353 780v116h161v-116h-161z" />
<glyph unicode="&#x402;" horiz-adv-x="820" d="M8 568v138h560v-138h-198v-156q82 34 186 34q230 0 230 -225q0 -59 -17 -101.5t-41.5 -65t-62 -35.5t-67.5 -16t-69 -3h-53v130h40q92 0 92 89t-104 89q-72 0 -134 -34v-274h-178v568h-184z" />
<glyph unicode="&#x403;" horiz-adv-x="600" d="M68 0v706h516v-138h-338v-568h-178zM265 782l61 115h180l-145 -115h-96z" />
<glyph unicode="&#x404;" horiz-adv-x="706" d="M42 356q0 157 97 264.5t246 107.5q111 0 186.5 -49.5t110.5 -133.5l-140 -70q-12 44 -53 75.5t-102 31.5t-111.5 -42.5t-57.5 -113.5h254v-128h-254q10 -89 59.5 -130t114.5 -41q106 0 154 105l140 -71q-95 -182 -304 -182q-147 0 -243.5 101t-96.5 276z" />
<glyph unicode="&#x405;" horiz-adv-x="688" d="M9 127l134 85q34 -42 90 -65.5t114 -23.5q47 0 88.5 21t41.5 61q0 34 -32.5 49.5t-90.5 22.5l-81 11q-101 14 -163 62.5t-62 136.5q0 106 75.5 171t209.5 65q101 0 174 -36.5t137 -97.5l-130 -93q-85 88 -185 88q-50 0 -77.5 -23.5t-27.5 -51.5t22 -43t68 -22l78 -11 q139 -20 199.5 -66.5t60.5 -136.5q0 -113 -85.5 -179.5t-235.5 -66.5q-115 0 -188.5 36.5t-133.5 106.5z" />
<glyph unicode="&#x406;" horiz-adv-x="313" d="M67 0v706h176v-706h-176z" />
<glyph unicode="&#x407;" horiz-adv-x="370" d="M24 780v116h130v-116h-130zM96 0v706h178v-706h-178zM216 780v116h130v-116h-130z" />
<glyph unicode="&#x408;" horiz-adv-x="396" d="M16 0v143h35q62 0 82.5 12.5t20.5 50.5v500h177v-536q0 -96 -47.5 -133t-149.5 -37h-118z" />
<glyph unicode="&#x409;" horiz-adv-x="1116" d="M8 0v138h20q32 5 50 17.5t32 52t19 112t5 196.5v190h538v-256h177q106 0 169.5 -54.5t63.5 -167.5q0 -30 -5.5 -58.5t-22.5 -60.5t-43.5 -55t-72.5 -38.5t-106 -15.5h-330v568h-202v-60q0 -126 -7.5 -208.5t-25 -143.5t-49.5 -93.5t-77 -47.5t-113 -15h-20zM672 130h101 q131 0 131 96q0 56 -32 75t-82 19h-118v-190z" />
<glyph unicode="&#x40a;" horiz-adv-x="1100" d="M68 0v706h170v-256h248v256h170v-256h177q106 0 169.5 -54.5t63.5 -167.5q0 -30 -5.5 -58.5t-22.5 -60.5t-43.5 -55t-72.5 -38.5t-106 -15.5h-330v302h-248v-302h-170zM656 130h101q131 0 131 96q0 56 -32 75t-82 19h-118v-190z" />
<glyph unicode="&#x40b;" horiz-adv-x="820" d="M8 568v138h560v-138h-198v-146q76 24 153 24q128 0 186.5 -47.5t58.5 -153.5v-245h-178v191q0 69 -26.5 93t-81.5 24q-25 0 -60 -7.5t-52 -16.5v-284h-178v568h-184z" />
<glyph unicode="&#x40c;" horiz-adv-x="700" d="M68 0v706h178v-260h77q59 0 76.5 21.5t27.5 86.5q18 113 55 152h186q-22 -20 -37 -51t-20 -55.5t-10 -62.5q-6 -43 -18 -72.5t-30.5 -44.5t-33.5 -21.5t-38 -11.5q66 -11 99 -42.5t42 -118.5q8 -81 22 -128.5t44 -97.5h-186q-18 35 -26 73.5t-15 108.5q-7 66 -31 96 t-86 30h-98v-308h-178zM305 782l61 115h180l-145 -115h-96z" />
<glyph unicode="&#x40e;" horiz-adv-x="652" d="M6 706h204l138 -316l122 316h186l-227 -509q-24 -63 -53.5 -103t-69 -60t-80.5 -27t-102 -7h-40v148h40q36 0 56.5 3t41.5 18t31 45zM169 880l118 20q0 -54 58 -54t58 54l118 -20q-8 -64 -54 -97t-122 -33q-74 0 -122 31.5t-54 98.5z" />
<glyph unicode="&#x40f;" horiz-adv-x="732" d="M68 0v706h178v-568h240v568h178v-706h-215v-170h-166v170h-215z" />
<glyph unicode="&#x410;" horiz-adv-x="716" d="M-1 0l262 706h184l260 -706h-188l-35 113h-260l-35 -113h-188zM263 240h179l-92 298z" />
<glyph unicode="&#x411;" horiz-adv-x="708" d="M68 0v706h542v-138h-364v-138h195q106 0 169.5 -52t63.5 -160q0 -29 -5.5 -56t-22.5 -57.5t-43.5 -53t-72.5 -37t-106 -14.5h-356zM246 128h119q131 0 131 88q0 27 -10 45.5t-28.5 26.5t-35.5 11t-40 3h-136v-174z" />
<glyph unicode="&#x412;" horiz-adv-x="708" d="M68 0v706h329q131 0 190.5 -50.5t59.5 -134.5q0 -42 -17 -74t-43 -48.5t-48.5 -25t-42.5 -10.5q23 -2 45 -7.5t47 -17.5t43.5 -29.5t30.5 -46t12 -64.5q0 -94 -73.5 -146t-186.5 -52h-346zM236 128h123q28 0 46.5 2t42 9.5t35.5 25.5t12 47q0 24 -8 41.5t-18.5 26 t-27.5 13t-27.5 5.5t-25.5 1h-152v-171zM236 427h133q105 0 105 76q0 71 -93 71h-145v-147z" />
<glyph unicode="&#x413;" horiz-adv-x="600" d="M68 0v706h516v-138h-338v-568h-178z" />
<glyph unicode="&#x414;" horiz-adv-x="840" d="M10 138q79 0 117.5 102.5t38.5 325.5v140h558v-568h90v-288h-166v150h-472v-150h-166v288zM249 138h297v430h-214v-33q0 -308 -83 -397z" />
<glyph unicode="&#x415;" horiz-adv-x="646" d="M68 0v706h522v-137h-346v-128h323v-134h-323v-168h377v-139h-553z" />
<glyph unicode="&#x416;" horiz-adv-x="980" d="M8 0q30 51 44.5 98.5t22.5 127.5q8 87 41 118.5t99 42.5q-23 5 -38 11.5t-33.5 21.5t-30.5 44.5t-18 72.5q-5 38 -10 62.5t-20 55.5t-37 51h180q34 -39 51 -152q10 -68 26.5 -90t74.5 -22h45v264h170v-264h45q58 0 74.5 22t26.5 90q17 113 51 152h180q-54 -47 -68 -169 q-5 -43 -17 -72.5t-30.5 -44.5t-33.5 -21.5t-38 -11.5q66 -11 99 -42.5t42 -118.5q8 -81 22 -128.5t44 -97.5h-180q-18 35 -26 73.5t-15 108.5t-29 101t-81 31h-66v-314h-170v314h-66q-59 0 -81 -31t-29 -101t-15 -108.5t-26 -73.5h-180z" />
<glyph unicode="&#x417;" horiz-adv-x="700" d="M20 127l134 85q73 -90 192 -90q63 0 102.5 24.5t39.5 70.5q0 27 -13.5 44t-39 24t-44 9t-44.5 2h-107v130h110q53 0 87.5 21.5t34.5 58.5q0 81 -122 81q-107 0 -186 -91l-130 93q64 61 139 97.5t184 36.5q153 0 222 -52t69 -138q0 -43 -18 -75.5t-46.5 -50t-52.5 -26 t-45 -10.5q30 -3 58 -12t57 -27.5t47 -53t18 -80.5q0 -102 -92.5 -158t-235.5 -56q-113 0 -185.5 36.5t-132.5 106.5z" />
<glyph unicode="&#x418;" horiz-adv-x="764" d="M68 0v706h178v-402l272 326v76h178v-706h-178v406l-272 -326v-80h-178z" />
<glyph unicode="&#x419;" horiz-adv-x="764" d="M68 0v706h178v-402l272 326v76h178v-706h-178v406l-272 -326v-80h-178zM206 880l118 20q0 -54 58 -54t58 54l118 -20q-8 -64 -54 -97t-122 -33q-74 0 -122 31.5t-54 98.5z" />
<glyph unicode="&#x41a;" horiz-adv-x="700" d="M68 0v706h178v-260h77q59 0 76.5 21.5t27.5 86.5q18 113 55 152h186q-22 -20 -37 -51t-20 -55.5t-10 -62.5q-6 -43 -18 -72.5t-30.5 -44.5t-33.5 -21.5t-38 -11.5q66 -11 99 -42.5t42 -118.5q8 -81 22 -128.5t44 -97.5h-186q-18 35 -26 73.5t-15 108.5q-7 66 -31 96 t-86 30h-98v-308h-178z" />
<glyph unicode="&#x41b;" horiz-adv-x="748" d="M8 0v138h20q32 5 50 17.5t32 52t19 112t5 196.5v190h546v-706h-178v568h-202v-60q0 -126 -7.5 -208.5t-25 -143.5t-49.5 -93.5t-77 -47.5t-113 -15h-20z" />
<glyph unicode="&#x41c;" horiz-adv-x="917" d="M68 0v706h258l133 -494l131 494h258v-706h-170q0 390 4 528l-147 -528h-153l-146 528l4 -528h-172z" />
<glyph unicode="&#x41d;" horiz-adv-x="753" d="M68 0v706h178v-255h258v255h177v-706h-177v301h-258v-301h-178z" />
<glyph unicode="&#x41e;" horiz-adv-x="792" d="M42 356q0 50 11.5 100.5t38.5 100t66 87t99 61t134 23.5q92 0 163.5 -35t112.5 -92.5t61.5 -122t20.5 -130.5q0 -97 -40.5 -179.5t-123.5 -136t-192 -53.5q-112 0 -193.5 54.5t-119.5 138.5t-38 184zM216 358q0 -60 17 -110t59 -84.5t102 -34.5q62 0 104 36t58 83.5 t16 101.5q0 102 -45.5 166t-135.5 64q-48 0 -83.5 -21t-54.5 -55t-28 -70.5t-9 -75.5z" />
<glyph unicode="&#x41f;" horiz-adv-x="736" d="M68 0v706h600v-706h-178v568h-244v-568h-178z" />
<glyph unicode="&#x420;" horiz-adv-x="688" d="M67 0v706h350q255 0 255 -241q0 -64 -26 -111.5t-69 -73t-90.5 -37.5t-99.5 -12h-143v-231h-177zM244 362h116q67 0 101.5 23.5t34.5 87.5q0 29 -10 49.5t-22.5 31t-34.5 15.5t-35.5 6t-36.5 1h-113v-214z" />
<glyph unicode="&#x421;" horiz-adv-x="702" d="M39 354q0 158 97 266t245 108q96 0 178 -51t120 -132l-140 -70q-12 42 -55 75t-95 33q-82 0 -128 -65t-46 -159q0 -111 49.5 -171.5t124.5 -60.5q32 0 58 9.5t45 29t28 32t22 34.5l139 -71q-46 -81 -123 -131.5t-181 -50.5q-145 0 -241.5 100.5t-96.5 274.5z" />
<glyph unicode="&#x422;" horiz-adv-x="562" d="M7 567v139h545v-139h-183v-567h-178v567h-184z" />
<glyph unicode="&#x423;" horiz-adv-x="652" d="M6 706h204l138 -316l122 316h186l-227 -509q-24 -63 -53.5 -103t-69 -60t-80.5 -27t-102 -7h-40v148h40q36 0 56.5 3t41.5 18t31 45z" />
<glyph unicode="&#x424;" horiz-adv-x="880" d="M24 357q0 136 74 201.5t203 65.5h50v96h178v-96h50q128 0 202.5 -65.5t74.5 -201.5q0 -122 -77 -194.5t-200 -72.5h-50v-100h-178v100h-50q-124 0 -200.5 72.5t-76.5 194.5zM196 357q0 -54 29.5 -91.5t89.5 -37.5h40v258h-48q-55 0 -83 -37.5t-28 -91.5zM525 228h40 q60 0 89.5 37.5t29.5 91.5t-28 91.5t-83 37.5h-48v-258z" />
<glyph unicode="&#x425;" horiz-adv-x="771" d="M0 0l273 383l-235 323h209l136 -213l138 213h205l-233 -323l276 -383h-203l-181 267l-183 -267h-202z" />
<glyph unicode="&#x426;" horiz-adv-x="780" d="M68 0v706h178v-568h240v568h178v-568h90v-288h-166v150h-520z" />
<glyph unicode="&#x427;" horiz-adv-x="708" d="M52 441v265h178v-211q0 -69 26.5 -93t81.5 -24q28 0 66.5 7.5t57.5 16.5v304h178v-706h-178v264q-82 -24 -165 -24q-128 0 -186.5 47.5t-58.5 153.5z" />
<glyph unicode="&#x428;" horiz-adv-x="1026" d="M68 0v706h170v-568h190v568h170v-568h190v568h170v-706h-890z" />
<glyph unicode="&#x429;" horiz-adv-x="1074" d="M68 0v706h170v-568h190v568h170v-568h190v568h170v-568h90v-288h-166v150h-814z" />
<glyph unicode="&#x42a;" horiz-adv-x="820" d="M8 574v132h358v-256h187q106 0 169.5 -54.5t63.5 -167.5q0 -30 -5.5 -58.5t-22.5 -60.5t-43.5 -55t-72.5 -38.5t-106 -15.5h-348v574h-180zM366 130h111q131 0 131 96q0 56 -32 75t-82 19h-128v-190z" />
<glyph unicode="&#x42b;" horiz-adv-x="960" d="M68 0v706h170v-256h169q106 0 169.5 -54.5t63.5 -167.5q0 -30 -5.5 -58.5t-22.5 -60.5t-43.5 -55t-72.5 -38.5t-106 -15.5h-322zM238 130h101q131 0 131 96q0 56 -32 75t-82 19h-118v-190zM714 0v706h178v-706h-178z" />
<glyph unicode="&#x42c;" horiz-adv-x="700" d="M68 0v706h178v-256h187q106 0 169.5 -54.5t63.5 -167.5q0 -30 -5.5 -58.5t-22.5 -60.5t-43.5 -55t-72.5 -38.5t-106 -15.5h-348zM246 130h111q131 0 131 96q0 56 -32 75t-82 19h-128v-190z" />
<glyph unicode="&#x42d;" horiz-adv-x="706" d="M20 161l140 71q48 -105 154 -105q155 0 174 171h-254v128h254q-7 75 -55.5 115.5t-109.5 40.5q-113 0 -155 -107l-140 70q35 57 72.5 95t77 56.5t74.5 25t79 6.5q62 0 119.5 -22t106 -65t78 -117t29.5 -168q0 -159 -94 -268t-246 -109q-203 0 -304 182z" />
<glyph unicode="&#x42e;" horiz-adv-x="1080" d="M68 0v706h170v-261h127q13 76 54 141q15 24 35.5 45.5t53 45t80.5 37.5t104 14q156 0 247 -99q46 -50 72.5 -128t26.5 -153q0 -83 -33.5 -163t-93.5 -131q-87 -75 -217 -75q-157 0 -248 99q-76 82 -88 229h-120v-307h-170zM528 358q0 -107 43 -169t124 -62q76 0 121.5 61 t45.5 148q0 46 -8 86.5t-26.5 77.5t-53 58.5t-82.5 21.5q-45 0 -78 -21t-51 -55t-26.5 -70.5t-8.5 -75.5z" />
<glyph unicode="&#x42f;" horiz-adv-x="708" d="M16 0q23 22 39.5 70t25 92t34.5 83.5t69 50.5q-67 13 -97.5 64t-30.5 123q0 96 65 159.5t209 63.5h310v-706h-178v250h-97q-40 0 -65.5 -20t-37 -51.5t-19 -64.5t-17 -66t-24.5 -48h-186zM232 474q0 -94 115 -94h115v196h-121q-109 0 -109 -102z" />
<glyph unicode="&#x430;" horiz-adv-x="583" d="M44 145q0 48 30.5 88.5t79.5 61.5q38 16 206 48v29q0 63 -59 63q-70 0 -81 -61h-154q0 81 63 121.5t157 40.5q30 0 58 -3.5t59.5 -13.5t54.5 -26t38 -43.5t15 -63.5v-305q0 -59 15 -81h-151v47q-2 -2 -19.5 -13.5t-23 -14.5l-22 -12t-28 -12t-30 -6t-37.5 -3 q-83 0 -127 48t-44 111zM195 152q0 -18 15 -35.5t44 -17.5q45 0 75.5 36.5t30.5 91.5v23l-99 -33q-66 -21 -66 -65z" />
<glyph unicode="&#x431;" horiz-adv-x="630" d="M36 266q0 56 4 101.5t15 93t31 83.5t50.5 66.5t76 48.5t104.5 23t86.5 14.5t28.5 31.5h146q-4 -37 -13 -61.5t-29.5 -48.5t-61 -37.5t-102.5 -17.5q-53 -4 -89 -15t-55 -30.5t-28 -39.5t-14 -49q33 32 79.5 47.5t86.5 15.5q46 0 89 -15t78.5 -43.5t57 -75t21.5 -104.5 q0 -46 -14 -90t-44 -86t-88 -68t-136 -26q-133 0 -206.5 71.5t-73.5 210.5zM192 242q0 -51 30.5 -93.5t92.5 -42.5q66 0 96.5 43.5t30.5 99.5q0 54 -29 95.5t-95 41.5q-58 0 -92 -38.5t-34 -105.5z" />
<glyph unicode="&#x432;" horiz-adv-x="600" d="M68 0v522h314q70 0 116 -30.5t46 -100.5q0 -24 -4 -41t-23 -37.5t-53 -33.5q100 -25 100 -133q0 -63 -45 -104.5t-126 -41.5h-325zM214 116h139q67 0 67 51t-61 51h-145v-102zM214 314h138q48 0 48 47q0 20 -12.5 32.5t-32.5 12.5h-141v-92z" />
<glyph unicode="&#x433;" horiz-adv-x="460" d="M68 0v522h382v-122h-228v-400h-154z" />
<glyph unicode="&#x434;" horiz-adv-x="676" d="M16 119q32 10 54.5 33.5t35 53t19.5 74.5t9 84.5t2 96.5v61h446v-404h74v-238h-140v120h-360v-120h-140v239zM204 118h224v286h-146v-39q0 -68 -18.5 -142t-59.5 -105z" />
<glyph unicode="&#x435;" horiz-adv-x="583" d="M32 251q0 53 14 101t43 91t83.5 69t127.5 26q70 0 123 -26.5t82 -71t43 -95.5t14 -109v-7h-373v-6q0 -53 33 -88.5t86 -35.5q50 0 84 27.5t48 65.5l116 -60q-44 -74 -111 -112.5t-149 -38.5q-120 0 -192 72t-72 198zM189 325h214q-2 45 -30 74t-74 29q-49 0 -76 -31.5 t-34 -71.5z" />
<glyph unicode="&#x436;" horiz-adv-x="760" d="M6 0q19 21 29.5 58t15 72.5t13.5 69.5t32.5 57.5t63.5 28.5q-35 5 -54 24t-25 45.5t-10 55t-16.5 59.5t-36.5 52h156q17 -20 25 -55.5t10 -63t17.5 -48.5t47.5 -21h33v188h146v-188h33q32 0 47.5 21t17.5 48.5t10 63t25 55.5h156q-24 -21 -36.5 -52t-16.5 -59.5t-10 -55 t-25 -45.5t-54 -24q40 -5 63.5 -28.5t32.5 -57.5t13.5 -69.5t15 -72.5t29.5 -58h-156q-14 21 -20 62t-8.5 75t-20.5 60.5t-55 26.5h-41v-224h-146v224h-41q-37 0 -55 -26.5t-20.5 -60.5t-8.5 -75t-20 -62h-156z" />
<glyph unicode="&#x437;" horiz-adv-x="556" d="M20 116l116 60q51 -74 140 -74q37 0 63.5 14.5t26.5 44.5q0 53 -74 53h-99v106h76q81 0 81 50q0 54 -76 54q-81 0 -124 -67l-114 65q38 58 104 87t138 29q95 0 158.5 -34.5t63.5 -112.5q0 -79 -80 -112q100 -26 100 -133q0 -70 -65.5 -116t-182.5 -46q-79 0 -139.5 31 t-112.5 101z" />
<glyph unicode="&#x438;" horiz-adv-x="628" d="M68 0v522h154v-268l184 198v70h154v-522h-154v292l-184 -198v-94h-154z" />
<glyph unicode="&#x439;" horiz-adv-x="628" d="M68 0v522h154v-268l184 198v70h154v-522h-154v292l-184 -198v-94h-154zM158 700l102 20q0 -61 54 -61q22 0 38 14t16 47l102 -20q-16 -129 -156 -129q-65 0 -107.5 31t-48.5 98z" />
<glyph unicode="&#x43a;" horiz-adv-x="580" d="M68 0v522h154v-184h60q38 0 56.5 20.5t21.5 47.5t12.5 61.5t29.5 54.5h160q-24 -21 -36.5 -52t-16.5 -59.5t-10 -55t-25 -45.5t-54 -24q40 -5 63.5 -28.5t32.5 -57.5t13.5 -69.5t15 -72.5t29.5 -58h-160q-17 20 -24 61t-10 74t-24.5 59t-65.5 26h-68v-220h-154z" />
<glyph unicode="&#x43b;" horiz-adv-x="600" d="M-2 0v122h16q20 0 34 9t21.5 22t11 35t4.5 38.5t1 42.5v253h446v-522h-154v404h-146v-142q0 -72 -7.5 -115.5t-29.5 -79.5t-66 -51.5t-115 -15.5h-16z" />
<glyph unicode="&#x43c;" horiz-adv-x="794" d="M68 0v522h246l83 -332l85 332h244v-522h-148q2 249 7 453l-119 -453h-140l-120 451l10 -451h-148z" />
<glyph unicode="&#xxx43d;" horiz-adv-x="608" d="M68 0v522h154v-188h164v188h154v-522h-154v212h-164v-212h-154z" />
<glyph unicode="&#x43e;" horiz-adv-x="625" d="M32 264q0 52 16 99t48 87t86.5 64t124.5 24q63 0 113.5 -17t82 -44.5t52.5 -64.5t29.5 -74t8.5 -77q0 -127 -75 -202t-206 -75q-54 0 -101.5 15.5t-89 47t-65.5 87.5t-24 130zM187 263q0 -70 31.5 -113t95.5 -43q60 0 91.5 43t31.5 106q0 160 -131 160q-49 0 -84 -38.5 t-35 -114.5z" />
<glyph unicode="&#x43f;" d="M68 0v522h468v-522h-154v404h-160v-404h-154z" />
<glyph unicode="&#x440;" horiz-adv-x="608" d="M68 -180v702h136v-51q8 12 22 24.5t48 25.5t76 13q107 0 166.5 -78.5t59.5 -193.5q0 -126 -61 -199t-165 -73q-38 0 -63.5 10t-64.5 34v-214h-154zM216 254q0 -68 27 -110.5t78 -42.5q55 0 81 50t26 123q0 19 -4 41t-13.5 49t-32 44t-53.5 17q-46 0 -77.5 -43t-31.5 -128 z" />
<glyph unicode="&#x441;" horiz-adv-x="539" d="M33 257q0 75 24 131.5t63.5 87.5t83.5 46t91 15q144 0 223 -126l-114 -65q-35 73 -102 73q-38 0 -64.5 -27t-36.5 -61t-10 -69q0 -59 29 -108t87 -49q41 0 66 23.5t35 54.5l116 -60q-41 -72 -103.5 -106t-128.5 -34q-48 0 -92.5 16t-82.5 47t-61 86t-23 125z" />
<glyph unicode="&#x442;" horiz-adv-x="502" d="M10 400v122h482v-122h-164v-400h-154v400h-164z" />
<glyph unicode="&#x443;" horiz-adv-x="500" d="M0 522h164l86 -374l86 374h164l-184 -564q-22 -66 -51 -98q-23 -24 -47 -32t-62 -8h-111v123h66q52 0 52 38q0 16 -11 50z" />
<glyph unicode="&#x444;" horiz-adv-x="780" d="M32 260q0 118 69 190t212 72v184h154v-184q46 0 83.5 -6t75.5 -23t64 -45t42 -76t16 -112q0 -138 -76 -199t-205 -61v-180h-154v180q-130 0 -205.5 64t-75.5 196zM182 263q0 -78 34.5 -111.5t99.5 -33.5v286q-134 0 -134 -141zM464 118q134 0 134 145q0 78 -32 109.5 t-102 31.5v-286z" />
<glyph unicode="&#x445;" horiz-adv-x="521" d="M0 0l177 283l-158 239h174l69 -133l74 133h165l-158 -244l177 -278h-164l-99 162l-87 -162h-170z" />
<glyph unicode="&#x446;" horiz-adv-x="630" d="M68 0v522h154v-404h160v404h154v-404h74v-238h-140v120h-402z" />
<glyph unicode="&#x447;" horiz-adv-x="582" d="M44 328v194h154v-158q0 -44 17 -57t56 -13q46 0 89 16v212h154v-522h-154v196q-62 -20 -137 -20q-88 0 -133.5 34t-45.5 118z" />
<glyph unicode="&#x448;" horiz-adv-x="874" d="M68 0v522h146v-404h150v404h146v-404h150v404h146v-522h-738z" />
<glyph unicode="&#x449;" horiz-adv-x="900" d="M68 0v522h146v-404h150v404h146v-404h150v404h146v-404h74v-238h-140v120h-672z" />
<glyph unicode="&#x44a;" horiz-adv-x="620" d="M10 400v122h272v-170h136q83 0 129.5 -43.5t46.5 -131.5q0 -91 -50.5 -134t-157.5 -43h-258v400h-118zM282 118h100q28 0 45 15t17 44q0 31 -17 44t-36 13h-109v-116z" />
<glyph unicode="&#x44b;" horiz-adv-x="780" d="M68 0v522h146v-170h120q83 0 129.5 -43.5t46.5 -131.5q0 -91 -50.5 -134t-157.5 -43h-234zM214 118h90q28 0 45 15t17 44q0 31 -17 44t-36 13h-99v-116zM566 0v522h146v-522h-146z" />
<glyph unicode="&#x44c;" horiz-adv-x="560" d="M68 0v522h154v-170h136q83 0 129.5 -43.5t46.5 -131.5q0 -91 -50.5 -134t-157.5 -43h-258zM222 118h100q28 0 45 15t17 44q0 31 -17 44t-36 13h-109v-116z" />
<glyph unicode="&#x44d;" horiz-adv-x="552" d="M20 116l116 60q42 -74 111 -74q52 0 83.5 35.5t35.5 76.5h-184v106h184q-9 47 -39.5 75.5t-76.5 28.5q-71 0 -111 -67l-114 65q36 58 98 87t130 29q129 0 198 -78t69 -200q0 -121 -69.5 -198.5t-195.5 -77.5q-170 0 -235 132z" />
<glyph unicode="&#x44e;" horiz-adv-x="880" d="M68 0v522h146v-190h92q17 97 83.5 155.5t177.5 58.5q138 0 209.5 -80t71.5 -208q0 -123 -73 -198.5t-203 -75.5q-107 0 -182 56t-86 174h-90v-214h-146zM452 260q0 -69 30 -111.5t92 -42.5q58 0 88 42.5t30 104.5q0 163 -123 163q-52 0 -84.5 -42t-32.5 -114z" />
<glyph unicode="&#x44f;" horiz-adv-x="592" d="M26 0q22 14 34 49.5t16.5 68.5t26.5 62.5t62 35.5q-43 7 -70 44t-27 89q0 18 2.5 36.5t13.5 44.5t29.5 45t53.5 33t82 14h275v-522h-154v178h-58q-39 0 -60 -20.5t-26 -47t-13 -60t-21 -50.5h-166zM218 348q0 -31 18 -42.5t52 -11.5h82v112h-84q-32 0 -50 -12t-18 -46z " />
<glyph unicode="&#x451;" horiz-adv-x="583" d="M32 251q0 53 14 101t43 91t83.5 69t127.5 26q70 0 123 -26.5t82 -71t43 -95.5t14 -109v-7h-373v-6q0 -53 33 -88.5t86 -35.5q50 0 84 27.5t48 65.5l116 -60q-44 -74 -111 -112.5t-149 -38.5q-120 0 -192 72t-72 198zM98 586v120h154v-120h-154zM189 325h214q-2 45 -30 74 t-74 29q-49 0 -76 -31.5t-34 -71.5zM347 586v120h154v-120h-154z" />
<glyph unicode="&#x452;" horiz-adv-x="620" d="M2 534v104h80v68h154v-68h200v-104h-200v-148q63 70 149 70q81 0 124 -47.5t43 -131.5v-273q0 -103 -34 -142.5t-119 -39.5q-45 0 -70 2v122l19 -1q14 0 24 4t15 9t7.5 16t3 19.5t0.5 25.5v183q0 26 -2 43t-9 38t-24 31.5t-44 10.5q-46 0 -64.5 -32.5t-18.5 -97.5v-195 h-154v534h-80z" />
<glyph unicode="&#x453;" horiz-adv-x="460" d="M68 0v522h382v-122h-228v-400h-154zM188 586l73 133h182l-153 -133h-102z" />
<glyph unicode="&#x454;" horiz-adv-x="548" d="M32 260q0 122 69 200t198 78q155 0 228 -116l-114 -65q-40 67 -111 67q-46 0 -76.5 -28.5t-39.5 -75.5h184v-106h-184q4 -41 35.5 -76.5t83.5 -35.5q69 0 111 74l116 -60q-65 -132 -235 -132q-126 0 -195.5 77.5t-69.5 198.5z" />
<glyph unicode="&#x455;" horiz-adv-x="521" d="M-2 88l97 88q30 -32 71 -52t81 -20t66.5 13.5t26.5 37.5q0 20 -18.5 29.5t-64.5 16.5l-47 8q-175 30 -175 155q0 72 58.5 123.5t162.5 51.5q130 0 232 -78l-95 -88q-63 52 -133 52q-29 0 -50.5 -10t-21.5 -30q0 -18 18 -26.5t67 -18.5l37 -7q188 -35 188 -164 q0 -61 -40 -104t-94 -60.5t-113 -17.5q-87 0 -151.5 31t-101.5 70z" />
<glyph unicode="&#x456;" horiz-adv-x="292" d="M69 0v522h153v-522h-153zM69 587v119h153v-119h-153z" />
<glyph unicode="&#x457;" horiz-adv-x="364" d="M30 586v120h120v-120h-120zM105 0v522h152v-522h-152zM214 586v120h120v-120h-120z" />
<glyph unicode="&#x458;" horiz-adv-x="292" d="M0 -54q1 0 8.5 -0.5t10.5 -0.5q14 0 24 4t15 9t7.5 16t3 19.5t0.5 25.5v503h152v-518q0 -103 -33.5 -142.5t-117.5 -39.5q-45 0 -70 2v122zM69 588v118h152v-118h-152z" />
<glyph unicode="&#x459;" horiz-adv-x="846" d="M-2 0v122h16q20 0 34 9t21.5 22t11 35t4.5 38.5t1 42.5v253h432v-170h126q83 0 129.5 -43.5t46.5 -131.5q0 -91 -50.5 -134t-157.5 -43h-240v404h-146v-142q0 -72 -7 -115.5t-28.5 -79.5t-64.5 -51.5t-112 -15.5h-16zM518 118h90q28 0 45 15t17 44q0 31 -17 44t-36 13 h-99v-116z" />
<glyph unicode="&#x45a;" horiz-adv-x="846" d="M68 0v522h146v-188h158v188h146v-188h126q83 0 129.5 -41t46.5 -124q0 -87 -50.5 -128t-157.5 -41h-240v212h-158v-212h-146zM518 118h90q28 0 45 14t17 41t-17 39t-36 12h-99v-106z" />
<glyph unicode="&#x45b;" horiz-adv-x="620" d="M2 534v104h80v68h154v-68h200v-104h-200v-148q63 70 149 70q81 0 124 -47.5t43 -131.5v-277h-154v202q0 26 -2 43t-9 38t-24 31.5t-44 10.5q-46 0 -64.5 -32.5t-18.5 -97.5v-195h-154v534h-80z" />
<glyph unicode="&#x45c;" horiz-adv-x="580" d="M68 0v522h154v-184h60q38 0 56.5 20.5t21.5 47.5t12.5 61.5t29.5 54.5h160q-24 -21 -36.5 -52t-16.5 -59.5t-10 -55t-25 -45.5t-54 -24q40 -5 63.5 -28.5t32.5 -57.5t13.5 -69.5t15 -72.5t29.5 -58h-160q-17 20 -24 61t-10 74t-24.5 59t-65.5 26h-68v-220h-154zM238 586 l73 133h182l-153 -133h-102z" />
<glyph unicode="&#x45e;" horiz-adv-x="500" d="M0 522h164l86 -374l86 374h164l-184 -564q-22 -66 -51 -98q-23 -24 -47 -32t-62 -8h-111v123h66q52 0 52 38q0 16 -11 50zM93 700l102 20q0 -61 54 -61q22 0 38 14t16 47l102 -20q-17 -129 -156 -129q-65 0 -107.5 31t-48.5 98z" />
<glyph unicode="&#x45f;" d="M68 0v522h154v-404h160v404h154v-522h-164v-140h-140v140h-164z" />
<glyph unicode="&#x490;" horiz-adv-x="600" d="M68 0v706h360v150h156v-288h-338v-568h-178z" />
<glyph unicode="&#x491;" horiz-adv-x="460" d="M68 0v522h250v120h132v-242h-228v-400h-154z" />
<glyph unicode="&#x2013;" horiz-adv-x="626" d="M38 237v143h550v-143h-550z" />
<glyph unicode="&#x2014;" horiz-adv-x="918" d="M38 237v143h842v-143h-842z" />
<glyph unicode="&#x2018;" horiz-adv-x="250" d="M46 372v156q0 73 43 123t116 61v-69q-34 -14 -46 -37.5t-16 -65.5h62v-168h-159z" />
<glyph unicode="&#x2019;" horiz-adv-x="250" d="M45 368v71q38 11 50.5 35.5t13.5 67.5h-64v164h159v-144q0 -74 -38 -129.5t-121 -64.5z" />
<glyph unicode="&#x201a;" horiz-adv-x="250" d="M45 0v168h160v-137q0 -88 -36.5 -134.5t-122.5 -69.5v71q33 12 44.5 36t15.5 66h-61z" />
<glyph unicode="&#x201c;" horiz-adv-x="479" d="M46 371v148q0 80 40 131.5t118 62.5v-71q-37 -11 -49.5 -35.5t-13.5 -68.5h63v-167h-158zM276 371v148q0 80 40 131.5t118 62.5v-71q-37 -11 -49.5 -35.5t-13.5 -68.5h63v-167h-158z" />
<glyph unicode="&#x201d;" horiz-adv-x="479" d="M46 365v71q38 12 50 36t13 67h-63v167h158v-150q0 -75 -41 -129t-117 -62zM276 365v71q38 12 50 36t13 67h-63v167h158v-148q0 -73 -39 -128.5t-119 -64.5z" />
<glyph unicode="&#x201e;" horiz-adv-x="479" d="M46 0v167h158v-148q0 -80 -40 -130.5t-118 -63.5v71q37 13 49.5 37t13.5 67h-63zM276 0v167h158v-148q0 -79 -40.5 -131t-117.5 -63v71q38 12 50 36t13 68h-63z" />
<glyph unicode="&#x2022;" horiz-adv-x="333" d="M42 226v248h249v-248h-249z" />
<glyph unicode="&#x2026;" horiz-adv-x="1000" d="M102 0v126h128v-126h-128zM436 0v126h128v-126h-128zM770 0v126h127v-126h-127z" />
<glyph unicode="&#x2039;" horiz-adv-x="229" d="M32 230v125l158 134v-138l-67 -57l68 -57v-137z" />
<glyph unicode="&#x203a;" horiz-adv-x="229" d="M36 96v138l64 58l-64 57v136l159 -131v-123z" />
<glyph unicode="&#x20ac;" horiz-adv-x="709" d="M34 246l27 73h38q-1 5 -1 16q0 7 2 23h-66l27 73h49q28 130 119 199.5t226 69.5q69 0 118 -16.5t102 -58.5l-60 -143q-66 76 -158 76q-128 0 -169 -127h310l-26 -73h-297q0 -26 1 -39h284l-27 -73h-246q41 -130 189 -130q47 0 94 23.5t75 60.5v-177q-82 -43 -199 -43 q-278 0 -337 266h-75z" />
<glyph unicode="&#x2122;" horiz-adv-x="736" d="M11 638v68h271v-68h-91v-264h-86v264h-94zM319 374l1 332h126l54 -212l53 212h125q0 -307 1 -332h-81l1 253l-65 -253h-69l-68 257q4 -240 4 -257h-82z" />
<glyph unicode="&#xe000;" horiz-adv-x="520" d="M0 0v520h520v-520h-520z" />
hkern u1="&#x3a3;" u2="&#x3be;" k="20" />
</font>
</defs>
</svg>
